%TF.GenerationSoftware,KiCad,Pcbnew,9.0.0*%
%TF.CreationDate,2025-03-16T21:38:05-04:00*%
%TF.ProjectId,STM32_Dev_Board,53544d33-325f-4446-9576-5f426f617264,rev?*%
%TF.SameCoordinates,Original*%
%TF.FileFunction,Paste,Top*%
%TF.FilePolarity,Positive*%
%FSLAX46Y46*%
G04 Gerber Fmt 4.6, Leading zero omitted, Abs format (unit mm)*
G04 Created by KiCad (PCBNEW 9.0.0) date 2025-03-16 21:38:05*
%MOMM*%
%LPD*%
G01*
G04 APERTURE LIST*
G04 Aperture macros list*
%AMRoundRect*
0 Rectangle with rounded corners*
0 $1 Rounding radius*
0 $2 $3 $4 $5 $6 $7 $8 $9 X,Y pos of 4 corners*
0 Add a 4 corners polygon primitive as box body*
4,1,4,$2,$3,$4,$5,$6,$7,$8,$9,$2,$3,0*
0 Add four circle primitives for the rounded corners*
1,1,$1+$1,$2,$3*
1,1,$1+$1,$4,$5*
1,1,$1+$1,$6,$7*
1,1,$1+$1,$8,$9*
0 Add four rect primitives between the rounded corners*
20,1,$1+$1,$2,$3,$4,$5,0*
20,1,$1+$1,$4,$5,$6,$7,0*
20,1,$1+$1,$6,$7,$8,$9,0*
20,1,$1+$1,$8,$9,$2,$3,0*%
G04 Aperture macros list end*
%ADD10RoundRect,0.200000X-0.275000X0.200000X-0.275000X-0.200000X0.275000X-0.200000X0.275000X0.200000X0*%
%ADD11RoundRect,0.225000X0.225000X0.250000X-0.225000X0.250000X-0.225000X-0.250000X0.225000X-0.250000X0*%
%ADD12RoundRect,0.225000X-0.250000X0.225000X-0.250000X-0.225000X0.250000X-0.225000X0.250000X0.225000X0*%
%ADD13RoundRect,0.135000X0.135000X0.185000X-0.135000X0.185000X-0.135000X-0.185000X0.135000X-0.185000X0*%
%ADD14RoundRect,0.075000X-0.700000X-0.075000X0.700000X-0.075000X0.700000X0.075000X-0.700000X0.075000X0*%
%ADD15RoundRect,0.075000X-0.075000X-0.700000X0.075000X-0.700000X0.075000X0.700000X-0.075000X0.700000X0*%
%ADD16RoundRect,0.218750X0.256250X-0.218750X0.256250X0.218750X-0.256250X0.218750X-0.256250X-0.218750X0*%
%ADD17RoundRect,0.250000X-0.625000X0.375000X-0.625000X-0.375000X0.625000X-0.375000X0.625000X0.375000X0*%
%ADD18RoundRect,0.225000X0.375000X-0.225000X0.375000X0.225000X-0.375000X0.225000X-0.375000X-0.225000X0*%
%ADD19RoundRect,0.200000X0.275000X-0.200000X0.275000X0.200000X-0.275000X0.200000X-0.275000X-0.200000X0*%
%ADD20RoundRect,0.087500X0.087500X-0.250000X0.087500X0.250000X-0.087500X0.250000X-0.087500X-0.250000X0*%
%ADD21R,1.550000X1.300000*%
%ADD22RoundRect,0.375000X-0.625000X-0.375000X0.625000X-0.375000X0.625000X0.375000X-0.625000X0.375000X0*%
%ADD23RoundRect,0.500000X-0.500000X-1.400000X0.500000X-1.400000X0.500000X1.400000X-0.500000X1.400000X0*%
%ADD24RoundRect,0.200000X0.200000X0.275000X-0.200000X0.275000X-0.200000X-0.275000X0.200000X-0.275000X0*%
%ADD25RoundRect,0.218750X-0.256250X0.218750X-0.256250X-0.218750X0.256250X-0.218750X0.256250X0.218750X0*%
%ADD26RoundRect,0.150000X0.512500X0.150000X-0.512500X0.150000X-0.512500X-0.150000X0.512500X-0.150000X0*%
%ADD27RoundRect,0.147500X0.172500X-0.147500X0.172500X0.147500X-0.172500X0.147500X-0.172500X-0.147500X0*%
%ADD28R,1.500000X0.450000*%
%ADD29RoundRect,0.250000X-0.650000X0.325000X-0.650000X-0.325000X0.650000X-0.325000X0.650000X0.325000X0*%
%ADD30RoundRect,0.218750X-0.381250X0.218750X-0.381250X-0.218750X0.381250X-0.218750X0.381250X0.218750X0*%
%ADD31R,2.400000X0.740000*%
%ADD32RoundRect,0.250000X0.650000X-0.325000X0.650000X0.325000X-0.650000X0.325000X-0.650000X-0.325000X0*%
%ADD33RoundRect,0.225000X0.250000X-0.225000X0.250000X0.225000X-0.250000X0.225000X-0.250000X-0.225000X0*%
%ADD34R,0.800000X1.000000*%
%ADD35R,1.500000X0.700000*%
%ADD36R,1.200000X1.400000*%
%ADD37RoundRect,0.225000X-0.225000X-0.250000X0.225000X-0.250000X0.225000X0.250000X-0.225000X0.250000X0*%
G04 APERTURE END LIST*
D10*
%TO.C,R5*%
X121500000Y-128187500D03*
X121500000Y-129837500D03*
%TD*%
D11*
%TO.C,C7*%
X128575000Y-108200000D03*
X127025000Y-108200000D03*
%TD*%
D12*
%TO.C,C11*%
X120000000Y-120225000D03*
X120000000Y-121775000D03*
%TD*%
D10*
%TO.C,R2*%
X134400000Y-102175000D03*
X134400000Y-103825000D03*
%TD*%
D13*
%TO.C,R4*%
X127510000Y-115500000D03*
X126490000Y-115500000D03*
%TD*%
D14*
%TO.C,U5*%
X129275000Y-112250000D03*
X129275000Y-112750000D03*
X129275000Y-113250000D03*
X129275000Y-113750000D03*
X129275000Y-114250000D03*
X129275000Y-114750000D03*
X129275000Y-115250000D03*
X129275000Y-115750000D03*
X129275000Y-116250000D03*
X129275000Y-116750000D03*
X129275000Y-117250000D03*
X129275000Y-117750000D03*
X129275000Y-118250000D03*
X129275000Y-118750000D03*
X129275000Y-119250000D03*
X129275000Y-119750000D03*
D15*
X131200000Y-121675000D03*
X131700000Y-121675000D03*
X132200000Y-121675000D03*
X132700000Y-121675000D03*
X133200000Y-121675000D03*
X133700000Y-121675000D03*
X134200000Y-121675000D03*
X134700000Y-121675000D03*
X135200000Y-121675000D03*
X135700000Y-121675000D03*
X136200000Y-121675000D03*
X136700000Y-121675000D03*
X137200000Y-121675000D03*
X137700000Y-121675000D03*
X138200000Y-121675000D03*
X138700000Y-121675000D03*
D14*
X140625000Y-119750000D03*
X140625000Y-119250000D03*
X140625000Y-118750000D03*
X140625000Y-118250000D03*
X140625000Y-117750000D03*
X140625000Y-117250000D03*
X140625000Y-116750000D03*
X140625000Y-116250000D03*
X140625000Y-115750000D03*
X140625000Y-115250000D03*
X140625000Y-114750000D03*
X140625000Y-114250000D03*
X140625000Y-113750000D03*
X140625000Y-113250000D03*
X140625000Y-112750000D03*
X140625000Y-112250000D03*
D15*
X138700000Y-110325000D03*
X138200000Y-110325000D03*
X137700000Y-110325000D03*
X137200000Y-110325000D03*
X136700000Y-110325000D03*
X136200000Y-110325000D03*
X135700000Y-110325000D03*
X135200000Y-110325000D03*
X134700000Y-110325000D03*
X134200000Y-110325000D03*
X133700000Y-110325000D03*
X133200000Y-110325000D03*
X132700000Y-110325000D03*
X132200000Y-110325000D03*
X131700000Y-110325000D03*
X131200000Y-110325000D03*
%TD*%
D16*
%TO.C,D1*%
X121500000Y-126500000D03*
X121500000Y-124925000D03*
%TD*%
D13*
%TO.C,R3*%
X127310000Y-102000000D03*
X126290000Y-102000000D03*
%TD*%
D10*
%TO.C,R16*%
X142700000Y-133800000D03*
X142700000Y-135450000D03*
%TD*%
D17*
%TO.C,F1*%
X150250000Y-128000000D03*
X150250000Y-130800000D03*
%TD*%
D18*
%TO.C,D2*%
X150200000Y-125850000D03*
X150200000Y-122550000D03*
%TD*%
D19*
%TO.C,R11*%
X130400000Y-93725000D03*
X130400000Y-92075000D03*
%TD*%
D20*
%TO.C,U2*%
X137100000Y-103912500D03*
X137600000Y-103912500D03*
X138100000Y-103912500D03*
X138100000Y-102487500D03*
X137600000Y-102487500D03*
X137100000Y-102487500D03*
%TD*%
D21*
%TO.C,SW2*%
X160175000Y-105320000D03*
X152225000Y-105320000D03*
X160175000Y-100820000D03*
X152225000Y-100820000D03*
%TD*%
D19*
%TO.C,R12*%
X134400000Y-93825000D03*
X134400000Y-92175000D03*
%TD*%
D12*
%TO.C,C14*%
X166000000Y-102695000D03*
X166000000Y-104245000D03*
%TD*%
D10*
%TO.C,R13*%
X127300000Y-128175000D03*
X127300000Y-129825000D03*
%TD*%
%TO.C,R15*%
X139800000Y-133800000D03*
X139800000Y-135450000D03*
%TD*%
D12*
%TO.C,C17*%
X137700000Y-123825000D03*
X137700000Y-125375000D03*
%TD*%
D22*
%TO.C,U3*%
X157800000Y-129100000D03*
X157800000Y-131400000D03*
D23*
X164100000Y-131400000D03*
D22*
X157800000Y-133700000D03*
%TD*%
D24*
%TO.C,R6*%
X150425000Y-96670000D03*
X148775000Y-96670000D03*
%TD*%
%TO.C,R7*%
X150400000Y-94170000D03*
X148750000Y-94170000D03*
%TD*%
D25*
%TO.C,D4*%
X163000000Y-124212500D03*
X163000000Y-125787500D03*
%TD*%
D12*
%TO.C,C10*%
X123100000Y-120225000D03*
X123100000Y-121775000D03*
%TD*%
D26*
%TO.C,U4*%
X154337500Y-114950000D03*
X154337500Y-114000000D03*
X154337500Y-113050000D03*
X152062500Y-113050000D03*
X152062500Y-114000000D03*
X152062500Y-114950000D03*
%TD*%
D27*
%TO.C,L1*%
X125600000Y-121185000D03*
X125600000Y-120215000D03*
%TD*%
D24*
%TO.C,R8*%
X150400000Y-91570000D03*
X148750000Y-91570000D03*
%TD*%
D28*
%TO.C,J2*%
X164500000Y-114550000D03*
X164500000Y-113900000D03*
X164500000Y-113250000D03*
X164500000Y-112600000D03*
X164500000Y-111950000D03*
%TD*%
D12*
%TO.C,C12*%
X140200000Y-100625000D03*
X140200000Y-102175000D03*
%TD*%
D29*
%TO.C,C15*%
X157600000Y-136725000D03*
X157600000Y-139675000D03*
%TD*%
D30*
%TO.C,FB1*%
X150400000Y-132737500D03*
X150400000Y-134862500D03*
%TD*%
D31*
%TO.C,J1*%
X158150000Y-96210000D03*
X154250000Y-96210000D03*
X158150000Y-94940000D03*
X154250000Y-94940000D03*
X158150000Y-93670000D03*
X154250000Y-93670000D03*
X158150000Y-92400000D03*
X154250000Y-92400000D03*
X158150000Y-91130000D03*
X154250000Y-91130000D03*
%TD*%
D11*
%TO.C,C8*%
X128575000Y-110100000D03*
X127025000Y-110100000D03*
%TD*%
D32*
%TO.C,C16*%
X158800000Y-124475000D03*
X158800000Y-121525000D03*
%TD*%
D19*
%TO.C,R14*%
X163000000Y-122225000D03*
X163000000Y-120575000D03*
%TD*%
D12*
%TO.C,C5*%
X140300000Y-123825000D03*
X140300000Y-125375000D03*
%TD*%
%TO.C,C9*%
X119300000Y-111425000D03*
X119300000Y-112975000D03*
%TD*%
D16*
%TO.C,D3*%
X124400000Y-126487500D03*
X124400000Y-124912500D03*
%TD*%
D11*
%TO.C,C1*%
X127575000Y-105200000D03*
X126025000Y-105200000D03*
%TD*%
D24*
%TO.C,R9*%
X150250000Y-89200000D03*
X148600000Y-89200000D03*
%TD*%
D16*
%TO.C,D5*%
X127300000Y-126387500D03*
X127300000Y-124812500D03*
%TD*%
D33*
%TO.C,C13*%
X119300000Y-116700000D03*
X119300000Y-115150000D03*
%TD*%
D34*
%TO.C,SW1*%
X119280000Y-94350000D03*
X117070000Y-94350000D03*
X119280000Y-101650000D03*
X117070000Y-101650000D03*
D35*
X119930000Y-95750000D03*
X119930000Y-98750000D03*
X119930000Y-100250000D03*
%TD*%
D19*
%TO.C,R1*%
X134400000Y-98825000D03*
X134400000Y-97175000D03*
%TD*%
D36*
%TO.C,Y1*%
X122850000Y-112900000D03*
X122850000Y-115100000D03*
X124550000Y-115100000D03*
X124550000Y-112900000D03*
%TD*%
D12*
%TO.C,C3*%
X132200000Y-123825000D03*
X132200000Y-125375000D03*
%TD*%
D10*
%TO.C,R10*%
X124400000Y-128175000D03*
X124400000Y-129825000D03*
%TD*%
D37*
%TO.C,C6*%
X143375000Y-108750000D03*
X144925000Y-108750000D03*
%TD*%
M02*
