%TF.GenerationSoftware,KiCad,Pcbnew,9.0.0*%
%TF.CreationDate,2025-03-16T21:38:05-04:00*%
%TF.ProjectId,STM32_Dev_Board,53544d33-325f-4446-9576-5f426f617264,rev?*%
%TF.SameCoordinates,Original*%
%TF.FileFunction,Legend,Bot*%
%TF.FilePolarity,Positive*%
%FSLAX46Y46*%
G04 Gerber Fmt 4.6, Leading zero omitted, Abs format (unit mm)*
G04 Created by KiCad (PCBNEW 9.0.0) date 2025-03-16 21:38:05*
%MOMM*%
%LPD*%
G01*
G04 APERTURE LIST*
%ADD10C,0.200000*%
G04 APERTURE END LIST*
D10*
X152725564Y-83056028D02*
X152225564Y-84556028D01*
X152225564Y-84556028D02*
X151725564Y-83056028D01*
X150439850Y-84556028D02*
X151296993Y-84556028D01*
X150868422Y-84556028D02*
X150868422Y-83056028D01*
X150868422Y-83056028D02*
X151011279Y-83270314D01*
X151011279Y-83270314D02*
X151154136Y-83413171D01*
X151154136Y-83413171D02*
X151296993Y-83484600D01*
X149796994Y-84413171D02*
X149725565Y-84484600D01*
X149725565Y-84484600D02*
X149796994Y-84556028D01*
X149796994Y-84556028D02*
X149868422Y-84484600D01*
X149868422Y-84484600D02*
X149796994Y-84413171D01*
X149796994Y-84413171D02*
X149796994Y-84556028D01*
X148796993Y-83056028D02*
X148654136Y-83056028D01*
X148654136Y-83056028D02*
X148511279Y-83127457D01*
X148511279Y-83127457D02*
X148439851Y-83198885D01*
X148439851Y-83198885D02*
X148368422Y-83341742D01*
X148368422Y-83341742D02*
X148296993Y-83627457D01*
X148296993Y-83627457D02*
X148296993Y-83984600D01*
X148296993Y-83984600D02*
X148368422Y-84270314D01*
X148368422Y-84270314D02*
X148439851Y-84413171D01*
X148439851Y-84413171D02*
X148511279Y-84484600D01*
X148511279Y-84484600D02*
X148654136Y-84556028D01*
X148654136Y-84556028D02*
X148796993Y-84556028D01*
X148796993Y-84556028D02*
X148939851Y-84484600D01*
X148939851Y-84484600D02*
X149011279Y-84413171D01*
X149011279Y-84413171D02*
X149082708Y-84270314D01*
X149082708Y-84270314D02*
X149154136Y-83984600D01*
X149154136Y-83984600D02*
X149154136Y-83627457D01*
X149154136Y-83627457D02*
X149082708Y-83341742D01*
X149082708Y-83341742D02*
X149011279Y-83198885D01*
X149011279Y-83198885D02*
X148939851Y-83127457D01*
X148939851Y-83127457D02*
X148796993Y-83056028D01*
X147654137Y-84413171D02*
X147582708Y-84484600D01*
X147582708Y-84484600D02*
X147654137Y-84556028D01*
X147654137Y-84556028D02*
X147725565Y-84484600D01*
X147725565Y-84484600D02*
X147654137Y-84413171D01*
X147654137Y-84413171D02*
X147654137Y-84556028D01*
X146654136Y-83056028D02*
X146511279Y-83056028D01*
X146511279Y-83056028D02*
X146368422Y-83127457D01*
X146368422Y-83127457D02*
X146296994Y-83198885D01*
X146296994Y-83198885D02*
X146225565Y-83341742D01*
X146225565Y-83341742D02*
X146154136Y-83627457D01*
X146154136Y-83627457D02*
X146154136Y-83984600D01*
X146154136Y-83984600D02*
X146225565Y-84270314D01*
X146225565Y-84270314D02*
X146296994Y-84413171D01*
X146296994Y-84413171D02*
X146368422Y-84484600D01*
X146368422Y-84484600D02*
X146511279Y-84556028D01*
X146511279Y-84556028D02*
X146654136Y-84556028D01*
X146654136Y-84556028D02*
X146796994Y-84484600D01*
X146796994Y-84484600D02*
X146868422Y-84413171D01*
X146868422Y-84413171D02*
X146939851Y-84270314D01*
X146939851Y-84270314D02*
X147011279Y-83984600D01*
X147011279Y-83984600D02*
X147011279Y-83627457D01*
X147011279Y-83627457D02*
X146939851Y-83341742D01*
X146939851Y-83341742D02*
X146868422Y-83198885D01*
X146868422Y-83198885D02*
X146796994Y-83127457D01*
X146796994Y-83127457D02*
X146654136Y-83056028D01*
X156704136Y-86813171D02*
X156775564Y-86884600D01*
X156775564Y-86884600D02*
X156989850Y-86956028D01*
X156989850Y-86956028D02*
X157132707Y-86956028D01*
X157132707Y-86956028D02*
X157346993Y-86884600D01*
X157346993Y-86884600D02*
X157489850Y-86741742D01*
X157489850Y-86741742D02*
X157561279Y-86598885D01*
X157561279Y-86598885D02*
X157632707Y-86313171D01*
X157632707Y-86313171D02*
X157632707Y-86098885D01*
X157632707Y-86098885D02*
X157561279Y-85813171D01*
X157561279Y-85813171D02*
X157489850Y-85670314D01*
X157489850Y-85670314D02*
X157346993Y-85527457D01*
X157346993Y-85527457D02*
X157132707Y-85456028D01*
X157132707Y-85456028D02*
X156989850Y-85456028D01*
X156989850Y-85456028D02*
X156775564Y-85527457D01*
X156775564Y-85527457D02*
X156704136Y-85598885D01*
X156061279Y-86956028D02*
X156061279Y-85956028D01*
X156061279Y-86241742D02*
X155989850Y-86098885D01*
X155989850Y-86098885D02*
X155918422Y-86027457D01*
X155918422Y-86027457D02*
X155775564Y-85956028D01*
X155775564Y-85956028D02*
X155632707Y-85956028D01*
X154561279Y-86884600D02*
X154704136Y-86956028D01*
X154704136Y-86956028D02*
X154989851Y-86956028D01*
X154989851Y-86956028D02*
X155132708Y-86884600D01*
X155132708Y-86884600D02*
X155204136Y-86741742D01*
X155204136Y-86741742D02*
X155204136Y-86170314D01*
X155204136Y-86170314D02*
X155132708Y-86027457D01*
X155132708Y-86027457D02*
X154989851Y-85956028D01*
X154989851Y-85956028D02*
X154704136Y-85956028D01*
X154704136Y-85956028D02*
X154561279Y-86027457D01*
X154561279Y-86027457D02*
X154489851Y-86170314D01*
X154489851Y-86170314D02*
X154489851Y-86313171D01*
X154489851Y-86313171D02*
X155204136Y-86456028D01*
X153204137Y-86956028D02*
X153204137Y-86170314D01*
X153204137Y-86170314D02*
X153275565Y-86027457D01*
X153275565Y-86027457D02*
X153418422Y-85956028D01*
X153418422Y-85956028D02*
X153704137Y-85956028D01*
X153704137Y-85956028D02*
X153846994Y-86027457D01*
X153204137Y-86884600D02*
X153346994Y-86956028D01*
X153346994Y-86956028D02*
X153704137Y-86956028D01*
X153704137Y-86956028D02*
X153846994Y-86884600D01*
X153846994Y-86884600D02*
X153918422Y-86741742D01*
X153918422Y-86741742D02*
X153918422Y-86598885D01*
X153918422Y-86598885D02*
X153846994Y-86456028D01*
X153846994Y-86456028D02*
X153704137Y-86384600D01*
X153704137Y-86384600D02*
X153346994Y-86384600D01*
X153346994Y-86384600D02*
X153204137Y-86313171D01*
X152704136Y-85956028D02*
X152132708Y-85956028D01*
X152489851Y-85456028D02*
X152489851Y-86741742D01*
X152489851Y-86741742D02*
X152418422Y-86884600D01*
X152418422Y-86884600D02*
X152275565Y-86956028D01*
X152275565Y-86956028D02*
X152132708Y-86956028D01*
X151061279Y-86884600D02*
X151204136Y-86956028D01*
X151204136Y-86956028D02*
X151489851Y-86956028D01*
X151489851Y-86956028D02*
X151632708Y-86884600D01*
X151632708Y-86884600D02*
X151704136Y-86741742D01*
X151704136Y-86741742D02*
X151704136Y-86170314D01*
X151704136Y-86170314D02*
X151632708Y-86027457D01*
X151632708Y-86027457D02*
X151489851Y-85956028D01*
X151489851Y-85956028D02*
X151204136Y-85956028D01*
X151204136Y-85956028D02*
X151061279Y-86027457D01*
X151061279Y-86027457D02*
X150989851Y-86170314D01*
X150989851Y-86170314D02*
X150989851Y-86313171D01*
X150989851Y-86313171D02*
X151704136Y-86456028D01*
X149704137Y-86956028D02*
X149704137Y-85456028D01*
X149704137Y-86884600D02*
X149846994Y-86956028D01*
X149846994Y-86956028D02*
X150132708Y-86956028D01*
X150132708Y-86956028D02*
X150275565Y-86884600D01*
X150275565Y-86884600D02*
X150346994Y-86813171D01*
X150346994Y-86813171D02*
X150418422Y-86670314D01*
X150418422Y-86670314D02*
X150418422Y-86241742D01*
X150418422Y-86241742D02*
X150346994Y-86098885D01*
X150346994Y-86098885D02*
X150275565Y-86027457D01*
X150275565Y-86027457D02*
X150132708Y-85956028D01*
X150132708Y-85956028D02*
X149846994Y-85956028D01*
X149846994Y-85956028D02*
X149704137Y-86027457D01*
X147346994Y-86170314D02*
X147132708Y-86241742D01*
X147132708Y-86241742D02*
X147061279Y-86313171D01*
X147061279Y-86313171D02*
X146989851Y-86456028D01*
X146989851Y-86456028D02*
X146989851Y-86670314D01*
X146989851Y-86670314D02*
X147061279Y-86813171D01*
X147061279Y-86813171D02*
X147132708Y-86884600D01*
X147132708Y-86884600D02*
X147275565Y-86956028D01*
X147275565Y-86956028D02*
X147846994Y-86956028D01*
X147846994Y-86956028D02*
X147846994Y-85456028D01*
X147846994Y-85456028D02*
X147346994Y-85456028D01*
X147346994Y-85456028D02*
X147204137Y-85527457D01*
X147204137Y-85527457D02*
X147132708Y-85598885D01*
X147132708Y-85598885D02*
X147061279Y-85741742D01*
X147061279Y-85741742D02*
X147061279Y-85884600D01*
X147061279Y-85884600D02*
X147132708Y-86027457D01*
X147132708Y-86027457D02*
X147204137Y-86098885D01*
X147204137Y-86098885D02*
X147346994Y-86170314D01*
X147346994Y-86170314D02*
X147846994Y-86170314D01*
X146489851Y-85956028D02*
X146132708Y-86956028D01*
X145775565Y-85956028D02*
X146132708Y-86956028D01*
X146132708Y-86956028D02*
X146275565Y-87313171D01*
X146275565Y-87313171D02*
X146346994Y-87384600D01*
X146346994Y-87384600D02*
X146489851Y-87456028D01*
X145204137Y-86813171D02*
X145132708Y-86884600D01*
X145132708Y-86884600D02*
X145204137Y-86956028D01*
X145204137Y-86956028D02*
X145275565Y-86884600D01*
X145275565Y-86884600D02*
X145204137Y-86813171D01*
X145204137Y-86813171D02*
X145204137Y-86956028D01*
X145204137Y-86027457D02*
X145132708Y-86098885D01*
X145132708Y-86098885D02*
X145204137Y-86170314D01*
X145204137Y-86170314D02*
X145275565Y-86098885D01*
X145275565Y-86098885D02*
X145204137Y-86027457D01*
X145204137Y-86027457D02*
X145204137Y-86170314D01*
X142846994Y-86170314D02*
X142632708Y-86241742D01*
X142632708Y-86241742D02*
X142561279Y-86313171D01*
X142561279Y-86313171D02*
X142489851Y-86456028D01*
X142489851Y-86456028D02*
X142489851Y-86670314D01*
X142489851Y-86670314D02*
X142561279Y-86813171D01*
X142561279Y-86813171D02*
X142632708Y-86884600D01*
X142632708Y-86884600D02*
X142775565Y-86956028D01*
X142775565Y-86956028D02*
X143346994Y-86956028D01*
X143346994Y-86956028D02*
X143346994Y-85456028D01*
X143346994Y-85456028D02*
X142846994Y-85456028D01*
X142846994Y-85456028D02*
X142704137Y-85527457D01*
X142704137Y-85527457D02*
X142632708Y-85598885D01*
X142632708Y-85598885D02*
X142561279Y-85741742D01*
X142561279Y-85741742D02*
X142561279Y-85884600D01*
X142561279Y-85884600D02*
X142632708Y-86027457D01*
X142632708Y-86027457D02*
X142704137Y-86098885D01*
X142704137Y-86098885D02*
X142846994Y-86170314D01*
X142846994Y-86170314D02*
X143346994Y-86170314D01*
X141275565Y-86884600D02*
X141418422Y-86956028D01*
X141418422Y-86956028D02*
X141704137Y-86956028D01*
X141704137Y-86956028D02*
X141846994Y-86884600D01*
X141846994Y-86884600D02*
X141918422Y-86741742D01*
X141918422Y-86741742D02*
X141918422Y-86170314D01*
X141918422Y-86170314D02*
X141846994Y-86027457D01*
X141846994Y-86027457D02*
X141704137Y-85956028D01*
X141704137Y-85956028D02*
X141418422Y-85956028D01*
X141418422Y-85956028D02*
X141275565Y-86027457D01*
X141275565Y-86027457D02*
X141204137Y-86170314D01*
X141204137Y-86170314D02*
X141204137Y-86313171D01*
X141204137Y-86313171D02*
X141918422Y-86456028D01*
X140561280Y-85956028D02*
X140561280Y-86956028D01*
X140561280Y-86098885D02*
X140489851Y-86027457D01*
X140489851Y-86027457D02*
X140346994Y-85956028D01*
X140346994Y-85956028D02*
X140132708Y-85956028D01*
X140132708Y-85956028D02*
X139989851Y-86027457D01*
X139989851Y-86027457D02*
X139918423Y-86170314D01*
X139918423Y-86170314D02*
X139918423Y-86956028D01*
X137346994Y-86956028D02*
X138061280Y-86956028D01*
X138061280Y-86956028D02*
X138061280Y-85456028D01*
X136632708Y-86956028D02*
X136775565Y-86884600D01*
X136775565Y-86884600D02*
X136846994Y-86813171D01*
X136846994Y-86813171D02*
X136918422Y-86670314D01*
X136918422Y-86670314D02*
X136918422Y-86241742D01*
X136918422Y-86241742D02*
X136846994Y-86098885D01*
X136846994Y-86098885D02*
X136775565Y-86027457D01*
X136775565Y-86027457D02*
X136632708Y-85956028D01*
X136632708Y-85956028D02*
X136418422Y-85956028D01*
X136418422Y-85956028D02*
X136275565Y-86027457D01*
X136275565Y-86027457D02*
X136204137Y-86098885D01*
X136204137Y-86098885D02*
X136132708Y-86241742D01*
X136132708Y-86241742D02*
X136132708Y-86670314D01*
X136132708Y-86670314D02*
X136204137Y-86813171D01*
X136204137Y-86813171D02*
X136275565Y-86884600D01*
X136275565Y-86884600D02*
X136418422Y-86956028D01*
X136418422Y-86956028D02*
X136632708Y-86956028D01*
M02*
