%TF.GenerationSoftware,KiCad,Pcbnew,9.0.0*%
%TF.CreationDate,2025-03-16T21:38:05-04:00*%
%TF.ProjectId,STM32_Dev_Board,53544d33-325f-4446-9576-5f426f617264,rev?*%
%TF.SameCoordinates,Original*%
%TF.FileFunction,Copper,L2,Inr*%
%TF.FilePolarity,Positive*%
%FSLAX46Y46*%
G04 Gerber Fmt 4.6, Leading zero omitted, Abs format (unit mm)*
G04 Created by KiCad (PCBNEW 9.0.0) date 2025-03-16 21:38:05*
%MOMM*%
%LPD*%
G01*
G04 APERTURE LIST*
G04 Aperture macros list*
%AMRoundRect*
0 Rectangle with rounded corners*
0 $1 Rounding radius*
0 $2 $3 $4 $5 $6 $7 $8 $9 X,Y pos of 4 corners*
0 Add a 4 corners polygon primitive as box body*
4,1,4,$2,$3,$4,$5,$6,$7,$8,$9,$2,$3,0*
0 Add four circle primitives for the rounded corners*
1,1,$1+$1,$2,$3*
1,1,$1+$1,$4,$5*
1,1,$1+$1,$6,$7*
1,1,$1+$1,$8,$9*
0 Add four rect primitives between the rounded corners*
20,1,$1+$1,$2,$3,$4,$5,0*
20,1,$1+$1,$4,$5,$6,$7,0*
20,1,$1+$1,$6,$7,$8,$9,0*
20,1,$1+$1,$8,$9,$2,$3,0*%
G04 Aperture macros list end*
%TA.AperFunction,ComponentPad*%
%ADD10C,0.700000*%
%TD*%
%TA.AperFunction,ComponentPad*%
%ADD11C,4.400000*%
%TD*%
%TA.AperFunction,ComponentPad*%
%ADD12RoundRect,0.200000X-0.200000X-0.450000X0.200000X-0.450000X0.200000X0.450000X-0.200000X0.450000X0*%
%TD*%
%TA.AperFunction,ComponentPad*%
%ADD13O,0.800000X1.300000*%
%TD*%
%TA.AperFunction,HeatsinkPad*%
%ADD14O,1.100000X1.800000*%
%TD*%
%TA.AperFunction,HeatsinkPad*%
%ADD15O,1.100000X2.200000*%
%TD*%
%TA.AperFunction,ComponentPad*%
%ADD16RoundRect,0.200000X0.200000X0.450000X-0.200000X0.450000X-0.200000X-0.450000X0.200000X-0.450000X0*%
%TD*%
%TA.AperFunction,ViaPad*%
%ADD17C,0.800000*%
%TD*%
G04 APERTURE END LIST*
D10*
%TO.N,GND*%
%TO.C,H4*%
X161850000Y-142000000D03*
X162333274Y-140833274D03*
X162333274Y-143166726D03*
X163500000Y-140350000D03*
D11*
X163500000Y-142000000D03*
D10*
X163500000Y-143650000D03*
X164666726Y-140833274D03*
X164666726Y-143166726D03*
X165150000Y-142000000D03*
%TD*%
D12*
%TO.N,+3.3V*%
%TO.C,J4*%
X134825000Y-140300000D03*
D13*
%TO.N,Net-(J4-Pin_2)*%
X136075000Y-140300000D03*
%TO.N,Net-(J4-Pin_3)*%
X137325000Y-140300000D03*
%TO.N,GND*%
X138575000Y-140300000D03*
%TD*%
D10*
%TO.N,GND*%
%TO.C,H1*%
X117350000Y-142000000D03*
X117833274Y-140833274D03*
X117833274Y-143166726D03*
X119000000Y-140350000D03*
D11*
X119000000Y-142000000D03*
D10*
X119000000Y-143650000D03*
X120166726Y-140833274D03*
X120166726Y-143166726D03*
X120650000Y-142000000D03*
%TD*%
%TO.N,GND*%
%TO.C,H2*%
X161350000Y-87000000D03*
X161833274Y-85833274D03*
X161833274Y-88166726D03*
X163000000Y-85350000D03*
D11*
X163000000Y-87000000D03*
D10*
X163000000Y-88650000D03*
X164166726Y-85833274D03*
X164166726Y-88166726D03*
X164650000Y-87000000D03*
%TD*%
D14*
%TO.N,unconnected-(J2-Shield-Pad6)_1*%
%TO.C,J2*%
X164250000Y-116050000D03*
D15*
%TO.N,unconnected-(J2-Shield-Pad6)_2*%
X166400000Y-113250000D03*
D14*
%TO.N,unconnected-(J2-Shield-Pad6)*%
X164250000Y-110450000D03*
%TD*%
D16*
%TO.N,+3.3V*%
%TO.C,J3*%
X133775000Y-88000000D03*
D13*
%TO.N,Net-(J3-Pin_2)*%
X132525000Y-88000000D03*
%TO.N,Net-(J3-Pin_3)*%
X131275000Y-88000000D03*
%TO.N,GND*%
X130025000Y-88000000D03*
%TD*%
D10*
%TO.N,GND*%
%TO.C,H3*%
X117350000Y-87000000D03*
X117833274Y-85833274D03*
X117833274Y-88166726D03*
X119000000Y-85350000D03*
D11*
X119000000Y-87000000D03*
D10*
X119000000Y-88650000D03*
X120166726Y-85833274D03*
X120166726Y-88166726D03*
X120650000Y-87000000D03*
%TD*%
D17*
%TO.N,GND*%
X118825000Y-121775000D03*
X121500000Y-131000000D03*
X139700000Y-140300000D03*
X160100000Y-93700000D03*
X159500000Y-129100000D03*
X130900000Y-117750000D03*
X156025000Y-139675000D03*
X150700000Y-105300000D03*
X157600000Y-141000000D03*
X127025000Y-111225000D03*
X164800000Y-104300000D03*
X138200000Y-119700000D03*
X157800000Y-127200000D03*
X158800000Y-120200000D03*
X125850000Y-113000000D03*
X153250000Y-111900000D03*
X160100000Y-94900000D03*
X141775000Y-125375000D03*
X124275000Y-121775000D03*
X129000000Y-88000000D03*
X126050000Y-106200000D03*
X136300000Y-125375000D03*
X131700000Y-119675000D03*
X124400000Y-131000000D03*
X137675000Y-127800000D03*
X132200000Y-126600000D03*
X138675000Y-112750000D03*
X144950000Y-107700000D03*
X138575000Y-141675000D03*
X160100000Y-91150000D03*
X163000000Y-119400000D03*
X160400000Y-121500000D03*
X120000000Y-123000000D03*
X130025000Y-89425000D03*
X164175000Y-120575000D03*
X159075000Y-139675000D03*
X139050000Y-103900000D03*
X162900000Y-111950000D03*
X127025000Y-107025000D03*
X140275000Y-127775000D03*
X126025000Y-103925000D03*
X131700000Y-112225000D03*
X118150000Y-115150000D03*
X156100000Y-129100000D03*
X146000000Y-108750000D03*
X127300000Y-131000000D03*
X161800000Y-105400000D03*
X121250000Y-100250000D03*
X118100000Y-113000000D03*
X141550000Y-102150000D03*
X139050000Y-102350000D03*
X120300000Y-101100000D03*
%TO.N,+3.3V*%
X134800000Y-88000000D03*
X133150000Y-98850000D03*
X161750000Y-133500000D03*
X160100000Y-96200000D03*
X141500000Y-100600000D03*
X164100000Y-134100000D03*
X129800000Y-110100000D03*
X165900000Y-131600000D03*
X119900000Y-96900000D03*
X162750000Y-134000000D03*
X157100000Y-124500000D03*
X161750000Y-129750000D03*
X133700000Y-140300000D03*
X143400000Y-107750000D03*
X142000000Y-123825000D03*
X125600000Y-122150000D03*
X133775000Y-86600000D03*
X158900000Y-125800000D03*
X161750000Y-131000000D03*
X164187500Y-125787500D03*
X133400000Y-123800000D03*
X121450000Y-95750000D03*
X160250000Y-131250000D03*
X161750000Y-132250000D03*
X127600000Y-103950000D03*
X161750000Y-128500000D03*
X133237500Y-102175000D03*
X158150000Y-97450000D03*
X134825000Y-141725000D03*
%TO.N,I2C_SDA*%
X133350000Y-106400000D03*
X136500000Y-102500000D03*
%TO.N,SWO*%
X145700000Y-91600000D03*
X138100000Y-106450000D03*
%TO.N,NRST*%
X135100000Y-115200000D03*
X141000000Y-105400000D03*
%TD*%
%TA.AperFunction,Conductor*%
%TO.N,GND*%
G36*
X165504418Y-82500816D02*
G01*
X165704561Y-82515130D01*
X165722063Y-82517647D01*
X165913797Y-82559355D01*
X165930755Y-82564334D01*
X166114609Y-82632909D01*
X166130701Y-82640259D01*
X166302904Y-82734288D01*
X166317784Y-82743849D01*
X166474867Y-82861441D01*
X166488237Y-82873027D01*
X166626972Y-83011762D01*
X166638558Y-83025132D01*
X166756146Y-83182210D01*
X166765711Y-83197095D01*
X166859740Y-83369298D01*
X166867090Y-83385390D01*
X166935662Y-83569236D01*
X166940646Y-83586212D01*
X166982351Y-83777931D01*
X166984869Y-83795442D01*
X166999184Y-83995580D01*
X166999500Y-84004427D01*
X166999500Y-111625688D01*
X166979815Y-111692727D01*
X166927011Y-111738482D01*
X166857853Y-111748426D01*
X166828048Y-111740249D01*
X166706424Y-111689871D01*
X166706412Y-111689868D01*
X166503469Y-111649500D01*
X166503465Y-111649500D01*
X166296535Y-111649500D01*
X166296530Y-111649500D01*
X166093587Y-111689868D01*
X166093579Y-111689870D01*
X165902403Y-111769058D01*
X165730342Y-111884024D01*
X165584024Y-112030342D01*
X165469058Y-112202403D01*
X165389870Y-112393579D01*
X165389868Y-112393587D01*
X165349500Y-112596530D01*
X165349500Y-113903469D01*
X165389868Y-114106412D01*
X165389870Y-114106420D01*
X165469058Y-114297596D01*
X165584024Y-114469657D01*
X165730342Y-114615975D01*
X165730345Y-114615977D01*
X165902402Y-114730941D01*
X166093580Y-114810130D01*
X166296530Y-114850499D01*
X166296534Y-114850500D01*
X166296535Y-114850500D01*
X166503466Y-114850500D01*
X166503467Y-114850499D01*
X166706420Y-114810130D01*
X166828047Y-114759749D01*
X166897516Y-114752281D01*
X166959996Y-114783556D01*
X166995648Y-114843645D01*
X166999500Y-114874311D01*
X166999500Y-131277919D01*
X166979815Y-131344958D01*
X166927011Y-131390713D01*
X166857853Y-131400657D01*
X166794297Y-131371632D01*
X166760939Y-131325371D01*
X166698016Y-131173459D01*
X166698009Y-131173446D01*
X166599464Y-131025965D01*
X166599461Y-131025961D01*
X166474038Y-130900538D01*
X166474034Y-130900535D01*
X166326553Y-130801990D01*
X166326540Y-130801983D01*
X166162667Y-130734106D01*
X166162658Y-130734103D01*
X165988694Y-130699500D01*
X165988691Y-130699500D01*
X165811309Y-130699500D01*
X165811306Y-130699500D01*
X165637341Y-130734103D01*
X165637332Y-130734106D01*
X165473459Y-130801983D01*
X165473446Y-130801990D01*
X165325965Y-130900535D01*
X165325961Y-130900538D01*
X165200538Y-131025961D01*
X165200535Y-131025965D01*
X165101990Y-131173446D01*
X165101983Y-131173459D01*
X165034106Y-131337332D01*
X165034103Y-131337341D01*
X164999500Y-131511304D01*
X164999500Y-131688695D01*
X165034103Y-131862658D01*
X165034106Y-131862667D01*
X165101983Y-132026540D01*
X165101990Y-132026553D01*
X165200535Y-132174034D01*
X165200538Y-132174038D01*
X165325961Y-132299461D01*
X165325965Y-132299464D01*
X165473446Y-132398009D01*
X165473459Y-132398016D01*
X165596363Y-132448923D01*
X165637334Y-132465894D01*
X165637336Y-132465894D01*
X165637341Y-132465896D01*
X165811304Y-132500499D01*
X165811307Y-132500500D01*
X165811309Y-132500500D01*
X165988693Y-132500500D01*
X165988694Y-132500499D01*
X166046682Y-132488964D01*
X166162658Y-132465896D01*
X166162661Y-132465894D01*
X166162666Y-132465894D01*
X166326547Y-132398013D01*
X166474035Y-132299464D01*
X166599464Y-132174035D01*
X166698013Y-132026547D01*
X166698014Y-132026544D01*
X166698016Y-132026541D01*
X166760939Y-131874628D01*
X166804779Y-131820224D01*
X166871073Y-131798159D01*
X166938773Y-131815438D01*
X166986383Y-131866575D01*
X166999500Y-131922080D01*
X166999500Y-143995572D01*
X166999184Y-144004416D01*
X166999184Y-144004419D01*
X166984869Y-144204557D01*
X166982351Y-144222068D01*
X166940646Y-144413787D01*
X166935662Y-144430763D01*
X166867090Y-144614609D01*
X166859740Y-144630701D01*
X166765711Y-144802904D01*
X166756146Y-144817789D01*
X166638558Y-144974867D01*
X166626972Y-144988237D01*
X166488237Y-145126972D01*
X166474867Y-145138558D01*
X166317789Y-145256146D01*
X166302904Y-145265711D01*
X166130701Y-145359740D01*
X166114609Y-145367090D01*
X165930763Y-145435662D01*
X165913787Y-145440646D01*
X165722068Y-145482351D01*
X165704557Y-145484869D01*
X165523779Y-145497799D01*
X165504417Y-145499184D01*
X165495572Y-145499500D01*
X117004428Y-145499500D01*
X116995582Y-145499184D01*
X116973622Y-145497613D01*
X116795442Y-145484869D01*
X116777931Y-145482351D01*
X116586212Y-145440646D01*
X116569236Y-145435662D01*
X116385390Y-145367090D01*
X116369298Y-145359740D01*
X116197095Y-145265711D01*
X116182210Y-145256146D01*
X116025132Y-145138558D01*
X116011762Y-145126972D01*
X115873027Y-144988237D01*
X115861441Y-144974867D01*
X115743849Y-144817784D01*
X115734288Y-144802904D01*
X115640259Y-144630701D01*
X115632909Y-144614609D01*
X115626923Y-144598561D01*
X115564334Y-144430755D01*
X115559355Y-144413797D01*
X115517647Y-144222063D01*
X115515130Y-144204556D01*
X115511318Y-144151252D01*
X115500816Y-144004416D01*
X115500500Y-143995572D01*
X115500500Y-141848366D01*
X116300000Y-141848366D01*
X116300000Y-142151633D01*
X116333952Y-142452966D01*
X116333954Y-142452982D01*
X116401434Y-142748633D01*
X116401438Y-142748645D01*
X116501592Y-143034866D01*
X116501598Y-143034880D01*
X116633172Y-143308096D01*
X116794515Y-143564872D01*
X116921871Y-143724573D01*
X118063708Y-142582736D01*
X118160967Y-142716602D01*
X118283398Y-142839033D01*
X118417262Y-142936290D01*
X117275425Y-144078127D01*
X117435127Y-144205484D01*
X117691903Y-144366827D01*
X117965119Y-144498401D01*
X117965133Y-144498407D01*
X118251354Y-144598561D01*
X118251366Y-144598565D01*
X118547017Y-144666045D01*
X118547033Y-144666047D01*
X118848366Y-144699999D01*
X118848368Y-144700000D01*
X119151632Y-144700000D01*
X119151633Y-144699999D01*
X119452966Y-144666047D01*
X119452982Y-144666045D01*
X119748633Y-144598565D01*
X119748645Y-144598561D01*
X120034866Y-144498407D01*
X120034880Y-144498401D01*
X120308096Y-144366827D01*
X120564872Y-144205484D01*
X120724573Y-144078126D01*
X119582737Y-142936290D01*
X119716602Y-142839033D01*
X119839033Y-142716602D01*
X119936290Y-142582737D01*
X121078126Y-143724573D01*
X121205484Y-143564872D01*
X121366827Y-143308096D01*
X121498401Y-143034880D01*
X121498407Y-143034866D01*
X121598561Y-142748645D01*
X121598565Y-142748633D01*
X121666045Y-142452982D01*
X121666047Y-142452966D01*
X121699999Y-142151633D01*
X121700000Y-142151631D01*
X121700000Y-141848368D01*
X121699999Y-141848366D01*
X121666047Y-141547033D01*
X121666045Y-141547017D01*
X121598565Y-141251366D01*
X121598561Y-141251354D01*
X121498407Y-140965133D01*
X121498401Y-140965119D01*
X121366827Y-140691903D01*
X121205484Y-140435127D01*
X121083792Y-140282530D01*
X121083791Y-140282529D01*
X121078126Y-140275426D01*
X119936290Y-141417262D01*
X119839033Y-141283398D01*
X119716602Y-141160967D01*
X119582736Y-141063709D01*
X120435140Y-140211304D01*
X132799500Y-140211304D01*
X132799500Y-140388695D01*
X132834103Y-140562658D01*
X132834106Y-140562667D01*
X132901983Y-140726540D01*
X132901990Y-140726553D01*
X133000535Y-140874034D01*
X133000538Y-140874038D01*
X133125961Y-140999461D01*
X133125965Y-140999464D01*
X133273446Y-141098009D01*
X133273459Y-141098016D01*
X133336276Y-141124035D01*
X133437334Y-141165894D01*
X133437336Y-141165894D01*
X133437341Y-141165896D01*
X133611304Y-141200499D01*
X133611307Y-141200500D01*
X133611309Y-141200500D01*
X133788692Y-141200500D01*
X133808369Y-141196585D01*
X133865069Y-141185307D01*
X133934660Y-141191534D01*
X133989838Y-141234396D01*
X134013083Y-141300286D01*
X134003823Y-141354375D01*
X133959105Y-141462337D01*
X133959103Y-141462341D01*
X133924500Y-141636304D01*
X133924500Y-141813695D01*
X133959103Y-141987658D01*
X133959106Y-141987667D01*
X134026983Y-142151540D01*
X134026990Y-142151553D01*
X134125535Y-142299034D01*
X134125538Y-142299038D01*
X134250961Y-142424461D01*
X134250965Y-142424464D01*
X134398446Y-142523009D01*
X134398459Y-142523016D01*
X134521363Y-142573923D01*
X134562334Y-142590894D01*
X134562336Y-142590894D01*
X134562341Y-142590896D01*
X134736304Y-142625499D01*
X134736307Y-142625500D01*
X134736309Y-142625500D01*
X134913693Y-142625500D01*
X134913694Y-142625499D01*
X134971682Y-142613964D01*
X135087658Y-142590896D01*
X135087661Y-142590894D01*
X135087666Y-142590894D01*
X135251547Y-142523013D01*
X135399035Y-142424464D01*
X135524464Y-142299035D01*
X135623013Y-142151547D01*
X135690894Y-141987666D01*
X135718603Y-141848366D01*
X160800000Y-141848366D01*
X160800000Y-142151633D01*
X160833952Y-142452966D01*
X160833954Y-142452982D01*
X160901434Y-142748633D01*
X160901438Y-142748645D01*
X161001592Y-143034866D01*
X161001598Y-143034880D01*
X161133172Y-143308096D01*
X161294515Y-143564872D01*
X161421871Y-143724573D01*
X162563708Y-142582736D01*
X162660967Y-142716602D01*
X162783398Y-142839033D01*
X162917262Y-142936290D01*
X161775425Y-144078127D01*
X161935127Y-144205484D01*
X162191903Y-144366827D01*
X162465119Y-144498401D01*
X162465133Y-144498407D01*
X162751354Y-144598561D01*
X162751366Y-144598565D01*
X163047017Y-144666045D01*
X163047033Y-144666047D01*
X163348366Y-144699999D01*
X163348368Y-144700000D01*
X163651632Y-144700000D01*
X163651633Y-144699999D01*
X163952966Y-144666047D01*
X163952982Y-144666045D01*
X164248633Y-144598565D01*
X164248645Y-144598561D01*
X164534866Y-144498407D01*
X164534880Y-144498401D01*
X164808096Y-144366827D01*
X165064872Y-144205484D01*
X165224573Y-144078126D01*
X164082737Y-142936290D01*
X164216602Y-142839033D01*
X164339033Y-142716602D01*
X164436290Y-142582737D01*
X165578126Y-143724573D01*
X165705484Y-143564872D01*
X165866827Y-143308096D01*
X165998401Y-143034880D01*
X165998407Y-143034866D01*
X166098561Y-142748645D01*
X166098565Y-142748633D01*
X166166045Y-142452982D01*
X166166047Y-142452966D01*
X166199999Y-142151633D01*
X166200000Y-142151631D01*
X166200000Y-141848368D01*
X166199999Y-141848366D01*
X166166047Y-141547033D01*
X166166045Y-141547017D01*
X166098565Y-141251366D01*
X166098561Y-141251354D01*
X165998407Y-140965133D01*
X165998401Y-140965119D01*
X165866827Y-140691903D01*
X165705484Y-140435127D01*
X165578127Y-140275425D01*
X164436290Y-141417262D01*
X164339033Y-141283398D01*
X164216602Y-141160967D01*
X164082736Y-141063709D01*
X165224573Y-139921871D01*
X165064872Y-139794515D01*
X164808096Y-139633172D01*
X164534880Y-139501598D01*
X164534866Y-139501592D01*
X164248645Y-139401438D01*
X164248633Y-139401434D01*
X163952982Y-139333954D01*
X163952966Y-139333952D01*
X163651633Y-139300000D01*
X163348366Y-139300000D01*
X163047033Y-139333952D01*
X163047017Y-139333954D01*
X162751366Y-139401434D01*
X162751354Y-139401438D01*
X162465133Y-139501592D01*
X162465119Y-139501598D01*
X162191903Y-139633172D01*
X161935127Y-139794515D01*
X161775425Y-139921871D01*
X162917263Y-141063709D01*
X162783398Y-141160967D01*
X162660967Y-141283398D01*
X162563709Y-141417263D01*
X161421871Y-140275425D01*
X161294515Y-140435127D01*
X161133172Y-140691903D01*
X161001598Y-140965119D01*
X161001592Y-140965133D01*
X160901438Y-141251354D01*
X160901434Y-141251366D01*
X160833954Y-141547017D01*
X160833952Y-141547033D01*
X160800000Y-141848366D01*
X135718603Y-141848366D01*
X135725500Y-141813691D01*
X135725500Y-141636309D01*
X135725500Y-141636306D01*
X135712478Y-141570844D01*
X135718705Y-141501253D01*
X135761567Y-141446075D01*
X135827457Y-141422830D01*
X135858286Y-141425035D01*
X135986304Y-141450499D01*
X135986307Y-141450500D01*
X135986309Y-141450500D01*
X136163693Y-141450500D01*
X136163694Y-141450499D01*
X136221682Y-141438964D01*
X136337658Y-141415896D01*
X136337661Y-141415894D01*
X136337666Y-141415894D01*
X136501547Y-141348013D01*
X136631109Y-141261442D01*
X136697786Y-141240564D01*
X136765166Y-141259048D01*
X136768891Y-141261442D01*
X136898446Y-141348008D01*
X136898453Y-141348013D01*
X136898455Y-141348014D01*
X136898459Y-141348016D01*
X137021363Y-141398923D01*
X137062334Y-141415894D01*
X137062336Y-141415894D01*
X137062341Y-141415896D01*
X137236304Y-141450499D01*
X137236307Y-141450500D01*
X137236309Y-141450500D01*
X137413693Y-141450500D01*
X137413694Y-141450499D01*
X137471682Y-141438964D01*
X137587658Y-141415896D01*
X137587661Y-141415894D01*
X137587666Y-141415894D01*
X137751547Y-141348013D01*
X137751552Y-141348009D01*
X137751555Y-141348008D01*
X137825718Y-141298453D01*
X137881558Y-141261141D01*
X137948234Y-141240263D01*
X138015615Y-141258747D01*
X138019340Y-141261141D01*
X138148683Y-141347566D01*
X138148693Y-141347571D01*
X138312476Y-141415412D01*
X138312483Y-141415415D01*
X138325000Y-141417904D01*
X138325000Y-141417903D01*
X138825000Y-141417903D01*
X138837516Y-141415415D01*
X138837523Y-141415412D01*
X139001306Y-141347571D01*
X139001316Y-141347566D01*
X139148716Y-141249076D01*
X139148720Y-141249073D01*
X139274073Y-141123720D01*
X139274076Y-141123716D01*
X139372566Y-140976316D01*
X139372571Y-140976307D01*
X139440413Y-140812520D01*
X139440415Y-140812512D01*
X139474999Y-140638646D01*
X139475000Y-140638643D01*
X139475000Y-140550000D01*
X138825000Y-140550000D01*
X138825000Y-141417903D01*
X138325000Y-141417903D01*
X138325000Y-140349728D01*
X138363060Y-140441614D01*
X138433386Y-140511940D01*
X138525272Y-140550000D01*
X138624728Y-140550000D01*
X138716614Y-140511940D01*
X138786940Y-140441614D01*
X138825000Y-140349728D01*
X138825000Y-140250272D01*
X138786940Y-140158386D01*
X138716614Y-140088060D01*
X138624728Y-140050000D01*
X138825000Y-140050000D01*
X139475000Y-140050000D01*
X139475000Y-139961357D01*
X139474999Y-139961353D01*
X139440415Y-139787487D01*
X139440413Y-139787479D01*
X139372571Y-139623692D01*
X139372566Y-139623683D01*
X139274076Y-139476283D01*
X139274073Y-139476279D01*
X139148720Y-139350926D01*
X139148716Y-139350923D01*
X139001316Y-139252433D01*
X139001307Y-139252428D01*
X138837519Y-139184585D01*
X138825000Y-139182094D01*
X138825000Y-140050000D01*
X138624728Y-140050000D01*
X138525272Y-140050000D01*
X138433386Y-140088060D01*
X138363060Y-140158386D01*
X138325000Y-140250272D01*
X138325000Y-139182095D01*
X138324999Y-139182094D01*
X138312480Y-139184585D01*
X138148692Y-139252428D01*
X138148683Y-139252433D01*
X138019340Y-139338858D01*
X137952662Y-139359736D01*
X137885282Y-139341251D01*
X137881558Y-139338858D01*
X137751552Y-139251990D01*
X137751540Y-139251983D01*
X137587667Y-139184106D01*
X137587658Y-139184103D01*
X137413694Y-139149500D01*
X137413691Y-139149500D01*
X137236309Y-139149500D01*
X137236306Y-139149500D01*
X137062341Y-139184103D01*
X137062332Y-139184106D01*
X136898459Y-139251983D01*
X136898446Y-139251990D01*
X136768891Y-139338557D01*
X136702213Y-139359435D01*
X136634833Y-139340950D01*
X136631109Y-139338557D01*
X136501553Y-139251990D01*
X136501540Y-139251983D01*
X136337667Y-139184106D01*
X136337658Y-139184103D01*
X136163694Y-139149500D01*
X136163691Y-139149500D01*
X135986309Y-139149500D01*
X135986306Y-139149500D01*
X135812341Y-139184103D01*
X135812332Y-139184106D01*
X135648460Y-139251983D01*
X135648449Y-139251989D01*
X135591162Y-139290267D01*
X135524484Y-139311144D01*
X135458122Y-139293281D01*
X135314606Y-139206522D01*
X135236212Y-139182094D01*
X135152196Y-139155914D01*
X135152194Y-139155913D01*
X135152192Y-139155913D01*
X135102778Y-139151423D01*
X135081616Y-139149500D01*
X134568384Y-139149500D01*
X134549145Y-139151248D01*
X134497807Y-139155913D01*
X134335393Y-139206522D01*
X134189813Y-139294529D01*
X134082408Y-139401934D01*
X134021085Y-139435418D01*
X133969032Y-139433324D01*
X133968641Y-139435294D01*
X133788694Y-139399500D01*
X133788691Y-139399500D01*
X133611309Y-139399500D01*
X133611306Y-139399500D01*
X133437341Y-139434103D01*
X133437332Y-139434106D01*
X133273459Y-139501983D01*
X133273446Y-139501990D01*
X133125965Y-139600535D01*
X133125961Y-139600538D01*
X133000538Y-139725961D01*
X133000535Y-139725965D01*
X132901990Y-139873446D01*
X132901983Y-139873459D01*
X132834106Y-140037332D01*
X132834103Y-140037341D01*
X132799500Y-140211304D01*
X120435140Y-140211304D01*
X120724573Y-139921871D01*
X120564872Y-139794515D01*
X120308096Y-139633172D01*
X120034880Y-139501598D01*
X120034866Y-139501592D01*
X119748645Y-139401438D01*
X119748633Y-139401434D01*
X119452982Y-139333954D01*
X119452966Y-139333952D01*
X119151633Y-139300000D01*
X118848366Y-139300000D01*
X118547033Y-139333952D01*
X118547017Y-139333954D01*
X118251366Y-139401434D01*
X118251354Y-139401438D01*
X117965133Y-139501592D01*
X117965119Y-139501598D01*
X117691903Y-139633172D01*
X117435127Y-139794515D01*
X117275425Y-139921871D01*
X118417263Y-141063709D01*
X118283398Y-141160967D01*
X118160967Y-141283398D01*
X118063709Y-141417263D01*
X116921871Y-140275425D01*
X116794515Y-140435127D01*
X116633172Y-140691903D01*
X116501598Y-140965119D01*
X116501592Y-140965133D01*
X116401438Y-141251354D01*
X116401434Y-141251366D01*
X116333954Y-141547017D01*
X116333952Y-141547033D01*
X116300000Y-141848366D01*
X115500500Y-141848366D01*
X115500500Y-131161304D01*
X159349500Y-131161304D01*
X159349500Y-131338695D01*
X159384103Y-131512658D01*
X159384106Y-131512667D01*
X159451983Y-131676540D01*
X159451990Y-131676553D01*
X159550535Y-131824034D01*
X159550538Y-131824038D01*
X159675961Y-131949461D01*
X159675965Y-131949464D01*
X159823446Y-132048009D01*
X159823459Y-132048016D01*
X159946363Y-132098923D01*
X159987334Y-132115894D01*
X159987336Y-132115894D01*
X159987341Y-132115896D01*
X160161304Y-132150499D01*
X160161307Y-132150500D01*
X160161309Y-132150500D01*
X160338693Y-132150500D01*
X160338694Y-132150499D01*
X160435286Y-132131286D01*
X160512658Y-132115896D01*
X160512661Y-132115894D01*
X160512666Y-132115894D01*
X160676547Y-132048013D01*
X160676548Y-132048012D01*
X160678048Y-132047391D01*
X160747517Y-132039922D01*
X160809996Y-132071197D01*
X160845648Y-132131286D01*
X160849500Y-132161952D01*
X160849500Y-132338695D01*
X160884103Y-132512658D01*
X160884106Y-132512667D01*
X160951983Y-132676540D01*
X160951990Y-132676553D01*
X161038557Y-132806109D01*
X161059435Y-132872787D01*
X161040950Y-132940167D01*
X161038557Y-132943891D01*
X160951990Y-133073446D01*
X160951983Y-133073459D01*
X160884106Y-133237332D01*
X160884103Y-133237341D01*
X160849500Y-133411304D01*
X160849500Y-133588695D01*
X160884103Y-133762658D01*
X160884106Y-133762667D01*
X160951983Y-133926540D01*
X160951990Y-133926553D01*
X161050535Y-134074034D01*
X161050538Y-134074038D01*
X161175961Y-134199461D01*
X161175965Y-134199464D01*
X161323446Y-134298009D01*
X161323459Y-134298016D01*
X161446363Y-134348923D01*
X161487334Y-134365894D01*
X161487336Y-134365894D01*
X161487341Y-134365896D01*
X161661304Y-134400499D01*
X161661307Y-134400500D01*
X161661309Y-134400500D01*
X161838693Y-134400500D01*
X161842066Y-134399829D01*
X161843869Y-134399990D01*
X161844756Y-134399903D01*
X161844772Y-134400071D01*
X161911658Y-134406053D01*
X161966837Y-134448914D01*
X161969364Y-134452554D01*
X162050535Y-134574034D01*
X162050538Y-134574038D01*
X162175961Y-134699461D01*
X162175965Y-134699464D01*
X162323446Y-134798009D01*
X162323459Y-134798016D01*
X162446363Y-134848923D01*
X162487334Y-134865894D01*
X162487336Y-134865894D01*
X162487341Y-134865896D01*
X162661304Y-134900499D01*
X162661307Y-134900500D01*
X162661309Y-134900500D01*
X162838693Y-134900500D01*
X162838694Y-134900499D01*
X162896682Y-134888964D01*
X163012658Y-134865896D01*
X163012661Y-134865894D01*
X163012666Y-134865894D01*
X163176547Y-134798013D01*
X163300524Y-134715173D01*
X163367200Y-134694296D01*
X163434580Y-134712780D01*
X163457095Y-134730595D01*
X163525961Y-134799461D01*
X163525965Y-134799464D01*
X163673446Y-134898009D01*
X163673459Y-134898016D01*
X163796363Y-134948923D01*
X163837334Y-134965894D01*
X163837336Y-134965894D01*
X163837341Y-134965896D01*
X164011304Y-135000499D01*
X164011307Y-135000500D01*
X164011309Y-135000500D01*
X164188693Y-135000500D01*
X164188694Y-135000499D01*
X164246682Y-134988964D01*
X164362658Y-134965896D01*
X164362661Y-134965894D01*
X164362666Y-134965894D01*
X164526547Y-134898013D01*
X164674035Y-134799464D01*
X164799464Y-134674035D01*
X164898013Y-134526547D01*
X164965894Y-134362666D01*
X164978755Y-134298013D01*
X165000499Y-134188695D01*
X165000500Y-134188693D01*
X165000500Y-134011306D01*
X165000499Y-134011304D01*
X164965896Y-133837341D01*
X164965893Y-133837332D01*
X164898016Y-133673459D01*
X164898009Y-133673446D01*
X164799464Y-133525965D01*
X164799461Y-133525961D01*
X164674038Y-133400538D01*
X164674034Y-133400535D01*
X164526553Y-133301990D01*
X164526540Y-133301983D01*
X164362667Y-133234106D01*
X164362658Y-133234103D01*
X164188694Y-133199500D01*
X164188691Y-133199500D01*
X164011309Y-133199500D01*
X164011306Y-133199500D01*
X163837341Y-133234103D01*
X163837332Y-133234106D01*
X163673459Y-133301983D01*
X163673446Y-133301990D01*
X163549476Y-133384825D01*
X163482798Y-133405703D01*
X163415418Y-133387218D01*
X163392904Y-133369404D01*
X163324038Y-133300538D01*
X163324034Y-133300535D01*
X163176553Y-133201990D01*
X163176540Y-133201983D01*
X163012667Y-133134106D01*
X163012658Y-133134103D01*
X162838694Y-133099500D01*
X162838691Y-133099500D01*
X162661309Y-133099500D01*
X162661303Y-133099500D01*
X162657915Y-133100174D01*
X162656107Y-133100012D01*
X162655245Y-133100097D01*
X162655228Y-133099933D01*
X162638009Y-133098390D01*
X162618284Y-133101587D01*
X162603924Y-133095336D01*
X162588324Y-133093939D01*
X162572544Y-133081677D01*
X162554220Y-133073702D01*
X162535598Y-133052971D01*
X162533152Y-133051070D01*
X162530635Y-133047445D01*
X162461442Y-132943891D01*
X162440564Y-132877214D01*
X162459048Y-132809833D01*
X162461442Y-132806109D01*
X162477352Y-132782296D01*
X162548013Y-132676547D01*
X162615894Y-132512666D01*
X162618315Y-132500499D01*
X162650499Y-132338695D01*
X162650500Y-132338693D01*
X162650500Y-132161306D01*
X162650499Y-132161304D01*
X162615896Y-131987341D01*
X162615893Y-131987332D01*
X162548016Y-131823459D01*
X162548014Y-131823455D01*
X162548013Y-131823453D01*
X162461442Y-131693891D01*
X162440564Y-131627214D01*
X162459048Y-131559834D01*
X162461442Y-131556109D01*
X162491380Y-131511304D01*
X162548013Y-131426547D01*
X162615894Y-131262666D01*
X162633639Y-131173459D01*
X162650499Y-131088695D01*
X162650500Y-131088693D01*
X162650500Y-130911306D01*
X162650499Y-130911304D01*
X162615896Y-130737341D01*
X162615893Y-130737332D01*
X162548016Y-130573459D01*
X162548014Y-130573455D01*
X162548013Y-130573453D01*
X162508029Y-130513613D01*
X162461442Y-130443891D01*
X162440564Y-130377214D01*
X162459048Y-130309834D01*
X162461442Y-130306109D01*
X162477352Y-130282296D01*
X162548013Y-130176547D01*
X162615894Y-130012666D01*
X162650500Y-129838691D01*
X162650500Y-129661309D01*
X162650500Y-129661306D01*
X162650499Y-129661304D01*
X162615896Y-129487341D01*
X162615893Y-129487332D01*
X162548016Y-129323459D01*
X162548014Y-129323455D01*
X162548013Y-129323453D01*
X162461442Y-129193891D01*
X162440564Y-129127214D01*
X162459048Y-129059834D01*
X162461442Y-129056109D01*
X162477352Y-129032296D01*
X162548013Y-128926547D01*
X162615894Y-128762666D01*
X162650500Y-128588691D01*
X162650500Y-128411309D01*
X162650500Y-128411306D01*
X162650499Y-128411304D01*
X162615896Y-128237341D01*
X162615893Y-128237332D01*
X162548016Y-128073459D01*
X162548009Y-128073446D01*
X162449464Y-127925965D01*
X162449461Y-127925961D01*
X162324038Y-127800538D01*
X162324034Y-127800535D01*
X162176553Y-127701990D01*
X162176540Y-127701983D01*
X162012667Y-127634106D01*
X162012658Y-127634103D01*
X161838694Y-127599500D01*
X161838691Y-127599500D01*
X161661309Y-127599500D01*
X161661306Y-127599500D01*
X161487341Y-127634103D01*
X161487332Y-127634106D01*
X161323459Y-127701983D01*
X161323446Y-127701990D01*
X161175965Y-127800535D01*
X161175961Y-127800538D01*
X161050538Y-127925961D01*
X161050535Y-127925965D01*
X160951990Y-128073446D01*
X160951983Y-128073459D01*
X160884106Y-128237332D01*
X160884103Y-128237341D01*
X160849500Y-128411304D01*
X160849500Y-128588695D01*
X160884103Y-128762658D01*
X160884106Y-128762667D01*
X160951983Y-128926540D01*
X160951990Y-128926553D01*
X161038557Y-129056109D01*
X161059435Y-129122787D01*
X161040950Y-129190167D01*
X161038557Y-129193891D01*
X160951990Y-129323446D01*
X160951983Y-129323459D01*
X160884106Y-129487332D01*
X160884103Y-129487341D01*
X160849500Y-129661304D01*
X160849500Y-129838695D01*
X160884103Y-130012658D01*
X160884106Y-130012667D01*
X160951983Y-130176540D01*
X160951990Y-130176553D01*
X161038557Y-130306109D01*
X161044530Y-130325186D01*
X161055037Y-130342195D01*
X161054757Y-130357848D01*
X161059435Y-130372787D01*
X161054146Y-130392062D01*
X161053790Y-130412053D01*
X161041771Y-130437172D01*
X161040950Y-130440167D01*
X161038557Y-130443891D01*
X160991970Y-130513613D01*
X160938358Y-130558418D01*
X160869033Y-130567125D01*
X160819977Y-130547824D01*
X160676553Y-130451990D01*
X160676540Y-130451983D01*
X160512667Y-130384106D01*
X160512658Y-130384103D01*
X160338694Y-130349500D01*
X160338691Y-130349500D01*
X160161309Y-130349500D01*
X160161306Y-130349500D01*
X159987341Y-130384103D01*
X159987332Y-130384106D01*
X159823459Y-130451983D01*
X159823446Y-130451990D01*
X159675965Y-130550535D01*
X159675961Y-130550538D01*
X159550538Y-130675961D01*
X159550535Y-130675965D01*
X159451990Y-130823446D01*
X159451983Y-130823459D01*
X159384106Y-130987332D01*
X159384103Y-130987341D01*
X159349500Y-131161304D01*
X115500500Y-131161304D01*
X115500500Y-125711304D01*
X157999500Y-125711304D01*
X157999500Y-125888695D01*
X158034103Y-126062658D01*
X158034106Y-126062667D01*
X158101983Y-126226540D01*
X158101990Y-126226553D01*
X158200535Y-126374034D01*
X158200538Y-126374038D01*
X158325961Y-126499461D01*
X158325965Y-126499464D01*
X158473446Y-126598009D01*
X158473459Y-126598016D01*
X158596363Y-126648923D01*
X158637334Y-126665894D01*
X158637336Y-126665894D01*
X158637341Y-126665896D01*
X158811304Y-126700499D01*
X158811307Y-126700500D01*
X158811309Y-126700500D01*
X158988693Y-126700500D01*
X158988694Y-126700499D01*
X159051537Y-126687999D01*
X159162658Y-126665896D01*
X159162661Y-126665894D01*
X159162666Y-126665894D01*
X159326547Y-126598013D01*
X159474035Y-126499464D01*
X159599464Y-126374035D01*
X159698013Y-126226547D01*
X159765894Y-126062666D01*
X159768381Y-126050167D01*
X159800499Y-125888695D01*
X159800500Y-125888693D01*
X159800500Y-125711307D01*
X159798013Y-125698804D01*
X163287000Y-125698804D01*
X163287000Y-125876195D01*
X163321603Y-126050158D01*
X163321606Y-126050167D01*
X163389483Y-126214040D01*
X163389490Y-126214053D01*
X163488035Y-126361534D01*
X163488038Y-126361538D01*
X163613461Y-126486961D01*
X163613465Y-126486964D01*
X163760946Y-126585509D01*
X163760959Y-126585516D01*
X163883863Y-126636423D01*
X163924834Y-126653394D01*
X163924836Y-126653394D01*
X163924841Y-126653396D01*
X164098804Y-126687999D01*
X164098807Y-126688000D01*
X164098809Y-126688000D01*
X164276193Y-126688000D01*
X164276194Y-126687999D01*
X164334182Y-126676464D01*
X164450158Y-126653396D01*
X164450161Y-126653394D01*
X164450166Y-126653394D01*
X164614047Y-126585513D01*
X164761535Y-126486964D01*
X164886964Y-126361535D01*
X164985513Y-126214047D01*
X165053394Y-126050166D01*
X165088000Y-125876191D01*
X165088000Y-125698809D01*
X165088000Y-125698806D01*
X165087999Y-125698804D01*
X165053396Y-125524841D01*
X165053393Y-125524832D01*
X164985516Y-125360959D01*
X164985509Y-125360946D01*
X164886964Y-125213465D01*
X164886961Y-125213461D01*
X164761538Y-125088038D01*
X164761534Y-125088035D01*
X164614053Y-124989490D01*
X164614040Y-124989483D01*
X164450167Y-124921606D01*
X164450158Y-124921603D01*
X164276194Y-124887000D01*
X164276191Y-124887000D01*
X164098809Y-124887000D01*
X164098806Y-124887000D01*
X163924841Y-124921603D01*
X163924832Y-124921606D01*
X163760959Y-124989483D01*
X163760946Y-124989490D01*
X163613465Y-125088035D01*
X163613461Y-125088038D01*
X163488038Y-125213461D01*
X163488035Y-125213465D01*
X163389490Y-125360946D01*
X163389483Y-125360959D01*
X163321606Y-125524832D01*
X163321603Y-125524841D01*
X163287000Y-125698804D01*
X159798013Y-125698804D01*
X159765896Y-125537341D01*
X159765893Y-125537332D01*
X159760715Y-125524832D01*
X159748923Y-125496363D01*
X159698016Y-125373459D01*
X159698009Y-125373446D01*
X159599464Y-125225965D01*
X159599461Y-125225961D01*
X159474038Y-125100538D01*
X159474034Y-125100535D01*
X159326553Y-125001990D01*
X159326540Y-125001983D01*
X159162667Y-124934106D01*
X159162658Y-124934103D01*
X158988694Y-124899500D01*
X158988691Y-124899500D01*
X158811309Y-124899500D01*
X158811306Y-124899500D01*
X158637341Y-124934103D01*
X158637332Y-124934106D01*
X158473459Y-125001983D01*
X158473446Y-125001990D01*
X158325965Y-125100535D01*
X158325961Y-125100538D01*
X158200538Y-125225961D01*
X158200535Y-125225965D01*
X158101990Y-125373446D01*
X158101983Y-125373459D01*
X158034106Y-125537332D01*
X158034103Y-125537341D01*
X157999500Y-125711304D01*
X115500500Y-125711304D01*
X115500500Y-123711304D01*
X132499500Y-123711304D01*
X132499500Y-123888695D01*
X132534103Y-124062658D01*
X132534106Y-124062667D01*
X132601983Y-124226540D01*
X132601990Y-124226553D01*
X132700535Y-124374034D01*
X132700538Y-124374038D01*
X132825961Y-124499461D01*
X132825965Y-124499464D01*
X132973446Y-124598009D01*
X132973459Y-124598016D01*
X133033816Y-124623016D01*
X133137334Y-124665894D01*
X133137336Y-124665894D01*
X133137341Y-124665896D01*
X133311304Y-124700499D01*
X133311307Y-124700500D01*
X133311309Y-124700500D01*
X133488693Y-124700500D01*
X133488694Y-124700499D01*
X133546682Y-124688964D01*
X133662658Y-124665896D01*
X133662661Y-124665894D01*
X133662666Y-124665894D01*
X133826547Y-124598013D01*
X133974035Y-124499464D01*
X134099464Y-124374035D01*
X134198013Y-124226547D01*
X134265894Y-124062666D01*
X134300500Y-123888691D01*
X134300500Y-123736304D01*
X141099500Y-123736304D01*
X141099500Y-123913695D01*
X141134103Y-124087658D01*
X141134106Y-124087667D01*
X141201983Y-124251540D01*
X141201990Y-124251553D01*
X141300535Y-124399034D01*
X141300538Y-124399038D01*
X141425961Y-124524461D01*
X141425965Y-124524464D01*
X141573446Y-124623009D01*
X141573459Y-124623016D01*
X141676978Y-124665894D01*
X141737334Y-124690894D01*
X141737336Y-124690894D01*
X141737341Y-124690896D01*
X141911304Y-124725499D01*
X141911307Y-124725500D01*
X141911309Y-124725500D01*
X142088693Y-124725500D01*
X142088694Y-124725499D01*
X142146682Y-124713964D01*
X142262658Y-124690896D01*
X142262661Y-124690894D01*
X142262666Y-124690894D01*
X142426547Y-124623013D01*
X142574035Y-124524464D01*
X142687195Y-124411304D01*
X156199500Y-124411304D01*
X156199500Y-124588695D01*
X156234103Y-124762658D01*
X156234106Y-124762667D01*
X156301983Y-124926540D01*
X156301990Y-124926553D01*
X156400535Y-125074034D01*
X156400538Y-125074038D01*
X156525961Y-125199461D01*
X156525965Y-125199464D01*
X156673446Y-125298009D01*
X156673459Y-125298016D01*
X156796363Y-125348923D01*
X156837334Y-125365894D01*
X156837336Y-125365894D01*
X156837341Y-125365896D01*
X157011304Y-125400499D01*
X157011307Y-125400500D01*
X157011309Y-125400500D01*
X157188693Y-125400500D01*
X157188694Y-125400499D01*
X157246682Y-125388964D01*
X157362658Y-125365896D01*
X157362661Y-125365894D01*
X157362666Y-125365894D01*
X157526547Y-125298013D01*
X157674035Y-125199464D01*
X157799464Y-125074035D01*
X157898013Y-124926547D01*
X157965894Y-124762666D01*
X157980171Y-124690894D01*
X157998646Y-124598013D01*
X158000500Y-124588691D01*
X158000500Y-124411309D01*
X158000500Y-124411306D01*
X158000499Y-124411304D01*
X157965896Y-124237341D01*
X157965893Y-124237332D01*
X157898016Y-124073459D01*
X157898009Y-124073446D01*
X157799464Y-123925965D01*
X157799461Y-123925961D01*
X157674038Y-123800538D01*
X157674034Y-123800535D01*
X157526553Y-123701990D01*
X157526540Y-123701983D01*
X157362667Y-123634106D01*
X157362658Y-123634103D01*
X157188694Y-123599500D01*
X157188691Y-123599500D01*
X157011309Y-123599500D01*
X157011306Y-123599500D01*
X156837341Y-123634103D01*
X156837332Y-123634106D01*
X156673459Y-123701983D01*
X156673446Y-123701990D01*
X156525965Y-123800535D01*
X156525961Y-123800538D01*
X156400538Y-123925961D01*
X156400535Y-123925965D01*
X156301990Y-124073446D01*
X156301983Y-124073459D01*
X156234106Y-124237332D01*
X156234103Y-124237341D01*
X156199500Y-124411304D01*
X142687195Y-124411304D01*
X142699464Y-124399035D01*
X142798013Y-124251547D01*
X142865894Y-124087666D01*
X142868722Y-124073453D01*
X142888964Y-123971682D01*
X142900500Y-123913691D01*
X142900500Y-123736309D01*
X142900500Y-123736306D01*
X142900499Y-123736304D01*
X142865896Y-123562341D01*
X142865893Y-123562332D01*
X142798016Y-123398459D01*
X142798009Y-123398446D01*
X142699464Y-123250965D01*
X142699461Y-123250961D01*
X142574038Y-123125538D01*
X142574034Y-123125535D01*
X142426553Y-123026990D01*
X142426540Y-123026983D01*
X142262667Y-122959106D01*
X142262658Y-122959103D01*
X142088694Y-122924500D01*
X142088691Y-122924500D01*
X141911309Y-122924500D01*
X141911306Y-122924500D01*
X141737341Y-122959103D01*
X141737332Y-122959106D01*
X141573459Y-123026983D01*
X141573446Y-123026990D01*
X141425965Y-123125535D01*
X141425961Y-123125538D01*
X141300538Y-123250961D01*
X141300535Y-123250965D01*
X141201990Y-123398446D01*
X141201983Y-123398459D01*
X141134106Y-123562332D01*
X141134103Y-123562341D01*
X141099500Y-123736304D01*
X134300500Y-123736304D01*
X134300500Y-123711309D01*
X134300500Y-123711306D01*
X134300499Y-123711304D01*
X134265896Y-123537341D01*
X134265893Y-123537332D01*
X134198016Y-123373459D01*
X134198009Y-123373446D01*
X134099464Y-123225965D01*
X134099461Y-123225961D01*
X133974038Y-123100538D01*
X133974034Y-123100535D01*
X133826553Y-123001990D01*
X133826540Y-123001983D01*
X133662667Y-122934106D01*
X133662658Y-122934103D01*
X133488694Y-122899500D01*
X133488691Y-122899500D01*
X133311309Y-122899500D01*
X133311306Y-122899500D01*
X133137341Y-122934103D01*
X133137332Y-122934106D01*
X132973459Y-123001983D01*
X132973446Y-123001990D01*
X132825965Y-123100535D01*
X132825961Y-123100538D01*
X132700538Y-123225961D01*
X132700535Y-123225965D01*
X132601990Y-123373446D01*
X132601983Y-123373459D01*
X132534106Y-123537332D01*
X132534103Y-123537341D01*
X132499500Y-123711304D01*
X115500500Y-123711304D01*
X115500500Y-122061304D01*
X124699500Y-122061304D01*
X124699500Y-122238695D01*
X124734103Y-122412658D01*
X124734106Y-122412667D01*
X124801983Y-122576540D01*
X124801990Y-122576553D01*
X124900535Y-122724034D01*
X124900538Y-122724038D01*
X125025961Y-122849461D01*
X125025965Y-122849464D01*
X125173446Y-122948009D01*
X125173459Y-122948016D01*
X125296363Y-122998923D01*
X125337334Y-123015894D01*
X125337336Y-123015894D01*
X125337341Y-123015896D01*
X125511304Y-123050499D01*
X125511307Y-123050500D01*
X125511309Y-123050500D01*
X125688693Y-123050500D01*
X125688694Y-123050499D01*
X125746682Y-123038964D01*
X125862658Y-123015896D01*
X125862661Y-123015894D01*
X125862666Y-123015894D01*
X126026547Y-122948013D01*
X126174035Y-122849464D01*
X126299464Y-122724035D01*
X126398013Y-122576547D01*
X126465894Y-122412666D01*
X126500500Y-122238691D01*
X126500500Y-122061309D01*
X126500500Y-122061306D01*
X126500499Y-122061304D01*
X126465896Y-121887341D01*
X126465893Y-121887332D01*
X126398016Y-121723459D01*
X126398009Y-121723446D01*
X126299464Y-121575965D01*
X126299461Y-121575961D01*
X126174038Y-121450538D01*
X126174034Y-121450535D01*
X126026553Y-121351990D01*
X126026540Y-121351983D01*
X125862667Y-121284106D01*
X125862658Y-121284103D01*
X125688694Y-121249500D01*
X125688691Y-121249500D01*
X125511309Y-121249500D01*
X125511306Y-121249500D01*
X125337341Y-121284103D01*
X125337332Y-121284106D01*
X125173459Y-121351983D01*
X125173446Y-121351990D01*
X125025965Y-121450535D01*
X125025961Y-121450538D01*
X124900538Y-121575961D01*
X124900535Y-121575965D01*
X124801990Y-121723446D01*
X124801983Y-121723459D01*
X124734106Y-121887332D01*
X124734103Y-121887341D01*
X124699500Y-122061304D01*
X115500500Y-122061304D01*
X115500500Y-115111304D01*
X134199500Y-115111304D01*
X134199500Y-115288695D01*
X134234103Y-115462658D01*
X134234106Y-115462667D01*
X134301983Y-115626540D01*
X134301990Y-115626553D01*
X134400535Y-115774034D01*
X134400538Y-115774038D01*
X134525961Y-115899461D01*
X134525965Y-115899464D01*
X134673446Y-115998009D01*
X134673459Y-115998016D01*
X134796363Y-116048923D01*
X134837334Y-116065894D01*
X134837336Y-116065894D01*
X134837341Y-116065896D01*
X135011304Y-116100499D01*
X135011307Y-116100500D01*
X135011309Y-116100500D01*
X135188693Y-116100500D01*
X135188694Y-116100499D01*
X135246682Y-116088964D01*
X135362658Y-116065896D01*
X135362661Y-116065894D01*
X135362666Y-116065894D01*
X135526547Y-115998013D01*
X135674035Y-115899464D01*
X135799464Y-115774035D01*
X135898013Y-115626547D01*
X135910445Y-115596534D01*
X135910447Y-115596530D01*
X163199500Y-115596530D01*
X163199500Y-116503469D01*
X163239868Y-116706412D01*
X163239870Y-116706420D01*
X163319058Y-116897596D01*
X163434024Y-117069657D01*
X163580342Y-117215975D01*
X163580345Y-117215977D01*
X163752402Y-117330941D01*
X163943580Y-117410130D01*
X164146530Y-117450499D01*
X164146534Y-117450500D01*
X164146535Y-117450500D01*
X164353466Y-117450500D01*
X164353467Y-117450499D01*
X164556420Y-117410130D01*
X164747598Y-117330941D01*
X164919655Y-117215977D01*
X165065977Y-117069655D01*
X165180941Y-116897598D01*
X165260130Y-116706420D01*
X165300500Y-116503465D01*
X165300500Y-115596535D01*
X165260130Y-115393580D01*
X165180941Y-115202402D01*
X165065977Y-115030345D01*
X165065975Y-115030342D01*
X164919657Y-114884024D01*
X164809067Y-114810131D01*
X164747598Y-114769059D01*
X164725124Y-114759750D01*
X164556420Y-114689870D01*
X164556412Y-114689868D01*
X164353469Y-114649500D01*
X164353465Y-114649500D01*
X164146535Y-114649500D01*
X164146530Y-114649500D01*
X163943587Y-114689868D01*
X163943579Y-114689870D01*
X163752403Y-114769058D01*
X163580342Y-114884024D01*
X163434024Y-115030342D01*
X163319058Y-115202403D01*
X163239870Y-115393579D01*
X163239868Y-115393587D01*
X163199500Y-115596530D01*
X135910447Y-115596530D01*
X135932623Y-115542991D01*
X135944959Y-115513207D01*
X135965894Y-115462666D01*
X135979637Y-115393579D01*
X136000499Y-115288695D01*
X136000500Y-115288693D01*
X136000500Y-115111306D01*
X136000499Y-115111304D01*
X135965896Y-114937341D01*
X135965893Y-114937332D01*
X135898016Y-114773459D01*
X135898009Y-114773446D01*
X135799464Y-114625965D01*
X135799461Y-114625961D01*
X135674038Y-114500538D01*
X135674034Y-114500535D01*
X135526553Y-114401990D01*
X135526540Y-114401983D01*
X135362667Y-114334106D01*
X135362658Y-114334103D01*
X135188694Y-114299500D01*
X135188691Y-114299500D01*
X135011309Y-114299500D01*
X135011306Y-114299500D01*
X134837341Y-114334103D01*
X134837332Y-114334106D01*
X134673459Y-114401983D01*
X134673446Y-114401990D01*
X134525965Y-114500535D01*
X134525961Y-114500538D01*
X134400538Y-114625961D01*
X134400535Y-114625965D01*
X134301990Y-114773446D01*
X134301983Y-114773459D01*
X134234106Y-114937332D01*
X134234103Y-114937341D01*
X134199500Y-115111304D01*
X115500500Y-115111304D01*
X115500500Y-110011304D01*
X128899500Y-110011304D01*
X128899500Y-110188695D01*
X128934103Y-110362658D01*
X128934106Y-110362667D01*
X129001983Y-110526540D01*
X129001990Y-110526553D01*
X129100535Y-110674034D01*
X129100538Y-110674038D01*
X129225961Y-110799461D01*
X129225965Y-110799464D01*
X129373446Y-110898009D01*
X129373459Y-110898016D01*
X129496363Y-110948923D01*
X129537334Y-110965894D01*
X129537336Y-110965894D01*
X129537341Y-110965896D01*
X129711304Y-111000499D01*
X129711307Y-111000500D01*
X129711309Y-111000500D01*
X129888693Y-111000500D01*
X129888694Y-111000499D01*
X129946682Y-110988964D01*
X130062658Y-110965896D01*
X130062661Y-110965894D01*
X130062666Y-110965894D01*
X130226547Y-110898013D01*
X130374035Y-110799464D01*
X130499464Y-110674035D01*
X130598013Y-110526547D01*
X130665894Y-110362666D01*
X130700500Y-110188691D01*
X130700500Y-110011309D01*
X130700500Y-110011306D01*
X130700499Y-110011305D01*
X130697560Y-109996530D01*
X163199500Y-109996530D01*
X163199500Y-110903469D01*
X163239868Y-111106412D01*
X163239870Y-111106420D01*
X163319058Y-111297596D01*
X163434024Y-111469657D01*
X163580342Y-111615975D01*
X163580345Y-111615977D01*
X163752402Y-111730941D01*
X163943580Y-111810130D01*
X164079405Y-111837147D01*
X164146530Y-111850499D01*
X164146534Y-111850500D01*
X164146535Y-111850500D01*
X164353466Y-111850500D01*
X164353467Y-111850499D01*
X164556420Y-111810130D01*
X164747598Y-111730941D01*
X164919655Y-111615977D01*
X165065977Y-111469655D01*
X165180941Y-111297598D01*
X165260130Y-111106420D01*
X165300500Y-110903465D01*
X165300500Y-109996535D01*
X165260130Y-109793580D01*
X165180941Y-109602402D01*
X165065977Y-109430345D01*
X165065975Y-109430342D01*
X164919657Y-109284024D01*
X164793156Y-109199500D01*
X164747598Y-109169059D01*
X164556420Y-109089870D01*
X164556412Y-109089868D01*
X164353469Y-109049500D01*
X164353465Y-109049500D01*
X164146535Y-109049500D01*
X164146530Y-109049500D01*
X163943587Y-109089868D01*
X163943579Y-109089870D01*
X163752403Y-109169058D01*
X163580342Y-109284024D01*
X163434024Y-109430342D01*
X163319058Y-109602403D01*
X163239870Y-109793579D01*
X163239868Y-109793587D01*
X163199500Y-109996530D01*
X130697560Y-109996530D01*
X130665896Y-109837341D01*
X130665893Y-109837332D01*
X130598016Y-109673459D01*
X130598009Y-109673446D01*
X130499464Y-109525965D01*
X130499461Y-109525961D01*
X130374038Y-109400538D01*
X130374034Y-109400535D01*
X130226553Y-109301990D01*
X130226540Y-109301983D01*
X130062667Y-109234106D01*
X130062658Y-109234103D01*
X129888694Y-109199500D01*
X129888691Y-109199500D01*
X129711309Y-109199500D01*
X129711306Y-109199500D01*
X129537341Y-109234103D01*
X129537332Y-109234106D01*
X129373459Y-109301983D01*
X129373446Y-109301990D01*
X129225965Y-109400535D01*
X129225961Y-109400538D01*
X129100538Y-109525961D01*
X129100535Y-109525965D01*
X129001990Y-109673446D01*
X129001983Y-109673459D01*
X128934106Y-109837332D01*
X128934103Y-109837341D01*
X128899500Y-110011304D01*
X115500500Y-110011304D01*
X115500500Y-107661304D01*
X142499500Y-107661304D01*
X142499500Y-107838695D01*
X142534103Y-108012658D01*
X142534106Y-108012667D01*
X142601983Y-108176540D01*
X142601990Y-108176553D01*
X142700535Y-108324034D01*
X142700538Y-108324038D01*
X142825961Y-108449461D01*
X142825965Y-108449464D01*
X142973446Y-108548009D01*
X142973459Y-108548016D01*
X143096363Y-108598923D01*
X143137334Y-108615894D01*
X143137336Y-108615894D01*
X143137341Y-108615896D01*
X143311304Y-108650499D01*
X143311307Y-108650500D01*
X143311309Y-108650500D01*
X143488693Y-108650500D01*
X143488694Y-108650499D01*
X143546682Y-108638964D01*
X143662658Y-108615896D01*
X143662661Y-108615894D01*
X143662666Y-108615894D01*
X143826547Y-108548013D01*
X143974035Y-108449464D01*
X144099464Y-108324035D01*
X144198013Y-108176547D01*
X144265894Y-108012666D01*
X144300500Y-107838691D01*
X144300500Y-107661309D01*
X144300500Y-107661306D01*
X144300499Y-107661304D01*
X144265896Y-107487341D01*
X144265893Y-107487332D01*
X144198016Y-107323459D01*
X144198009Y-107323446D01*
X144099464Y-107175965D01*
X144099461Y-107175961D01*
X143974038Y-107050538D01*
X143974034Y-107050535D01*
X143826553Y-106951990D01*
X143826540Y-106951983D01*
X143662667Y-106884106D01*
X143662658Y-106884103D01*
X143488694Y-106849500D01*
X143488691Y-106849500D01*
X143311309Y-106849500D01*
X143311306Y-106849500D01*
X143137341Y-106884103D01*
X143137332Y-106884106D01*
X142973459Y-106951983D01*
X142973446Y-106951990D01*
X142825965Y-107050535D01*
X142825961Y-107050538D01*
X142700538Y-107175961D01*
X142700535Y-107175965D01*
X142601990Y-107323446D01*
X142601983Y-107323459D01*
X142534106Y-107487332D01*
X142534103Y-107487341D01*
X142499500Y-107661304D01*
X115500500Y-107661304D01*
X115500500Y-106311304D01*
X132449500Y-106311304D01*
X132449500Y-106488695D01*
X132484103Y-106662658D01*
X132484106Y-106662667D01*
X132551983Y-106826540D01*
X132551990Y-106826553D01*
X132650535Y-106974034D01*
X132650538Y-106974038D01*
X132775961Y-107099461D01*
X132775965Y-107099464D01*
X132923446Y-107198009D01*
X132923459Y-107198016D01*
X133044155Y-107248009D01*
X133087334Y-107265894D01*
X133087336Y-107265894D01*
X133087341Y-107265896D01*
X133261304Y-107300499D01*
X133261307Y-107300500D01*
X133261309Y-107300500D01*
X133438693Y-107300500D01*
X133438694Y-107300499D01*
X133496682Y-107288964D01*
X133612658Y-107265896D01*
X133612661Y-107265894D01*
X133612666Y-107265894D01*
X133776547Y-107198013D01*
X133924035Y-107099464D01*
X134049464Y-106974035D01*
X134148013Y-106826547D01*
X134215894Y-106662666D01*
X134250500Y-106488691D01*
X134250500Y-106361304D01*
X137199500Y-106361304D01*
X137199500Y-106538695D01*
X137234103Y-106712658D01*
X137234106Y-106712667D01*
X137301983Y-106876540D01*
X137301990Y-106876553D01*
X137400535Y-107024034D01*
X137400538Y-107024038D01*
X137525961Y-107149461D01*
X137525965Y-107149464D01*
X137673446Y-107248009D01*
X137673459Y-107248016D01*
X137796363Y-107298923D01*
X137837334Y-107315894D01*
X137837336Y-107315894D01*
X137837341Y-107315896D01*
X138011304Y-107350499D01*
X138011307Y-107350500D01*
X138011309Y-107350500D01*
X138188693Y-107350500D01*
X138188694Y-107350499D01*
X138246682Y-107338964D01*
X138362658Y-107315896D01*
X138362661Y-107315894D01*
X138362666Y-107315894D01*
X138526547Y-107248013D01*
X138674035Y-107149464D01*
X138799464Y-107024035D01*
X138898013Y-106876547D01*
X138965894Y-106712666D01*
X138975840Y-106662667D01*
X139000499Y-106538695D01*
X139000500Y-106538693D01*
X139000500Y-106361306D01*
X139000499Y-106361304D01*
X138965896Y-106187341D01*
X138965893Y-106187332D01*
X138898016Y-106023459D01*
X138898009Y-106023446D01*
X138799464Y-105875965D01*
X138799461Y-105875961D01*
X138674038Y-105750538D01*
X138674034Y-105750535D01*
X138526553Y-105651990D01*
X138526540Y-105651983D01*
X138362667Y-105584106D01*
X138362658Y-105584103D01*
X138188694Y-105549500D01*
X138188691Y-105549500D01*
X138011309Y-105549500D01*
X138011306Y-105549500D01*
X137837341Y-105584103D01*
X137837332Y-105584106D01*
X137673459Y-105651983D01*
X137673446Y-105651990D01*
X137525965Y-105750535D01*
X137525961Y-105750538D01*
X137400538Y-105875961D01*
X137400535Y-105875965D01*
X137301990Y-106023446D01*
X137301983Y-106023459D01*
X137234106Y-106187332D01*
X137234103Y-106187341D01*
X137199500Y-106361304D01*
X134250500Y-106361304D01*
X134250500Y-106311309D01*
X134250500Y-106311306D01*
X134250499Y-106311304D01*
X134215896Y-106137341D01*
X134215893Y-106137332D01*
X134148016Y-105973459D01*
X134148009Y-105973446D01*
X134049464Y-105825965D01*
X134049461Y-105825961D01*
X133924038Y-105700538D01*
X133924034Y-105700535D01*
X133776553Y-105601990D01*
X133776540Y-105601983D01*
X133612667Y-105534106D01*
X133612658Y-105534103D01*
X133438694Y-105499500D01*
X133438691Y-105499500D01*
X133261309Y-105499500D01*
X133261306Y-105499500D01*
X133087341Y-105534103D01*
X133087332Y-105534106D01*
X132923459Y-105601983D01*
X132923446Y-105601990D01*
X132775965Y-105700535D01*
X132775961Y-105700538D01*
X132650538Y-105825961D01*
X132650535Y-105825965D01*
X132551990Y-105973446D01*
X132551983Y-105973459D01*
X132484106Y-106137332D01*
X132484103Y-106137341D01*
X132449500Y-106311304D01*
X115500500Y-106311304D01*
X115500500Y-105311304D01*
X140099500Y-105311304D01*
X140099500Y-105488695D01*
X140134103Y-105662658D01*
X140134106Y-105662667D01*
X140201983Y-105826540D01*
X140201990Y-105826553D01*
X140300535Y-105974034D01*
X140300538Y-105974038D01*
X140425961Y-106099461D01*
X140425965Y-106099464D01*
X140573446Y-106198009D01*
X140573459Y-106198016D01*
X140696363Y-106248923D01*
X140737334Y-106265894D01*
X140737336Y-106265894D01*
X140737341Y-106265896D01*
X140911304Y-106300499D01*
X140911307Y-106300500D01*
X140911309Y-106300500D01*
X141088693Y-106300500D01*
X141088694Y-106300499D01*
X141146682Y-106288964D01*
X141262658Y-106265896D01*
X141262661Y-106265894D01*
X141262666Y-106265894D01*
X141426547Y-106198013D01*
X141574035Y-106099464D01*
X141699464Y-105974035D01*
X141798013Y-105826547D01*
X141865894Y-105662666D01*
X141868019Y-105651987D01*
X141900499Y-105488695D01*
X141900500Y-105488693D01*
X141900500Y-105311306D01*
X141900499Y-105311304D01*
X141865896Y-105137341D01*
X141865893Y-105137332D01*
X141798016Y-104973459D01*
X141798009Y-104973446D01*
X141699464Y-104825965D01*
X141699461Y-104825961D01*
X141574038Y-104700538D01*
X141574034Y-104700535D01*
X141426553Y-104601990D01*
X141426540Y-104601983D01*
X141262667Y-104534106D01*
X141262658Y-104534103D01*
X141088694Y-104499500D01*
X141088691Y-104499500D01*
X140911309Y-104499500D01*
X140911306Y-104499500D01*
X140737341Y-104534103D01*
X140737332Y-104534106D01*
X140573459Y-104601983D01*
X140573446Y-104601990D01*
X140425965Y-104700535D01*
X140425961Y-104700538D01*
X140300538Y-104825961D01*
X140300535Y-104825965D01*
X140201990Y-104973446D01*
X140201983Y-104973459D01*
X140134106Y-105137332D01*
X140134103Y-105137341D01*
X140099500Y-105311304D01*
X115500500Y-105311304D01*
X115500500Y-103861304D01*
X126699500Y-103861304D01*
X126699500Y-104038695D01*
X126734103Y-104212658D01*
X126734106Y-104212667D01*
X126801983Y-104376540D01*
X126801990Y-104376553D01*
X126900535Y-104524034D01*
X126900538Y-104524038D01*
X127025961Y-104649461D01*
X127025965Y-104649464D01*
X127173446Y-104748009D01*
X127173459Y-104748016D01*
X127296363Y-104798923D01*
X127337334Y-104815894D01*
X127337336Y-104815894D01*
X127337341Y-104815896D01*
X127511304Y-104850499D01*
X127511307Y-104850500D01*
X127511309Y-104850500D01*
X127688693Y-104850500D01*
X127688694Y-104850499D01*
X127746682Y-104838964D01*
X127862658Y-104815896D01*
X127862661Y-104815894D01*
X127862666Y-104815894D01*
X128026547Y-104748013D01*
X128174035Y-104649464D01*
X128299464Y-104524035D01*
X128398013Y-104376547D01*
X128465894Y-104212666D01*
X128500500Y-104038691D01*
X128500500Y-103861309D01*
X128500500Y-103861306D01*
X128500499Y-103861304D01*
X128465896Y-103687341D01*
X128465893Y-103687332D01*
X128398016Y-103523459D01*
X128398009Y-103523446D01*
X128299464Y-103375965D01*
X128299461Y-103375961D01*
X128174038Y-103250538D01*
X128174034Y-103250535D01*
X128026553Y-103151990D01*
X128026540Y-103151983D01*
X127862667Y-103084106D01*
X127862658Y-103084103D01*
X127688694Y-103049500D01*
X127688691Y-103049500D01*
X127511309Y-103049500D01*
X127511306Y-103049500D01*
X127337341Y-103084103D01*
X127337332Y-103084106D01*
X127173459Y-103151983D01*
X127173446Y-103151990D01*
X127025965Y-103250535D01*
X127025961Y-103250538D01*
X126900538Y-103375961D01*
X126900535Y-103375965D01*
X126801990Y-103523446D01*
X126801983Y-103523459D01*
X126734106Y-103687332D01*
X126734103Y-103687341D01*
X126699500Y-103861304D01*
X115500500Y-103861304D01*
X115500500Y-102086304D01*
X132337000Y-102086304D01*
X132337000Y-102263695D01*
X132371603Y-102437658D01*
X132371606Y-102437667D01*
X132439483Y-102601540D01*
X132439490Y-102601553D01*
X132538035Y-102749034D01*
X132538038Y-102749038D01*
X132663461Y-102874461D01*
X132663465Y-102874464D01*
X132810946Y-102973009D01*
X132810959Y-102973016D01*
X132933863Y-103023923D01*
X132974834Y-103040894D01*
X132974836Y-103040894D01*
X132974841Y-103040896D01*
X133148804Y-103075499D01*
X133148807Y-103075500D01*
X133148809Y-103075500D01*
X133326193Y-103075500D01*
X133326194Y-103075499D01*
X133384182Y-103063964D01*
X133500158Y-103040896D01*
X133500161Y-103040894D01*
X133500166Y-103040894D01*
X133664047Y-102973013D01*
X133811535Y-102874464D01*
X133936964Y-102749035D01*
X134035513Y-102601547D01*
X134103394Y-102437666D01*
X134108637Y-102411309D01*
X134108638Y-102411304D01*
X135599500Y-102411304D01*
X135599500Y-102588695D01*
X135634103Y-102762658D01*
X135634106Y-102762667D01*
X135701983Y-102926540D01*
X135701990Y-102926553D01*
X135800535Y-103074034D01*
X135800538Y-103074038D01*
X135925961Y-103199461D01*
X135925965Y-103199464D01*
X136073446Y-103298009D01*
X136073459Y-103298016D01*
X136196363Y-103348923D01*
X136237334Y-103365894D01*
X136237336Y-103365894D01*
X136237341Y-103365896D01*
X136411304Y-103400499D01*
X136411307Y-103400500D01*
X136411309Y-103400500D01*
X136588693Y-103400500D01*
X136588694Y-103400499D01*
X136646682Y-103388964D01*
X136762658Y-103365896D01*
X136762661Y-103365894D01*
X136762666Y-103365894D01*
X136926547Y-103298013D01*
X137074035Y-103199464D01*
X137199464Y-103074035D01*
X137298013Y-102926547D01*
X137365894Y-102762666D01*
X137368606Y-102749035D01*
X137388964Y-102646682D01*
X137400500Y-102588691D01*
X137400500Y-102411309D01*
X137400500Y-102411306D01*
X137400499Y-102411304D01*
X137365896Y-102237341D01*
X137365893Y-102237332D01*
X137298016Y-102073459D01*
X137298009Y-102073446D01*
X137199464Y-101925965D01*
X137199461Y-101925961D01*
X137074038Y-101800538D01*
X137074034Y-101800535D01*
X136926553Y-101701990D01*
X136926540Y-101701983D01*
X136762667Y-101634106D01*
X136762658Y-101634103D01*
X136588694Y-101599500D01*
X136588691Y-101599500D01*
X136411309Y-101599500D01*
X136411306Y-101599500D01*
X136237341Y-101634103D01*
X136237332Y-101634106D01*
X136073459Y-101701983D01*
X136073446Y-101701990D01*
X135925965Y-101800535D01*
X135925961Y-101800538D01*
X135800538Y-101925961D01*
X135800535Y-101925965D01*
X135701990Y-102073446D01*
X135701983Y-102073459D01*
X135634106Y-102237332D01*
X135634103Y-102237341D01*
X135599500Y-102411304D01*
X134108638Y-102411304D01*
X134114661Y-102381026D01*
X134137999Y-102263695D01*
X134138000Y-102263693D01*
X134138000Y-102086306D01*
X134137999Y-102086304D01*
X134103396Y-101912341D01*
X134103393Y-101912332D01*
X134035516Y-101748459D01*
X134035509Y-101748446D01*
X133936964Y-101600965D01*
X133936961Y-101600961D01*
X133811538Y-101475538D01*
X133811534Y-101475535D01*
X133664053Y-101376990D01*
X133664040Y-101376983D01*
X133500167Y-101309106D01*
X133500158Y-101309103D01*
X133326194Y-101274500D01*
X133326191Y-101274500D01*
X133148809Y-101274500D01*
X133148806Y-101274500D01*
X132974841Y-101309103D01*
X132974832Y-101309106D01*
X132810959Y-101376983D01*
X132810946Y-101376990D01*
X132663465Y-101475535D01*
X132663461Y-101475538D01*
X132538038Y-101600961D01*
X132538035Y-101600965D01*
X132439490Y-101748446D01*
X132439483Y-101748459D01*
X132371606Y-101912332D01*
X132371603Y-101912341D01*
X132337000Y-102086304D01*
X115500500Y-102086304D01*
X115500500Y-100511304D01*
X140599500Y-100511304D01*
X140599500Y-100688695D01*
X140634103Y-100862658D01*
X140634106Y-100862667D01*
X140701983Y-101026540D01*
X140701990Y-101026553D01*
X140800535Y-101174034D01*
X140800538Y-101174038D01*
X140925961Y-101299461D01*
X140925965Y-101299464D01*
X141073446Y-101398009D01*
X141073459Y-101398016D01*
X141196363Y-101448923D01*
X141237334Y-101465894D01*
X141237336Y-101465894D01*
X141237341Y-101465896D01*
X141411304Y-101500499D01*
X141411307Y-101500500D01*
X141411309Y-101500500D01*
X141588693Y-101500500D01*
X141588694Y-101500499D01*
X141646682Y-101488964D01*
X141762658Y-101465896D01*
X141762661Y-101465894D01*
X141762666Y-101465894D01*
X141926547Y-101398013D01*
X142074035Y-101299464D01*
X142199464Y-101174035D01*
X142298013Y-101026547D01*
X142365894Y-100862666D01*
X142400500Y-100688691D01*
X142400500Y-100511309D01*
X142400500Y-100511306D01*
X142400499Y-100511304D01*
X142365896Y-100337341D01*
X142365893Y-100337332D01*
X142298016Y-100173459D01*
X142298009Y-100173446D01*
X142199464Y-100025965D01*
X142199461Y-100025961D01*
X142074038Y-99900538D01*
X142074034Y-99900535D01*
X141926553Y-99801990D01*
X141926540Y-99801983D01*
X141762667Y-99734106D01*
X141762658Y-99734103D01*
X141588694Y-99699500D01*
X141588691Y-99699500D01*
X141411309Y-99699500D01*
X141411306Y-99699500D01*
X141237341Y-99734103D01*
X141237332Y-99734106D01*
X141073459Y-99801983D01*
X141073446Y-99801990D01*
X140925965Y-99900535D01*
X140925961Y-99900538D01*
X140800538Y-100025961D01*
X140800535Y-100025965D01*
X140701990Y-100173446D01*
X140701983Y-100173459D01*
X140634106Y-100337332D01*
X140634103Y-100337341D01*
X140599500Y-100511304D01*
X115500500Y-100511304D01*
X115500500Y-99568995D01*
X117469499Y-99568995D01*
X117496418Y-99704322D01*
X117496421Y-99704332D01*
X117549221Y-99831804D01*
X117549228Y-99831817D01*
X117625885Y-99946541D01*
X117625888Y-99946545D01*
X117723454Y-100044111D01*
X117723458Y-100044114D01*
X117838182Y-100120771D01*
X117838195Y-100120778D01*
X117965348Y-100173446D01*
X117965672Y-100173580D01*
X117965676Y-100173580D01*
X117965677Y-100173581D01*
X118101004Y-100200500D01*
X118101007Y-100200500D01*
X118238995Y-100200500D01*
X118330041Y-100182389D01*
X118374328Y-100173580D01*
X118501811Y-100120775D01*
X118616542Y-100044114D01*
X118714114Y-99946542D01*
X118790775Y-99831811D01*
X118843580Y-99704328D01*
X118870500Y-99568993D01*
X118870500Y-99431007D01*
X118870500Y-99431004D01*
X118843581Y-99295677D01*
X118843580Y-99295676D01*
X118843580Y-99295672D01*
X118835655Y-99276540D01*
X118790778Y-99168195D01*
X118790771Y-99168182D01*
X118714114Y-99053458D01*
X118714111Y-99053454D01*
X118616545Y-98955888D01*
X118616541Y-98955885D01*
X118501817Y-98879228D01*
X118501804Y-98879221D01*
X118479005Y-98869778D01*
X118374332Y-98826421D01*
X118374322Y-98826418D01*
X118238995Y-98799500D01*
X118238993Y-98799500D01*
X118101007Y-98799500D01*
X118101005Y-98799500D01*
X117965677Y-98826418D01*
X117965667Y-98826421D01*
X117838195Y-98879221D01*
X117838182Y-98879228D01*
X117723458Y-98955885D01*
X117723454Y-98955888D01*
X117625888Y-99053454D01*
X117625885Y-99053458D01*
X117549228Y-99168182D01*
X117549221Y-99168195D01*
X117496421Y-99295667D01*
X117496418Y-99295677D01*
X117469500Y-99431004D01*
X117469500Y-99431007D01*
X117469500Y-99568993D01*
X117469500Y-99568995D01*
X117469499Y-99568995D01*
X115500500Y-99568995D01*
X115500500Y-98761304D01*
X132249500Y-98761304D01*
X132249500Y-98938695D01*
X132284103Y-99112658D01*
X132284106Y-99112667D01*
X132351983Y-99276540D01*
X132351990Y-99276553D01*
X132450535Y-99424034D01*
X132450538Y-99424038D01*
X132575961Y-99549461D01*
X132575965Y-99549464D01*
X132723446Y-99648009D01*
X132723459Y-99648016D01*
X132846363Y-99698923D01*
X132887334Y-99715894D01*
X132887336Y-99715894D01*
X132887341Y-99715896D01*
X133061304Y-99750499D01*
X133061307Y-99750500D01*
X133061309Y-99750500D01*
X133238693Y-99750500D01*
X133238694Y-99750499D01*
X133321124Y-99734103D01*
X133412658Y-99715896D01*
X133412661Y-99715894D01*
X133412666Y-99715894D01*
X133576547Y-99648013D01*
X133724035Y-99549464D01*
X133849464Y-99424035D01*
X133948013Y-99276547D01*
X134015894Y-99112666D01*
X134050500Y-98938691D01*
X134050500Y-98761309D01*
X134050500Y-98761306D01*
X134050499Y-98761304D01*
X134015896Y-98587341D01*
X134015893Y-98587332D01*
X133948016Y-98423459D01*
X133948009Y-98423446D01*
X133849464Y-98275965D01*
X133849461Y-98275961D01*
X133724038Y-98150538D01*
X133724034Y-98150535D01*
X133576553Y-98051990D01*
X133576540Y-98051983D01*
X133412667Y-97984106D01*
X133412658Y-97984103D01*
X133238694Y-97949500D01*
X133238691Y-97949500D01*
X133061309Y-97949500D01*
X133061306Y-97949500D01*
X132887341Y-97984103D01*
X132887332Y-97984106D01*
X132723459Y-98051983D01*
X132723446Y-98051990D01*
X132575965Y-98150535D01*
X132575961Y-98150538D01*
X132450538Y-98275961D01*
X132450535Y-98275965D01*
X132351990Y-98423446D01*
X132351983Y-98423459D01*
X132284106Y-98587332D01*
X132284103Y-98587341D01*
X132249500Y-98761304D01*
X115500500Y-98761304D01*
X115500500Y-96568995D01*
X117469499Y-96568995D01*
X117496418Y-96704322D01*
X117496421Y-96704332D01*
X117549221Y-96831804D01*
X117549228Y-96831817D01*
X117625885Y-96946541D01*
X117625888Y-96946545D01*
X117723454Y-97044111D01*
X117723458Y-97044114D01*
X117838182Y-97120771D01*
X117838195Y-97120778D01*
X117965667Y-97173578D01*
X117965672Y-97173580D01*
X117965676Y-97173580D01*
X117965677Y-97173581D01*
X118101004Y-97200500D01*
X118101007Y-97200500D01*
X118238995Y-97200500D01*
X118330041Y-97182389D01*
X118374328Y-97173580D01*
X118501811Y-97120775D01*
X118616542Y-97044114D01*
X118714114Y-96946542D01*
X118772398Y-96859313D01*
X118826010Y-96814509D01*
X118895335Y-96805802D01*
X118958362Y-96835956D01*
X118995082Y-96895399D01*
X118999500Y-96928205D01*
X118999500Y-96988695D01*
X119034103Y-97162658D01*
X119034106Y-97162667D01*
X119101983Y-97326540D01*
X119101990Y-97326553D01*
X119200535Y-97474034D01*
X119200538Y-97474038D01*
X119325961Y-97599461D01*
X119325965Y-97599464D01*
X119473446Y-97698009D01*
X119473459Y-97698016D01*
X119596363Y-97748923D01*
X119637334Y-97765894D01*
X119637336Y-97765894D01*
X119637341Y-97765896D01*
X119811304Y-97800499D01*
X119811307Y-97800500D01*
X119811309Y-97800500D01*
X119988693Y-97800500D01*
X119988694Y-97800499D01*
X120046682Y-97788964D01*
X120162658Y-97765896D01*
X120162661Y-97765894D01*
X120162666Y-97765894D01*
X120326547Y-97698013D01*
X120474035Y-97599464D01*
X120599464Y-97474035D01*
X120674789Y-97361304D01*
X157249500Y-97361304D01*
X157249500Y-97538695D01*
X157284103Y-97712658D01*
X157284106Y-97712667D01*
X157351983Y-97876540D01*
X157351990Y-97876553D01*
X157450535Y-98024034D01*
X157450538Y-98024038D01*
X157575961Y-98149461D01*
X157575965Y-98149464D01*
X157723446Y-98248009D01*
X157723459Y-98248016D01*
X157846363Y-98298923D01*
X157887334Y-98315894D01*
X157887336Y-98315894D01*
X157887341Y-98315896D01*
X158061304Y-98350499D01*
X158061307Y-98350500D01*
X158061309Y-98350500D01*
X158238693Y-98350500D01*
X158238694Y-98350499D01*
X158296682Y-98338964D01*
X158412658Y-98315896D01*
X158412661Y-98315894D01*
X158412666Y-98315894D01*
X158576547Y-98248013D01*
X158724035Y-98149464D01*
X158849464Y-98024035D01*
X158948013Y-97876547D01*
X159015894Y-97712666D01*
X159018810Y-97698009D01*
X159050499Y-97538695D01*
X159050500Y-97538693D01*
X159050500Y-97361306D01*
X159050499Y-97361304D01*
X159015896Y-97187341D01*
X159015893Y-97187332D01*
X158948016Y-97023459D01*
X158948009Y-97023446D01*
X158849464Y-96875965D01*
X158849461Y-96875961D01*
X158724038Y-96750538D01*
X158724034Y-96750535D01*
X158576553Y-96651990D01*
X158576540Y-96651983D01*
X158412667Y-96584106D01*
X158412658Y-96584103D01*
X158238694Y-96549500D01*
X158238691Y-96549500D01*
X158061309Y-96549500D01*
X158061306Y-96549500D01*
X157887341Y-96584103D01*
X157887332Y-96584106D01*
X157723459Y-96651983D01*
X157723446Y-96651990D01*
X157575965Y-96750535D01*
X157575961Y-96750538D01*
X157450538Y-96875961D01*
X157450535Y-96875965D01*
X157351990Y-97023446D01*
X157351983Y-97023459D01*
X157284106Y-97187332D01*
X157284103Y-97187341D01*
X157249500Y-97361304D01*
X120674789Y-97361304D01*
X120698013Y-97326547D01*
X120765894Y-97162666D01*
X120774228Y-97120771D01*
X120798646Y-96998013D01*
X120800500Y-96988691D01*
X120800500Y-96811309D01*
X120800500Y-96811306D01*
X120800499Y-96811304D01*
X120764706Y-96631359D01*
X120766950Y-96630912D01*
X120766401Y-96571264D01*
X120803631Y-96512140D01*
X120866916Y-96482530D01*
X120936164Y-96491835D01*
X120954586Y-96501998D01*
X121023446Y-96548009D01*
X121023459Y-96548016D01*
X121079586Y-96571264D01*
X121187334Y-96615894D01*
X121187336Y-96615894D01*
X121187341Y-96615896D01*
X121361304Y-96650499D01*
X121361307Y-96650500D01*
X121361309Y-96650500D01*
X121538693Y-96650500D01*
X121538694Y-96650499D01*
X121634919Y-96631359D01*
X121712658Y-96615896D01*
X121712661Y-96615894D01*
X121712666Y-96615894D01*
X121876547Y-96548013D01*
X122024035Y-96449464D01*
X122149464Y-96324035D01*
X122248013Y-96176547D01*
X122251473Y-96168195D01*
X122259837Y-96148001D01*
X122275037Y-96111304D01*
X159199500Y-96111304D01*
X159199500Y-96288695D01*
X159234103Y-96462658D01*
X159234106Y-96462667D01*
X159301983Y-96626540D01*
X159301990Y-96626553D01*
X159400535Y-96774034D01*
X159400538Y-96774038D01*
X159525961Y-96899461D01*
X159525965Y-96899464D01*
X159673446Y-96998009D01*
X159673459Y-96998016D01*
X159784745Y-97044111D01*
X159837334Y-97065894D01*
X159837336Y-97065894D01*
X159837341Y-97065896D01*
X160011304Y-97100499D01*
X160011307Y-97100500D01*
X160011309Y-97100500D01*
X160188693Y-97100500D01*
X160188694Y-97100499D01*
X160246682Y-97088964D01*
X160362658Y-97065896D01*
X160362661Y-97065894D01*
X160362666Y-97065894D01*
X160526547Y-96998013D01*
X160674035Y-96899464D01*
X160799464Y-96774035D01*
X160898013Y-96626547D01*
X160965894Y-96462666D01*
X160972192Y-96431007D01*
X161000499Y-96288695D01*
X161000500Y-96288693D01*
X161000500Y-96111306D01*
X161000499Y-96111304D01*
X160965896Y-95937341D01*
X160965893Y-95937332D01*
X160898016Y-95773459D01*
X160898009Y-95773446D01*
X160799464Y-95625965D01*
X160799461Y-95625961D01*
X160674038Y-95500538D01*
X160674034Y-95500535D01*
X160526553Y-95401990D01*
X160526540Y-95401983D01*
X160362667Y-95334106D01*
X160362658Y-95334103D01*
X160188694Y-95299500D01*
X160188691Y-95299500D01*
X160011309Y-95299500D01*
X160011306Y-95299500D01*
X159837341Y-95334103D01*
X159837332Y-95334106D01*
X159673459Y-95401983D01*
X159673446Y-95401990D01*
X159525965Y-95500535D01*
X159525961Y-95500538D01*
X159400538Y-95625961D01*
X159400535Y-95625965D01*
X159301990Y-95773446D01*
X159301983Y-95773459D01*
X159234106Y-95937332D01*
X159234103Y-95937341D01*
X159199500Y-96111304D01*
X122275037Y-96111304D01*
X122315894Y-96012666D01*
X122327189Y-95955886D01*
X122350499Y-95838695D01*
X122350500Y-95838693D01*
X122350500Y-95661306D01*
X122350499Y-95661304D01*
X122315896Y-95487341D01*
X122315893Y-95487332D01*
X122248016Y-95323459D01*
X122248009Y-95323446D01*
X122149464Y-95175965D01*
X122149461Y-95175961D01*
X122024038Y-95050538D01*
X122024034Y-95050535D01*
X121876553Y-94951990D01*
X121876540Y-94951983D01*
X121712667Y-94884106D01*
X121712658Y-94884103D01*
X121538694Y-94849500D01*
X121538691Y-94849500D01*
X121361309Y-94849500D01*
X121361306Y-94849500D01*
X121187341Y-94884103D01*
X121187332Y-94884106D01*
X121023459Y-94951983D01*
X121023446Y-94951990D01*
X120875965Y-95050535D01*
X120875961Y-95050538D01*
X120750538Y-95175961D01*
X120750535Y-95175965D01*
X120651990Y-95323446D01*
X120651983Y-95323459D01*
X120584106Y-95487332D01*
X120584103Y-95487341D01*
X120549500Y-95661304D01*
X120549500Y-95838695D01*
X120585294Y-96018641D01*
X120583055Y-96019086D01*
X120583588Y-96078772D01*
X120546339Y-96137884D01*
X120483045Y-96167475D01*
X120413800Y-96158148D01*
X120395413Y-96148001D01*
X120326553Y-96101990D01*
X120326540Y-96101983D01*
X120162667Y-96034106D01*
X120162658Y-96034103D01*
X119988694Y-95999500D01*
X119988691Y-95999500D01*
X119811309Y-95999500D01*
X119811306Y-95999500D01*
X119637341Y-96034103D01*
X119637332Y-96034106D01*
X119473459Y-96101983D01*
X119473446Y-96101990D01*
X119325965Y-96200535D01*
X119325961Y-96200538D01*
X119200538Y-96325961D01*
X119200535Y-96325965D01*
X119098602Y-96478518D01*
X119097260Y-96477621D01*
X119053771Y-96521887D01*
X118985632Y-96537342D01*
X118919955Y-96513506D01*
X118877590Y-96457945D01*
X118872599Y-96436800D01*
X118871689Y-96436982D01*
X118843581Y-96295677D01*
X118843580Y-96295676D01*
X118843580Y-96295672D01*
X118840688Y-96288691D01*
X118790778Y-96168195D01*
X118790771Y-96168182D01*
X118714114Y-96053458D01*
X118714111Y-96053454D01*
X118616545Y-95955888D01*
X118616541Y-95955885D01*
X118501817Y-95879228D01*
X118501804Y-95879221D01*
X118374332Y-95826421D01*
X118374322Y-95826418D01*
X118238995Y-95799500D01*
X118238993Y-95799500D01*
X118101007Y-95799500D01*
X118101005Y-95799500D01*
X117965677Y-95826418D01*
X117965667Y-95826421D01*
X117838195Y-95879221D01*
X117838182Y-95879228D01*
X117723458Y-95955885D01*
X117723454Y-95955888D01*
X117625888Y-96053454D01*
X117625885Y-96053458D01*
X117549228Y-96168182D01*
X117549221Y-96168195D01*
X117496421Y-96295667D01*
X117496418Y-96295677D01*
X117469500Y-96431004D01*
X117469500Y-96431007D01*
X117469500Y-96568993D01*
X117469500Y-96568995D01*
X117469499Y-96568995D01*
X115500500Y-96568995D01*
X115500500Y-91511304D01*
X144799500Y-91511304D01*
X144799500Y-91688695D01*
X144834103Y-91862658D01*
X144834106Y-91862667D01*
X144901983Y-92026540D01*
X144901990Y-92026553D01*
X145000535Y-92174034D01*
X145000538Y-92174038D01*
X145125961Y-92299461D01*
X145125965Y-92299464D01*
X145273446Y-92398009D01*
X145273459Y-92398016D01*
X145396363Y-92448923D01*
X145437334Y-92465894D01*
X145437336Y-92465894D01*
X145437341Y-92465896D01*
X145611304Y-92500499D01*
X145611307Y-92500500D01*
X145611309Y-92500500D01*
X145788693Y-92500500D01*
X145788694Y-92500499D01*
X145846682Y-92488964D01*
X145962658Y-92465896D01*
X145962661Y-92465894D01*
X145962666Y-92465894D01*
X146126547Y-92398013D01*
X146274035Y-92299464D01*
X146399464Y-92174035D01*
X146498013Y-92026547D01*
X146565894Y-91862666D01*
X146600500Y-91688691D01*
X146600500Y-91511309D01*
X146600500Y-91511306D01*
X146600499Y-91511304D01*
X146565896Y-91337341D01*
X146565893Y-91337332D01*
X146498016Y-91173459D01*
X146498009Y-91173446D01*
X146399464Y-91025965D01*
X146399461Y-91025961D01*
X146274038Y-90900538D01*
X146274034Y-90900535D01*
X146126553Y-90801990D01*
X146126540Y-90801983D01*
X145962667Y-90734106D01*
X145962658Y-90734103D01*
X145788694Y-90699500D01*
X145788691Y-90699500D01*
X145611309Y-90699500D01*
X145611306Y-90699500D01*
X145437341Y-90734103D01*
X145437332Y-90734106D01*
X145273459Y-90801983D01*
X145273446Y-90801990D01*
X145125965Y-90900535D01*
X145125961Y-90900538D01*
X145000538Y-91025961D01*
X145000535Y-91025965D01*
X144901990Y-91173446D01*
X144901983Y-91173459D01*
X144834106Y-91337332D01*
X144834103Y-91337341D01*
X144799500Y-91511304D01*
X115500500Y-91511304D01*
X115500500Y-86848366D01*
X116300000Y-86848366D01*
X116300000Y-87151633D01*
X116333952Y-87452966D01*
X116333954Y-87452982D01*
X116401434Y-87748633D01*
X116401438Y-87748645D01*
X116501592Y-88034866D01*
X116501598Y-88034880D01*
X116633172Y-88308096D01*
X116794515Y-88564872D01*
X116921871Y-88724573D01*
X118063708Y-87582736D01*
X118160967Y-87716602D01*
X118283398Y-87839033D01*
X118417262Y-87936290D01*
X117275425Y-89078127D01*
X117435127Y-89205484D01*
X117691903Y-89366827D01*
X117965119Y-89498401D01*
X117965133Y-89498407D01*
X118251354Y-89598561D01*
X118251366Y-89598565D01*
X118547017Y-89666045D01*
X118547033Y-89666047D01*
X118848366Y-89699999D01*
X118848368Y-89700000D01*
X119151632Y-89700000D01*
X119151633Y-89699999D01*
X119452966Y-89666047D01*
X119452982Y-89666045D01*
X119748633Y-89598565D01*
X119748645Y-89598561D01*
X120034866Y-89498407D01*
X120034880Y-89498401D01*
X120308096Y-89366827D01*
X120564872Y-89205484D01*
X120724573Y-89078126D01*
X119582737Y-87936290D01*
X119716602Y-87839033D01*
X119839033Y-87716602D01*
X119936290Y-87582737D01*
X121078126Y-88724573D01*
X121205484Y-88564872D01*
X121347631Y-88338646D01*
X129125000Y-88338646D01*
X129159584Y-88512512D01*
X129159586Y-88512520D01*
X129227428Y-88676307D01*
X129227433Y-88676316D01*
X129325923Y-88823716D01*
X129325926Y-88823720D01*
X129451279Y-88949073D01*
X129451283Y-88949076D01*
X129598683Y-89047566D01*
X129598693Y-89047571D01*
X129762476Y-89115412D01*
X129762483Y-89115415D01*
X129775000Y-89117904D01*
X129775000Y-88250000D01*
X129125000Y-88250000D01*
X129125000Y-88338646D01*
X121347631Y-88338646D01*
X121366827Y-88308096D01*
X121445450Y-88144836D01*
X121445451Y-88144834D01*
X121498398Y-88034888D01*
X121498407Y-88034866D01*
X121528008Y-87950272D01*
X129775000Y-87950272D01*
X129775000Y-88049728D01*
X129813060Y-88141614D01*
X129883386Y-88211940D01*
X129975272Y-88250000D01*
X130074728Y-88250000D01*
X130166614Y-88211940D01*
X130236940Y-88141614D01*
X130275000Y-88049728D01*
X130275000Y-89117903D01*
X130287516Y-89115415D01*
X130287523Y-89115412D01*
X130451306Y-89047571D01*
X130451315Y-89047566D01*
X130580659Y-88961141D01*
X130647336Y-88940263D01*
X130714716Y-88958747D01*
X130718441Y-88961141D01*
X130847791Y-89047571D01*
X130848453Y-89048013D01*
X130848455Y-89048014D01*
X130848459Y-89048016D01*
X130921155Y-89078127D01*
X131012334Y-89115894D01*
X131012336Y-89115894D01*
X131012341Y-89115896D01*
X131186304Y-89150499D01*
X131186307Y-89150500D01*
X131186309Y-89150500D01*
X131363693Y-89150500D01*
X131363694Y-89150499D01*
X131421682Y-89138964D01*
X131537658Y-89115896D01*
X131537661Y-89115894D01*
X131537666Y-89115894D01*
X131701547Y-89048013D01*
X131831109Y-88961442D01*
X131897786Y-88940564D01*
X131965166Y-88959048D01*
X131968891Y-88961442D01*
X132098447Y-89048009D01*
X132098453Y-89048013D01*
X132098455Y-89048014D01*
X132098459Y-89048016D01*
X132171155Y-89078127D01*
X132262334Y-89115894D01*
X132262336Y-89115894D01*
X132262341Y-89115896D01*
X132436304Y-89150499D01*
X132436307Y-89150500D01*
X132436309Y-89150500D01*
X132613693Y-89150500D01*
X132613694Y-89150499D01*
X132671682Y-89138964D01*
X132787658Y-89115896D01*
X132787661Y-89115894D01*
X132787666Y-89115894D01*
X132951547Y-89048013D01*
X133008838Y-89009731D01*
X133075510Y-88988854D01*
X133141873Y-89006716D01*
X133285394Y-89093478D01*
X133447804Y-89144086D01*
X133518384Y-89150500D01*
X133518387Y-89150500D01*
X134031613Y-89150500D01*
X134031616Y-89150500D01*
X134102196Y-89144086D01*
X134264606Y-89093478D01*
X134410185Y-89005472D01*
X134500835Y-88914822D01*
X134562158Y-88881337D01*
X134612704Y-88880886D01*
X134695355Y-88897326D01*
X134711308Y-88900500D01*
X134711309Y-88900500D01*
X134888693Y-88900500D01*
X134888694Y-88900499D01*
X134946682Y-88888964D01*
X135062658Y-88865896D01*
X135062661Y-88865894D01*
X135062666Y-88865894D01*
X135226547Y-88798013D01*
X135374035Y-88699464D01*
X135499464Y-88574035D01*
X135598013Y-88426547D01*
X135665894Y-88262666D01*
X135668414Y-88250000D01*
X135700499Y-88088695D01*
X135700500Y-88088693D01*
X135700500Y-87911306D01*
X135700499Y-87911304D01*
X135665896Y-87737341D01*
X135665893Y-87737332D01*
X135598016Y-87573459D01*
X135598009Y-87573446D01*
X135499464Y-87425965D01*
X135499461Y-87425961D01*
X135374038Y-87300538D01*
X135374034Y-87300535D01*
X135226553Y-87201990D01*
X135226540Y-87201983D01*
X135062667Y-87134106D01*
X135062658Y-87134103D01*
X134888694Y-87099500D01*
X134888691Y-87099500D01*
X134728373Y-87099500D01*
X134701365Y-87091569D01*
X134673624Y-87086759D01*
X134668285Y-87081856D01*
X134661334Y-87079815D01*
X134642901Y-87058542D01*
X134622164Y-87039497D01*
X134620323Y-87032486D01*
X134615579Y-87027011D01*
X134611572Y-86999146D01*
X134604425Y-86971917D01*
X134606358Y-86962882D01*
X134605635Y-86957853D01*
X134610455Y-86937142D01*
X134611953Y-86932535D01*
X134640894Y-86862666D01*
X134643738Y-86848366D01*
X160300000Y-86848366D01*
X160300000Y-87151633D01*
X160333952Y-87452966D01*
X160333954Y-87452982D01*
X160401434Y-87748633D01*
X160401438Y-87748645D01*
X160501592Y-88034866D01*
X160501598Y-88034880D01*
X160633172Y-88308096D01*
X160794515Y-88564872D01*
X160921871Y-88724573D01*
X162063708Y-87582736D01*
X162160967Y-87716602D01*
X162283398Y-87839033D01*
X162417262Y-87936290D01*
X161275425Y-89078127D01*
X161435127Y-89205484D01*
X161691903Y-89366827D01*
X161965119Y-89498401D01*
X161965133Y-89498407D01*
X162251354Y-89598561D01*
X162251366Y-89598565D01*
X162547017Y-89666045D01*
X162547033Y-89666047D01*
X162848366Y-89699999D01*
X162848368Y-89700000D01*
X163151632Y-89700000D01*
X163151633Y-89699999D01*
X163452966Y-89666047D01*
X163452982Y-89666045D01*
X163748633Y-89598565D01*
X163748645Y-89598561D01*
X164034866Y-89498407D01*
X164034880Y-89498401D01*
X164308096Y-89366827D01*
X164564872Y-89205484D01*
X164724573Y-89078126D01*
X163582737Y-87936290D01*
X163716602Y-87839033D01*
X163839033Y-87716602D01*
X163936290Y-87582737D01*
X165078126Y-88724573D01*
X165205484Y-88564872D01*
X165366827Y-88308096D01*
X165498401Y-88034880D01*
X165498407Y-88034866D01*
X165598561Y-87748645D01*
X165598565Y-87748633D01*
X165666045Y-87452982D01*
X165666047Y-87452966D01*
X165699999Y-87151633D01*
X165700000Y-87151631D01*
X165700000Y-86848368D01*
X165699999Y-86848366D01*
X165666047Y-86547033D01*
X165666045Y-86547017D01*
X165598565Y-86251366D01*
X165598561Y-86251354D01*
X165498407Y-85965133D01*
X165498401Y-85965119D01*
X165366827Y-85691903D01*
X165205484Y-85435127D01*
X165078127Y-85275425D01*
X163936290Y-86417262D01*
X163839033Y-86283398D01*
X163716602Y-86160967D01*
X163582736Y-86063709D01*
X164724573Y-84921871D01*
X164564872Y-84794515D01*
X164308096Y-84633172D01*
X164034880Y-84501598D01*
X164034866Y-84501592D01*
X163748645Y-84401438D01*
X163748633Y-84401434D01*
X163452982Y-84333954D01*
X163452966Y-84333952D01*
X163151633Y-84300000D01*
X162848366Y-84300000D01*
X162547033Y-84333952D01*
X162547017Y-84333954D01*
X162251366Y-84401434D01*
X162251354Y-84401438D01*
X161965133Y-84501592D01*
X161965119Y-84501598D01*
X161691903Y-84633172D01*
X161435127Y-84794515D01*
X161275425Y-84921871D01*
X162417263Y-86063709D01*
X162283398Y-86160967D01*
X162160967Y-86283398D01*
X162063709Y-86417262D01*
X160921871Y-85275425D01*
X160794515Y-85435127D01*
X160633172Y-85691903D01*
X160501598Y-85965119D01*
X160501592Y-85965133D01*
X160401438Y-86251354D01*
X160401434Y-86251366D01*
X160333954Y-86547017D01*
X160333952Y-86547033D01*
X160300000Y-86848366D01*
X134643738Y-86848366D01*
X134675500Y-86688691D01*
X134675500Y-86511309D01*
X134675500Y-86511306D01*
X134675499Y-86511304D01*
X134640896Y-86337341D01*
X134640893Y-86337332D01*
X134573016Y-86173459D01*
X134573009Y-86173446D01*
X134474464Y-86025965D01*
X134474461Y-86025961D01*
X134349038Y-85900538D01*
X134349034Y-85900535D01*
X134201553Y-85801990D01*
X134201540Y-85801983D01*
X134037667Y-85734106D01*
X134037658Y-85734103D01*
X133863694Y-85699500D01*
X133863691Y-85699500D01*
X133686309Y-85699500D01*
X133686306Y-85699500D01*
X133512341Y-85734103D01*
X133512332Y-85734106D01*
X133348459Y-85801983D01*
X133348446Y-85801990D01*
X133200965Y-85900535D01*
X133200961Y-85900538D01*
X133075538Y-86025961D01*
X133075535Y-86025965D01*
X132976990Y-86173446D01*
X132976983Y-86173459D01*
X132909106Y-86337332D01*
X132909103Y-86337341D01*
X132874500Y-86511304D01*
X132874500Y-86511309D01*
X132874500Y-86688691D01*
X132874501Y-86688695D01*
X132882344Y-86728127D01*
X132876115Y-86797718D01*
X132833252Y-86852895D01*
X132767362Y-86876139D01*
X132736535Y-86873934D01*
X132613695Y-86849500D01*
X132613691Y-86849500D01*
X132436309Y-86849500D01*
X132436306Y-86849500D01*
X132262341Y-86884103D01*
X132262332Y-86884106D01*
X132098459Y-86951983D01*
X132098446Y-86951990D01*
X131968891Y-87038557D01*
X131902213Y-87059435D01*
X131834833Y-87040950D01*
X131831109Y-87038557D01*
X131701553Y-86951990D01*
X131701540Y-86951983D01*
X131537667Y-86884106D01*
X131537658Y-86884103D01*
X131363694Y-86849500D01*
X131363691Y-86849500D01*
X131186309Y-86849500D01*
X131186306Y-86849500D01*
X131012341Y-86884103D01*
X131012332Y-86884106D01*
X130848459Y-86951983D01*
X130848446Y-86951990D01*
X130718441Y-87038858D01*
X130651764Y-87059736D01*
X130584383Y-87041252D01*
X130580659Y-87038858D01*
X130451316Y-86952433D01*
X130451307Y-86952428D01*
X130287519Y-86884585D01*
X130275000Y-86882094D01*
X130275000Y-87950272D01*
X130236940Y-87858386D01*
X130166614Y-87788060D01*
X130074728Y-87750000D01*
X129975272Y-87750000D01*
X129883386Y-87788060D01*
X129813060Y-87858386D01*
X129775000Y-87950272D01*
X121528008Y-87950272D01*
X121598561Y-87748645D01*
X121598565Y-87748633D01*
X121618486Y-87661353D01*
X129125000Y-87661353D01*
X129125000Y-87750000D01*
X129775000Y-87750000D01*
X129775000Y-86882095D01*
X129774999Y-86882094D01*
X129762480Y-86884585D01*
X129598692Y-86952428D01*
X129598683Y-86952433D01*
X129451283Y-87050923D01*
X129451279Y-87050926D01*
X129325926Y-87176279D01*
X129325923Y-87176283D01*
X129227433Y-87323683D01*
X129227428Y-87323692D01*
X129159586Y-87487479D01*
X129159584Y-87487487D01*
X129125000Y-87661353D01*
X121618486Y-87661353D01*
X121626173Y-87627674D01*
X121626173Y-87627673D01*
X121666045Y-87452978D01*
X121666047Y-87452966D01*
X121699999Y-87151633D01*
X121700000Y-87151631D01*
X121700000Y-86848368D01*
X121699999Y-86848366D01*
X121666047Y-86547033D01*
X121666045Y-86547017D01*
X121598565Y-86251366D01*
X121598561Y-86251354D01*
X121498407Y-85965133D01*
X121498401Y-85965119D01*
X121366827Y-85691903D01*
X121205484Y-85435127D01*
X121078127Y-85275425D01*
X119936290Y-86417262D01*
X119839033Y-86283398D01*
X119716602Y-86160967D01*
X119582736Y-86063709D01*
X120724573Y-84921871D01*
X120564872Y-84794515D01*
X120308096Y-84633172D01*
X120034880Y-84501598D01*
X120034866Y-84501592D01*
X119748645Y-84401438D01*
X119748633Y-84401434D01*
X119452982Y-84333954D01*
X119452966Y-84333952D01*
X119151633Y-84300000D01*
X118848366Y-84300000D01*
X118547033Y-84333952D01*
X118547017Y-84333954D01*
X118251366Y-84401434D01*
X118251354Y-84401438D01*
X117965133Y-84501592D01*
X117965119Y-84501598D01*
X117691903Y-84633172D01*
X117435127Y-84794515D01*
X117275425Y-84921871D01*
X118417263Y-86063709D01*
X118283398Y-86160967D01*
X118160967Y-86283398D01*
X118063709Y-86417263D01*
X116921871Y-85275425D01*
X116794515Y-85435127D01*
X116633172Y-85691903D01*
X116501598Y-85965119D01*
X116501592Y-85965133D01*
X116401438Y-86251354D01*
X116401434Y-86251366D01*
X116333954Y-86547017D01*
X116333952Y-86547033D01*
X116300000Y-86848366D01*
X115500500Y-86848366D01*
X115500500Y-84004427D01*
X115500816Y-83995581D01*
X115515130Y-83795443D01*
X115515131Y-83795434D01*
X115517646Y-83777938D01*
X115559356Y-83586199D01*
X115564333Y-83569248D01*
X115632911Y-83385385D01*
X115640259Y-83369298D01*
X115702815Y-83254734D01*
X115734291Y-83197089D01*
X115743845Y-83182221D01*
X115861448Y-83025123D01*
X115873020Y-83011769D01*
X116011769Y-82873020D01*
X116025123Y-82861448D01*
X116182221Y-82743845D01*
X116197089Y-82734291D01*
X116369298Y-82640258D01*
X116385385Y-82632911D01*
X116569248Y-82564333D01*
X116586199Y-82559356D01*
X116777938Y-82517646D01*
X116795436Y-82515130D01*
X116995582Y-82500816D01*
X117004428Y-82500500D01*
X117065892Y-82500500D01*
X165434108Y-82500500D01*
X165495572Y-82500500D01*
X165504418Y-82500816D01*
G37*
%TD.AperFunction*%
%TD*%
M02*
