M48
; DRILL file {KiCad 9.0.0} date 2025-03-16T21:38:02-0400
; FORMAT={-:-/ absolute / metric / decimal}
; #@! TF.CreationDate,2025-03-16T21:38:02-04:00
; #@! TF.GenerationSoftware,Kicad,Pcbnew,9.0.0
; #@! TF.FileFunction,Plated,1,4,PTH
FMAT,2
METRIC
; #@! TA.AperFunction,Plated,PTH,ViaDrill
T1C0.400
; #@! TA.AperFunction,Plated,PTH,ComponentDrill
T2C0.400
; #@! TA.AperFunction,Plated,PTH,ComponentDrill
T3C0.500
; #@! TA.AperFunction,Plated,PTH,ComponentDrill
T4C2.200
%
G90
G05
T1
X118.1Y-113.0
X118.15Y-115.15
X118.825Y-121.775
X119.9Y-96.9
X120.0Y-123.0
X120.3Y-101.1
X121.25Y-100.25
X121.45Y-95.75
X121.5Y-131.0
X124.275Y-121.775
X124.4Y-131.0
X125.6Y-122.15
X125.85Y-113.0
X126.025Y-103.925
X126.05Y-106.2
X127.025Y-107.025
X127.025Y-111.225
X127.3Y-131.0
X127.6Y-103.95
X129.0Y-88.0
X129.8Y-110.1
X130.025Y-89.425
X130.9Y-117.75
X131.7Y-112.225
X131.7Y-119.675
X132.2Y-126.6
X133.15Y-98.85
X133.237Y-102.175
X133.35Y-106.4
X133.4Y-123.8
X133.7Y-140.3
X133.775Y-86.6
X134.8Y-88.0
X134.825Y-141.725
X135.1Y-115.2
X136.3Y-125.375
X136.5Y-102.5
X137.675Y-127.8
X138.1Y-106.45
X138.2Y-119.7
X138.575Y-141.675
X138.675Y-112.75
X139.05Y-102.35
X139.05Y-103.9
X139.7Y-140.3
X140.275Y-127.775
X141.0Y-105.4
X141.5Y-100.6
X141.55Y-102.15
X141.775Y-125.375
X142.0Y-123.825
X143.4Y-107.75
X144.95Y-107.7
X145.7Y-91.6
X146.0Y-108.75
X150.7Y-105.3
X153.25Y-111.9
X156.025Y-139.675
X156.1Y-129.1
X157.1Y-124.5
X157.6Y-141.0
X157.8Y-127.2
X158.15Y-97.45
X158.8Y-120.2
X158.9Y-125.8
X159.075Y-139.675
X159.5Y-129.1
X160.1Y-91.15
X160.1Y-93.7
X160.1Y-94.9
X160.1Y-96.2
X160.25Y-131.25
X160.4Y-121.5
X161.75Y-128.5
X161.75Y-129.75
X161.75Y-131.0
X161.75Y-132.25
X161.75Y-133.5
X161.8Y-105.4
X162.75Y-134.0
X162.9Y-111.95
X163.0Y-119.4
X164.1Y-134.1
X164.175Y-120.575
X164.188Y-125.787
X164.8Y-104.3
X165.9Y-131.6
T2
X117.35Y-87.0
X117.35Y-142.0
X117.833Y-85.833
X117.833Y-88.167
X117.833Y-140.833
X117.833Y-143.167
X119.0Y-85.35
X119.0Y-88.65
X119.0Y-140.35
X119.0Y-143.65
X120.167Y-85.833
X120.167Y-88.167
X120.167Y-140.833
X120.167Y-143.167
X120.65Y-87.0
X120.65Y-142.0
X161.35Y-87.0
X161.833Y-85.833
X161.833Y-88.167
X161.85Y-142.0
X162.333Y-140.833
X162.333Y-143.167
X163.0Y-85.35
X163.0Y-88.65
X163.5Y-140.35
X163.5Y-143.65
X164.167Y-85.833
X164.167Y-88.167
X164.65Y-87.0
X164.667Y-140.833
X164.667Y-143.167
X165.15Y-142.0
T3
X130.025Y-88.0
X131.275Y-88.0
X132.525Y-88.0
X133.775Y-88.0
X134.825Y-140.3
X136.075Y-140.3
X137.325Y-140.3
X138.575Y-140.3
T4
X119.0Y-87.0
X119.0Y-142.0
X163.0Y-87.0
X163.5Y-142.0
T3
G00X164.25Y-110.8
M15
G01X164.25Y-110.1
M16
G05
G00X164.25Y-116.4
M15
G01X164.25Y-115.7
M16
G05
G00X166.4Y-113.8
M15
G01X166.4Y-112.7
M16
G05
M30
