%TF.GenerationSoftware,KiCad,Pcbnew,9.0.0*%
%TF.CreationDate,2025-03-16T21:38:05-04:00*%
%TF.ProjectId,STM32_Dev_Board,53544d33-325f-4446-9576-5f426f617264,rev?*%
%TF.SameCoordinates,Original*%
%TF.FileFunction,Soldermask,Bot*%
%TF.FilePolarity,Negative*%
%FSLAX46Y46*%
G04 Gerber Fmt 4.6, Leading zero omitted, Abs format (unit mm)*
G04 Created by KiCad (PCBNEW 9.0.0) date 2025-03-16 21:38:05*
%MOMM*%
%LPD*%
G01*
G04 APERTURE LIST*
G04 Aperture macros list*
%AMRoundRect*
0 Rectangle with rounded corners*
0 $1 Rounding radius*
0 $2 $3 $4 $5 $6 $7 $8 $9 X,Y pos of 4 corners*
0 Add a 4 corners polygon primitive as box body*
4,1,4,$2,$3,$4,$5,$6,$7,$8,$9,$2,$3,0*
0 Add four circle primitives for the rounded corners*
1,1,$1+$1,$2,$3*
1,1,$1+$1,$4,$5*
1,1,$1+$1,$6,$7*
1,1,$1+$1,$8,$9*
0 Add four rect primitives between the rounded corners*
20,1,$1+$1,$2,$3,$4,$5,0*
20,1,$1+$1,$4,$5,$6,$7,0*
20,1,$1+$1,$6,$7,$8,$9,0*
20,1,$1+$1,$8,$9,$2,$3,0*%
G04 Aperture macros list end*
%ADD10C,0.700000*%
%ADD11C,4.400000*%
%ADD12RoundRect,0.200000X-0.200000X-0.450000X0.200000X-0.450000X0.200000X0.450000X-0.200000X0.450000X0*%
%ADD13O,0.800000X1.300000*%
%ADD14O,1.100000X1.800000*%
%ADD15O,1.100000X2.200000*%
%ADD16RoundRect,0.200000X0.200000X0.450000X-0.200000X0.450000X-0.200000X-0.450000X0.200000X-0.450000X0*%
%ADD17C,0.900000*%
G04 APERTURE END LIST*
D10*
%TO.C,H4*%
X161850000Y-142000000D03*
X162333274Y-140833274D03*
X162333274Y-143166726D03*
X163500000Y-140350000D03*
D11*
X163500000Y-142000000D03*
D10*
X163500000Y-143650000D03*
X164666726Y-140833274D03*
X164666726Y-143166726D03*
X165150000Y-142000000D03*
%TD*%
D12*
%TO.C,J4*%
X134825000Y-140300000D03*
D13*
X136075000Y-140300000D03*
X137325000Y-140300000D03*
X138575000Y-140300000D03*
%TD*%
D10*
%TO.C,H1*%
X117350000Y-142000000D03*
X117833274Y-140833274D03*
X117833274Y-143166726D03*
X119000000Y-140350000D03*
D11*
X119000000Y-142000000D03*
D10*
X119000000Y-143650000D03*
X120166726Y-140833274D03*
X120166726Y-143166726D03*
X120650000Y-142000000D03*
%TD*%
%TO.C,H2*%
X161350000Y-87000000D03*
X161833274Y-85833274D03*
X161833274Y-88166726D03*
X163000000Y-85350000D03*
D11*
X163000000Y-87000000D03*
D10*
X163000000Y-88650000D03*
X164166726Y-85833274D03*
X164166726Y-88166726D03*
X164650000Y-87000000D03*
%TD*%
D14*
%TO.C,J2*%
X164250000Y-116050000D03*
D15*
X166400000Y-113250000D03*
D14*
X164250000Y-110450000D03*
%TD*%
D16*
%TO.C,J3*%
X133775000Y-88000000D03*
D13*
X132525000Y-88000000D03*
X131275000Y-88000000D03*
X130025000Y-88000000D03*
%TD*%
D10*
%TO.C,H3*%
X117350000Y-87000000D03*
X117833274Y-85833274D03*
X117833274Y-88166726D03*
X119000000Y-85350000D03*
D11*
X119000000Y-87000000D03*
D10*
X119000000Y-88650000D03*
X120166726Y-85833274D03*
X120166726Y-88166726D03*
X120650000Y-87000000D03*
%TD*%
D17*
%TO.C,SW1*%
X118170000Y-96500000D03*
X118170000Y-99500000D03*
%TD*%
M02*
