%TF.GenerationSoftware,KiCad,Pcbnew,9.0.0*%
%TF.CreationDate,2025-03-16T21:38:05-04:00*%
%TF.ProjectId,STM32_Dev_Board,53544d33-325f-4446-9576-5f426f617264,rev?*%
%TF.SameCoordinates,Original*%
%TF.FileFunction,Copper,L3,Inr*%
%TF.FilePolarity,Positive*%
%FSLAX46Y46*%
G04 Gerber Fmt 4.6, Leading zero omitted, Abs format (unit mm)*
G04 Created by KiCad (PCBNEW 9.0.0) date 2025-03-16 21:38:05*
%MOMM*%
%LPD*%
G01*
G04 APERTURE LIST*
G04 Aperture macros list*
%AMRoundRect*
0 Rectangle with rounded corners*
0 $1 Rounding radius*
0 $2 $3 $4 $5 $6 $7 $8 $9 X,Y pos of 4 corners*
0 Add a 4 corners polygon primitive as box body*
4,1,4,$2,$3,$4,$5,$6,$7,$8,$9,$2,$3,0*
0 Add four circle primitives for the rounded corners*
1,1,$1+$1,$2,$3*
1,1,$1+$1,$4,$5*
1,1,$1+$1,$6,$7*
1,1,$1+$1,$8,$9*
0 Add four rect primitives between the rounded corners*
20,1,$1+$1,$2,$3,$4,$5,0*
20,1,$1+$1,$4,$5,$6,$7,0*
20,1,$1+$1,$6,$7,$8,$9,0*
20,1,$1+$1,$8,$9,$2,$3,0*%
G04 Aperture macros list end*
%TA.AperFunction,ComponentPad*%
%ADD10C,0.700000*%
%TD*%
%TA.AperFunction,ComponentPad*%
%ADD11C,4.400000*%
%TD*%
%TA.AperFunction,ComponentPad*%
%ADD12RoundRect,0.200000X-0.200000X-0.450000X0.200000X-0.450000X0.200000X0.450000X-0.200000X0.450000X0*%
%TD*%
%TA.AperFunction,ComponentPad*%
%ADD13O,0.800000X1.300000*%
%TD*%
%TA.AperFunction,HeatsinkPad*%
%ADD14O,1.100000X1.800000*%
%TD*%
%TA.AperFunction,HeatsinkPad*%
%ADD15O,1.100000X2.200000*%
%TD*%
%TA.AperFunction,ComponentPad*%
%ADD16RoundRect,0.200000X0.200000X0.450000X-0.200000X0.450000X-0.200000X-0.450000X0.200000X-0.450000X0*%
%TD*%
%TA.AperFunction,ViaPad*%
%ADD17C,0.800000*%
%TD*%
G04 APERTURE END LIST*
D10*
%TO.N,GND*%
%TO.C,H4*%
X161850000Y-142000000D03*
X162333274Y-140833274D03*
X162333274Y-143166726D03*
X163500000Y-140350000D03*
D11*
X163500000Y-142000000D03*
D10*
X163500000Y-143650000D03*
X164666726Y-140833274D03*
X164666726Y-143166726D03*
X165150000Y-142000000D03*
%TD*%
D12*
%TO.N,+3.3V*%
%TO.C,J4*%
X134825000Y-140300000D03*
D13*
%TO.N,Net-(J4-Pin_2)*%
X136075000Y-140300000D03*
%TO.N,Net-(J4-Pin_3)*%
X137325000Y-140300000D03*
%TO.N,GND*%
X138575000Y-140300000D03*
%TD*%
D10*
%TO.N,GND*%
%TO.C,H1*%
X117350000Y-142000000D03*
X117833274Y-140833274D03*
X117833274Y-143166726D03*
X119000000Y-140350000D03*
D11*
X119000000Y-142000000D03*
D10*
X119000000Y-143650000D03*
X120166726Y-140833274D03*
X120166726Y-143166726D03*
X120650000Y-142000000D03*
%TD*%
%TO.N,GND*%
%TO.C,H2*%
X161350000Y-87000000D03*
X161833274Y-85833274D03*
X161833274Y-88166726D03*
X163000000Y-85350000D03*
D11*
X163000000Y-87000000D03*
D10*
X163000000Y-88650000D03*
X164166726Y-85833274D03*
X164166726Y-88166726D03*
X164650000Y-87000000D03*
%TD*%
D14*
%TO.N,unconnected-(J2-Shield-Pad6)_1*%
%TO.C,J2*%
X164250000Y-116050000D03*
D15*
%TO.N,unconnected-(J2-Shield-Pad6)_2*%
X166400000Y-113250000D03*
D14*
%TO.N,unconnected-(J2-Shield-Pad6)*%
X164250000Y-110450000D03*
%TD*%
D16*
%TO.N,+3.3V*%
%TO.C,J3*%
X133775000Y-88000000D03*
D13*
%TO.N,Net-(J3-Pin_2)*%
X132525000Y-88000000D03*
%TO.N,Net-(J3-Pin_3)*%
X131275000Y-88000000D03*
%TO.N,GND*%
X130025000Y-88000000D03*
%TD*%
D10*
%TO.N,GND*%
%TO.C,H3*%
X117350000Y-87000000D03*
X117833274Y-85833274D03*
X117833274Y-88166726D03*
X119000000Y-85350000D03*
D11*
X119000000Y-87000000D03*
D10*
X119000000Y-88650000D03*
X120166726Y-85833274D03*
X120166726Y-88166726D03*
X120650000Y-87000000D03*
%TD*%
D17*
%TO.N,GND*%
X118825000Y-121775000D03*
X121500000Y-131000000D03*
X139700000Y-140300000D03*
X160100000Y-93700000D03*
X159500000Y-129100000D03*
X130900000Y-117750000D03*
X156025000Y-139675000D03*
X150700000Y-105300000D03*
X157600000Y-141000000D03*
X127025000Y-111225000D03*
X164800000Y-104300000D03*
X138200000Y-119700000D03*
X157800000Y-127200000D03*
X158800000Y-120200000D03*
X125850000Y-113000000D03*
X153250000Y-111900000D03*
X160100000Y-94900000D03*
X141775000Y-125375000D03*
X124275000Y-121775000D03*
X129000000Y-88000000D03*
X126050000Y-106200000D03*
X136300000Y-125375000D03*
X131700000Y-119675000D03*
X124400000Y-131000000D03*
X137675000Y-127800000D03*
X132200000Y-126600000D03*
X138675000Y-112750000D03*
X144950000Y-107700000D03*
X138575000Y-141675000D03*
X160100000Y-91150000D03*
X163000000Y-119400000D03*
X160400000Y-121500000D03*
X120000000Y-123000000D03*
X130025000Y-89425000D03*
X164175000Y-120575000D03*
X159075000Y-139675000D03*
X139050000Y-103900000D03*
X162900000Y-111950000D03*
X127025000Y-107025000D03*
X140275000Y-127775000D03*
X126025000Y-103925000D03*
X131700000Y-112225000D03*
X118150000Y-115150000D03*
X156100000Y-129100000D03*
X146000000Y-108750000D03*
X127300000Y-131000000D03*
X161800000Y-105400000D03*
X121250000Y-100250000D03*
X118100000Y-113000000D03*
X141550000Y-102150000D03*
X139050000Y-102350000D03*
X120300000Y-101100000D03*
%TO.N,+3.3V*%
X134800000Y-88000000D03*
X133150000Y-98850000D03*
X161750000Y-133500000D03*
X160100000Y-96200000D03*
X141500000Y-100600000D03*
X164100000Y-134100000D03*
X129800000Y-110100000D03*
X165900000Y-131600000D03*
X119900000Y-96900000D03*
X162750000Y-134000000D03*
X157100000Y-124500000D03*
X161750000Y-129750000D03*
X133700000Y-140300000D03*
X143400000Y-107750000D03*
X142000000Y-123825000D03*
X125600000Y-122150000D03*
X133775000Y-86600000D03*
X158900000Y-125800000D03*
X161750000Y-131000000D03*
X164187500Y-125787500D03*
X133400000Y-123800000D03*
X121450000Y-95750000D03*
X160250000Y-131250000D03*
X161750000Y-132250000D03*
X127600000Y-103950000D03*
X161750000Y-128500000D03*
X133237500Y-102175000D03*
X158150000Y-97450000D03*
X134825000Y-141725000D03*
%TO.N,I2C_SDA*%
X133350000Y-106400000D03*
X136500000Y-102500000D03*
%TO.N,SWO*%
X145700000Y-91600000D03*
X138100000Y-106450000D03*
%TO.N,NRST*%
X135100000Y-115200000D03*
X141000000Y-105400000D03*
%TD*%
%TA.AperFunction,Conductor*%
%TO.N,+3.3V*%
G36*
X165504418Y-82500816D02*
G01*
X165704561Y-82515130D01*
X165722063Y-82517647D01*
X165913797Y-82559355D01*
X165930755Y-82564334D01*
X166114609Y-82632909D01*
X166130701Y-82640259D01*
X166302904Y-82734288D01*
X166317784Y-82743849D01*
X166474867Y-82861441D01*
X166488237Y-82873027D01*
X166626972Y-83011762D01*
X166638558Y-83025132D01*
X166756146Y-83182210D01*
X166765711Y-83197095D01*
X166859740Y-83369298D01*
X166867090Y-83385390D01*
X166935662Y-83569236D01*
X166940646Y-83586212D01*
X166982351Y-83777931D01*
X166984869Y-83795442D01*
X166999184Y-83995580D01*
X166999500Y-84004427D01*
X166999500Y-111625688D01*
X166979815Y-111692727D01*
X166927011Y-111738482D01*
X166857853Y-111748426D01*
X166828048Y-111740249D01*
X166706424Y-111689871D01*
X166706412Y-111689868D01*
X166503469Y-111649500D01*
X166503465Y-111649500D01*
X166296535Y-111649500D01*
X166296530Y-111649500D01*
X166093587Y-111689868D01*
X166093579Y-111689870D01*
X165902403Y-111769058D01*
X165730342Y-111884024D01*
X165584024Y-112030342D01*
X165469058Y-112202403D01*
X165389870Y-112393579D01*
X165389868Y-112393587D01*
X165349500Y-112596530D01*
X165349500Y-113903469D01*
X165389868Y-114106412D01*
X165389870Y-114106420D01*
X165469058Y-114297596D01*
X165584024Y-114469657D01*
X165730342Y-114615975D01*
X165730345Y-114615977D01*
X165902402Y-114730941D01*
X166093580Y-114810130D01*
X166296530Y-114850499D01*
X166296534Y-114850500D01*
X166296535Y-114850500D01*
X166503466Y-114850500D01*
X166503467Y-114850499D01*
X166706420Y-114810130D01*
X166828047Y-114759749D01*
X166897516Y-114752281D01*
X166959996Y-114783556D01*
X166995648Y-114843645D01*
X166999500Y-114874311D01*
X166999500Y-143995572D01*
X166999184Y-144004418D01*
X166999184Y-144004419D01*
X166984869Y-144204557D01*
X166982351Y-144222068D01*
X166940646Y-144413787D01*
X166935662Y-144430763D01*
X166867090Y-144614609D01*
X166859740Y-144630701D01*
X166765711Y-144802904D01*
X166756146Y-144817789D01*
X166638558Y-144974867D01*
X166626972Y-144988237D01*
X166488237Y-145126972D01*
X166474867Y-145138558D01*
X166317789Y-145256146D01*
X166302904Y-145265711D01*
X166130701Y-145359740D01*
X166114609Y-145367090D01*
X165930763Y-145435662D01*
X165913787Y-145440646D01*
X165722068Y-145482351D01*
X165704557Y-145484869D01*
X165523779Y-145497799D01*
X165504417Y-145499184D01*
X165495572Y-145499500D01*
X117004428Y-145499500D01*
X116995582Y-145499184D01*
X116973622Y-145497613D01*
X116795442Y-145484869D01*
X116777931Y-145482351D01*
X116586212Y-145440646D01*
X116569236Y-145435662D01*
X116385390Y-145367090D01*
X116369298Y-145359740D01*
X116197095Y-145265711D01*
X116182210Y-145256146D01*
X116025132Y-145138558D01*
X116011762Y-145126972D01*
X115873027Y-144988237D01*
X115861441Y-144974867D01*
X115743849Y-144817784D01*
X115734288Y-144802904D01*
X115640259Y-144630701D01*
X115632909Y-144614609D01*
X115627103Y-144599042D01*
X115564334Y-144430755D01*
X115559355Y-144413797D01*
X115517647Y-144222063D01*
X115515130Y-144204556D01*
X115500816Y-144004418D01*
X115500500Y-143995572D01*
X115500500Y-141848336D01*
X116299500Y-141848336D01*
X116299500Y-142151663D01*
X116333457Y-142453048D01*
X116333459Y-142453060D01*
X116333460Y-142453063D01*
X116338014Y-142473016D01*
X116400953Y-142748771D01*
X116400957Y-142748783D01*
X116501133Y-143035068D01*
X116632733Y-143308338D01*
X116632735Y-143308341D01*
X116794108Y-143565164D01*
X116983221Y-143802304D01*
X117197696Y-144016779D01*
X117434836Y-144205892D01*
X117691659Y-144367265D01*
X117964935Y-144498868D01*
X118179951Y-144574105D01*
X118251216Y-144599042D01*
X118251228Y-144599046D01*
X118546937Y-144666540D01*
X118546946Y-144666541D01*
X118546951Y-144666542D01*
X118747874Y-144689180D01*
X118848337Y-144700499D01*
X118848340Y-144700500D01*
X118848343Y-144700500D01*
X119151660Y-144700500D01*
X119151661Y-144700499D01*
X119305694Y-144683144D01*
X119453048Y-144666542D01*
X119453051Y-144666541D01*
X119453063Y-144666540D01*
X119748772Y-144599046D01*
X120035065Y-144498868D01*
X120308341Y-144367265D01*
X120565164Y-144205892D01*
X120802304Y-144016779D01*
X121016779Y-143802304D01*
X121205892Y-143565164D01*
X121367265Y-143308341D01*
X121498868Y-143035065D01*
X121599046Y-142748772D01*
X121666540Y-142453063D01*
X121700500Y-142151657D01*
X121700500Y-141848343D01*
X121670976Y-141586304D01*
X121666542Y-141546951D01*
X121666541Y-141546946D01*
X121666540Y-141546937D01*
X121599046Y-141251228D01*
X121498868Y-140964935D01*
X121422609Y-140806582D01*
X133925001Y-140806582D01*
X133931408Y-140877102D01*
X133931409Y-140877107D01*
X133981981Y-141039396D01*
X134069927Y-141184877D01*
X134190122Y-141305072D01*
X134335604Y-141393019D01*
X134335603Y-141393019D01*
X134497894Y-141443590D01*
X134497893Y-141443590D01*
X134568408Y-141449998D01*
X134568426Y-141449999D01*
X134574999Y-141449998D01*
X134575000Y-141449998D01*
X134575000Y-140550000D01*
X133925001Y-140550000D01*
X133925001Y-140806582D01*
X121422609Y-140806582D01*
X121367265Y-140691659D01*
X121297643Y-140580856D01*
X121287435Y-140564610D01*
X121229880Y-140473013D01*
X121205892Y-140434836D01*
X121058707Y-140250272D01*
X134575000Y-140250272D01*
X134575000Y-140349728D01*
X134613060Y-140441614D01*
X134683386Y-140511940D01*
X134775272Y-140550000D01*
X134874728Y-140550000D01*
X134966614Y-140511940D01*
X135036940Y-140441614D01*
X135075000Y-140349728D01*
X135075000Y-141449999D01*
X135081581Y-141449999D01*
X135152102Y-141443591D01*
X135152107Y-141443590D01*
X135314398Y-141393018D01*
X135457662Y-141306411D01*
X135525217Y-141288574D01*
X135590702Y-141309425D01*
X135648453Y-141348013D01*
X135648455Y-141348014D01*
X135648457Y-141348015D01*
X135757106Y-141393018D01*
X135812334Y-141415894D01*
X135812336Y-141415894D01*
X135812341Y-141415896D01*
X135986304Y-141450499D01*
X135986307Y-141450500D01*
X135986309Y-141450500D01*
X136163693Y-141450500D01*
X136163694Y-141450499D01*
X136221682Y-141438964D01*
X136337658Y-141415896D01*
X136337661Y-141415894D01*
X136337666Y-141415894D01*
X136501547Y-141348013D01*
X136607296Y-141277352D01*
X136631109Y-141261442D01*
X136697786Y-141240564D01*
X136765166Y-141259048D01*
X136768891Y-141261442D01*
X136834188Y-141305072D01*
X136898453Y-141348013D01*
X136898455Y-141348014D01*
X136898459Y-141348016D01*
X137007106Y-141393018D01*
X137062334Y-141415894D01*
X137062336Y-141415894D01*
X137062341Y-141415896D01*
X137236304Y-141450499D01*
X137236307Y-141450500D01*
X137236309Y-141450500D01*
X137413693Y-141450500D01*
X137531356Y-141427095D01*
X137600948Y-141433322D01*
X137656125Y-141476185D01*
X137679370Y-141542075D01*
X137677166Y-141572898D01*
X137674500Y-141586301D01*
X137674500Y-141763695D01*
X137709103Y-141937658D01*
X137709106Y-141937667D01*
X137776983Y-142101540D01*
X137776990Y-142101553D01*
X137875535Y-142249034D01*
X137875538Y-142249038D01*
X138000961Y-142374461D01*
X138000965Y-142374464D01*
X138148446Y-142473009D01*
X138148459Y-142473016D01*
X138271363Y-142523923D01*
X138312334Y-142540894D01*
X138312336Y-142540894D01*
X138312341Y-142540896D01*
X138486304Y-142575499D01*
X138486307Y-142575500D01*
X138486309Y-142575500D01*
X138663693Y-142575500D01*
X138663694Y-142575499D01*
X138721682Y-142563964D01*
X138837658Y-142540896D01*
X138837661Y-142540894D01*
X138837666Y-142540894D01*
X139001547Y-142473013D01*
X139149035Y-142374464D01*
X139274464Y-142249035D01*
X139373013Y-142101547D01*
X139440894Y-141937666D01*
X139455171Y-141865894D01*
X139475499Y-141763695D01*
X139475500Y-141763693D01*
X139475500Y-141586306D01*
X139475499Y-141586304D01*
X139440896Y-141412341D01*
X139440893Y-141412332D01*
X139432893Y-141393019D01*
X139418746Y-141358865D01*
X139411278Y-141289397D01*
X139442554Y-141226918D01*
X139502643Y-141191266D01*
X139557500Y-141189797D01*
X139611306Y-141200500D01*
X139611309Y-141200500D01*
X139788693Y-141200500D01*
X139788694Y-141200499D01*
X139867233Y-141184877D01*
X139962658Y-141165896D01*
X139962661Y-141165894D01*
X139962666Y-141165894D01*
X140126547Y-141098013D01*
X140274035Y-140999464D01*
X140362195Y-140911304D01*
X156699500Y-140911304D01*
X156699500Y-141088695D01*
X156734103Y-141262658D01*
X156734106Y-141262667D01*
X156801983Y-141426540D01*
X156801990Y-141426553D01*
X156900535Y-141574034D01*
X156900538Y-141574038D01*
X157025961Y-141699461D01*
X157025965Y-141699464D01*
X157173446Y-141798009D01*
X157173459Y-141798016D01*
X157294945Y-141848336D01*
X157337334Y-141865894D01*
X157337336Y-141865894D01*
X157337341Y-141865896D01*
X157511304Y-141900499D01*
X157511307Y-141900500D01*
X157511309Y-141900500D01*
X157688693Y-141900500D01*
X157688694Y-141900499D01*
X157746682Y-141888964D01*
X157862658Y-141865896D01*
X157862661Y-141865894D01*
X157862666Y-141865894D01*
X157905055Y-141848336D01*
X160799500Y-141848336D01*
X160799500Y-142151663D01*
X160833457Y-142453048D01*
X160833459Y-142453060D01*
X160833460Y-142453063D01*
X160838014Y-142473016D01*
X160900953Y-142748771D01*
X160900957Y-142748783D01*
X161001133Y-143035068D01*
X161132733Y-143308338D01*
X161132735Y-143308341D01*
X161294108Y-143565164D01*
X161483221Y-143802304D01*
X161697696Y-144016779D01*
X161934836Y-144205892D01*
X162191659Y-144367265D01*
X162464935Y-144498868D01*
X162679951Y-144574105D01*
X162751216Y-144599042D01*
X162751228Y-144599046D01*
X163046937Y-144666540D01*
X163046946Y-144666541D01*
X163046951Y-144666542D01*
X163247874Y-144689180D01*
X163348337Y-144700499D01*
X163348340Y-144700500D01*
X163348343Y-144700500D01*
X163651660Y-144700500D01*
X163651661Y-144700499D01*
X163805694Y-144683144D01*
X163953048Y-144666542D01*
X163953051Y-144666541D01*
X163953063Y-144666540D01*
X164248772Y-144599046D01*
X164535065Y-144498868D01*
X164808341Y-144367265D01*
X165065164Y-144205892D01*
X165302304Y-144016779D01*
X165516779Y-143802304D01*
X165705892Y-143565164D01*
X165867265Y-143308341D01*
X165998868Y-143035065D01*
X166099046Y-142748772D01*
X166166540Y-142453063D01*
X166200500Y-142151657D01*
X166200500Y-141848343D01*
X166170976Y-141586304D01*
X166166542Y-141546951D01*
X166166541Y-141546946D01*
X166166540Y-141546937D01*
X166099046Y-141251228D01*
X165998868Y-140964935D01*
X165867265Y-140691659D01*
X165705892Y-140434836D01*
X165516779Y-140197696D01*
X165302304Y-139983221D01*
X165065164Y-139794108D01*
X164808341Y-139632735D01*
X164808338Y-139632733D01*
X164535068Y-139501133D01*
X164248783Y-139400957D01*
X164248771Y-139400953D01*
X164020556Y-139348864D01*
X163953063Y-139333460D01*
X163953060Y-139333459D01*
X163953048Y-139333457D01*
X163651663Y-139299500D01*
X163651657Y-139299500D01*
X163348343Y-139299500D01*
X163348336Y-139299500D01*
X163046951Y-139333457D01*
X163046937Y-139333460D01*
X162751228Y-139400953D01*
X162751216Y-139400957D01*
X162464931Y-139501133D01*
X162191661Y-139632733D01*
X161934837Y-139794107D01*
X161697696Y-139983220D01*
X161483220Y-140197696D01*
X161294107Y-140434837D01*
X161132733Y-140691661D01*
X161001133Y-140964931D01*
X160900957Y-141251216D01*
X160900953Y-141251228D01*
X160833460Y-141546937D01*
X160833457Y-141546951D01*
X160799500Y-141848336D01*
X157905055Y-141848336D01*
X158026547Y-141798013D01*
X158026553Y-141798009D01*
X158110733Y-141741762D01*
X158142395Y-141720604D01*
X158174035Y-141699464D01*
X158299464Y-141574035D01*
X158398013Y-141426547D01*
X158465894Y-141262666D01*
X158466138Y-141261442D01*
X158495764Y-141112500D01*
X158500500Y-141088691D01*
X158500500Y-140911309D01*
X158500500Y-140911306D01*
X158500499Y-140911304D01*
X158465896Y-140737341D01*
X158465893Y-140737332D01*
X158401080Y-140580856D01*
X158393611Y-140511386D01*
X158424887Y-140448907D01*
X158484976Y-140413256D01*
X158554801Y-140415750D01*
X158584528Y-140430299D01*
X158648453Y-140473013D01*
X158648455Y-140473014D01*
X158648459Y-140473016D01*
X158742432Y-140511940D01*
X158812334Y-140540894D01*
X158812336Y-140540894D01*
X158812341Y-140540896D01*
X158986304Y-140575499D01*
X158986307Y-140575500D01*
X158986309Y-140575500D01*
X159163693Y-140575500D01*
X159163694Y-140575499D01*
X159221682Y-140563964D01*
X159337658Y-140540896D01*
X159337661Y-140540894D01*
X159337666Y-140540894D01*
X159501547Y-140473013D01*
X159649035Y-140374464D01*
X159774464Y-140249035D01*
X159873013Y-140101547D01*
X159940894Y-139937666D01*
X159950861Y-139887562D01*
X159975499Y-139763695D01*
X159975500Y-139763693D01*
X159975500Y-139586306D01*
X159975499Y-139586304D01*
X159940896Y-139412341D01*
X159940893Y-139412332D01*
X159936181Y-139400957D01*
X159908224Y-139333460D01*
X159873016Y-139248459D01*
X159873009Y-139248446D01*
X159774464Y-139100965D01*
X159774461Y-139100961D01*
X159649038Y-138975538D01*
X159649034Y-138975535D01*
X159501553Y-138876990D01*
X159501540Y-138876983D01*
X159337667Y-138809106D01*
X159337658Y-138809103D01*
X159163694Y-138774500D01*
X159163691Y-138774500D01*
X158986309Y-138774500D01*
X158986306Y-138774500D01*
X158812341Y-138809103D01*
X158812332Y-138809106D01*
X158648459Y-138876983D01*
X158648446Y-138876990D01*
X158500965Y-138975535D01*
X158500961Y-138975538D01*
X158375538Y-139100961D01*
X158375535Y-139100965D01*
X158276990Y-139248446D01*
X158276983Y-139248459D01*
X158209106Y-139412332D01*
X158209103Y-139412341D01*
X158174500Y-139586304D01*
X158174500Y-139763695D01*
X158209103Y-139937658D01*
X158209105Y-139937662D01*
X158209106Y-139937666D01*
X158242707Y-140018789D01*
X158273920Y-140094144D01*
X158281388Y-140163613D01*
X158250112Y-140226092D01*
X158190023Y-140261744D01*
X158120198Y-140259249D01*
X158090467Y-140244697D01*
X158026552Y-140201990D01*
X158026540Y-140201983D01*
X157862667Y-140134106D01*
X157862658Y-140134103D01*
X157688694Y-140099500D01*
X157688691Y-140099500D01*
X157511309Y-140099500D01*
X157511306Y-140099500D01*
X157337341Y-140134103D01*
X157337332Y-140134106D01*
X157173459Y-140201983D01*
X157173446Y-140201990D01*
X157025965Y-140300535D01*
X157025961Y-140300538D01*
X156900538Y-140425961D01*
X156900535Y-140425965D01*
X156801990Y-140573446D01*
X156801983Y-140573459D01*
X156734106Y-140737332D01*
X156734103Y-140737341D01*
X156699500Y-140911304D01*
X140362195Y-140911304D01*
X140399464Y-140874035D01*
X140498013Y-140726547D01*
X140565894Y-140562666D01*
X140568414Y-140550000D01*
X140593086Y-140425961D01*
X140600500Y-140388691D01*
X140600500Y-140211309D01*
X140600500Y-140211306D01*
X140600499Y-140211304D01*
X140565896Y-140037341D01*
X140565893Y-140037332D01*
X140498016Y-139873459D01*
X140498009Y-139873446D01*
X140399464Y-139725965D01*
X140399461Y-139725961D01*
X140274038Y-139600538D01*
X140274034Y-139600535D01*
X140252736Y-139586304D01*
X155124500Y-139586304D01*
X155124500Y-139763695D01*
X155159103Y-139937658D01*
X155159106Y-139937667D01*
X155226983Y-140101540D01*
X155226990Y-140101553D01*
X155325535Y-140249034D01*
X155325538Y-140249038D01*
X155450961Y-140374461D01*
X155450965Y-140374464D01*
X155598446Y-140473009D01*
X155598459Y-140473016D01*
X155692432Y-140511940D01*
X155762334Y-140540894D01*
X155762336Y-140540894D01*
X155762341Y-140540896D01*
X155936304Y-140575499D01*
X155936307Y-140575500D01*
X155936309Y-140575500D01*
X156113693Y-140575500D01*
X156113694Y-140575499D01*
X156171682Y-140563964D01*
X156287658Y-140540896D01*
X156287661Y-140540894D01*
X156287666Y-140540894D01*
X156451547Y-140473013D01*
X156599035Y-140374464D01*
X156724464Y-140249035D01*
X156823013Y-140101547D01*
X156890894Y-139937666D01*
X156900861Y-139887562D01*
X156925499Y-139763695D01*
X156925500Y-139763693D01*
X156925500Y-139586306D01*
X156925499Y-139586304D01*
X156890896Y-139412341D01*
X156890893Y-139412332D01*
X156886181Y-139400957D01*
X156858224Y-139333460D01*
X156823016Y-139248459D01*
X156823009Y-139248446D01*
X156724464Y-139100965D01*
X156724461Y-139100961D01*
X156599038Y-138975538D01*
X156599034Y-138975535D01*
X156451553Y-138876990D01*
X156451540Y-138876983D01*
X156287667Y-138809106D01*
X156287658Y-138809103D01*
X156113694Y-138774500D01*
X156113691Y-138774500D01*
X155936309Y-138774500D01*
X155936306Y-138774500D01*
X155762341Y-138809103D01*
X155762332Y-138809106D01*
X155598459Y-138876983D01*
X155598446Y-138876990D01*
X155450965Y-138975535D01*
X155450961Y-138975538D01*
X155325538Y-139100961D01*
X155325535Y-139100965D01*
X155226990Y-139248446D01*
X155226983Y-139248459D01*
X155159106Y-139412332D01*
X155159103Y-139412341D01*
X155124500Y-139586304D01*
X140252736Y-139586304D01*
X140126553Y-139501990D01*
X140126540Y-139501983D01*
X139962667Y-139434106D01*
X139962658Y-139434103D01*
X139788694Y-139399500D01*
X139788691Y-139399500D01*
X139611309Y-139399500D01*
X139611306Y-139399500D01*
X139437341Y-139434103D01*
X139437337Y-139434105D01*
X139437335Y-139434105D01*
X139437334Y-139434106D01*
X139426593Y-139438555D01*
X139369114Y-139462363D01*
X139299644Y-139469830D01*
X139237166Y-139438555D01*
X139233982Y-139435482D01*
X139149038Y-139350538D01*
X139149034Y-139350535D01*
X139001553Y-139251990D01*
X139001540Y-139251983D01*
X138837667Y-139184106D01*
X138837658Y-139184103D01*
X138663694Y-139149500D01*
X138663691Y-139149500D01*
X138486309Y-139149500D01*
X138486306Y-139149500D01*
X138312341Y-139184103D01*
X138312332Y-139184106D01*
X138148459Y-139251983D01*
X138148446Y-139251990D01*
X138018891Y-139338557D01*
X137952213Y-139359435D01*
X137884833Y-139340950D01*
X137881109Y-139338557D01*
X137751553Y-139251990D01*
X137751540Y-139251983D01*
X137587667Y-139184106D01*
X137587658Y-139184103D01*
X137413694Y-139149500D01*
X137413691Y-139149500D01*
X137236309Y-139149500D01*
X137236306Y-139149500D01*
X137062341Y-139184103D01*
X137062332Y-139184106D01*
X136898459Y-139251983D01*
X136898446Y-139251990D01*
X136768891Y-139338557D01*
X136702213Y-139359435D01*
X136634833Y-139340950D01*
X136631109Y-139338557D01*
X136501553Y-139251990D01*
X136501540Y-139251983D01*
X136337667Y-139184106D01*
X136337658Y-139184103D01*
X136163694Y-139149500D01*
X136163691Y-139149500D01*
X135986309Y-139149500D01*
X135986306Y-139149500D01*
X135812341Y-139184103D01*
X135812332Y-139184106D01*
X135648459Y-139251983D01*
X135648448Y-139251989D01*
X135590702Y-139290574D01*
X135524024Y-139311451D01*
X135457662Y-139293588D01*
X135314395Y-139206980D01*
X135314396Y-139206980D01*
X135152105Y-139156409D01*
X135152106Y-139156409D01*
X135081572Y-139150000D01*
X135075000Y-139150000D01*
X135075000Y-140250272D01*
X135036940Y-140158386D01*
X134966614Y-140088060D01*
X134874728Y-140050000D01*
X134775272Y-140050000D01*
X134683386Y-140088060D01*
X134613060Y-140158386D01*
X134575000Y-140250272D01*
X121058707Y-140250272D01*
X121016779Y-140197696D01*
X120802304Y-139983221D01*
X120802303Y-139983220D01*
X120682352Y-139887562D01*
X120635889Y-139850509D01*
X120565164Y-139794108D01*
X120564080Y-139793427D01*
X133925000Y-139793427D01*
X133925000Y-140050000D01*
X134575000Y-140050000D01*
X134575000Y-139150000D01*
X134574999Y-139149999D01*
X134568436Y-139150000D01*
X134568417Y-139150001D01*
X134497897Y-139156408D01*
X134497892Y-139156409D01*
X134335603Y-139206981D01*
X134190122Y-139294927D01*
X134069927Y-139415122D01*
X133981980Y-139560604D01*
X133931409Y-139722893D01*
X133925000Y-139793427D01*
X120564080Y-139793427D01*
X120308341Y-139632735D01*
X120308338Y-139632733D01*
X120035068Y-139501133D01*
X119748783Y-139400957D01*
X119748771Y-139400953D01*
X119520556Y-139348864D01*
X119453063Y-139333460D01*
X119453060Y-139333459D01*
X119453048Y-139333457D01*
X119151663Y-139299500D01*
X119151657Y-139299500D01*
X118848343Y-139299500D01*
X118848336Y-139299500D01*
X118546951Y-139333457D01*
X118546937Y-139333460D01*
X118251228Y-139400953D01*
X118251216Y-139400957D01*
X117964931Y-139501133D01*
X117691661Y-139632733D01*
X117434837Y-139794107D01*
X117197696Y-139983220D01*
X116983220Y-140197696D01*
X116794107Y-140434837D01*
X116632733Y-140691661D01*
X116501133Y-140964931D01*
X116400957Y-141251216D01*
X116400953Y-141251228D01*
X116333460Y-141546937D01*
X116333457Y-141546951D01*
X116299500Y-141848336D01*
X115500500Y-141848336D01*
X115500500Y-130911304D01*
X120599500Y-130911304D01*
X120599500Y-131088695D01*
X120634103Y-131262658D01*
X120634106Y-131262667D01*
X120701983Y-131426540D01*
X120701990Y-131426553D01*
X120800535Y-131574034D01*
X120800538Y-131574038D01*
X120925961Y-131699461D01*
X120925965Y-131699464D01*
X121073446Y-131798009D01*
X121073459Y-131798016D01*
X121196363Y-131848923D01*
X121237334Y-131865894D01*
X121237336Y-131865894D01*
X121237341Y-131865896D01*
X121411304Y-131900499D01*
X121411307Y-131900500D01*
X121411309Y-131900500D01*
X121588693Y-131900500D01*
X121588694Y-131900499D01*
X121646682Y-131888964D01*
X121762658Y-131865896D01*
X121762661Y-131865894D01*
X121762666Y-131865894D01*
X121926547Y-131798013D01*
X122074035Y-131699464D01*
X122199464Y-131574035D01*
X122298013Y-131426547D01*
X122365894Y-131262666D01*
X122400500Y-131088691D01*
X122400500Y-130911309D01*
X122400500Y-130911306D01*
X122400499Y-130911304D01*
X123499500Y-130911304D01*
X123499500Y-131088695D01*
X123534103Y-131262658D01*
X123534106Y-131262667D01*
X123601983Y-131426540D01*
X123601990Y-131426553D01*
X123700535Y-131574034D01*
X123700538Y-131574038D01*
X123825961Y-131699461D01*
X123825965Y-131699464D01*
X123973446Y-131798009D01*
X123973459Y-131798016D01*
X124096363Y-131848923D01*
X124137334Y-131865894D01*
X124137336Y-131865894D01*
X124137341Y-131865896D01*
X124311304Y-131900499D01*
X124311307Y-131900500D01*
X124311309Y-131900500D01*
X124488693Y-131900500D01*
X124488694Y-131900499D01*
X124546682Y-131888964D01*
X124662658Y-131865896D01*
X124662661Y-131865894D01*
X124662666Y-131865894D01*
X124826547Y-131798013D01*
X124974035Y-131699464D01*
X125099464Y-131574035D01*
X125198013Y-131426547D01*
X125265894Y-131262666D01*
X125300500Y-131088691D01*
X125300500Y-130911309D01*
X125300500Y-130911306D01*
X125300499Y-130911304D01*
X126399500Y-130911304D01*
X126399500Y-131088695D01*
X126434103Y-131262658D01*
X126434106Y-131262667D01*
X126501983Y-131426540D01*
X126501990Y-131426553D01*
X126600535Y-131574034D01*
X126600538Y-131574038D01*
X126725961Y-131699461D01*
X126725965Y-131699464D01*
X126873446Y-131798009D01*
X126873459Y-131798016D01*
X126996363Y-131848923D01*
X127037334Y-131865894D01*
X127037336Y-131865894D01*
X127037341Y-131865896D01*
X127211304Y-131900499D01*
X127211307Y-131900500D01*
X127211309Y-131900500D01*
X127388693Y-131900500D01*
X127388694Y-131900499D01*
X127446682Y-131888964D01*
X127562658Y-131865896D01*
X127562661Y-131865894D01*
X127562666Y-131865894D01*
X127726547Y-131798013D01*
X127874035Y-131699464D01*
X127999464Y-131574035D01*
X128098013Y-131426547D01*
X128165894Y-131262666D01*
X128200500Y-131088691D01*
X128200500Y-130911309D01*
X128200500Y-130911306D01*
X128200499Y-130911304D01*
X128165896Y-130737341D01*
X128165893Y-130737332D01*
X128098016Y-130573459D01*
X128098009Y-130573446D01*
X127999464Y-130425965D01*
X127999461Y-130425961D01*
X127874038Y-130300538D01*
X127874034Y-130300535D01*
X127726553Y-130201990D01*
X127726540Y-130201983D01*
X127562667Y-130134106D01*
X127562658Y-130134103D01*
X127388694Y-130099500D01*
X127388691Y-130099500D01*
X127211309Y-130099500D01*
X127211306Y-130099500D01*
X127037341Y-130134103D01*
X127037332Y-130134106D01*
X126873459Y-130201983D01*
X126873446Y-130201990D01*
X126725965Y-130300535D01*
X126725961Y-130300538D01*
X126600538Y-130425961D01*
X126600535Y-130425965D01*
X126501990Y-130573446D01*
X126501983Y-130573459D01*
X126434106Y-130737332D01*
X126434103Y-130737341D01*
X126399500Y-130911304D01*
X125300499Y-130911304D01*
X125265896Y-130737341D01*
X125265893Y-130737332D01*
X125198016Y-130573459D01*
X125198009Y-130573446D01*
X125099464Y-130425965D01*
X125099461Y-130425961D01*
X124974038Y-130300538D01*
X124974034Y-130300535D01*
X124826553Y-130201990D01*
X124826540Y-130201983D01*
X124662667Y-130134106D01*
X124662658Y-130134103D01*
X124488694Y-130099500D01*
X124488691Y-130099500D01*
X124311309Y-130099500D01*
X124311306Y-130099500D01*
X124137341Y-130134103D01*
X124137332Y-130134106D01*
X123973459Y-130201983D01*
X123973446Y-130201990D01*
X123825965Y-130300535D01*
X123825961Y-130300538D01*
X123700538Y-130425961D01*
X123700535Y-130425965D01*
X123601990Y-130573446D01*
X123601983Y-130573459D01*
X123534106Y-130737332D01*
X123534103Y-130737341D01*
X123499500Y-130911304D01*
X122400499Y-130911304D01*
X122365896Y-130737341D01*
X122365893Y-130737332D01*
X122298016Y-130573459D01*
X122298009Y-130573446D01*
X122199464Y-130425965D01*
X122199461Y-130425961D01*
X122074038Y-130300538D01*
X122074034Y-130300535D01*
X121926553Y-130201990D01*
X121926540Y-130201983D01*
X121762667Y-130134106D01*
X121762658Y-130134103D01*
X121588694Y-130099500D01*
X121588691Y-130099500D01*
X121411309Y-130099500D01*
X121411306Y-130099500D01*
X121237341Y-130134103D01*
X121237332Y-130134106D01*
X121073459Y-130201983D01*
X121073446Y-130201990D01*
X120925965Y-130300535D01*
X120925961Y-130300538D01*
X120800538Y-130425961D01*
X120800535Y-130425965D01*
X120701990Y-130573446D01*
X120701983Y-130573459D01*
X120634106Y-130737332D01*
X120634103Y-130737341D01*
X120599500Y-130911304D01*
X115500500Y-130911304D01*
X115500500Y-129011304D01*
X155199500Y-129011304D01*
X155199500Y-129188695D01*
X155234103Y-129362658D01*
X155234106Y-129362667D01*
X155301983Y-129526540D01*
X155301990Y-129526553D01*
X155400535Y-129674034D01*
X155400538Y-129674038D01*
X155525961Y-129799461D01*
X155525965Y-129799464D01*
X155673446Y-129898009D01*
X155673459Y-129898016D01*
X155796363Y-129948923D01*
X155837334Y-129965894D01*
X155837336Y-129965894D01*
X155837341Y-129965896D01*
X156011304Y-130000499D01*
X156011307Y-130000500D01*
X156011309Y-130000500D01*
X156188693Y-130000500D01*
X156188694Y-130000499D01*
X156246682Y-129988964D01*
X156362658Y-129965896D01*
X156362661Y-129965894D01*
X156362666Y-129965894D01*
X156526547Y-129898013D01*
X156674035Y-129799464D01*
X156799464Y-129674035D01*
X156898013Y-129526547D01*
X156965894Y-129362666D01*
X157000500Y-129188691D01*
X157000500Y-129011309D01*
X157000500Y-129011306D01*
X157000499Y-129011304D01*
X158599500Y-129011304D01*
X158599500Y-129188695D01*
X158634103Y-129362658D01*
X158634106Y-129362667D01*
X158701983Y-129526540D01*
X158701990Y-129526553D01*
X158800535Y-129674034D01*
X158800538Y-129674038D01*
X158925961Y-129799461D01*
X158925965Y-129799464D01*
X159073446Y-129898009D01*
X159073459Y-129898016D01*
X159196363Y-129948923D01*
X159237334Y-129965894D01*
X159237336Y-129965894D01*
X159237341Y-129965896D01*
X159411304Y-130000499D01*
X159411307Y-130000500D01*
X159411309Y-130000500D01*
X159588693Y-130000500D01*
X159588694Y-130000499D01*
X159646682Y-129988964D01*
X159762658Y-129965896D01*
X159762661Y-129965894D01*
X159762666Y-129965894D01*
X159926547Y-129898013D01*
X160074035Y-129799464D01*
X160199464Y-129674035D01*
X160298013Y-129526547D01*
X160365894Y-129362666D01*
X160400500Y-129188691D01*
X160400500Y-129011309D01*
X160400500Y-129011306D01*
X160400499Y-129011304D01*
X160365896Y-128837341D01*
X160365893Y-128837332D01*
X160298016Y-128673459D01*
X160298009Y-128673446D01*
X160199464Y-128525965D01*
X160199461Y-128525961D01*
X160074038Y-128400538D01*
X160074034Y-128400535D01*
X159926553Y-128301990D01*
X159926540Y-128301983D01*
X159762667Y-128234106D01*
X159762658Y-128234103D01*
X159588694Y-128199500D01*
X159588691Y-128199500D01*
X159411309Y-128199500D01*
X159411306Y-128199500D01*
X159237341Y-128234103D01*
X159237332Y-128234106D01*
X159073459Y-128301983D01*
X159073446Y-128301990D01*
X158925965Y-128400535D01*
X158925961Y-128400538D01*
X158800538Y-128525961D01*
X158800535Y-128525965D01*
X158701990Y-128673446D01*
X158701983Y-128673459D01*
X158634106Y-128837332D01*
X158634103Y-128837341D01*
X158599500Y-129011304D01*
X157000499Y-129011304D01*
X156965896Y-128837341D01*
X156965893Y-128837332D01*
X156898016Y-128673459D01*
X156898009Y-128673446D01*
X156799464Y-128525965D01*
X156799461Y-128525961D01*
X156674038Y-128400538D01*
X156674034Y-128400535D01*
X156526553Y-128301990D01*
X156526540Y-128301983D01*
X156362667Y-128234106D01*
X156362658Y-128234103D01*
X156188694Y-128199500D01*
X156188691Y-128199500D01*
X156011309Y-128199500D01*
X156011306Y-128199500D01*
X155837341Y-128234103D01*
X155837332Y-128234106D01*
X155673459Y-128301983D01*
X155673446Y-128301990D01*
X155525965Y-128400535D01*
X155525961Y-128400538D01*
X155400538Y-128525961D01*
X155400535Y-128525965D01*
X155301990Y-128673446D01*
X155301983Y-128673459D01*
X155234106Y-128837332D01*
X155234103Y-128837341D01*
X155199500Y-129011304D01*
X115500500Y-129011304D01*
X115500500Y-127711304D01*
X136774500Y-127711304D01*
X136774500Y-127888695D01*
X136809103Y-128062658D01*
X136809106Y-128062667D01*
X136876983Y-128226540D01*
X136876990Y-128226553D01*
X136975535Y-128374034D01*
X136975538Y-128374038D01*
X137100961Y-128499461D01*
X137100965Y-128499464D01*
X137248446Y-128598009D01*
X137248459Y-128598016D01*
X137351978Y-128640894D01*
X137412334Y-128665894D01*
X137412336Y-128665894D01*
X137412341Y-128665896D01*
X137586304Y-128700499D01*
X137586307Y-128700500D01*
X137586309Y-128700500D01*
X137763693Y-128700500D01*
X137763694Y-128700499D01*
X137821682Y-128688964D01*
X137937658Y-128665896D01*
X137937661Y-128665894D01*
X137937666Y-128665894D01*
X138101547Y-128598013D01*
X138249035Y-128499464D01*
X138374464Y-128374035D01*
X138473013Y-128226547D01*
X138540894Y-128062666D01*
X138545869Y-128037658D01*
X138575499Y-127888695D01*
X138575500Y-127888693D01*
X138575500Y-127711306D01*
X138575499Y-127711304D01*
X138574128Y-127704408D01*
X138570527Y-127686304D01*
X139374500Y-127686304D01*
X139374500Y-127863695D01*
X139409103Y-128037658D01*
X139409106Y-128037667D01*
X139476983Y-128201540D01*
X139476990Y-128201553D01*
X139575535Y-128349034D01*
X139575538Y-128349038D01*
X139700961Y-128474461D01*
X139700965Y-128474464D01*
X139848446Y-128573009D01*
X139848459Y-128573016D01*
X139908816Y-128598016D01*
X140012334Y-128640894D01*
X140012336Y-128640894D01*
X140012341Y-128640896D01*
X140186304Y-128675499D01*
X140186307Y-128675500D01*
X140186309Y-128675500D01*
X140363693Y-128675500D01*
X140363694Y-128675499D01*
X140421682Y-128663964D01*
X140537658Y-128640896D01*
X140537661Y-128640894D01*
X140537666Y-128640894D01*
X140701547Y-128573013D01*
X140849035Y-128474464D01*
X140974464Y-128349035D01*
X141073013Y-128201547D01*
X141140894Y-128037666D01*
X141148783Y-127998009D01*
X141175499Y-127863695D01*
X141175500Y-127863693D01*
X141175500Y-127686306D01*
X141175499Y-127686304D01*
X141140896Y-127512341D01*
X141140893Y-127512332D01*
X141073016Y-127348459D01*
X141073009Y-127348446D01*
X140974464Y-127200965D01*
X140974461Y-127200961D01*
X140884804Y-127111304D01*
X156899500Y-127111304D01*
X156899500Y-127288695D01*
X156934103Y-127462658D01*
X156934106Y-127462667D01*
X157001983Y-127626540D01*
X157001990Y-127626553D01*
X157100535Y-127774034D01*
X157100538Y-127774038D01*
X157225961Y-127899461D01*
X157225965Y-127899464D01*
X157373446Y-127998009D01*
X157373459Y-127998016D01*
X157469185Y-128037666D01*
X157537334Y-128065894D01*
X157537336Y-128065894D01*
X157537341Y-128065896D01*
X157711304Y-128100499D01*
X157711307Y-128100500D01*
X157711309Y-128100500D01*
X157888693Y-128100500D01*
X157888694Y-128100499D01*
X157946682Y-128088964D01*
X158062658Y-128065896D01*
X158062661Y-128065894D01*
X158062666Y-128065894D01*
X158226547Y-127998013D01*
X158374035Y-127899464D01*
X158499464Y-127774035D01*
X158598013Y-127626547D01*
X158665894Y-127462666D01*
X158678755Y-127398013D01*
X158700499Y-127288695D01*
X158700500Y-127288693D01*
X158700500Y-127111306D01*
X158700499Y-127111304D01*
X158665896Y-126937341D01*
X158665893Y-126937332D01*
X158598016Y-126773459D01*
X158598009Y-126773446D01*
X158499464Y-126625965D01*
X158499461Y-126625961D01*
X158374038Y-126500538D01*
X158374034Y-126500535D01*
X158226553Y-126401990D01*
X158226540Y-126401983D01*
X158062667Y-126334106D01*
X158062658Y-126334103D01*
X157888694Y-126299500D01*
X157888691Y-126299500D01*
X157711309Y-126299500D01*
X157711306Y-126299500D01*
X157537341Y-126334103D01*
X157537332Y-126334106D01*
X157373459Y-126401983D01*
X157373446Y-126401990D01*
X157225965Y-126500535D01*
X157225961Y-126500538D01*
X157100538Y-126625961D01*
X157100535Y-126625965D01*
X157001990Y-126773446D01*
X157001983Y-126773459D01*
X156934106Y-126937332D01*
X156934103Y-126937341D01*
X156899500Y-127111304D01*
X140884804Y-127111304D01*
X140849038Y-127075538D01*
X140849034Y-127075535D01*
X140701553Y-126976990D01*
X140701540Y-126976983D01*
X140537667Y-126909106D01*
X140537658Y-126909103D01*
X140363694Y-126874500D01*
X140363691Y-126874500D01*
X140186309Y-126874500D01*
X140186306Y-126874500D01*
X140012341Y-126909103D01*
X140012332Y-126909106D01*
X139848459Y-126976983D01*
X139848446Y-126976990D01*
X139700965Y-127075535D01*
X139700961Y-127075538D01*
X139575538Y-127200961D01*
X139575535Y-127200965D01*
X139476990Y-127348446D01*
X139476983Y-127348459D01*
X139409106Y-127512332D01*
X139409103Y-127512341D01*
X139374500Y-127686304D01*
X138570527Y-127686304D01*
X138540896Y-127537342D01*
X138540893Y-127537332D01*
X138473016Y-127373459D01*
X138473009Y-127373446D01*
X138374464Y-127225965D01*
X138374461Y-127225961D01*
X138249038Y-127100538D01*
X138249034Y-127100535D01*
X138101553Y-127001990D01*
X138101540Y-127001983D01*
X137937667Y-126934106D01*
X137937658Y-126934103D01*
X137763694Y-126899500D01*
X137763691Y-126899500D01*
X137586309Y-126899500D01*
X137586306Y-126899500D01*
X137412341Y-126934103D01*
X137412332Y-126934106D01*
X137248459Y-127001983D01*
X137248446Y-127001990D01*
X137100965Y-127100535D01*
X137100961Y-127100538D01*
X136975538Y-127225961D01*
X136975535Y-127225965D01*
X136876990Y-127373446D01*
X136876983Y-127373459D01*
X136809106Y-127537332D01*
X136809103Y-127537341D01*
X136774500Y-127711304D01*
X115500500Y-127711304D01*
X115500500Y-126511304D01*
X131299500Y-126511304D01*
X131299500Y-126688695D01*
X131334103Y-126862658D01*
X131334106Y-126862667D01*
X131401983Y-127026540D01*
X131401990Y-127026553D01*
X131500535Y-127174034D01*
X131500538Y-127174038D01*
X131625961Y-127299461D01*
X131625965Y-127299464D01*
X131773446Y-127398009D01*
X131773459Y-127398016D01*
X131896363Y-127448923D01*
X131937334Y-127465894D01*
X131937336Y-127465894D01*
X131937341Y-127465896D01*
X132111304Y-127500499D01*
X132111307Y-127500500D01*
X132111309Y-127500500D01*
X132288693Y-127500500D01*
X132288694Y-127500499D01*
X132346682Y-127488964D01*
X132462658Y-127465896D01*
X132462661Y-127465894D01*
X132462666Y-127465894D01*
X132626547Y-127398013D01*
X132774035Y-127299464D01*
X132899464Y-127174035D01*
X132998013Y-127026547D01*
X133065894Y-126862666D01*
X133083639Y-126773459D01*
X133100499Y-126688695D01*
X133100500Y-126688693D01*
X133100500Y-126511306D01*
X133100499Y-126511304D01*
X133065896Y-126337341D01*
X133065893Y-126337332D01*
X132998016Y-126173459D01*
X132998009Y-126173446D01*
X132899464Y-126025965D01*
X132899461Y-126025961D01*
X132774038Y-125900538D01*
X132774034Y-125900535D01*
X132626553Y-125801990D01*
X132626540Y-125801983D01*
X132462667Y-125734106D01*
X132462658Y-125734103D01*
X132288694Y-125699500D01*
X132288691Y-125699500D01*
X132111309Y-125699500D01*
X132111306Y-125699500D01*
X131937341Y-125734103D01*
X131937332Y-125734106D01*
X131773459Y-125801983D01*
X131773446Y-125801990D01*
X131625965Y-125900535D01*
X131625961Y-125900538D01*
X131500538Y-126025961D01*
X131500535Y-126025965D01*
X131401990Y-126173446D01*
X131401983Y-126173459D01*
X131334106Y-126337332D01*
X131334103Y-126337341D01*
X131299500Y-126511304D01*
X115500500Y-126511304D01*
X115500500Y-125286304D01*
X135399500Y-125286304D01*
X135399500Y-125463695D01*
X135434103Y-125637658D01*
X135434106Y-125637667D01*
X135501983Y-125801540D01*
X135501990Y-125801553D01*
X135600535Y-125949034D01*
X135600538Y-125949038D01*
X135725961Y-126074461D01*
X135725965Y-126074464D01*
X135873446Y-126173009D01*
X135873459Y-126173016D01*
X135996363Y-126223923D01*
X136037334Y-126240894D01*
X136037336Y-126240894D01*
X136037341Y-126240896D01*
X136211304Y-126275499D01*
X136211307Y-126275500D01*
X136211309Y-126275500D01*
X136388693Y-126275500D01*
X136388694Y-126275499D01*
X136446682Y-126263964D01*
X136562658Y-126240896D01*
X136562661Y-126240894D01*
X136562666Y-126240894D01*
X136726547Y-126173013D01*
X136874035Y-126074464D01*
X136999464Y-125949035D01*
X137098013Y-125801547D01*
X137165894Y-125637666D01*
X137200500Y-125463691D01*
X137200500Y-125286309D01*
X137200500Y-125286306D01*
X137200499Y-125286304D01*
X140874500Y-125286304D01*
X140874500Y-125463695D01*
X140909103Y-125637658D01*
X140909106Y-125637667D01*
X140976983Y-125801540D01*
X140976990Y-125801553D01*
X141075535Y-125949034D01*
X141075538Y-125949038D01*
X141200961Y-126074461D01*
X141200965Y-126074464D01*
X141348446Y-126173009D01*
X141348459Y-126173016D01*
X141471363Y-126223923D01*
X141512334Y-126240894D01*
X141512336Y-126240894D01*
X141512341Y-126240896D01*
X141686304Y-126275499D01*
X141686307Y-126275500D01*
X141686309Y-126275500D01*
X141863693Y-126275500D01*
X141863694Y-126275499D01*
X141921682Y-126263964D01*
X142037658Y-126240896D01*
X142037661Y-126240894D01*
X142037666Y-126240894D01*
X142201547Y-126173013D01*
X142349035Y-126074464D01*
X142474464Y-125949035D01*
X142573013Y-125801547D01*
X142640894Y-125637666D01*
X142675500Y-125463691D01*
X142675500Y-125286309D01*
X142675500Y-125286306D01*
X142675499Y-125286304D01*
X142640896Y-125112341D01*
X142640893Y-125112332D01*
X142573016Y-124948459D01*
X142573009Y-124948446D01*
X142474464Y-124800965D01*
X142474461Y-124800961D01*
X142349038Y-124675538D01*
X142349034Y-124675535D01*
X142201553Y-124576990D01*
X142201540Y-124576983D01*
X142037667Y-124509106D01*
X142037658Y-124509103D01*
X141863694Y-124474500D01*
X141863691Y-124474500D01*
X141686309Y-124474500D01*
X141686306Y-124474500D01*
X141512341Y-124509103D01*
X141512332Y-124509106D01*
X141348459Y-124576983D01*
X141348446Y-124576990D01*
X141200965Y-124675535D01*
X141200961Y-124675538D01*
X141075538Y-124800961D01*
X141075535Y-124800965D01*
X140976990Y-124948446D01*
X140976983Y-124948459D01*
X140909106Y-125112332D01*
X140909103Y-125112341D01*
X140874500Y-125286304D01*
X137200499Y-125286304D01*
X137165896Y-125112341D01*
X137165893Y-125112332D01*
X137098016Y-124948459D01*
X137098009Y-124948446D01*
X136999464Y-124800965D01*
X136999461Y-124800961D01*
X136874038Y-124675538D01*
X136874034Y-124675535D01*
X136726553Y-124576990D01*
X136726540Y-124576983D01*
X136562667Y-124509106D01*
X136562658Y-124509103D01*
X136388694Y-124474500D01*
X136388691Y-124474500D01*
X136211309Y-124474500D01*
X136211306Y-124474500D01*
X136037341Y-124509103D01*
X136037332Y-124509106D01*
X135873459Y-124576983D01*
X135873446Y-124576990D01*
X135725965Y-124675535D01*
X135725961Y-124675538D01*
X135600538Y-124800961D01*
X135600535Y-124800965D01*
X135501990Y-124948446D01*
X135501983Y-124948459D01*
X135434106Y-125112332D01*
X135434103Y-125112341D01*
X135399500Y-125286304D01*
X115500500Y-125286304D01*
X115500500Y-121686304D01*
X117924500Y-121686304D01*
X117924500Y-121863695D01*
X117959103Y-122037658D01*
X117959106Y-122037667D01*
X118026983Y-122201540D01*
X118026990Y-122201553D01*
X118125535Y-122349034D01*
X118125538Y-122349038D01*
X118250961Y-122474461D01*
X118250965Y-122474464D01*
X118398446Y-122573009D01*
X118398459Y-122573016D01*
X118521363Y-122623923D01*
X118562334Y-122640894D01*
X118562336Y-122640894D01*
X118562341Y-122640896D01*
X118736304Y-122675499D01*
X118736307Y-122675500D01*
X118736309Y-122675500D01*
X118913692Y-122675500D01*
X118973978Y-122663508D01*
X119043569Y-122669735D01*
X119098747Y-122712597D01*
X119121992Y-122778487D01*
X119119787Y-122809316D01*
X119099500Y-122911304D01*
X119099500Y-123088695D01*
X119134103Y-123262658D01*
X119134106Y-123262667D01*
X119201983Y-123426540D01*
X119201990Y-123426553D01*
X119300535Y-123574034D01*
X119300538Y-123574038D01*
X119425961Y-123699461D01*
X119425965Y-123699464D01*
X119573446Y-123798009D01*
X119573459Y-123798016D01*
X119696363Y-123848923D01*
X119737334Y-123865894D01*
X119737336Y-123865894D01*
X119737341Y-123865896D01*
X119911304Y-123900499D01*
X119911307Y-123900500D01*
X119911309Y-123900500D01*
X120088693Y-123900500D01*
X120088694Y-123900499D01*
X120146682Y-123888964D01*
X120262658Y-123865896D01*
X120262661Y-123865894D01*
X120262666Y-123865894D01*
X120426547Y-123798013D01*
X120574035Y-123699464D01*
X120699464Y-123574035D01*
X120798013Y-123426547D01*
X120865894Y-123262666D01*
X120900500Y-123088691D01*
X120900500Y-122911309D01*
X120900500Y-122911306D01*
X120900499Y-122911304D01*
X120865896Y-122737341D01*
X120865893Y-122737332D01*
X120798016Y-122573459D01*
X120798009Y-122573446D01*
X120699464Y-122425965D01*
X120699461Y-122425961D01*
X120574038Y-122300538D01*
X120574034Y-122300535D01*
X120426553Y-122201990D01*
X120426540Y-122201983D01*
X120262667Y-122134106D01*
X120262658Y-122134103D01*
X120088694Y-122099500D01*
X120088691Y-122099500D01*
X119911309Y-122099500D01*
X119851019Y-122111492D01*
X119781428Y-122105263D01*
X119726251Y-122062400D01*
X119703007Y-121996510D01*
X119705211Y-121965687D01*
X119725500Y-121863691D01*
X119725500Y-121686309D01*
X119725500Y-121686306D01*
X119725499Y-121686304D01*
X123374500Y-121686304D01*
X123374500Y-121863695D01*
X123409103Y-122037658D01*
X123409106Y-122037667D01*
X123476983Y-122201540D01*
X123476990Y-122201553D01*
X123575535Y-122349034D01*
X123575538Y-122349038D01*
X123700961Y-122474461D01*
X123700965Y-122474464D01*
X123848446Y-122573009D01*
X123848459Y-122573016D01*
X123971363Y-122623923D01*
X124012334Y-122640894D01*
X124012336Y-122640894D01*
X124012341Y-122640896D01*
X124186304Y-122675499D01*
X124186307Y-122675500D01*
X124186309Y-122675500D01*
X124363693Y-122675500D01*
X124363694Y-122675499D01*
X124421682Y-122663964D01*
X124537658Y-122640896D01*
X124537661Y-122640894D01*
X124537666Y-122640894D01*
X124701547Y-122573013D01*
X124849035Y-122474464D01*
X124974464Y-122349035D01*
X125073013Y-122201547D01*
X125140894Y-122037666D01*
X125149081Y-121996510D01*
X125175499Y-121863695D01*
X125175500Y-121863693D01*
X125175500Y-121686306D01*
X125175499Y-121686304D01*
X125140896Y-121512341D01*
X125140893Y-121512332D01*
X125125637Y-121475500D01*
X125099046Y-121411304D01*
X159499500Y-121411304D01*
X159499500Y-121588695D01*
X159534103Y-121762658D01*
X159534106Y-121762667D01*
X159601983Y-121926540D01*
X159601990Y-121926553D01*
X159700535Y-122074034D01*
X159700538Y-122074038D01*
X159825961Y-122199461D01*
X159825965Y-122199464D01*
X159973446Y-122298009D01*
X159973459Y-122298016D01*
X160096363Y-122348923D01*
X160137334Y-122365894D01*
X160137336Y-122365894D01*
X160137341Y-122365896D01*
X160311304Y-122400499D01*
X160311307Y-122400500D01*
X160311309Y-122400500D01*
X160488693Y-122400500D01*
X160488694Y-122400499D01*
X160546682Y-122388964D01*
X160662658Y-122365896D01*
X160662661Y-122365894D01*
X160662666Y-122365894D01*
X160826547Y-122298013D01*
X160974035Y-122199464D01*
X161099464Y-122074035D01*
X161198013Y-121926547D01*
X161265894Y-121762666D01*
X161281083Y-121686309D01*
X161300499Y-121588695D01*
X161300500Y-121588693D01*
X161300500Y-121411306D01*
X161300499Y-121411304D01*
X161265896Y-121237341D01*
X161265893Y-121237332D01*
X161198016Y-121073459D01*
X161198009Y-121073446D01*
X161099464Y-120925965D01*
X161099461Y-120925961D01*
X160974038Y-120800538D01*
X160974034Y-120800535D01*
X160826553Y-120701990D01*
X160826540Y-120701983D01*
X160662667Y-120634106D01*
X160662658Y-120634103D01*
X160488694Y-120599500D01*
X160488691Y-120599500D01*
X160311309Y-120599500D01*
X160311306Y-120599500D01*
X160137341Y-120634103D01*
X160137332Y-120634106D01*
X159973459Y-120701983D01*
X159973446Y-120701990D01*
X159825965Y-120800535D01*
X159825961Y-120800538D01*
X159700538Y-120925961D01*
X159700535Y-120925965D01*
X159601990Y-121073446D01*
X159601983Y-121073459D01*
X159534106Y-121237332D01*
X159534103Y-121237341D01*
X159499500Y-121411304D01*
X125099046Y-121411304D01*
X125073013Y-121348453D01*
X125073011Y-121348450D01*
X125073009Y-121348446D01*
X124974464Y-121200965D01*
X124974461Y-121200961D01*
X124849038Y-121075538D01*
X124849034Y-121075535D01*
X124701553Y-120976990D01*
X124701540Y-120976983D01*
X124537667Y-120909106D01*
X124537658Y-120909103D01*
X124363694Y-120874500D01*
X124363691Y-120874500D01*
X124186309Y-120874500D01*
X124186306Y-120874500D01*
X124012341Y-120909103D01*
X124012332Y-120909106D01*
X123848459Y-120976983D01*
X123848446Y-120976990D01*
X123700965Y-121075535D01*
X123700961Y-121075538D01*
X123575538Y-121200961D01*
X123575535Y-121200965D01*
X123476990Y-121348446D01*
X123476983Y-121348459D01*
X123409106Y-121512332D01*
X123409103Y-121512341D01*
X123374500Y-121686304D01*
X119725499Y-121686304D01*
X119690896Y-121512341D01*
X119690893Y-121512332D01*
X119623016Y-121348459D01*
X119623009Y-121348446D01*
X119524464Y-121200965D01*
X119524461Y-121200961D01*
X119399038Y-121075538D01*
X119399034Y-121075535D01*
X119251553Y-120976990D01*
X119251540Y-120976983D01*
X119087667Y-120909106D01*
X119087658Y-120909103D01*
X118913694Y-120874500D01*
X118913691Y-120874500D01*
X118736309Y-120874500D01*
X118736306Y-120874500D01*
X118562341Y-120909103D01*
X118562332Y-120909106D01*
X118398459Y-120976983D01*
X118398446Y-120976990D01*
X118250965Y-121075535D01*
X118250961Y-121075538D01*
X118125538Y-121200961D01*
X118125535Y-121200965D01*
X118026990Y-121348446D01*
X118026983Y-121348459D01*
X117959106Y-121512332D01*
X117959103Y-121512341D01*
X117924500Y-121686304D01*
X115500500Y-121686304D01*
X115500500Y-119586304D01*
X130799500Y-119586304D01*
X130799500Y-119763695D01*
X130834103Y-119937658D01*
X130834106Y-119937667D01*
X130901983Y-120101540D01*
X130901990Y-120101553D01*
X131000535Y-120249034D01*
X131000538Y-120249038D01*
X131125961Y-120374461D01*
X131125965Y-120374464D01*
X131273446Y-120473009D01*
X131273459Y-120473016D01*
X131333816Y-120498016D01*
X131437334Y-120540894D01*
X131437336Y-120540894D01*
X131437341Y-120540896D01*
X131611304Y-120575499D01*
X131611307Y-120575500D01*
X131611309Y-120575500D01*
X131788693Y-120575500D01*
X131788694Y-120575499D01*
X131846682Y-120563964D01*
X131962658Y-120540896D01*
X131962661Y-120540894D01*
X131962666Y-120540894D01*
X132126547Y-120473013D01*
X132274035Y-120374464D01*
X132399464Y-120249035D01*
X132498013Y-120101547D01*
X132565894Y-119937666D01*
X132565961Y-119937332D01*
X132595527Y-119788691D01*
X132600500Y-119763691D01*
X132600500Y-119611304D01*
X137299500Y-119611304D01*
X137299500Y-119788695D01*
X137334103Y-119962658D01*
X137334106Y-119962667D01*
X137401983Y-120126540D01*
X137401990Y-120126553D01*
X137500535Y-120274034D01*
X137500538Y-120274038D01*
X137625961Y-120399461D01*
X137625965Y-120399464D01*
X137773446Y-120498009D01*
X137773459Y-120498016D01*
X137876978Y-120540894D01*
X137937334Y-120565894D01*
X137937336Y-120565894D01*
X137937341Y-120565896D01*
X138111304Y-120600499D01*
X138111307Y-120600500D01*
X138111309Y-120600500D01*
X138288693Y-120600500D01*
X138288694Y-120600499D01*
X138346682Y-120588964D01*
X138462658Y-120565896D01*
X138462661Y-120565894D01*
X138462666Y-120565894D01*
X138626547Y-120498013D01*
X138774035Y-120399464D01*
X138899464Y-120274035D01*
X138998013Y-120126547D01*
X139004327Y-120111304D01*
X157899500Y-120111304D01*
X157899500Y-120288695D01*
X157934103Y-120462658D01*
X157934106Y-120462667D01*
X158001983Y-120626540D01*
X158001990Y-120626553D01*
X158100535Y-120774034D01*
X158100538Y-120774038D01*
X158225961Y-120899461D01*
X158225965Y-120899464D01*
X158373446Y-120998009D01*
X158373459Y-120998016D01*
X158496363Y-121048923D01*
X158537334Y-121065894D01*
X158537336Y-121065894D01*
X158537341Y-121065896D01*
X158711304Y-121100499D01*
X158711307Y-121100500D01*
X158711309Y-121100500D01*
X158888693Y-121100500D01*
X158888694Y-121100499D01*
X158946682Y-121088964D01*
X159062658Y-121065896D01*
X159062661Y-121065894D01*
X159062666Y-121065894D01*
X159226547Y-120998013D01*
X159374035Y-120899464D01*
X159499464Y-120774035D01*
X159598013Y-120626547D01*
X159665894Y-120462666D01*
X159678467Y-120399461D01*
X159698888Y-120296795D01*
X159700500Y-120288691D01*
X159700500Y-120111309D01*
X159700500Y-120111306D01*
X159700499Y-120111304D01*
X159665896Y-119937341D01*
X159665893Y-119937332D01*
X159598016Y-119773459D01*
X159598009Y-119773446D01*
X159499464Y-119625965D01*
X159499461Y-119625961D01*
X159374038Y-119500538D01*
X159374034Y-119500535D01*
X159236024Y-119408319D01*
X159236023Y-119408318D01*
X159226554Y-119401991D01*
X159226540Y-119401983D01*
X159062667Y-119334106D01*
X159062658Y-119334103D01*
X158948038Y-119311304D01*
X162099500Y-119311304D01*
X162099500Y-119488695D01*
X162134103Y-119662658D01*
X162134106Y-119662667D01*
X162201983Y-119826540D01*
X162201990Y-119826553D01*
X162300535Y-119974034D01*
X162300538Y-119974038D01*
X162425961Y-120099461D01*
X162425965Y-120099464D01*
X162573446Y-120198009D01*
X162573459Y-120198016D01*
X162658055Y-120233056D01*
X162737334Y-120265894D01*
X162737336Y-120265894D01*
X162737341Y-120265896D01*
X162911304Y-120300499D01*
X162911307Y-120300500D01*
X162911309Y-120300500D01*
X163088692Y-120300500D01*
X163138622Y-120290568D01*
X163208213Y-120296795D01*
X163263391Y-120339657D01*
X163286636Y-120405547D01*
X163284432Y-120436375D01*
X163274500Y-120486309D01*
X163274500Y-120663695D01*
X163309103Y-120837658D01*
X163309106Y-120837667D01*
X163376983Y-121001540D01*
X163376990Y-121001553D01*
X163475535Y-121149034D01*
X163475538Y-121149038D01*
X163600961Y-121274461D01*
X163600965Y-121274464D01*
X163748446Y-121373009D01*
X163748459Y-121373016D01*
X163871363Y-121423923D01*
X163912334Y-121440894D01*
X163912336Y-121440894D01*
X163912341Y-121440896D01*
X164086304Y-121475499D01*
X164086307Y-121475500D01*
X164086309Y-121475500D01*
X164263693Y-121475500D01*
X164263694Y-121475499D01*
X164321682Y-121463964D01*
X164437658Y-121440896D01*
X164437661Y-121440894D01*
X164437666Y-121440894D01*
X164601547Y-121373013D01*
X164749035Y-121274464D01*
X164874464Y-121149035D01*
X164973013Y-121001547D01*
X164974479Y-120998009D01*
X165011304Y-120909103D01*
X165040894Y-120837666D01*
X165048280Y-120800538D01*
X165075499Y-120663695D01*
X165075500Y-120663693D01*
X165075500Y-120486306D01*
X165075499Y-120486304D01*
X165040896Y-120312341D01*
X165040893Y-120312332D01*
X165034457Y-120296795D01*
X165008056Y-120233056D01*
X164973016Y-120148459D01*
X164973009Y-120148446D01*
X164874464Y-120000965D01*
X164874461Y-120000961D01*
X164749038Y-119875538D01*
X164749034Y-119875535D01*
X164601553Y-119776990D01*
X164601540Y-119776983D01*
X164437667Y-119709106D01*
X164437658Y-119709103D01*
X164263694Y-119674500D01*
X164263691Y-119674500D01*
X164086309Y-119674500D01*
X164036375Y-119684432D01*
X163966783Y-119678203D01*
X163911607Y-119635340D01*
X163888363Y-119569450D01*
X163890568Y-119538622D01*
X163900500Y-119488693D01*
X163900500Y-119311306D01*
X163900499Y-119311304D01*
X163865896Y-119137341D01*
X163865893Y-119137332D01*
X163798016Y-118973459D01*
X163798009Y-118973446D01*
X163699464Y-118825965D01*
X163699461Y-118825961D01*
X163574038Y-118700538D01*
X163574034Y-118700535D01*
X163426553Y-118601990D01*
X163426540Y-118601983D01*
X163262667Y-118534106D01*
X163262658Y-118534103D01*
X163088694Y-118499500D01*
X163088691Y-118499500D01*
X162911309Y-118499500D01*
X162911306Y-118499500D01*
X162737341Y-118534103D01*
X162737332Y-118534106D01*
X162573459Y-118601983D01*
X162573446Y-118601990D01*
X162425965Y-118700535D01*
X162425961Y-118700538D01*
X162300538Y-118825961D01*
X162300535Y-118825965D01*
X162201990Y-118973446D01*
X162201983Y-118973459D01*
X162134106Y-119137332D01*
X162134103Y-119137341D01*
X162099500Y-119311304D01*
X158948038Y-119311304D01*
X158888694Y-119299500D01*
X158888691Y-119299500D01*
X158711309Y-119299500D01*
X158711306Y-119299500D01*
X158537341Y-119334103D01*
X158537332Y-119334106D01*
X158373459Y-119401983D01*
X158373446Y-119401990D01*
X158225965Y-119500535D01*
X158225961Y-119500538D01*
X158100538Y-119625961D01*
X158100535Y-119625965D01*
X158001990Y-119773446D01*
X158001983Y-119773459D01*
X157934106Y-119937332D01*
X157934103Y-119937341D01*
X157899500Y-120111304D01*
X139004327Y-120111304D01*
X139065894Y-119962666D01*
X139070869Y-119937658D01*
X139100499Y-119788695D01*
X139100500Y-119788693D01*
X139100500Y-119611306D01*
X139100499Y-119611304D01*
X139065896Y-119437341D01*
X139065893Y-119437332D01*
X138998016Y-119273459D01*
X138998009Y-119273446D01*
X138899464Y-119125965D01*
X138899461Y-119125961D01*
X138774038Y-119000538D01*
X138774034Y-119000535D01*
X138626553Y-118901990D01*
X138626540Y-118901983D01*
X138462667Y-118834106D01*
X138462658Y-118834103D01*
X138288694Y-118799500D01*
X138288691Y-118799500D01*
X138111309Y-118799500D01*
X138111306Y-118799500D01*
X137937341Y-118834103D01*
X137937332Y-118834106D01*
X137773459Y-118901983D01*
X137773446Y-118901990D01*
X137625965Y-119000535D01*
X137625961Y-119000538D01*
X137500538Y-119125961D01*
X137500535Y-119125965D01*
X137401990Y-119273446D01*
X137401983Y-119273459D01*
X137334106Y-119437332D01*
X137334103Y-119437341D01*
X137299500Y-119611304D01*
X132600500Y-119611304D01*
X132600500Y-119586309D01*
X132600500Y-119586306D01*
X132600499Y-119586304D01*
X132565896Y-119412341D01*
X132565893Y-119412332D01*
X132564230Y-119408318D01*
X132524049Y-119311309D01*
X132498016Y-119248459D01*
X132498009Y-119248446D01*
X132399464Y-119100965D01*
X132399461Y-119100961D01*
X132274038Y-118975538D01*
X132274034Y-118975535D01*
X132126553Y-118876990D01*
X132126540Y-118876983D01*
X131962667Y-118809106D01*
X131962658Y-118809103D01*
X131788694Y-118774500D01*
X131788691Y-118774500D01*
X131611309Y-118774500D01*
X131611306Y-118774500D01*
X131437341Y-118809103D01*
X131437332Y-118809106D01*
X131273459Y-118876983D01*
X131273446Y-118876990D01*
X131125965Y-118975535D01*
X131125961Y-118975538D01*
X131000538Y-119100961D01*
X131000535Y-119100965D01*
X130901990Y-119248446D01*
X130901983Y-119248459D01*
X130834106Y-119412332D01*
X130834103Y-119412341D01*
X130799500Y-119586304D01*
X115500500Y-119586304D01*
X115500500Y-117661304D01*
X129999500Y-117661304D01*
X129999500Y-117838695D01*
X130034103Y-118012658D01*
X130034106Y-118012667D01*
X130101983Y-118176540D01*
X130101990Y-118176553D01*
X130200535Y-118324034D01*
X130200538Y-118324038D01*
X130325961Y-118449461D01*
X130325965Y-118449464D01*
X130473446Y-118548009D01*
X130473459Y-118548016D01*
X130596363Y-118598923D01*
X130637334Y-118615894D01*
X130637336Y-118615894D01*
X130637341Y-118615896D01*
X130811304Y-118650499D01*
X130811307Y-118650500D01*
X130811309Y-118650500D01*
X130988693Y-118650500D01*
X130988694Y-118650499D01*
X131046682Y-118638964D01*
X131162658Y-118615896D01*
X131162661Y-118615894D01*
X131162666Y-118615894D01*
X131326547Y-118548013D01*
X131474035Y-118449464D01*
X131599464Y-118324035D01*
X131698013Y-118176547D01*
X131765894Y-118012666D01*
X131800500Y-117838691D01*
X131800500Y-117661309D01*
X131800500Y-117661306D01*
X131800499Y-117661304D01*
X131765896Y-117487341D01*
X131765893Y-117487332D01*
X131698016Y-117323459D01*
X131698009Y-117323446D01*
X131599464Y-117175965D01*
X131599461Y-117175961D01*
X131474038Y-117050538D01*
X131474034Y-117050535D01*
X131326553Y-116951990D01*
X131326540Y-116951983D01*
X131162667Y-116884106D01*
X131162658Y-116884103D01*
X130988694Y-116849500D01*
X130988691Y-116849500D01*
X130811309Y-116849500D01*
X130811306Y-116849500D01*
X130637341Y-116884103D01*
X130637332Y-116884106D01*
X130473459Y-116951983D01*
X130473446Y-116951990D01*
X130325965Y-117050535D01*
X130325961Y-117050538D01*
X130200538Y-117175961D01*
X130200535Y-117175965D01*
X130101990Y-117323446D01*
X130101983Y-117323459D01*
X130034106Y-117487332D01*
X130034103Y-117487341D01*
X129999500Y-117661304D01*
X115500500Y-117661304D01*
X115500500Y-115061304D01*
X117249500Y-115061304D01*
X117249500Y-115238695D01*
X117284103Y-115412658D01*
X117284106Y-115412667D01*
X117351983Y-115576540D01*
X117351990Y-115576553D01*
X117450535Y-115724034D01*
X117450538Y-115724038D01*
X117575961Y-115849461D01*
X117575965Y-115849464D01*
X117723446Y-115948009D01*
X117723459Y-115948016D01*
X117844155Y-115998009D01*
X117887334Y-116015894D01*
X117887336Y-116015894D01*
X117887341Y-116015896D01*
X118061304Y-116050499D01*
X118061307Y-116050500D01*
X118061309Y-116050500D01*
X118238693Y-116050500D01*
X118238694Y-116050499D01*
X118296682Y-116038964D01*
X118412658Y-116015896D01*
X118412661Y-116015894D01*
X118412666Y-116015894D01*
X118576547Y-115948013D01*
X118724035Y-115849464D01*
X118849464Y-115724035D01*
X118948013Y-115576547D01*
X119015894Y-115412666D01*
X119019691Y-115393580D01*
X119038964Y-115296682D01*
X119050500Y-115238691D01*
X119050500Y-115111304D01*
X134199500Y-115111304D01*
X134199500Y-115288695D01*
X134234103Y-115462658D01*
X134234106Y-115462667D01*
X134301983Y-115626540D01*
X134301990Y-115626553D01*
X134400535Y-115774034D01*
X134400538Y-115774038D01*
X134525961Y-115899461D01*
X134525965Y-115899464D01*
X134673446Y-115998009D01*
X134673459Y-115998016D01*
X134796363Y-116048923D01*
X134837334Y-116065894D01*
X134837336Y-116065894D01*
X134837341Y-116065896D01*
X135011304Y-116100499D01*
X135011307Y-116100500D01*
X135011309Y-116100500D01*
X135188693Y-116100500D01*
X135188694Y-116100499D01*
X135246682Y-116088964D01*
X135362658Y-116065896D01*
X135362661Y-116065894D01*
X135362666Y-116065894D01*
X135526547Y-115998013D01*
X135674035Y-115899464D01*
X135799464Y-115774035D01*
X135898013Y-115626547D01*
X135910445Y-115596534D01*
X135910447Y-115596530D01*
X163199500Y-115596530D01*
X163199500Y-116503469D01*
X163239868Y-116706412D01*
X163239870Y-116706420D01*
X163319058Y-116897596D01*
X163434024Y-117069657D01*
X163580342Y-117215975D01*
X163580345Y-117215977D01*
X163752402Y-117330941D01*
X163943580Y-117410130D01*
X164146530Y-117450499D01*
X164146534Y-117450500D01*
X164146535Y-117450500D01*
X164353466Y-117450500D01*
X164353467Y-117450499D01*
X164556420Y-117410130D01*
X164747598Y-117330941D01*
X164919655Y-117215977D01*
X165065977Y-117069655D01*
X165180941Y-116897598D01*
X165260130Y-116706420D01*
X165300500Y-116503465D01*
X165300500Y-115596535D01*
X165260130Y-115393580D01*
X165180941Y-115202402D01*
X165065977Y-115030345D01*
X165065975Y-115030342D01*
X164919657Y-114884024D01*
X164809067Y-114810131D01*
X164747598Y-114769059D01*
X164725124Y-114759750D01*
X164556420Y-114689870D01*
X164556412Y-114689868D01*
X164353469Y-114649500D01*
X164353465Y-114649500D01*
X164146535Y-114649500D01*
X164146530Y-114649500D01*
X163943587Y-114689868D01*
X163943579Y-114689870D01*
X163752403Y-114769058D01*
X163580342Y-114884024D01*
X163434024Y-115030342D01*
X163319058Y-115202403D01*
X163239870Y-115393579D01*
X163239868Y-115393587D01*
X163199500Y-115596530D01*
X135910447Y-115596530D01*
X135932623Y-115542991D01*
X135944959Y-115513207D01*
X135965894Y-115462666D01*
X135975840Y-115412667D01*
X136000499Y-115288695D01*
X136000500Y-115288693D01*
X136000500Y-115111306D01*
X136000499Y-115111304D01*
X135965896Y-114937341D01*
X135965893Y-114937332D01*
X135898016Y-114773459D01*
X135898009Y-114773446D01*
X135799464Y-114625965D01*
X135799461Y-114625961D01*
X135674038Y-114500538D01*
X135674034Y-114500535D01*
X135526553Y-114401990D01*
X135526540Y-114401983D01*
X135362667Y-114334106D01*
X135362658Y-114334103D01*
X135188694Y-114299500D01*
X135188691Y-114299500D01*
X135011309Y-114299500D01*
X135011306Y-114299500D01*
X134837341Y-114334103D01*
X134837332Y-114334106D01*
X134673459Y-114401983D01*
X134673446Y-114401990D01*
X134525965Y-114500535D01*
X134525961Y-114500538D01*
X134400538Y-114625961D01*
X134400535Y-114625965D01*
X134301990Y-114773446D01*
X134301983Y-114773459D01*
X134234106Y-114937332D01*
X134234103Y-114937341D01*
X134199500Y-115111304D01*
X119050500Y-115111304D01*
X119050500Y-115061309D01*
X119050500Y-115061306D01*
X119050499Y-115061304D01*
X119015896Y-114887341D01*
X119015893Y-114887332D01*
X119014522Y-114884023D01*
X118983916Y-114810131D01*
X118948016Y-114723459D01*
X118948009Y-114723446D01*
X118849464Y-114575965D01*
X118849461Y-114575961D01*
X118724038Y-114450538D01*
X118724034Y-114450535D01*
X118576553Y-114351990D01*
X118576540Y-114351983D01*
X118412667Y-114284106D01*
X118412658Y-114284103D01*
X118238694Y-114249500D01*
X118238691Y-114249500D01*
X118061309Y-114249500D01*
X118061306Y-114249500D01*
X117887341Y-114284103D01*
X117887332Y-114284106D01*
X117723459Y-114351983D01*
X117723446Y-114351990D01*
X117575965Y-114450535D01*
X117575961Y-114450538D01*
X117450538Y-114575961D01*
X117450535Y-114575965D01*
X117351990Y-114723446D01*
X117351983Y-114723459D01*
X117284106Y-114887332D01*
X117284103Y-114887341D01*
X117249500Y-115061304D01*
X115500500Y-115061304D01*
X115500500Y-112911304D01*
X117199500Y-112911304D01*
X117199500Y-113088695D01*
X117234103Y-113262658D01*
X117234106Y-113262667D01*
X117301983Y-113426540D01*
X117301990Y-113426553D01*
X117400535Y-113574034D01*
X117400538Y-113574038D01*
X117525961Y-113699461D01*
X117525965Y-113699464D01*
X117673446Y-113798009D01*
X117673459Y-113798016D01*
X117796363Y-113848923D01*
X117837334Y-113865894D01*
X117837336Y-113865894D01*
X117837341Y-113865896D01*
X118011304Y-113900499D01*
X118011307Y-113900500D01*
X118011309Y-113900500D01*
X118188693Y-113900500D01*
X118188694Y-113900499D01*
X118246682Y-113888964D01*
X118362658Y-113865896D01*
X118362661Y-113865894D01*
X118362666Y-113865894D01*
X118526547Y-113798013D01*
X118674035Y-113699464D01*
X118799464Y-113574035D01*
X118898013Y-113426547D01*
X118965894Y-113262666D01*
X119000500Y-113088691D01*
X119000500Y-112911309D01*
X119000500Y-112911306D01*
X119000499Y-112911304D01*
X124949500Y-112911304D01*
X124949500Y-113088695D01*
X124984103Y-113262658D01*
X124984106Y-113262667D01*
X125051983Y-113426540D01*
X125051990Y-113426553D01*
X125150535Y-113574034D01*
X125150538Y-113574038D01*
X125275961Y-113699461D01*
X125275965Y-113699464D01*
X125423446Y-113798009D01*
X125423459Y-113798016D01*
X125546363Y-113848923D01*
X125587334Y-113865894D01*
X125587336Y-113865894D01*
X125587341Y-113865896D01*
X125761304Y-113900499D01*
X125761307Y-113900500D01*
X125761309Y-113900500D01*
X125938693Y-113900500D01*
X125938694Y-113900499D01*
X125996682Y-113888964D01*
X126112658Y-113865896D01*
X126112661Y-113865894D01*
X126112666Y-113865894D01*
X126276547Y-113798013D01*
X126424035Y-113699464D01*
X126549464Y-113574035D01*
X126648013Y-113426547D01*
X126715894Y-113262666D01*
X126750500Y-113088691D01*
X126750500Y-112911309D01*
X126750500Y-112911306D01*
X126750499Y-112911304D01*
X126715896Y-112737341D01*
X126715893Y-112737332D01*
X126648016Y-112573459D01*
X126648009Y-112573446D01*
X126549464Y-112425965D01*
X126549461Y-112425961D01*
X126424038Y-112300538D01*
X126424034Y-112300535D01*
X126276553Y-112201990D01*
X126276540Y-112201983D01*
X126117974Y-112136304D01*
X130799500Y-112136304D01*
X130799500Y-112313695D01*
X130834103Y-112487658D01*
X130834106Y-112487667D01*
X130901983Y-112651540D01*
X130901990Y-112651553D01*
X131000535Y-112799034D01*
X131000538Y-112799038D01*
X131125961Y-112924461D01*
X131125965Y-112924464D01*
X131273446Y-113023009D01*
X131273459Y-113023016D01*
X131396363Y-113073923D01*
X131437334Y-113090894D01*
X131437336Y-113090894D01*
X131437341Y-113090896D01*
X131611304Y-113125499D01*
X131611307Y-113125500D01*
X131611309Y-113125500D01*
X131788693Y-113125500D01*
X131788694Y-113125499D01*
X131846682Y-113113964D01*
X131962658Y-113090896D01*
X131962661Y-113090894D01*
X131962666Y-113090894D01*
X132126547Y-113023013D01*
X132274035Y-112924464D01*
X132399464Y-112799035D01*
X132491494Y-112661304D01*
X137774500Y-112661304D01*
X137774500Y-112838695D01*
X137809103Y-113012658D01*
X137809106Y-113012667D01*
X137876983Y-113176540D01*
X137876990Y-113176553D01*
X137975535Y-113324034D01*
X137975538Y-113324038D01*
X138100961Y-113449461D01*
X138100965Y-113449464D01*
X138248446Y-113548009D01*
X138248459Y-113548016D01*
X138371363Y-113598923D01*
X138412334Y-113615894D01*
X138412336Y-113615894D01*
X138412341Y-113615896D01*
X138586304Y-113650499D01*
X138586307Y-113650500D01*
X138586309Y-113650500D01*
X138763693Y-113650500D01*
X138763694Y-113650499D01*
X138821682Y-113638964D01*
X138937658Y-113615896D01*
X138937661Y-113615894D01*
X138937666Y-113615894D01*
X139101547Y-113548013D01*
X139249035Y-113449464D01*
X139374464Y-113324035D01*
X139473013Y-113176547D01*
X139540894Y-113012666D01*
X139575500Y-112838691D01*
X139575500Y-112661309D01*
X139575500Y-112661306D01*
X139575499Y-112661304D01*
X139540896Y-112487341D01*
X139540893Y-112487332D01*
X139473016Y-112323459D01*
X139473009Y-112323446D01*
X139374464Y-112175965D01*
X139374461Y-112175961D01*
X139249038Y-112050538D01*
X139249034Y-112050535D01*
X139101553Y-111951990D01*
X139101541Y-111951983D01*
X139023787Y-111919778D01*
X138937667Y-111884106D01*
X138937658Y-111884103D01*
X138763694Y-111849500D01*
X138763691Y-111849500D01*
X138586309Y-111849500D01*
X138586306Y-111849500D01*
X138412341Y-111884103D01*
X138412332Y-111884106D01*
X138248459Y-111951983D01*
X138248446Y-111951990D01*
X138100965Y-112050535D01*
X138100961Y-112050538D01*
X137975538Y-112175961D01*
X137975535Y-112175965D01*
X137876990Y-112323446D01*
X137876983Y-112323459D01*
X137809106Y-112487332D01*
X137809103Y-112487341D01*
X137774500Y-112661304D01*
X132491494Y-112661304D01*
X132498013Y-112651547D01*
X132565894Y-112487666D01*
X132565961Y-112487332D01*
X132588964Y-112371682D01*
X132600500Y-112313691D01*
X132600500Y-112136309D01*
X132600500Y-112136306D01*
X132600499Y-112136304D01*
X132565896Y-111962341D01*
X132565893Y-111962332D01*
X132561606Y-111951983D01*
X132524049Y-111861309D01*
X132503337Y-111811304D01*
X152349500Y-111811304D01*
X152349500Y-111988695D01*
X152384103Y-112162658D01*
X152384106Y-112162667D01*
X152451983Y-112326540D01*
X152451990Y-112326553D01*
X152550535Y-112474034D01*
X152550538Y-112474038D01*
X152675961Y-112599461D01*
X152675965Y-112599464D01*
X152823446Y-112698009D01*
X152823459Y-112698016D01*
X152918378Y-112737332D01*
X152987334Y-112765894D01*
X152987336Y-112765894D01*
X152987341Y-112765896D01*
X153161304Y-112800499D01*
X153161307Y-112800500D01*
X153161309Y-112800500D01*
X153338693Y-112800500D01*
X153338694Y-112800499D01*
X153396682Y-112788964D01*
X153512658Y-112765896D01*
X153512661Y-112765894D01*
X153512666Y-112765894D01*
X153676547Y-112698013D01*
X153824035Y-112599464D01*
X153949464Y-112474035D01*
X154048013Y-112326547D01*
X154049298Y-112323446D01*
X154095183Y-112212667D01*
X154115894Y-112162666D01*
X154121138Y-112136306D01*
X154138964Y-112046682D01*
X154150500Y-111988691D01*
X154150500Y-111861304D01*
X161999500Y-111861304D01*
X161999500Y-112038695D01*
X162034103Y-112212658D01*
X162034106Y-112212667D01*
X162101983Y-112376540D01*
X162101990Y-112376553D01*
X162200535Y-112524034D01*
X162200538Y-112524038D01*
X162325961Y-112649461D01*
X162325965Y-112649464D01*
X162473446Y-112748009D01*
X162473459Y-112748016D01*
X162596363Y-112798923D01*
X162637334Y-112815894D01*
X162637336Y-112815894D01*
X162637341Y-112815896D01*
X162811304Y-112850499D01*
X162811307Y-112850500D01*
X162811309Y-112850500D01*
X162988693Y-112850500D01*
X162988694Y-112850499D01*
X163048058Y-112838691D01*
X163162658Y-112815896D01*
X163162661Y-112815894D01*
X163162666Y-112815894D01*
X163326547Y-112748013D01*
X163474035Y-112649464D01*
X163599464Y-112524035D01*
X163698013Y-112376547D01*
X163765894Y-112212666D01*
X163767936Y-112202403D01*
X163800499Y-112038695D01*
X163800500Y-112038693D01*
X163800500Y-111932764D01*
X163820185Y-111865725D01*
X163872989Y-111819970D01*
X163942147Y-111810026D01*
X163948691Y-111811147D01*
X164146530Y-111850499D01*
X164146534Y-111850500D01*
X164146535Y-111850500D01*
X164353466Y-111850500D01*
X164353467Y-111850499D01*
X164556420Y-111810130D01*
X164747598Y-111730941D01*
X164919655Y-111615977D01*
X165065977Y-111469655D01*
X165180941Y-111297598D01*
X165260130Y-111106420D01*
X165300500Y-110903465D01*
X165300500Y-109996535D01*
X165260130Y-109793580D01*
X165180941Y-109602402D01*
X165065977Y-109430345D01*
X165065975Y-109430342D01*
X164919657Y-109284024D01*
X164833626Y-109226541D01*
X164747598Y-109169059D01*
X164556420Y-109089870D01*
X164556412Y-109089868D01*
X164353469Y-109049500D01*
X164353465Y-109049500D01*
X164146535Y-109049500D01*
X164146530Y-109049500D01*
X163943587Y-109089868D01*
X163943579Y-109089870D01*
X163752403Y-109169058D01*
X163580342Y-109284024D01*
X163434024Y-109430342D01*
X163319058Y-109602403D01*
X163239870Y-109793579D01*
X163239868Y-109793587D01*
X163199500Y-109996530D01*
X163199500Y-110903468D01*
X163202224Y-110917162D01*
X163195997Y-110986753D01*
X163153134Y-111041931D01*
X163087244Y-111065175D01*
X163056417Y-111062971D01*
X162988691Y-111049500D01*
X162811309Y-111049500D01*
X162811306Y-111049500D01*
X162637341Y-111084103D01*
X162637332Y-111084106D01*
X162473459Y-111151983D01*
X162473446Y-111151990D01*
X162325965Y-111250535D01*
X162325961Y-111250538D01*
X162200538Y-111375961D01*
X162200535Y-111375965D01*
X162101990Y-111523446D01*
X162101983Y-111523459D01*
X162034106Y-111687332D01*
X162034103Y-111687341D01*
X161999500Y-111861304D01*
X154150500Y-111861304D01*
X154150500Y-111811309D01*
X154150500Y-111811306D01*
X154150499Y-111811304D01*
X154115896Y-111637341D01*
X154115893Y-111637332D01*
X154048016Y-111473459D01*
X154048009Y-111473446D01*
X153949464Y-111325965D01*
X153949461Y-111325961D01*
X153824038Y-111200538D01*
X153824034Y-111200535D01*
X153676553Y-111101990D01*
X153676540Y-111101983D01*
X153512667Y-111034106D01*
X153512658Y-111034103D01*
X153338694Y-110999500D01*
X153338691Y-110999500D01*
X153161309Y-110999500D01*
X153161306Y-110999500D01*
X152987341Y-111034103D01*
X152987332Y-111034106D01*
X152823459Y-111101983D01*
X152823446Y-111101990D01*
X152675965Y-111200535D01*
X152675961Y-111200538D01*
X152550538Y-111325961D01*
X152550535Y-111325965D01*
X152451990Y-111473446D01*
X152451983Y-111473459D01*
X152384106Y-111637332D01*
X152384103Y-111637341D01*
X152349500Y-111811304D01*
X132503337Y-111811304D01*
X132498016Y-111798459D01*
X132498009Y-111798446D01*
X132399464Y-111650965D01*
X132399461Y-111650961D01*
X132274038Y-111525538D01*
X132274034Y-111525535D01*
X132126553Y-111426990D01*
X132126540Y-111426983D01*
X131962667Y-111359106D01*
X131962658Y-111359103D01*
X131788694Y-111324500D01*
X131788691Y-111324500D01*
X131611309Y-111324500D01*
X131611306Y-111324500D01*
X131437341Y-111359103D01*
X131437332Y-111359106D01*
X131273459Y-111426983D01*
X131273446Y-111426990D01*
X131125965Y-111525535D01*
X131125961Y-111525538D01*
X131000538Y-111650961D01*
X131000535Y-111650965D01*
X130901990Y-111798446D01*
X130901983Y-111798459D01*
X130834106Y-111962332D01*
X130834103Y-111962341D01*
X130799500Y-112136304D01*
X126117974Y-112136304D01*
X126112667Y-112134106D01*
X126112658Y-112134103D01*
X125938694Y-112099500D01*
X125938691Y-112099500D01*
X125761309Y-112099500D01*
X125761306Y-112099500D01*
X125587341Y-112134103D01*
X125587332Y-112134106D01*
X125423459Y-112201983D01*
X125423446Y-112201990D01*
X125275965Y-112300535D01*
X125275961Y-112300538D01*
X125150538Y-112425961D01*
X125150535Y-112425965D01*
X125051990Y-112573446D01*
X125051983Y-112573459D01*
X124984106Y-112737332D01*
X124984103Y-112737341D01*
X124949500Y-112911304D01*
X119000499Y-112911304D01*
X118965896Y-112737341D01*
X118965893Y-112737332D01*
X118898016Y-112573459D01*
X118898009Y-112573446D01*
X118799464Y-112425965D01*
X118799461Y-112425961D01*
X118674038Y-112300538D01*
X118674034Y-112300535D01*
X118526553Y-112201990D01*
X118526540Y-112201983D01*
X118362667Y-112134106D01*
X118362658Y-112134103D01*
X118188694Y-112099500D01*
X118188691Y-112099500D01*
X118011309Y-112099500D01*
X118011306Y-112099500D01*
X117837341Y-112134103D01*
X117837332Y-112134106D01*
X117673459Y-112201983D01*
X117673446Y-112201990D01*
X117525965Y-112300535D01*
X117525961Y-112300538D01*
X117400538Y-112425961D01*
X117400535Y-112425965D01*
X117301990Y-112573446D01*
X117301983Y-112573459D01*
X117234106Y-112737332D01*
X117234103Y-112737341D01*
X117199500Y-112911304D01*
X115500500Y-112911304D01*
X115500500Y-111136304D01*
X126124500Y-111136304D01*
X126124500Y-111313695D01*
X126159103Y-111487658D01*
X126159106Y-111487667D01*
X126226983Y-111651540D01*
X126226990Y-111651553D01*
X126325535Y-111799034D01*
X126325538Y-111799038D01*
X126450961Y-111924461D01*
X126450965Y-111924464D01*
X126598446Y-112023009D01*
X126598459Y-112023016D01*
X126721363Y-112073923D01*
X126762334Y-112090894D01*
X126762336Y-112090894D01*
X126762341Y-112090896D01*
X126936304Y-112125499D01*
X126936307Y-112125500D01*
X126936309Y-112125500D01*
X127113693Y-112125500D01*
X127113694Y-112125499D01*
X127171682Y-112113964D01*
X127287658Y-112090896D01*
X127287661Y-112090894D01*
X127287666Y-112090894D01*
X127451547Y-112023013D01*
X127599035Y-111924464D01*
X127724464Y-111799035D01*
X127823013Y-111651547D01*
X127890894Y-111487666D01*
X127893722Y-111473453D01*
X127916467Y-111359103D01*
X127925500Y-111313691D01*
X127925500Y-111136309D01*
X127925500Y-111136306D01*
X127925499Y-111136304D01*
X127890896Y-110962341D01*
X127890893Y-110962332D01*
X127823016Y-110798459D01*
X127823009Y-110798446D01*
X127724464Y-110650965D01*
X127724461Y-110650961D01*
X127599038Y-110525538D01*
X127599034Y-110525535D01*
X127451553Y-110426990D01*
X127451540Y-110426983D01*
X127287667Y-110359106D01*
X127287658Y-110359103D01*
X127113694Y-110324500D01*
X127113691Y-110324500D01*
X126936309Y-110324500D01*
X126936306Y-110324500D01*
X126762341Y-110359103D01*
X126762332Y-110359106D01*
X126598459Y-110426983D01*
X126598446Y-110426990D01*
X126450965Y-110525535D01*
X126450961Y-110525538D01*
X126325538Y-110650961D01*
X126325535Y-110650965D01*
X126226990Y-110798446D01*
X126226983Y-110798459D01*
X126159106Y-110962332D01*
X126159103Y-110962341D01*
X126124500Y-111136304D01*
X115500500Y-111136304D01*
X115500500Y-106111304D01*
X125149500Y-106111304D01*
X125149500Y-106288695D01*
X125184103Y-106462658D01*
X125184106Y-106462667D01*
X125251983Y-106626540D01*
X125251990Y-106626553D01*
X125350535Y-106774034D01*
X125350538Y-106774038D01*
X125475961Y-106899461D01*
X125475965Y-106899464D01*
X125623446Y-106998009D01*
X125623459Y-106998016D01*
X125746363Y-107048923D01*
X125787334Y-107065894D01*
X125787336Y-107065894D01*
X125787341Y-107065896D01*
X125961304Y-107100499D01*
X125961307Y-107100500D01*
X125961309Y-107100500D01*
X126020112Y-107100500D01*
X126087151Y-107120185D01*
X126132906Y-107172989D01*
X126141729Y-107200309D01*
X126159103Y-107287658D01*
X126159106Y-107287667D01*
X126226983Y-107451540D01*
X126226990Y-107451553D01*
X126325535Y-107599034D01*
X126325538Y-107599038D01*
X126450961Y-107724461D01*
X126450965Y-107724464D01*
X126598446Y-107823009D01*
X126598459Y-107823016D01*
X126721363Y-107873923D01*
X126762334Y-107890894D01*
X126762336Y-107890894D01*
X126762341Y-107890896D01*
X126936304Y-107925499D01*
X126936307Y-107925500D01*
X126936309Y-107925500D01*
X127113693Y-107925500D01*
X127113694Y-107925499D01*
X127171682Y-107913964D01*
X127287658Y-107890896D01*
X127287661Y-107890894D01*
X127287666Y-107890894D01*
X127451547Y-107823013D01*
X127599035Y-107724464D01*
X127712195Y-107611304D01*
X144049500Y-107611304D01*
X144049500Y-107788695D01*
X144084103Y-107962658D01*
X144084106Y-107962667D01*
X144151983Y-108126540D01*
X144151990Y-108126553D01*
X144250535Y-108274034D01*
X144250538Y-108274038D01*
X144375961Y-108399461D01*
X144375965Y-108399464D01*
X144523446Y-108498009D01*
X144523459Y-108498016D01*
X144646363Y-108548923D01*
X144687334Y-108565894D01*
X144687336Y-108565894D01*
X144687341Y-108565896D01*
X144861304Y-108600499D01*
X144861307Y-108600500D01*
X144975500Y-108600500D01*
X145042539Y-108620185D01*
X145088294Y-108672989D01*
X145099500Y-108724500D01*
X145099500Y-108838695D01*
X145134103Y-109012658D01*
X145134106Y-109012667D01*
X145201983Y-109176540D01*
X145201990Y-109176553D01*
X145300535Y-109324034D01*
X145300538Y-109324038D01*
X145425961Y-109449461D01*
X145425965Y-109449464D01*
X145573446Y-109548009D01*
X145573459Y-109548016D01*
X145696363Y-109598923D01*
X145737334Y-109615894D01*
X145737336Y-109615894D01*
X145737341Y-109615896D01*
X145911304Y-109650499D01*
X145911307Y-109650500D01*
X145911309Y-109650500D01*
X146088693Y-109650500D01*
X146088694Y-109650499D01*
X146146682Y-109638964D01*
X146262658Y-109615896D01*
X146262661Y-109615894D01*
X146262666Y-109615894D01*
X146426547Y-109548013D01*
X146574035Y-109449464D01*
X146699464Y-109324035D01*
X146798013Y-109176547D01*
X146865894Y-109012666D01*
X146900500Y-108838691D01*
X146900500Y-108661309D01*
X146900500Y-108661306D01*
X146900499Y-108661304D01*
X146865896Y-108487341D01*
X146865893Y-108487332D01*
X146798016Y-108323459D01*
X146798009Y-108323446D01*
X146699464Y-108175965D01*
X146699461Y-108175961D01*
X146574038Y-108050538D01*
X146574034Y-108050535D01*
X146426553Y-107951990D01*
X146426540Y-107951983D01*
X146262667Y-107884106D01*
X146262658Y-107884103D01*
X146088694Y-107849500D01*
X146088691Y-107849500D01*
X145974500Y-107849500D01*
X145907461Y-107829815D01*
X145861706Y-107777011D01*
X145850500Y-107725500D01*
X145850500Y-107611306D01*
X145850499Y-107611304D01*
X145815896Y-107437341D01*
X145815893Y-107437332D01*
X145748016Y-107273459D01*
X145748009Y-107273446D01*
X145649464Y-107125965D01*
X145649461Y-107125961D01*
X145524038Y-107000538D01*
X145524034Y-107000535D01*
X145376553Y-106901990D01*
X145376540Y-106901983D01*
X145212667Y-106834106D01*
X145212658Y-106834103D01*
X145038694Y-106799500D01*
X145038691Y-106799500D01*
X144861309Y-106799500D01*
X144861306Y-106799500D01*
X144687341Y-106834103D01*
X144687332Y-106834106D01*
X144523459Y-106901983D01*
X144523446Y-106901990D01*
X144375965Y-107000535D01*
X144375961Y-107000538D01*
X144250538Y-107125961D01*
X144250535Y-107125965D01*
X144151990Y-107273446D01*
X144151983Y-107273459D01*
X144084106Y-107437332D01*
X144084103Y-107437341D01*
X144049500Y-107611304D01*
X127712195Y-107611304D01*
X127724464Y-107599035D01*
X127823013Y-107451547D01*
X127890894Y-107287666D01*
X127893722Y-107273453D01*
X127918385Y-107149461D01*
X127925500Y-107113691D01*
X127925500Y-106936309D01*
X127925500Y-106936306D01*
X127925499Y-106936304D01*
X127890896Y-106762341D01*
X127890893Y-106762332D01*
X127823016Y-106598459D01*
X127823009Y-106598446D01*
X127724464Y-106450965D01*
X127724461Y-106450961D01*
X127599038Y-106325538D01*
X127599034Y-106325535D01*
X127577736Y-106311304D01*
X132449500Y-106311304D01*
X132449500Y-106488695D01*
X132484103Y-106662658D01*
X132484106Y-106662667D01*
X132551983Y-106826540D01*
X132551990Y-106826553D01*
X132650535Y-106974034D01*
X132650538Y-106974038D01*
X132775961Y-107099461D01*
X132775965Y-107099464D01*
X132923446Y-107198009D01*
X132923459Y-107198016D01*
X133044155Y-107248009D01*
X133087334Y-107265894D01*
X133087336Y-107265894D01*
X133087341Y-107265896D01*
X133261304Y-107300499D01*
X133261307Y-107300500D01*
X133261309Y-107300500D01*
X133438693Y-107300500D01*
X133438694Y-107300499D01*
X133496682Y-107288964D01*
X133612658Y-107265896D01*
X133612661Y-107265894D01*
X133612666Y-107265894D01*
X133776547Y-107198013D01*
X133924035Y-107099464D01*
X134049464Y-106974035D01*
X134148013Y-106826547D01*
X134215894Y-106662666D01*
X134223078Y-106626553D01*
X134238964Y-106546682D01*
X134250500Y-106488691D01*
X134250500Y-106361304D01*
X137199500Y-106361304D01*
X137199500Y-106538695D01*
X137234103Y-106712658D01*
X137234106Y-106712667D01*
X137301983Y-106876540D01*
X137301990Y-106876553D01*
X137400535Y-107024034D01*
X137400538Y-107024038D01*
X137525961Y-107149461D01*
X137525965Y-107149464D01*
X137673446Y-107248009D01*
X137673459Y-107248016D01*
X137769185Y-107287666D01*
X137837334Y-107315894D01*
X137837336Y-107315894D01*
X137837341Y-107315896D01*
X138011304Y-107350499D01*
X138011307Y-107350500D01*
X138011309Y-107350500D01*
X138188693Y-107350500D01*
X138188694Y-107350499D01*
X138246682Y-107338964D01*
X138362658Y-107315896D01*
X138362661Y-107315894D01*
X138362666Y-107315894D01*
X138526547Y-107248013D01*
X138674035Y-107149464D01*
X138799464Y-107024035D01*
X138898013Y-106876547D01*
X138965894Y-106712666D01*
X138975840Y-106662667D01*
X139000499Y-106538695D01*
X139000500Y-106538693D01*
X139000500Y-106361306D01*
X139000499Y-106361304D01*
X138965896Y-106187341D01*
X138965893Y-106187332D01*
X138898016Y-106023459D01*
X138898009Y-106023446D01*
X138799464Y-105875965D01*
X138799461Y-105875961D01*
X138674038Y-105750538D01*
X138674034Y-105750535D01*
X138526553Y-105651990D01*
X138526540Y-105651983D01*
X138362667Y-105584106D01*
X138362658Y-105584103D01*
X138188694Y-105549500D01*
X138188691Y-105549500D01*
X138011309Y-105549500D01*
X138011306Y-105549500D01*
X137837341Y-105584103D01*
X137837332Y-105584106D01*
X137673459Y-105651983D01*
X137673446Y-105651990D01*
X137525965Y-105750535D01*
X137525961Y-105750538D01*
X137400538Y-105875961D01*
X137400535Y-105875965D01*
X137301990Y-106023446D01*
X137301983Y-106023459D01*
X137234106Y-106187332D01*
X137234103Y-106187341D01*
X137199500Y-106361304D01*
X134250500Y-106361304D01*
X134250500Y-106311309D01*
X134250500Y-106311306D01*
X134250499Y-106311304D01*
X134215896Y-106137341D01*
X134215893Y-106137332D01*
X134148016Y-105973459D01*
X134148009Y-105973446D01*
X134049464Y-105825965D01*
X134049461Y-105825961D01*
X133924038Y-105700538D01*
X133924034Y-105700535D01*
X133776553Y-105601990D01*
X133776540Y-105601983D01*
X133612667Y-105534106D01*
X133612658Y-105534103D01*
X133438694Y-105499500D01*
X133438691Y-105499500D01*
X133261309Y-105499500D01*
X133261306Y-105499500D01*
X133087341Y-105534103D01*
X133087332Y-105534106D01*
X132923459Y-105601983D01*
X132923446Y-105601990D01*
X132775965Y-105700535D01*
X132775961Y-105700538D01*
X132650538Y-105825961D01*
X132650535Y-105825965D01*
X132551990Y-105973446D01*
X132551983Y-105973459D01*
X132484106Y-106137332D01*
X132484103Y-106137341D01*
X132449500Y-106311304D01*
X127577736Y-106311304D01*
X127451553Y-106226990D01*
X127451540Y-106226983D01*
X127287667Y-106159106D01*
X127287658Y-106159103D01*
X127113694Y-106124500D01*
X127113691Y-106124500D01*
X127054888Y-106124500D01*
X126987849Y-106104815D01*
X126942094Y-106052011D01*
X126933271Y-106024691D01*
X126915896Y-105937341D01*
X126915893Y-105937332D01*
X126848016Y-105773459D01*
X126848009Y-105773446D01*
X126749464Y-105625965D01*
X126749461Y-105625961D01*
X126624038Y-105500538D01*
X126624034Y-105500535D01*
X126486024Y-105408319D01*
X126486023Y-105408318D01*
X126476554Y-105401991D01*
X126476540Y-105401983D01*
X126312667Y-105334106D01*
X126312658Y-105334103D01*
X126198038Y-105311304D01*
X140099500Y-105311304D01*
X140099500Y-105488695D01*
X140134103Y-105662658D01*
X140134106Y-105662667D01*
X140201983Y-105826540D01*
X140201990Y-105826553D01*
X140300535Y-105974034D01*
X140300538Y-105974038D01*
X140425961Y-106099461D01*
X140425965Y-106099464D01*
X140573446Y-106198009D01*
X140573459Y-106198016D01*
X140643403Y-106226987D01*
X140737334Y-106265894D01*
X140737336Y-106265894D01*
X140737341Y-106265896D01*
X140911304Y-106300499D01*
X140911307Y-106300500D01*
X140911309Y-106300500D01*
X141088693Y-106300500D01*
X141088694Y-106300499D01*
X141148058Y-106288691D01*
X141262658Y-106265896D01*
X141262661Y-106265894D01*
X141262666Y-106265894D01*
X141426547Y-106198013D01*
X141574035Y-106099464D01*
X141699464Y-105974035D01*
X141798013Y-105826547D01*
X141865894Y-105662666D01*
X141868019Y-105651987D01*
X141900499Y-105488695D01*
X141900500Y-105488693D01*
X141900500Y-105311306D01*
X141884209Y-105229409D01*
X141884209Y-105229408D01*
X141880608Y-105211304D01*
X149799500Y-105211304D01*
X149799500Y-105388695D01*
X149834103Y-105562658D01*
X149834106Y-105562667D01*
X149901983Y-105726540D01*
X149901990Y-105726553D01*
X150000535Y-105874034D01*
X150000538Y-105874038D01*
X150125961Y-105999461D01*
X150125965Y-105999464D01*
X150273446Y-106098009D01*
X150273459Y-106098016D01*
X150368378Y-106137332D01*
X150437334Y-106165894D01*
X150437336Y-106165894D01*
X150437341Y-106165896D01*
X150611304Y-106200499D01*
X150611307Y-106200500D01*
X150611309Y-106200500D01*
X150788693Y-106200500D01*
X150788694Y-106200499D01*
X150854891Y-106187332D01*
X150962658Y-106165896D01*
X150962661Y-106165894D01*
X150962666Y-106165894D01*
X151126547Y-106098013D01*
X151274035Y-105999464D01*
X151399464Y-105874035D01*
X151498013Y-105726547D01*
X151565894Y-105562666D01*
X151600500Y-105388691D01*
X151600500Y-105311304D01*
X160899500Y-105311304D01*
X160899500Y-105488695D01*
X160934103Y-105662658D01*
X160934106Y-105662667D01*
X161001983Y-105826540D01*
X161001990Y-105826553D01*
X161100535Y-105974034D01*
X161100538Y-105974038D01*
X161225961Y-106099461D01*
X161225965Y-106099464D01*
X161373446Y-106198009D01*
X161373459Y-106198016D01*
X161443403Y-106226987D01*
X161537334Y-106265894D01*
X161537336Y-106265894D01*
X161537341Y-106265896D01*
X161711304Y-106300499D01*
X161711307Y-106300500D01*
X161711309Y-106300500D01*
X161888693Y-106300500D01*
X161888694Y-106300499D01*
X161948058Y-106288691D01*
X162062658Y-106265896D01*
X162062661Y-106265894D01*
X162062666Y-106265894D01*
X162226547Y-106198013D01*
X162374035Y-106099464D01*
X162499464Y-105974035D01*
X162598013Y-105826547D01*
X162665894Y-105662666D01*
X162668019Y-105651987D01*
X162700499Y-105488695D01*
X162700500Y-105488693D01*
X162700500Y-105311306D01*
X162700499Y-105311304D01*
X162665896Y-105137341D01*
X162665893Y-105137332D01*
X162598016Y-104973459D01*
X162598009Y-104973446D01*
X162499464Y-104825965D01*
X162499461Y-104825961D01*
X162374038Y-104700538D01*
X162374034Y-104700535D01*
X162226553Y-104601990D01*
X162226540Y-104601983D01*
X162062667Y-104534106D01*
X162062658Y-104534103D01*
X161888694Y-104499500D01*
X161888691Y-104499500D01*
X161711309Y-104499500D01*
X161711306Y-104499500D01*
X161537341Y-104534103D01*
X161537332Y-104534106D01*
X161373459Y-104601983D01*
X161373446Y-104601990D01*
X161225965Y-104700535D01*
X161225961Y-104700538D01*
X161100538Y-104825961D01*
X161100535Y-104825965D01*
X161001990Y-104973446D01*
X161001983Y-104973459D01*
X160934106Y-105137332D01*
X160934103Y-105137341D01*
X160899500Y-105311304D01*
X151600500Y-105311304D01*
X151600500Y-105211309D01*
X151600500Y-105211306D01*
X151600499Y-105211304D01*
X151565896Y-105037341D01*
X151565893Y-105037332D01*
X151498016Y-104873459D01*
X151498009Y-104873446D01*
X151399464Y-104725965D01*
X151399461Y-104725961D01*
X151274038Y-104600538D01*
X151274034Y-104600535D01*
X151126553Y-104501990D01*
X151126540Y-104501983D01*
X150962667Y-104434106D01*
X150962658Y-104434103D01*
X150788694Y-104399500D01*
X150788691Y-104399500D01*
X150611309Y-104399500D01*
X150611306Y-104399500D01*
X150437341Y-104434103D01*
X150437332Y-104434106D01*
X150273459Y-104501983D01*
X150273446Y-104501990D01*
X150125965Y-104600535D01*
X150125961Y-104600538D01*
X150000538Y-104725961D01*
X150000535Y-104725965D01*
X149901990Y-104873446D01*
X149901983Y-104873459D01*
X149834106Y-105037332D01*
X149834103Y-105037341D01*
X149799500Y-105211304D01*
X141880608Y-105211304D01*
X141865896Y-105137341D01*
X141865893Y-105137332D01*
X141798016Y-104973459D01*
X141798009Y-104973446D01*
X141699464Y-104825965D01*
X141699461Y-104825961D01*
X141574038Y-104700538D01*
X141574034Y-104700535D01*
X141426553Y-104601990D01*
X141426540Y-104601983D01*
X141262667Y-104534106D01*
X141262658Y-104534103D01*
X141088694Y-104499500D01*
X141088691Y-104499500D01*
X140911309Y-104499500D01*
X140911306Y-104499500D01*
X140737341Y-104534103D01*
X140737332Y-104534106D01*
X140573459Y-104601983D01*
X140573446Y-104601990D01*
X140425965Y-104700535D01*
X140425961Y-104700538D01*
X140300538Y-104825961D01*
X140300535Y-104825965D01*
X140201990Y-104973446D01*
X140201983Y-104973459D01*
X140134106Y-105137332D01*
X140134103Y-105137341D01*
X140099500Y-105311304D01*
X126198038Y-105311304D01*
X126138694Y-105299500D01*
X126138691Y-105299500D01*
X125961309Y-105299500D01*
X125961306Y-105299500D01*
X125787341Y-105334103D01*
X125787332Y-105334106D01*
X125623459Y-105401983D01*
X125623446Y-105401990D01*
X125475965Y-105500535D01*
X125475961Y-105500538D01*
X125350538Y-105625961D01*
X125350535Y-105625965D01*
X125251990Y-105773446D01*
X125251983Y-105773459D01*
X125184106Y-105937332D01*
X125184103Y-105937341D01*
X125149500Y-106111304D01*
X115500500Y-106111304D01*
X115500500Y-103836304D01*
X125124500Y-103836304D01*
X125124500Y-104013695D01*
X125159103Y-104187658D01*
X125159106Y-104187667D01*
X125226983Y-104351540D01*
X125226990Y-104351553D01*
X125325535Y-104499034D01*
X125325538Y-104499038D01*
X125450961Y-104624461D01*
X125450965Y-104624464D01*
X125598446Y-104723009D01*
X125598459Y-104723016D01*
X125701978Y-104765894D01*
X125762334Y-104790894D01*
X125762336Y-104790894D01*
X125762341Y-104790896D01*
X125936304Y-104825499D01*
X125936307Y-104825500D01*
X125936309Y-104825500D01*
X126113693Y-104825500D01*
X126113694Y-104825499D01*
X126171682Y-104813964D01*
X126287658Y-104790896D01*
X126287661Y-104790894D01*
X126287666Y-104790894D01*
X126451547Y-104723013D01*
X126599035Y-104624464D01*
X126724464Y-104499035D01*
X126823013Y-104351547D01*
X126890894Y-104187666D01*
X126895867Y-104162668D01*
X126925499Y-104013695D01*
X126925500Y-104013693D01*
X126925500Y-103836306D01*
X126925499Y-103836304D01*
X126890896Y-103662341D01*
X126890893Y-103662332D01*
X126823016Y-103498459D01*
X126823009Y-103498446D01*
X126724464Y-103350965D01*
X126724461Y-103350961D01*
X126599038Y-103225538D01*
X126599034Y-103225535D01*
X126451553Y-103126990D01*
X126451540Y-103126983D01*
X126287667Y-103059106D01*
X126287658Y-103059103D01*
X126113694Y-103024500D01*
X126113691Y-103024500D01*
X125936309Y-103024500D01*
X125936306Y-103024500D01*
X125762341Y-103059103D01*
X125762332Y-103059106D01*
X125598459Y-103126983D01*
X125598446Y-103126990D01*
X125450965Y-103225535D01*
X125450961Y-103225538D01*
X125325538Y-103350961D01*
X125325535Y-103350965D01*
X125226990Y-103498446D01*
X125226983Y-103498459D01*
X125159106Y-103662332D01*
X125159103Y-103662341D01*
X125124500Y-103836304D01*
X115500500Y-103836304D01*
X115500500Y-102411304D01*
X135599500Y-102411304D01*
X135599500Y-102588695D01*
X135634103Y-102762658D01*
X135634106Y-102762667D01*
X135701983Y-102926540D01*
X135701990Y-102926553D01*
X135800535Y-103074034D01*
X135800538Y-103074038D01*
X135925961Y-103199461D01*
X135925965Y-103199464D01*
X136073446Y-103298009D01*
X136073459Y-103298016D01*
X136196363Y-103348923D01*
X136237334Y-103365894D01*
X136237336Y-103365894D01*
X136237341Y-103365896D01*
X136411304Y-103400499D01*
X136411307Y-103400500D01*
X136411309Y-103400500D01*
X136588693Y-103400500D01*
X136588694Y-103400499D01*
X136646682Y-103388964D01*
X136762658Y-103365896D01*
X136762661Y-103365894D01*
X136762666Y-103365894D01*
X136926547Y-103298013D01*
X137074035Y-103199464D01*
X137199464Y-103074035D01*
X137298013Y-102926547D01*
X137299054Y-102924035D01*
X137329941Y-102849464D01*
X137365894Y-102762666D01*
X137373579Y-102724035D01*
X137400499Y-102588695D01*
X137400500Y-102588693D01*
X137400500Y-102411306D01*
X137400499Y-102411304D01*
X137374264Y-102279408D01*
X137370662Y-102261304D01*
X138149500Y-102261304D01*
X138149500Y-102438695D01*
X138184103Y-102612658D01*
X138184106Y-102612667D01*
X138251983Y-102776540D01*
X138251990Y-102776553D01*
X138350535Y-102924034D01*
X138350538Y-102924038D01*
X138463819Y-103037319D01*
X138497304Y-103098642D01*
X138492320Y-103168334D01*
X138463819Y-103212681D01*
X138350538Y-103325961D01*
X138350535Y-103325965D01*
X138251990Y-103473446D01*
X138251983Y-103473459D01*
X138184106Y-103637332D01*
X138184103Y-103637341D01*
X138149500Y-103811304D01*
X138149500Y-103988695D01*
X138184103Y-104162658D01*
X138184106Y-104162667D01*
X138251983Y-104326540D01*
X138251990Y-104326553D01*
X138350535Y-104474034D01*
X138350538Y-104474038D01*
X138475961Y-104599461D01*
X138475965Y-104599464D01*
X138623446Y-104698009D01*
X138623459Y-104698016D01*
X138692355Y-104726553D01*
X138787334Y-104765894D01*
X138787336Y-104765894D01*
X138787341Y-104765896D01*
X138961304Y-104800499D01*
X138961307Y-104800500D01*
X138961309Y-104800500D01*
X139138693Y-104800500D01*
X139138694Y-104800499D01*
X139196682Y-104788964D01*
X139312658Y-104765896D01*
X139312661Y-104765894D01*
X139312666Y-104765894D01*
X139476547Y-104698013D01*
X139624035Y-104599464D01*
X139749464Y-104474035D01*
X139848013Y-104326547D01*
X139895748Y-104211304D01*
X163899500Y-104211304D01*
X163899500Y-104388695D01*
X163934103Y-104562658D01*
X163934106Y-104562667D01*
X164001983Y-104726540D01*
X164001990Y-104726553D01*
X164100535Y-104874034D01*
X164100538Y-104874038D01*
X164225961Y-104999461D01*
X164225965Y-104999464D01*
X164373446Y-105098009D01*
X164373459Y-105098016D01*
X164468378Y-105137332D01*
X164537334Y-105165894D01*
X164537336Y-105165894D01*
X164537341Y-105165896D01*
X164711304Y-105200499D01*
X164711307Y-105200500D01*
X164711309Y-105200500D01*
X164888693Y-105200500D01*
X164888694Y-105200499D01*
X164946682Y-105188964D01*
X165062658Y-105165896D01*
X165062661Y-105165894D01*
X165062666Y-105165894D01*
X165226547Y-105098013D01*
X165374035Y-104999464D01*
X165499464Y-104874035D01*
X165598013Y-104726547D01*
X165599479Y-104723009D01*
X165609834Y-104698009D01*
X165665894Y-104562666D01*
X165678551Y-104499038D01*
X165700499Y-104388695D01*
X165700500Y-104388693D01*
X165700500Y-104211306D01*
X165700499Y-104211304D01*
X165665896Y-104037341D01*
X165665893Y-104037332D01*
X165656102Y-104013695D01*
X165645746Y-103988691D01*
X165598016Y-103873459D01*
X165598009Y-103873446D01*
X165499464Y-103725965D01*
X165499461Y-103725961D01*
X165374038Y-103600538D01*
X165374034Y-103600535D01*
X165226553Y-103501990D01*
X165226540Y-103501983D01*
X165062667Y-103434106D01*
X165062658Y-103434103D01*
X164888694Y-103399500D01*
X164888691Y-103399500D01*
X164711309Y-103399500D01*
X164711306Y-103399500D01*
X164537341Y-103434103D01*
X164537332Y-103434106D01*
X164373459Y-103501983D01*
X164373446Y-103501990D01*
X164225965Y-103600535D01*
X164225961Y-103600538D01*
X164100538Y-103725961D01*
X164100535Y-103725965D01*
X164001990Y-103873446D01*
X164001983Y-103873459D01*
X163934106Y-104037332D01*
X163934103Y-104037341D01*
X163899500Y-104211304D01*
X139895748Y-104211304D01*
X139915894Y-104162666D01*
X139950500Y-103988691D01*
X139950500Y-103811309D01*
X139950500Y-103811306D01*
X139950499Y-103811304D01*
X139915896Y-103637341D01*
X139915893Y-103637332D01*
X139848016Y-103473459D01*
X139848009Y-103473446D01*
X139749464Y-103325965D01*
X139749461Y-103325961D01*
X139636181Y-103212681D01*
X139602696Y-103151358D01*
X139607680Y-103081666D01*
X139636181Y-103037319D01*
X139749461Y-102924038D01*
X139749464Y-102924035D01*
X139848013Y-102776547D01*
X139915894Y-102612666D01*
X139923078Y-102576553D01*
X139950499Y-102438695D01*
X139950500Y-102438693D01*
X139950500Y-102261306D01*
X139950499Y-102261304D01*
X139915895Y-102087339D01*
X139915894Y-102087334D01*
X139905112Y-102061304D01*
X140649500Y-102061304D01*
X140649500Y-102238695D01*
X140684103Y-102412658D01*
X140684106Y-102412667D01*
X140751983Y-102576540D01*
X140751990Y-102576553D01*
X140850535Y-102724034D01*
X140850538Y-102724038D01*
X140975961Y-102849461D01*
X140975965Y-102849464D01*
X141123446Y-102948009D01*
X141123459Y-102948016D01*
X141246363Y-102998923D01*
X141287334Y-103015894D01*
X141287336Y-103015894D01*
X141287341Y-103015896D01*
X141461304Y-103050499D01*
X141461307Y-103050500D01*
X141461309Y-103050500D01*
X141638693Y-103050500D01*
X141638694Y-103050499D01*
X141704956Y-103037319D01*
X141812658Y-103015896D01*
X141812661Y-103015894D01*
X141812666Y-103015894D01*
X141976547Y-102948013D01*
X142124035Y-102849464D01*
X142249464Y-102724035D01*
X142348013Y-102576547D01*
X142415894Y-102412666D01*
X142450500Y-102238691D01*
X142450500Y-102061309D01*
X142450500Y-102061306D01*
X142450499Y-102061304D01*
X142415896Y-101887341D01*
X142415893Y-101887332D01*
X142348016Y-101723459D01*
X142348009Y-101723446D01*
X142249464Y-101575965D01*
X142249461Y-101575961D01*
X142124038Y-101450538D01*
X142124034Y-101450535D01*
X141976553Y-101351990D01*
X141976540Y-101351983D01*
X141812667Y-101284106D01*
X141812658Y-101284103D01*
X141638694Y-101249500D01*
X141638691Y-101249500D01*
X141461309Y-101249500D01*
X141461306Y-101249500D01*
X141287341Y-101284103D01*
X141287332Y-101284106D01*
X141123459Y-101351983D01*
X141123446Y-101351990D01*
X140975965Y-101450535D01*
X140975961Y-101450538D01*
X140850538Y-101575961D01*
X140850535Y-101575965D01*
X140751990Y-101723446D01*
X140751983Y-101723459D01*
X140684106Y-101887332D01*
X140684103Y-101887341D01*
X140649500Y-102061304D01*
X139905112Y-102061304D01*
X139848016Y-101923459D01*
X139848009Y-101923446D01*
X139749464Y-101775965D01*
X139749461Y-101775961D01*
X139624038Y-101650538D01*
X139624034Y-101650535D01*
X139476553Y-101551990D01*
X139476540Y-101551983D01*
X139312667Y-101484106D01*
X139312658Y-101484103D01*
X139138694Y-101449500D01*
X139138691Y-101449500D01*
X138961309Y-101449500D01*
X138961306Y-101449500D01*
X138787341Y-101484103D01*
X138787332Y-101484106D01*
X138623459Y-101551983D01*
X138623446Y-101551990D01*
X138475965Y-101650535D01*
X138475961Y-101650538D01*
X138350538Y-101775961D01*
X138350535Y-101775965D01*
X138251990Y-101923446D01*
X138251983Y-101923459D01*
X138184106Y-102087332D01*
X138184103Y-102087341D01*
X138149500Y-102261304D01*
X137370662Y-102261304D01*
X137365895Y-102237340D01*
X137365894Y-102237334D01*
X137303762Y-102087332D01*
X137298016Y-102073459D01*
X137298009Y-102073446D01*
X137199464Y-101925965D01*
X137199461Y-101925961D01*
X137074038Y-101800538D01*
X137074034Y-101800535D01*
X136926553Y-101701990D01*
X136926540Y-101701983D01*
X136762667Y-101634106D01*
X136762658Y-101634103D01*
X136588694Y-101599500D01*
X136588691Y-101599500D01*
X136411309Y-101599500D01*
X136411306Y-101599500D01*
X136237341Y-101634103D01*
X136237332Y-101634106D01*
X136073459Y-101701983D01*
X136073446Y-101701990D01*
X135925965Y-101800535D01*
X135925961Y-101800538D01*
X135800538Y-101925961D01*
X135800535Y-101925965D01*
X135701990Y-102073446D01*
X135701983Y-102073459D01*
X135634106Y-102237332D01*
X135634103Y-102237341D01*
X135599500Y-102411304D01*
X115500500Y-102411304D01*
X115500500Y-101011304D01*
X119399500Y-101011304D01*
X119399500Y-101188695D01*
X119434103Y-101362658D01*
X119434106Y-101362667D01*
X119501983Y-101526540D01*
X119501990Y-101526553D01*
X119600535Y-101674034D01*
X119600538Y-101674038D01*
X119725961Y-101799461D01*
X119725965Y-101799464D01*
X119873446Y-101898009D01*
X119873459Y-101898016D01*
X119996363Y-101948923D01*
X120037334Y-101965894D01*
X120037336Y-101965894D01*
X120037341Y-101965896D01*
X120211304Y-102000499D01*
X120211307Y-102000500D01*
X120211309Y-102000500D01*
X120388693Y-102000500D01*
X120388694Y-102000499D01*
X120446682Y-101988964D01*
X120562658Y-101965896D01*
X120562661Y-101965894D01*
X120562666Y-101965894D01*
X120726547Y-101898013D01*
X120874035Y-101799464D01*
X120999464Y-101674035D01*
X121098013Y-101526547D01*
X121165894Y-101362666D01*
X121181521Y-101284106D01*
X121188244Y-101250309D01*
X121220629Y-101188398D01*
X121281345Y-101153823D01*
X121309861Y-101150500D01*
X121338693Y-101150500D01*
X121338694Y-101150499D01*
X121396682Y-101138964D01*
X121512658Y-101115896D01*
X121512661Y-101115894D01*
X121512666Y-101115894D01*
X121676547Y-101048013D01*
X121824035Y-100949464D01*
X121949464Y-100824035D01*
X122048013Y-100676547D01*
X122049298Y-100673446D01*
X122110387Y-100525961D01*
X122115894Y-100512666D01*
X122150500Y-100338691D01*
X122150500Y-100161309D01*
X122150500Y-100161306D01*
X122150499Y-100161304D01*
X122115896Y-99987341D01*
X122115893Y-99987332D01*
X122048016Y-99823459D01*
X122048009Y-99823446D01*
X121949464Y-99675965D01*
X121949461Y-99675961D01*
X121824038Y-99550538D01*
X121824034Y-99550535D01*
X121676553Y-99451990D01*
X121676540Y-99451983D01*
X121512667Y-99384106D01*
X121512658Y-99384103D01*
X121338694Y-99349500D01*
X121338691Y-99349500D01*
X121161309Y-99349500D01*
X121161306Y-99349500D01*
X120987341Y-99384103D01*
X120987332Y-99384106D01*
X120823459Y-99451983D01*
X120823446Y-99451990D01*
X120675965Y-99550535D01*
X120675961Y-99550538D01*
X120550538Y-99675961D01*
X120550535Y-99675965D01*
X120451990Y-99823446D01*
X120451983Y-99823459D01*
X120384106Y-99987332D01*
X120384103Y-99987342D01*
X120361756Y-100099691D01*
X120329371Y-100161602D01*
X120268655Y-100196177D01*
X120240139Y-100199500D01*
X120211306Y-100199500D01*
X120037341Y-100234103D01*
X120037332Y-100234106D01*
X119873459Y-100301983D01*
X119873446Y-100301990D01*
X119725965Y-100400535D01*
X119725961Y-100400538D01*
X119600538Y-100525961D01*
X119600535Y-100525965D01*
X119501990Y-100673446D01*
X119501983Y-100673459D01*
X119434106Y-100837332D01*
X119434103Y-100837341D01*
X119399500Y-101011304D01*
X115500500Y-101011304D01*
X115500500Y-99568995D01*
X117469499Y-99568995D01*
X117496418Y-99704322D01*
X117496421Y-99704332D01*
X117549221Y-99831804D01*
X117549228Y-99831817D01*
X117625885Y-99946541D01*
X117625888Y-99946545D01*
X117723454Y-100044111D01*
X117723458Y-100044114D01*
X117838182Y-100120771D01*
X117838195Y-100120778D01*
X117936047Y-100161309D01*
X117965672Y-100173580D01*
X117965676Y-100173580D01*
X117965677Y-100173581D01*
X118101004Y-100200500D01*
X118101007Y-100200500D01*
X118238995Y-100200500D01*
X118330041Y-100182389D01*
X118374328Y-100173580D01*
X118501811Y-100120775D01*
X118616542Y-100044114D01*
X118714114Y-99946542D01*
X118790775Y-99831811D01*
X118794235Y-99823459D01*
X118843578Y-99704332D01*
X118843580Y-99704328D01*
X118870500Y-99568993D01*
X118870500Y-99431007D01*
X118870500Y-99431004D01*
X118843581Y-99295677D01*
X118843580Y-99295676D01*
X118843580Y-99295672D01*
X118843578Y-99295667D01*
X118790778Y-99168195D01*
X118790771Y-99168182D01*
X118714114Y-99053458D01*
X118714111Y-99053454D01*
X118616545Y-98955888D01*
X118616541Y-98955885D01*
X118501817Y-98879228D01*
X118501804Y-98879221D01*
X118374332Y-98826421D01*
X118374322Y-98826418D01*
X118238995Y-98799500D01*
X118238993Y-98799500D01*
X118101007Y-98799500D01*
X118101005Y-98799500D01*
X117965677Y-98826418D01*
X117965667Y-98826421D01*
X117838195Y-98879221D01*
X117838182Y-98879228D01*
X117723458Y-98955885D01*
X117723454Y-98955888D01*
X117625888Y-99053454D01*
X117625885Y-99053458D01*
X117549228Y-99168182D01*
X117549221Y-99168195D01*
X117496421Y-99295667D01*
X117496418Y-99295677D01*
X117469500Y-99431004D01*
X117469500Y-99431007D01*
X117469500Y-99568993D01*
X117469500Y-99568995D01*
X117469499Y-99568995D01*
X115500500Y-99568995D01*
X115500500Y-96568995D01*
X117469499Y-96568995D01*
X117496418Y-96704322D01*
X117496421Y-96704332D01*
X117549221Y-96831804D01*
X117549228Y-96831817D01*
X117625885Y-96946541D01*
X117625888Y-96946545D01*
X117723454Y-97044111D01*
X117723458Y-97044114D01*
X117838182Y-97120771D01*
X117838195Y-97120778D01*
X117965667Y-97173578D01*
X117965672Y-97173580D01*
X117965676Y-97173580D01*
X117965677Y-97173581D01*
X118101004Y-97200500D01*
X118101007Y-97200500D01*
X118238995Y-97200500D01*
X118330041Y-97182389D01*
X118374328Y-97173580D01*
X118501811Y-97120775D01*
X118616542Y-97044114D01*
X118714114Y-96946542D01*
X118790775Y-96831811D01*
X118843580Y-96704328D01*
X118870500Y-96568993D01*
X118870500Y-96431007D01*
X118870500Y-96431004D01*
X118843581Y-96295677D01*
X118843580Y-96295676D01*
X118843580Y-96295672D01*
X118843578Y-96295667D01*
X118790778Y-96168195D01*
X118790771Y-96168182D01*
X118714114Y-96053458D01*
X118714111Y-96053454D01*
X118616545Y-95955888D01*
X118616541Y-95955885D01*
X118501817Y-95879228D01*
X118501804Y-95879221D01*
X118374332Y-95826421D01*
X118374322Y-95826418D01*
X118238995Y-95799500D01*
X118238993Y-95799500D01*
X118101007Y-95799500D01*
X118101005Y-95799500D01*
X117965677Y-95826418D01*
X117965667Y-95826421D01*
X117838195Y-95879221D01*
X117838182Y-95879228D01*
X117723458Y-95955885D01*
X117723454Y-95955888D01*
X117625888Y-96053454D01*
X117625885Y-96053458D01*
X117549228Y-96168182D01*
X117549221Y-96168195D01*
X117496421Y-96295667D01*
X117496418Y-96295677D01*
X117469500Y-96431004D01*
X117469500Y-96431007D01*
X117469500Y-96568993D01*
X117469500Y-96568995D01*
X117469499Y-96568995D01*
X115500500Y-96568995D01*
X115500500Y-93611304D01*
X159199500Y-93611304D01*
X159199500Y-93788695D01*
X159234103Y-93962658D01*
X159234106Y-93962667D01*
X159301983Y-94126540D01*
X159301990Y-94126553D01*
X159371853Y-94231109D01*
X159392731Y-94297786D01*
X159374247Y-94365166D01*
X159371853Y-94368891D01*
X159301990Y-94473446D01*
X159301983Y-94473459D01*
X159234106Y-94637332D01*
X159234103Y-94637341D01*
X159199500Y-94811304D01*
X159199500Y-94988695D01*
X159234103Y-95162658D01*
X159234106Y-95162667D01*
X159301983Y-95326540D01*
X159301990Y-95326553D01*
X159400535Y-95474034D01*
X159400538Y-95474038D01*
X159525961Y-95599461D01*
X159525965Y-95599464D01*
X159673446Y-95698009D01*
X159673459Y-95698016D01*
X159796363Y-95748923D01*
X159837334Y-95765894D01*
X159837336Y-95765894D01*
X159837341Y-95765896D01*
X160011304Y-95800499D01*
X160011307Y-95800500D01*
X160011309Y-95800500D01*
X160188693Y-95800500D01*
X160188694Y-95800499D01*
X160246682Y-95788964D01*
X160362658Y-95765896D01*
X160362661Y-95765894D01*
X160362666Y-95765894D01*
X160526547Y-95698013D01*
X160674035Y-95599464D01*
X160799464Y-95474035D01*
X160898013Y-95326547D01*
X160965894Y-95162666D01*
X161000500Y-94988691D01*
X161000500Y-94811309D01*
X161000500Y-94811306D01*
X161000499Y-94811304D01*
X160965896Y-94637341D01*
X160965893Y-94637332D01*
X160898016Y-94473459D01*
X160898012Y-94473452D01*
X160898008Y-94473446D01*
X160828145Y-94368888D01*
X160807268Y-94302215D01*
X160825752Y-94234834D01*
X160828118Y-94231150D01*
X160898013Y-94126547D01*
X160965894Y-93962666D01*
X161000500Y-93788691D01*
X161000500Y-93611309D01*
X161000500Y-93611306D01*
X161000499Y-93611304D01*
X160965896Y-93437341D01*
X160965893Y-93437332D01*
X160898016Y-93273459D01*
X160898009Y-93273446D01*
X160799464Y-93125965D01*
X160799461Y-93125961D01*
X160674038Y-93000538D01*
X160674034Y-93000535D01*
X160526553Y-92901990D01*
X160526540Y-92901983D01*
X160362667Y-92834106D01*
X160362658Y-92834103D01*
X160188694Y-92799500D01*
X160188691Y-92799500D01*
X160011309Y-92799500D01*
X160011306Y-92799500D01*
X159837341Y-92834103D01*
X159837332Y-92834106D01*
X159673459Y-92901983D01*
X159673446Y-92901990D01*
X159525965Y-93000535D01*
X159525961Y-93000538D01*
X159400538Y-93125961D01*
X159400535Y-93125965D01*
X159301990Y-93273446D01*
X159301983Y-93273459D01*
X159234106Y-93437332D01*
X159234103Y-93437341D01*
X159199500Y-93611304D01*
X115500500Y-93611304D01*
X115500500Y-91511304D01*
X144799500Y-91511304D01*
X144799500Y-91688695D01*
X144834103Y-91862658D01*
X144834106Y-91862667D01*
X144901983Y-92026540D01*
X144901990Y-92026553D01*
X145000535Y-92174034D01*
X145000538Y-92174038D01*
X145125961Y-92299461D01*
X145125965Y-92299464D01*
X145273446Y-92398009D01*
X145273459Y-92398016D01*
X145396363Y-92448923D01*
X145437334Y-92465894D01*
X145437336Y-92465894D01*
X145437341Y-92465896D01*
X145611304Y-92500499D01*
X145611307Y-92500500D01*
X145611309Y-92500500D01*
X145788693Y-92500500D01*
X145788694Y-92500499D01*
X145846682Y-92488964D01*
X145962658Y-92465896D01*
X145962661Y-92465894D01*
X145962666Y-92465894D01*
X146126547Y-92398013D01*
X146274035Y-92299464D01*
X146399464Y-92174035D01*
X146498013Y-92026547D01*
X146565894Y-91862666D01*
X146600500Y-91688691D01*
X146600500Y-91511309D01*
X146600500Y-91511306D01*
X146600499Y-91511304D01*
X146565896Y-91337341D01*
X146565893Y-91337332D01*
X146498016Y-91173459D01*
X146498014Y-91173455D01*
X146498013Y-91173453D01*
X146423077Y-91061304D01*
X159199500Y-91061304D01*
X159199500Y-91238695D01*
X159234103Y-91412658D01*
X159234106Y-91412667D01*
X159301983Y-91576540D01*
X159301990Y-91576553D01*
X159400535Y-91724034D01*
X159400538Y-91724038D01*
X159525961Y-91849461D01*
X159525965Y-91849464D01*
X159673446Y-91948009D01*
X159673459Y-91948016D01*
X159796363Y-91998923D01*
X159837334Y-92015894D01*
X159837336Y-92015894D01*
X159837341Y-92015896D01*
X160011304Y-92050499D01*
X160011307Y-92050500D01*
X160011309Y-92050500D01*
X160188693Y-92050500D01*
X160188694Y-92050499D01*
X160246682Y-92038964D01*
X160362658Y-92015896D01*
X160362661Y-92015894D01*
X160362666Y-92015894D01*
X160526547Y-91948013D01*
X160674035Y-91849464D01*
X160799464Y-91724035D01*
X160898013Y-91576547D01*
X160965894Y-91412666D01*
X161000500Y-91238691D01*
X161000500Y-91061309D01*
X161000500Y-91061306D01*
X161000499Y-91061304D01*
X160965896Y-90887341D01*
X160965893Y-90887332D01*
X160898016Y-90723459D01*
X160898009Y-90723446D01*
X160799464Y-90575965D01*
X160799461Y-90575961D01*
X160674038Y-90450538D01*
X160674034Y-90450535D01*
X160526553Y-90351990D01*
X160526540Y-90351983D01*
X160362667Y-90284106D01*
X160362658Y-90284103D01*
X160188694Y-90249500D01*
X160188691Y-90249500D01*
X160011309Y-90249500D01*
X160011306Y-90249500D01*
X159837341Y-90284103D01*
X159837332Y-90284106D01*
X159673459Y-90351983D01*
X159673446Y-90351990D01*
X159525965Y-90450535D01*
X159525961Y-90450538D01*
X159400538Y-90575961D01*
X159400535Y-90575965D01*
X159301990Y-90723446D01*
X159301983Y-90723459D01*
X159234106Y-90887332D01*
X159234103Y-90887341D01*
X159199500Y-91061304D01*
X146423077Y-91061304D01*
X146399464Y-91025965D01*
X146399461Y-91025961D01*
X146274038Y-90900538D01*
X146274034Y-90900535D01*
X146126553Y-90801990D01*
X146126540Y-90801983D01*
X145962667Y-90734106D01*
X145962658Y-90734103D01*
X145788694Y-90699500D01*
X145788691Y-90699500D01*
X145611309Y-90699500D01*
X145611306Y-90699500D01*
X145437341Y-90734103D01*
X145437332Y-90734106D01*
X145273459Y-90801983D01*
X145273446Y-90801990D01*
X145125965Y-90900535D01*
X145125961Y-90900538D01*
X145000538Y-91025961D01*
X145000535Y-91025965D01*
X144901990Y-91173446D01*
X144901983Y-91173459D01*
X144834106Y-91337332D01*
X144834103Y-91337341D01*
X144799500Y-91511304D01*
X115500500Y-91511304D01*
X115500500Y-86848336D01*
X116299500Y-86848336D01*
X116299500Y-87151663D01*
X116333457Y-87453048D01*
X116333460Y-87453062D01*
X116400953Y-87748771D01*
X116400957Y-87748783D01*
X116501133Y-88035068D01*
X116632733Y-88308338D01*
X116632735Y-88308341D01*
X116794108Y-88565164D01*
X116983221Y-88802304D01*
X117197696Y-89016779D01*
X117434836Y-89205892D01*
X117691659Y-89367265D01*
X117964935Y-89498868D01*
X118179951Y-89574105D01*
X118251216Y-89599042D01*
X118251228Y-89599046D01*
X118546937Y-89666540D01*
X118546946Y-89666541D01*
X118546951Y-89666542D01*
X118734366Y-89687658D01*
X118848337Y-89700499D01*
X118848340Y-89700500D01*
X118848343Y-89700500D01*
X119151660Y-89700500D01*
X119151661Y-89700499D01*
X119305694Y-89683144D01*
X119453048Y-89666542D01*
X119453051Y-89666541D01*
X119453063Y-89666540D01*
X119748772Y-89599046D01*
X120035065Y-89498868D01*
X120308341Y-89367265D01*
X120565164Y-89205892D01*
X120802304Y-89016779D01*
X121016779Y-88802304D01*
X121205892Y-88565164D01*
X121367265Y-88308341D01*
X121498868Y-88035065D01*
X121542174Y-87911304D01*
X128099500Y-87911304D01*
X128099500Y-88088695D01*
X128134103Y-88262658D01*
X128134106Y-88262667D01*
X128201983Y-88426540D01*
X128201990Y-88426553D01*
X128300535Y-88574034D01*
X128300538Y-88574038D01*
X128425961Y-88699461D01*
X128425965Y-88699464D01*
X128573446Y-88798009D01*
X128573459Y-88798016D01*
X128636276Y-88824035D01*
X128737334Y-88865894D01*
X128737336Y-88865894D01*
X128737341Y-88865896D01*
X128911304Y-88900499D01*
X128911307Y-88900500D01*
X129081982Y-88900500D01*
X129149021Y-88920185D01*
X129194776Y-88972989D01*
X129204720Y-89042147D01*
X129196543Y-89071952D01*
X129159106Y-89162332D01*
X129159103Y-89162341D01*
X129124500Y-89336304D01*
X129124500Y-89513695D01*
X129159103Y-89687658D01*
X129159106Y-89687667D01*
X129226983Y-89851540D01*
X129226990Y-89851553D01*
X129325535Y-89999034D01*
X129325538Y-89999038D01*
X129450961Y-90124461D01*
X129450965Y-90124464D01*
X129598446Y-90223009D01*
X129598459Y-90223016D01*
X129721363Y-90273923D01*
X129762334Y-90290894D01*
X129762336Y-90290894D01*
X129762341Y-90290896D01*
X129936304Y-90325499D01*
X129936307Y-90325500D01*
X129936309Y-90325500D01*
X130113693Y-90325500D01*
X130113694Y-90325499D01*
X130171682Y-90313964D01*
X130287658Y-90290896D01*
X130287661Y-90290894D01*
X130287666Y-90290894D01*
X130451547Y-90223013D01*
X130599035Y-90124464D01*
X130724464Y-89999035D01*
X130823013Y-89851547D01*
X130890894Y-89687666D01*
X130895097Y-89666540D01*
X130925499Y-89513695D01*
X130925500Y-89513693D01*
X130925500Y-89336306D01*
X130912478Y-89270844D01*
X130918705Y-89201253D01*
X130961567Y-89146075D01*
X131027457Y-89122830D01*
X131058286Y-89125035D01*
X131186304Y-89150499D01*
X131186307Y-89150500D01*
X131186309Y-89150500D01*
X131363693Y-89150500D01*
X131363694Y-89150499D01*
X131421682Y-89138964D01*
X131537658Y-89115896D01*
X131537661Y-89115894D01*
X131537666Y-89115894D01*
X131701547Y-89048013D01*
X131831109Y-88961442D01*
X131897786Y-88940564D01*
X131965166Y-88959048D01*
X131968891Y-88961442D01*
X132098453Y-89048013D01*
X132098455Y-89048014D01*
X132098459Y-89048016D01*
X132156247Y-89071952D01*
X132262334Y-89115894D01*
X132262336Y-89115894D01*
X132262341Y-89115896D01*
X132436304Y-89150499D01*
X132436307Y-89150500D01*
X132436309Y-89150500D01*
X132613693Y-89150500D01*
X132613694Y-89150499D01*
X132671682Y-89138964D01*
X132787658Y-89115896D01*
X132787661Y-89115894D01*
X132787666Y-89115894D01*
X132951547Y-89048013D01*
X133009298Y-89009424D01*
X133075970Y-88988547D01*
X133142336Y-89006410D01*
X133285604Y-89093019D01*
X133285603Y-89093019D01*
X133447894Y-89143590D01*
X133447893Y-89143590D01*
X133518408Y-89149998D01*
X133518426Y-89149999D01*
X134025000Y-89149999D01*
X134031581Y-89149999D01*
X134102102Y-89143591D01*
X134102107Y-89143590D01*
X134264396Y-89093018D01*
X134409877Y-89005072D01*
X134530072Y-88884877D01*
X134618019Y-88739395D01*
X134668590Y-88577106D01*
X134675000Y-88506572D01*
X134675000Y-88250000D01*
X134025000Y-88250000D01*
X134025000Y-89149999D01*
X133518426Y-89149999D01*
X133524999Y-89149998D01*
X133525000Y-89149998D01*
X133525000Y-88049728D01*
X133563060Y-88141614D01*
X133633386Y-88211940D01*
X133725272Y-88250000D01*
X133824728Y-88250000D01*
X133916614Y-88211940D01*
X133986940Y-88141614D01*
X134025000Y-88049728D01*
X134025000Y-87950272D01*
X133986940Y-87858386D01*
X133916614Y-87788060D01*
X133824728Y-87750000D01*
X134025000Y-87750000D01*
X134674999Y-87750000D01*
X134674999Y-87493417D01*
X134668591Y-87422897D01*
X134668590Y-87422892D01*
X134618018Y-87260603D01*
X134530072Y-87115122D01*
X134409877Y-86994927D01*
X134337181Y-86950981D01*
X134264395Y-86906980D01*
X134264396Y-86906980D01*
X134102105Y-86856409D01*
X134102106Y-86856409D01*
X134031572Y-86850000D01*
X134025000Y-86850000D01*
X134025000Y-87750000D01*
X133824728Y-87750000D01*
X133725272Y-87750000D01*
X133633386Y-87788060D01*
X133563060Y-87858386D01*
X133525000Y-87950272D01*
X133525000Y-86850000D01*
X133524999Y-86849999D01*
X133518436Y-86850000D01*
X133518417Y-86850001D01*
X133447897Y-86856408D01*
X133447892Y-86856409D01*
X133285601Y-86906981D01*
X133285599Y-86906982D01*
X133142334Y-86993588D01*
X133074779Y-87011424D01*
X133009295Y-86990573D01*
X132951547Y-86951987D01*
X132951544Y-86951985D01*
X132951543Y-86951985D01*
X132951542Y-86951984D01*
X132787667Y-86884106D01*
X132787658Y-86884103D01*
X132613694Y-86849500D01*
X132613691Y-86849500D01*
X132436309Y-86849500D01*
X132436306Y-86849500D01*
X132262341Y-86884103D01*
X132262332Y-86884106D01*
X132098459Y-86951983D01*
X132098446Y-86951990D01*
X131968891Y-87038557D01*
X131902213Y-87059435D01*
X131834833Y-87040950D01*
X131831109Y-87038557D01*
X131701553Y-86951990D01*
X131701540Y-86951983D01*
X131537667Y-86884106D01*
X131537658Y-86884103D01*
X131363694Y-86849500D01*
X131363691Y-86849500D01*
X131186309Y-86849500D01*
X131186306Y-86849500D01*
X131012341Y-86884103D01*
X131012332Y-86884106D01*
X130848459Y-86951983D01*
X130848446Y-86951990D01*
X130718891Y-87038557D01*
X130652213Y-87059435D01*
X130584833Y-87040950D01*
X130581109Y-87038557D01*
X130451553Y-86951990D01*
X130451540Y-86951983D01*
X130287667Y-86884106D01*
X130287658Y-86884103D01*
X130113694Y-86849500D01*
X130113691Y-86849500D01*
X129936309Y-86849500D01*
X129936306Y-86849500D01*
X129762341Y-86884103D01*
X129762332Y-86884106D01*
X129598459Y-86951983D01*
X129598446Y-86951990D01*
X129450965Y-87050535D01*
X129395306Y-87106194D01*
X129333982Y-87139678D01*
X129268754Y-87135012D01*
X129268493Y-87135874D01*
X129264695Y-87134722D01*
X129264290Y-87134693D01*
X129263244Y-87134281D01*
X129262669Y-87134107D01*
X129262666Y-87134106D01*
X129262661Y-87134105D01*
X129262658Y-87134104D01*
X129088694Y-87099500D01*
X129088691Y-87099500D01*
X128911309Y-87099500D01*
X128911306Y-87099500D01*
X128737341Y-87134103D01*
X128737332Y-87134106D01*
X128573459Y-87201983D01*
X128573446Y-87201990D01*
X128425965Y-87300535D01*
X128425961Y-87300538D01*
X128300538Y-87425961D01*
X128300535Y-87425965D01*
X128201990Y-87573446D01*
X128201983Y-87573459D01*
X128134106Y-87737332D01*
X128134103Y-87737341D01*
X128099500Y-87911304D01*
X121542174Y-87911304D01*
X121558635Y-87864262D01*
X121599042Y-87748783D01*
X121599046Y-87748771D01*
X121601655Y-87737341D01*
X121666540Y-87453063D01*
X121669940Y-87422892D01*
X121694829Y-87201987D01*
X121700500Y-87151657D01*
X121700500Y-86848343D01*
X121700499Y-86848336D01*
X160299500Y-86848336D01*
X160299500Y-87151663D01*
X160333457Y-87453048D01*
X160333460Y-87453062D01*
X160400953Y-87748771D01*
X160400957Y-87748783D01*
X160501133Y-88035068D01*
X160632733Y-88308338D01*
X160632735Y-88308341D01*
X160794108Y-88565164D01*
X160983221Y-88802304D01*
X161197696Y-89016779D01*
X161434836Y-89205892D01*
X161691659Y-89367265D01*
X161964935Y-89498868D01*
X162179951Y-89574105D01*
X162251216Y-89599042D01*
X162251228Y-89599046D01*
X162546937Y-89666540D01*
X162546946Y-89666541D01*
X162546951Y-89666542D01*
X162734366Y-89687658D01*
X162848337Y-89700499D01*
X162848340Y-89700500D01*
X162848343Y-89700500D01*
X163151660Y-89700500D01*
X163151661Y-89700499D01*
X163305694Y-89683144D01*
X163453048Y-89666542D01*
X163453051Y-89666541D01*
X163453063Y-89666540D01*
X163748772Y-89599046D01*
X164035065Y-89498868D01*
X164308341Y-89367265D01*
X164565164Y-89205892D01*
X164802304Y-89016779D01*
X165016779Y-88802304D01*
X165205892Y-88565164D01*
X165367265Y-88308341D01*
X165498868Y-88035065D01*
X165599046Y-87748772D01*
X165666540Y-87453063D01*
X165669940Y-87422892D01*
X165694829Y-87201987D01*
X165700500Y-87151657D01*
X165700500Y-86848343D01*
X165666540Y-86546937D01*
X165599046Y-86251228D01*
X165498868Y-85964935D01*
X165367265Y-85691659D01*
X165205892Y-85434836D01*
X165016779Y-85197696D01*
X164802304Y-84983221D01*
X164565164Y-84794108D01*
X164308341Y-84632735D01*
X164308338Y-84632733D01*
X164035068Y-84501133D01*
X163748783Y-84400957D01*
X163748771Y-84400953D01*
X163520556Y-84348864D01*
X163453063Y-84333460D01*
X163453060Y-84333459D01*
X163453048Y-84333457D01*
X163151663Y-84299500D01*
X163151657Y-84299500D01*
X162848343Y-84299500D01*
X162848336Y-84299500D01*
X162546951Y-84333457D01*
X162546937Y-84333460D01*
X162251228Y-84400953D01*
X162251216Y-84400957D01*
X161964931Y-84501133D01*
X161691661Y-84632733D01*
X161434837Y-84794107D01*
X161197696Y-84983220D01*
X160983220Y-85197696D01*
X160794107Y-85434837D01*
X160632733Y-85691661D01*
X160501133Y-85964931D01*
X160400957Y-86251216D01*
X160400953Y-86251228D01*
X160333460Y-86546937D01*
X160333457Y-86546951D01*
X160299500Y-86848336D01*
X121700499Y-86848336D01*
X121666540Y-86546937D01*
X121599046Y-86251228D01*
X121498868Y-85964935D01*
X121367265Y-85691659D01*
X121205892Y-85434836D01*
X121016779Y-85197696D01*
X120802304Y-84983221D01*
X120565164Y-84794108D01*
X120308341Y-84632735D01*
X120308338Y-84632733D01*
X120035068Y-84501133D01*
X119748783Y-84400957D01*
X119748771Y-84400953D01*
X119520556Y-84348864D01*
X119453063Y-84333460D01*
X119453060Y-84333459D01*
X119453048Y-84333457D01*
X119151663Y-84299500D01*
X119151657Y-84299500D01*
X118848343Y-84299500D01*
X118848336Y-84299500D01*
X118546951Y-84333457D01*
X118546937Y-84333460D01*
X118251228Y-84400953D01*
X118251216Y-84400957D01*
X117964931Y-84501133D01*
X117691661Y-84632733D01*
X117434837Y-84794107D01*
X117197696Y-84983220D01*
X116983220Y-85197696D01*
X116794107Y-85434837D01*
X116632733Y-85691661D01*
X116501133Y-85964931D01*
X116400957Y-86251216D01*
X116400953Y-86251228D01*
X116333460Y-86546937D01*
X116333457Y-86546951D01*
X116299500Y-86848336D01*
X115500500Y-86848336D01*
X115500500Y-84004427D01*
X115500816Y-83995581D01*
X115515130Y-83795443D01*
X115515131Y-83795434D01*
X115517646Y-83777938D01*
X115559356Y-83586199D01*
X115564333Y-83569248D01*
X115632911Y-83385385D01*
X115640259Y-83369298D01*
X115702815Y-83254734D01*
X115734291Y-83197089D01*
X115743845Y-83182221D01*
X115861448Y-83025123D01*
X115873020Y-83011769D01*
X116011769Y-82873020D01*
X116025123Y-82861448D01*
X116182221Y-82743845D01*
X116197089Y-82734291D01*
X116369298Y-82640258D01*
X116385385Y-82632911D01*
X116569248Y-82564333D01*
X116586199Y-82559356D01*
X116777938Y-82517646D01*
X116795436Y-82515130D01*
X116995582Y-82500816D01*
X117004428Y-82500500D01*
X117065892Y-82500500D01*
X165434108Y-82500500D01*
X165495572Y-82500500D01*
X165504418Y-82500816D01*
G37*
%TD.AperFunction*%
%TD*%
M02*
