%TF.GenerationSoftware,KiCad,Pcbnew,9.0.0*%
%TF.CreationDate,2025-03-16T21:38:05-04:00*%
%TF.ProjectId,STM32_Dev_Board,53544d33-325f-4446-9576-5f426f617264,rev?*%
%TF.SameCoordinates,Original*%
%TF.FileFunction,Legend,Top*%
%TF.FilePolarity,Positive*%
%FSLAX46Y46*%
G04 Gerber Fmt 4.6, Leading zero omitted, Abs format (unit mm)*
G04 Created by KiCad (PCBNEW 9.0.0) date 2025-03-16 21:38:05*
%MOMM*%
%LPD*%
G01*
G04 APERTURE LIST*
%ADD10C,0.200000*%
%ADD11C,0.300000*%
%ADD12C,0.150000*%
%ADD13C,0.120000*%
G04 APERTURE END LIST*
D10*
X160191421Y-97050000D02*
G75*
G02*
X159908579Y-97050000I-141421J0D01*
G01*
X159908579Y-97050000D02*
G75*
G02*
X160191421Y-97050000I141421J0D01*
G01*
D11*
X136504510Y-86900828D02*
X136504510Y-85400828D01*
X137147368Y-85543685D02*
X137218796Y-85472257D01*
X137218796Y-85472257D02*
X137361654Y-85400828D01*
X137361654Y-85400828D02*
X137718796Y-85400828D01*
X137718796Y-85400828D02*
X137861654Y-85472257D01*
X137861654Y-85472257D02*
X137933082Y-85543685D01*
X137933082Y-85543685D02*
X138004511Y-85686542D01*
X138004511Y-85686542D02*
X138004511Y-85829400D01*
X138004511Y-85829400D02*
X137933082Y-86043685D01*
X137933082Y-86043685D02*
X137075939Y-86900828D01*
X137075939Y-86900828D02*
X138004511Y-86900828D01*
X139504510Y-86757971D02*
X139433082Y-86829400D01*
X139433082Y-86829400D02*
X139218796Y-86900828D01*
X139218796Y-86900828D02*
X139075939Y-86900828D01*
X139075939Y-86900828D02*
X138861653Y-86829400D01*
X138861653Y-86829400D02*
X138718796Y-86686542D01*
X138718796Y-86686542D02*
X138647367Y-86543685D01*
X138647367Y-86543685D02*
X138575939Y-86257971D01*
X138575939Y-86257971D02*
X138575939Y-86043685D01*
X138575939Y-86043685D02*
X138647367Y-85757971D01*
X138647367Y-85757971D02*
X138718796Y-85615114D01*
X138718796Y-85615114D02*
X138861653Y-85472257D01*
X138861653Y-85472257D02*
X139075939Y-85400828D01*
X139075939Y-85400828D02*
X139218796Y-85400828D01*
X139218796Y-85400828D02*
X139433082Y-85472257D01*
X139433082Y-85472257D02*
X139504510Y-85543685D01*
D12*
X120520112Y-92496009D02*
X120662969Y-92543628D01*
X120662969Y-92543628D02*
X120710588Y-92591247D01*
X120710588Y-92591247D02*
X120758207Y-92686485D01*
X120758207Y-92686485D02*
X120758207Y-92829342D01*
X120758207Y-92829342D02*
X120710588Y-92924580D01*
X120710588Y-92924580D02*
X120662969Y-92972200D01*
X120662969Y-92972200D02*
X120567731Y-93019819D01*
X120567731Y-93019819D02*
X120186779Y-93019819D01*
X120186779Y-93019819D02*
X120186779Y-92019819D01*
X120186779Y-92019819D02*
X120520112Y-92019819D01*
X120520112Y-92019819D02*
X120615350Y-92067438D01*
X120615350Y-92067438D02*
X120662969Y-92115057D01*
X120662969Y-92115057D02*
X120710588Y-92210295D01*
X120710588Y-92210295D02*
X120710588Y-92305533D01*
X120710588Y-92305533D02*
X120662969Y-92400771D01*
X120662969Y-92400771D02*
X120615350Y-92448390D01*
X120615350Y-92448390D02*
X120520112Y-92496009D01*
X120520112Y-92496009D02*
X120186779Y-92496009D01*
X121377255Y-92019819D02*
X121567731Y-92019819D01*
X121567731Y-92019819D02*
X121662969Y-92067438D01*
X121662969Y-92067438D02*
X121758207Y-92162676D01*
X121758207Y-92162676D02*
X121805826Y-92353152D01*
X121805826Y-92353152D02*
X121805826Y-92686485D01*
X121805826Y-92686485D02*
X121758207Y-92876961D01*
X121758207Y-92876961D02*
X121662969Y-92972200D01*
X121662969Y-92972200D02*
X121567731Y-93019819D01*
X121567731Y-93019819D02*
X121377255Y-93019819D01*
X121377255Y-93019819D02*
X121282017Y-92972200D01*
X121282017Y-92972200D02*
X121186779Y-92876961D01*
X121186779Y-92876961D02*
X121139160Y-92686485D01*
X121139160Y-92686485D02*
X121139160Y-92353152D01*
X121139160Y-92353152D02*
X121186779Y-92162676D01*
X121186779Y-92162676D02*
X121282017Y-92067438D01*
X121282017Y-92067438D02*
X121377255Y-92019819D01*
X122424874Y-92019819D02*
X122615350Y-92019819D01*
X122615350Y-92019819D02*
X122710588Y-92067438D01*
X122710588Y-92067438D02*
X122805826Y-92162676D01*
X122805826Y-92162676D02*
X122853445Y-92353152D01*
X122853445Y-92353152D02*
X122853445Y-92686485D01*
X122853445Y-92686485D02*
X122805826Y-92876961D01*
X122805826Y-92876961D02*
X122710588Y-92972200D01*
X122710588Y-92972200D02*
X122615350Y-93019819D01*
X122615350Y-93019819D02*
X122424874Y-93019819D01*
X122424874Y-93019819D02*
X122329636Y-92972200D01*
X122329636Y-92972200D02*
X122234398Y-92876961D01*
X122234398Y-92876961D02*
X122186779Y-92686485D01*
X122186779Y-92686485D02*
X122186779Y-92353152D01*
X122186779Y-92353152D02*
X122234398Y-92162676D01*
X122234398Y-92162676D02*
X122329636Y-92067438D01*
X122329636Y-92067438D02*
X122424874Y-92019819D01*
X123139160Y-92019819D02*
X123710588Y-92019819D01*
X123424874Y-93019819D02*
X123424874Y-92019819D01*
X164289160Y-124594295D02*
X164289160Y-123794295D01*
X164289160Y-123794295D02*
X164593922Y-123794295D01*
X164593922Y-123794295D02*
X164670112Y-123832390D01*
X164670112Y-123832390D02*
X164708207Y-123870485D01*
X164708207Y-123870485D02*
X164746303Y-123946676D01*
X164746303Y-123946676D02*
X164746303Y-124060961D01*
X164746303Y-124060961D02*
X164708207Y-124137152D01*
X164708207Y-124137152D02*
X164670112Y-124175247D01*
X164670112Y-124175247D02*
X164593922Y-124213342D01*
X164593922Y-124213342D02*
X164289160Y-124213342D01*
X165012969Y-123794295D02*
X165203445Y-124594295D01*
X165203445Y-124594295D02*
X165355826Y-124022866D01*
X165355826Y-124022866D02*
X165508207Y-124594295D01*
X165508207Y-124594295D02*
X165698684Y-123794295D01*
X166460589Y-124594295D02*
X166193922Y-124213342D01*
X166003446Y-124594295D02*
X166003446Y-123794295D01*
X166003446Y-123794295D02*
X166308208Y-123794295D01*
X166308208Y-123794295D02*
X166384398Y-123832390D01*
X166384398Y-123832390D02*
X166422493Y-123870485D01*
X166422493Y-123870485D02*
X166460589Y-123946676D01*
X166460589Y-123946676D02*
X166460589Y-124060961D01*
X166460589Y-124060961D02*
X166422493Y-124137152D01*
X166422493Y-124137152D02*
X166384398Y-124175247D01*
X166384398Y-124175247D02*
X166308208Y-124213342D01*
X166308208Y-124213342D02*
X166003446Y-124213342D01*
X131117731Y-115994295D02*
X131117731Y-116565723D01*
X131117731Y-116565723D02*
X131079636Y-116680009D01*
X131079636Y-116680009D02*
X131003445Y-116756200D01*
X131003445Y-116756200D02*
X130889160Y-116794295D01*
X130889160Y-116794295D02*
X130812969Y-116794295D01*
X131879636Y-116794295D02*
X131498684Y-116794295D01*
X131498684Y-116794295D02*
X131498684Y-115994295D01*
X132603446Y-116718104D02*
X132565350Y-116756200D01*
X132565350Y-116756200D02*
X132451065Y-116794295D01*
X132451065Y-116794295D02*
X132374874Y-116794295D01*
X132374874Y-116794295D02*
X132260588Y-116756200D01*
X132260588Y-116756200D02*
X132184398Y-116680009D01*
X132184398Y-116680009D02*
X132146303Y-116603819D01*
X132146303Y-116603819D02*
X132108207Y-116451438D01*
X132108207Y-116451438D02*
X132108207Y-116337152D01*
X132108207Y-116337152D02*
X132146303Y-116184771D01*
X132146303Y-116184771D02*
X132184398Y-116108580D01*
X132184398Y-116108580D02*
X132260588Y-116032390D01*
X132260588Y-116032390D02*
X132374874Y-115994295D01*
X132374874Y-115994295D02*
X132451065Y-115994295D01*
X132451065Y-115994295D02*
X132565350Y-116032390D01*
X132565350Y-116032390D02*
X132603446Y-116070485D01*
X133174874Y-115994295D02*
X133174874Y-116565723D01*
X133174874Y-116565723D02*
X133136779Y-116680009D01*
X133136779Y-116680009D02*
X133060588Y-116756200D01*
X133060588Y-116756200D02*
X132946303Y-116794295D01*
X132946303Y-116794295D02*
X132870112Y-116794295D01*
X133936779Y-116794295D02*
X133555827Y-116794295D01*
X133555827Y-116794295D02*
X133555827Y-115994295D01*
X134660589Y-116718104D02*
X134622493Y-116756200D01*
X134622493Y-116756200D02*
X134508208Y-116794295D01*
X134508208Y-116794295D02*
X134432017Y-116794295D01*
X134432017Y-116794295D02*
X134317731Y-116756200D01*
X134317731Y-116756200D02*
X134241541Y-116680009D01*
X134241541Y-116680009D02*
X134203446Y-116603819D01*
X134203446Y-116603819D02*
X134165350Y-116451438D01*
X134165350Y-116451438D02*
X134165350Y-116337152D01*
X134165350Y-116337152D02*
X134203446Y-116184771D01*
X134203446Y-116184771D02*
X134241541Y-116108580D01*
X134241541Y-116108580D02*
X134317731Y-116032390D01*
X134317731Y-116032390D02*
X134432017Y-115994295D01*
X134432017Y-115994295D02*
X134508208Y-115994295D01*
X134508208Y-115994295D02*
X134622493Y-116032390D01*
X134622493Y-116032390D02*
X134660589Y-116070485D01*
X135232017Y-115994295D02*
X135232017Y-116565723D01*
X135232017Y-116565723D02*
X135193922Y-116680009D01*
X135193922Y-116680009D02*
X135117731Y-116756200D01*
X135117731Y-116756200D02*
X135003446Y-116794295D01*
X135003446Y-116794295D02*
X134927255Y-116794295D01*
X135993922Y-116794295D02*
X135612970Y-116794295D01*
X135612970Y-116794295D02*
X135612970Y-115994295D01*
X136717732Y-116718104D02*
X136679636Y-116756200D01*
X136679636Y-116756200D02*
X136565351Y-116794295D01*
X136565351Y-116794295D02*
X136489160Y-116794295D01*
X136489160Y-116794295D02*
X136374874Y-116756200D01*
X136374874Y-116756200D02*
X136298684Y-116680009D01*
X136298684Y-116680009D02*
X136260589Y-116603819D01*
X136260589Y-116603819D02*
X136222493Y-116451438D01*
X136222493Y-116451438D02*
X136222493Y-116337152D01*
X136222493Y-116337152D02*
X136260589Y-116184771D01*
X136260589Y-116184771D02*
X136298684Y-116108580D01*
X136298684Y-116108580D02*
X136374874Y-116032390D01*
X136374874Y-116032390D02*
X136489160Y-115994295D01*
X136489160Y-115994295D02*
X136565351Y-115994295D01*
X136565351Y-115994295D02*
X136679636Y-116032390D01*
X136679636Y-116032390D02*
X136717732Y-116070485D01*
X137289160Y-115994295D02*
X137289160Y-116565723D01*
X137289160Y-116565723D02*
X137251065Y-116680009D01*
X137251065Y-116680009D02*
X137174874Y-116756200D01*
X137174874Y-116756200D02*
X137060589Y-116794295D01*
X137060589Y-116794295D02*
X136984398Y-116794295D01*
X138051065Y-116794295D02*
X137670113Y-116794295D01*
X137670113Y-116794295D02*
X137670113Y-115994295D01*
X138774875Y-116718104D02*
X138736779Y-116756200D01*
X138736779Y-116756200D02*
X138622494Y-116794295D01*
X138622494Y-116794295D02*
X138546303Y-116794295D01*
X138546303Y-116794295D02*
X138432017Y-116756200D01*
X138432017Y-116756200D02*
X138355827Y-116680009D01*
X138355827Y-116680009D02*
X138317732Y-116603819D01*
X138317732Y-116603819D02*
X138279636Y-116451438D01*
X138279636Y-116451438D02*
X138279636Y-116337152D01*
X138279636Y-116337152D02*
X138317732Y-116184771D01*
X138317732Y-116184771D02*
X138355827Y-116108580D01*
X138355827Y-116108580D02*
X138432017Y-116032390D01*
X138432017Y-116032390D02*
X138546303Y-115994295D01*
X138546303Y-115994295D02*
X138622494Y-115994295D01*
X138622494Y-115994295D02*
X138736779Y-116032390D01*
X138736779Y-116032390D02*
X138774875Y-116070485D01*
X120808207Y-103619819D02*
X120474874Y-103143628D01*
X120236779Y-103619819D02*
X120236779Y-102619819D01*
X120236779Y-102619819D02*
X120617731Y-102619819D01*
X120617731Y-102619819D02*
X120712969Y-102667438D01*
X120712969Y-102667438D02*
X120760588Y-102715057D01*
X120760588Y-102715057D02*
X120808207Y-102810295D01*
X120808207Y-102810295D02*
X120808207Y-102953152D01*
X120808207Y-102953152D02*
X120760588Y-103048390D01*
X120760588Y-103048390D02*
X120712969Y-103096009D01*
X120712969Y-103096009D02*
X120617731Y-103143628D01*
X120617731Y-103143628D02*
X120236779Y-103143628D01*
X121236779Y-102619819D02*
X121236779Y-103429342D01*
X121236779Y-103429342D02*
X121284398Y-103524580D01*
X121284398Y-103524580D02*
X121332017Y-103572200D01*
X121332017Y-103572200D02*
X121427255Y-103619819D01*
X121427255Y-103619819D02*
X121617731Y-103619819D01*
X121617731Y-103619819D02*
X121712969Y-103572200D01*
X121712969Y-103572200D02*
X121760588Y-103524580D01*
X121760588Y-103524580D02*
X121808207Y-103429342D01*
X121808207Y-103429342D02*
X121808207Y-102619819D01*
X122284398Y-103619819D02*
X122284398Y-102619819D01*
X122284398Y-102619819D02*
X122855826Y-103619819D01*
X122855826Y-103619819D02*
X122855826Y-102619819D01*
D11*
X142111653Y-142237542D02*
X142797368Y-142237542D01*
X142454510Y-143437542D02*
X142454510Y-142237542D01*
X143654511Y-143380400D02*
X143540225Y-143437542D01*
X143540225Y-143437542D02*
X143311654Y-143437542D01*
X143311654Y-143437542D02*
X143197368Y-143380400D01*
X143197368Y-143380400D02*
X143140225Y-143266114D01*
X143140225Y-143266114D02*
X143140225Y-142808971D01*
X143140225Y-142808971D02*
X143197368Y-142694685D01*
X143197368Y-142694685D02*
X143311654Y-142637542D01*
X143311654Y-142637542D02*
X143540225Y-142637542D01*
X143540225Y-142637542D02*
X143654511Y-142694685D01*
X143654511Y-142694685D02*
X143711654Y-142808971D01*
X143711654Y-142808971D02*
X143711654Y-142923257D01*
X143711654Y-142923257D02*
X143140225Y-143037542D01*
X144225939Y-143437542D02*
X144225939Y-142637542D01*
X144225939Y-142751828D02*
X144283082Y-142694685D01*
X144283082Y-142694685D02*
X144397367Y-142637542D01*
X144397367Y-142637542D02*
X144568796Y-142637542D01*
X144568796Y-142637542D02*
X144683082Y-142694685D01*
X144683082Y-142694685D02*
X144740225Y-142808971D01*
X144740225Y-142808971D02*
X144740225Y-143437542D01*
X144740225Y-142808971D02*
X144797367Y-142694685D01*
X144797367Y-142694685D02*
X144911653Y-142637542D01*
X144911653Y-142637542D02*
X145083082Y-142637542D01*
X145083082Y-142637542D02*
X145197367Y-142694685D01*
X145197367Y-142694685D02*
X145254510Y-142808971D01*
X145254510Y-142808971D02*
X145254510Y-143437542D01*
X145825939Y-142637542D02*
X145825939Y-143837542D01*
X145825939Y-142694685D02*
X145940225Y-142637542D01*
X145940225Y-142637542D02*
X146168796Y-142637542D01*
X146168796Y-142637542D02*
X146283082Y-142694685D01*
X146283082Y-142694685D02*
X146340225Y-142751828D01*
X146340225Y-142751828D02*
X146397367Y-142866114D01*
X146397367Y-142866114D02*
X146397367Y-143208971D01*
X146397367Y-143208971D02*
X146340225Y-143323257D01*
X146340225Y-143323257D02*
X146283082Y-143380400D01*
X146283082Y-143380400D02*
X146168796Y-143437542D01*
X146168796Y-143437542D02*
X145940225Y-143437542D01*
X145940225Y-143437542D02*
X145825939Y-143380400D01*
X147368796Y-143380400D02*
X147254510Y-143437542D01*
X147254510Y-143437542D02*
X147025939Y-143437542D01*
X147025939Y-143437542D02*
X146911653Y-143380400D01*
X146911653Y-143380400D02*
X146854510Y-143266114D01*
X146854510Y-143266114D02*
X146854510Y-142808971D01*
X146854510Y-142808971D02*
X146911653Y-142694685D01*
X146911653Y-142694685D02*
X147025939Y-142637542D01*
X147025939Y-142637542D02*
X147254510Y-142637542D01*
X147254510Y-142637542D02*
X147368796Y-142694685D01*
X147368796Y-142694685D02*
X147425939Y-142808971D01*
X147425939Y-142808971D02*
X147425939Y-142923257D01*
X147425939Y-142923257D02*
X146854510Y-143037542D01*
X147940224Y-143437542D02*
X147940224Y-142637542D01*
X147940224Y-142866114D02*
X147997367Y-142751828D01*
X147997367Y-142751828D02*
X148054510Y-142694685D01*
X148054510Y-142694685D02*
X148168795Y-142637542D01*
X148168795Y-142637542D02*
X148283081Y-142637542D01*
X149197367Y-143437542D02*
X149197367Y-142808971D01*
X149197367Y-142808971D02*
X149140224Y-142694685D01*
X149140224Y-142694685D02*
X149025938Y-142637542D01*
X149025938Y-142637542D02*
X148797367Y-142637542D01*
X148797367Y-142637542D02*
X148683081Y-142694685D01*
X149197367Y-143380400D02*
X149083081Y-143437542D01*
X149083081Y-143437542D02*
X148797367Y-143437542D01*
X148797367Y-143437542D02*
X148683081Y-143380400D01*
X148683081Y-143380400D02*
X148625938Y-143266114D01*
X148625938Y-143266114D02*
X148625938Y-143151828D01*
X148625938Y-143151828D02*
X148683081Y-143037542D01*
X148683081Y-143037542D02*
X148797367Y-142980400D01*
X148797367Y-142980400D02*
X149083081Y-142980400D01*
X149083081Y-142980400D02*
X149197367Y-142923257D01*
X149597366Y-142637542D02*
X150054509Y-142637542D01*
X149768795Y-142237542D02*
X149768795Y-143266114D01*
X149768795Y-143266114D02*
X149825938Y-143380400D01*
X149825938Y-143380400D02*
X149940223Y-143437542D01*
X149940223Y-143437542D02*
X150054509Y-143437542D01*
X150968795Y-142637542D02*
X150968795Y-143437542D01*
X150454509Y-142637542D02*
X150454509Y-143266114D01*
X150454509Y-143266114D02*
X150511652Y-143380400D01*
X150511652Y-143380400D02*
X150625937Y-143437542D01*
X150625937Y-143437542D02*
X150797366Y-143437542D01*
X150797366Y-143437542D02*
X150911652Y-143380400D01*
X150911652Y-143380400D02*
X150968795Y-143323257D01*
X151540223Y-143437542D02*
X151540223Y-142637542D01*
X151540223Y-142866114D02*
X151597366Y-142751828D01*
X151597366Y-142751828D02*
X151654509Y-142694685D01*
X151654509Y-142694685D02*
X151768794Y-142637542D01*
X151768794Y-142637542D02*
X151883080Y-142637542D01*
X152740223Y-143380400D02*
X152625937Y-143437542D01*
X152625937Y-143437542D02*
X152397366Y-143437542D01*
X152397366Y-143437542D02*
X152283080Y-143380400D01*
X152283080Y-143380400D02*
X152225937Y-143266114D01*
X152225937Y-143266114D02*
X152225937Y-142808971D01*
X152225937Y-142808971D02*
X152283080Y-142694685D01*
X152283080Y-142694685D02*
X152397366Y-142637542D01*
X152397366Y-142637542D02*
X152625937Y-142637542D01*
X152625937Y-142637542D02*
X152740223Y-142694685D01*
X152740223Y-142694685D02*
X152797366Y-142808971D01*
X152797366Y-142808971D02*
X152797366Y-142923257D01*
X152797366Y-142923257D02*
X152225937Y-143037542D01*
X154797365Y-143437542D02*
X154225937Y-143437542D01*
X154225937Y-143437542D02*
X154225937Y-142237542D01*
X155368794Y-143437542D02*
X155254509Y-143380400D01*
X155254509Y-143380400D02*
X155197366Y-143323257D01*
X155197366Y-143323257D02*
X155140223Y-143208971D01*
X155140223Y-143208971D02*
X155140223Y-142866114D01*
X155140223Y-142866114D02*
X155197366Y-142751828D01*
X155197366Y-142751828D02*
X155254509Y-142694685D01*
X155254509Y-142694685D02*
X155368794Y-142637542D01*
X155368794Y-142637542D02*
X155540223Y-142637542D01*
X155540223Y-142637542D02*
X155654509Y-142694685D01*
X155654509Y-142694685D02*
X155711652Y-142751828D01*
X155711652Y-142751828D02*
X155768794Y-142866114D01*
X155768794Y-142866114D02*
X155768794Y-143208971D01*
X155768794Y-143208971D02*
X155711652Y-143323257D01*
X155711652Y-143323257D02*
X155654509Y-143380400D01*
X155654509Y-143380400D02*
X155540223Y-143437542D01*
X155540223Y-143437542D02*
X155368794Y-143437542D01*
X156797366Y-142637542D02*
X156797366Y-143608971D01*
X156797366Y-143608971D02*
X156740223Y-143723257D01*
X156740223Y-143723257D02*
X156683080Y-143780400D01*
X156683080Y-143780400D02*
X156568794Y-143837542D01*
X156568794Y-143837542D02*
X156397366Y-143837542D01*
X156397366Y-143837542D02*
X156283080Y-143780400D01*
X156797366Y-143380400D02*
X156683080Y-143437542D01*
X156683080Y-143437542D02*
X156454508Y-143437542D01*
X156454508Y-143437542D02*
X156340223Y-143380400D01*
X156340223Y-143380400D02*
X156283080Y-143323257D01*
X156283080Y-143323257D02*
X156225937Y-143208971D01*
X156225937Y-143208971D02*
X156225937Y-142866114D01*
X156225937Y-142866114D02*
X156283080Y-142751828D01*
X156283080Y-142751828D02*
X156340223Y-142694685D01*
X156340223Y-142694685D02*
X156454508Y-142637542D01*
X156454508Y-142637542D02*
X156683080Y-142637542D01*
X156683080Y-142637542D02*
X156797366Y-142694685D01*
X157883080Y-142637542D02*
X157883080Y-143608971D01*
X157883080Y-143608971D02*
X157825937Y-143723257D01*
X157825937Y-143723257D02*
X157768794Y-143780400D01*
X157768794Y-143780400D02*
X157654508Y-143837542D01*
X157654508Y-143837542D02*
X157483080Y-143837542D01*
X157483080Y-143837542D02*
X157368794Y-143780400D01*
X157883080Y-143380400D02*
X157768794Y-143437542D01*
X157768794Y-143437542D02*
X157540222Y-143437542D01*
X157540222Y-143437542D02*
X157425937Y-143380400D01*
X157425937Y-143380400D02*
X157368794Y-143323257D01*
X157368794Y-143323257D02*
X157311651Y-143208971D01*
X157311651Y-143208971D02*
X157311651Y-142866114D01*
X157311651Y-142866114D02*
X157368794Y-142751828D01*
X157368794Y-142751828D02*
X157425937Y-142694685D01*
X157425937Y-142694685D02*
X157540222Y-142637542D01*
X157540222Y-142637542D02*
X157768794Y-142637542D01*
X157768794Y-142637542D02*
X157883080Y-142694685D01*
X158911651Y-143380400D02*
X158797365Y-143437542D01*
X158797365Y-143437542D02*
X158568794Y-143437542D01*
X158568794Y-143437542D02*
X158454508Y-143380400D01*
X158454508Y-143380400D02*
X158397365Y-143266114D01*
X158397365Y-143266114D02*
X158397365Y-142808971D01*
X158397365Y-142808971D02*
X158454508Y-142694685D01*
X158454508Y-142694685D02*
X158568794Y-142637542D01*
X158568794Y-142637542D02*
X158797365Y-142637542D01*
X158797365Y-142637542D02*
X158911651Y-142694685D01*
X158911651Y-142694685D02*
X158968794Y-142808971D01*
X158968794Y-142808971D02*
X158968794Y-142923257D01*
X158968794Y-142923257D02*
X158397365Y-143037542D01*
X159483079Y-143437542D02*
X159483079Y-142637542D01*
X159483079Y-142866114D02*
X159540222Y-142751828D01*
X159540222Y-142751828D02*
X159597365Y-142694685D01*
X159597365Y-142694685D02*
X159711650Y-142637542D01*
X159711650Y-142637542D02*
X159825936Y-142637542D01*
X127254510Y-141250828D02*
X127254510Y-142465114D01*
X127254510Y-142465114D02*
X127325939Y-142607971D01*
X127325939Y-142607971D02*
X127397368Y-142679400D01*
X127397368Y-142679400D02*
X127540225Y-142750828D01*
X127540225Y-142750828D02*
X127825939Y-142750828D01*
X127825939Y-142750828D02*
X127968796Y-142679400D01*
X127968796Y-142679400D02*
X128040225Y-142607971D01*
X128040225Y-142607971D02*
X128111653Y-142465114D01*
X128111653Y-142465114D02*
X128111653Y-141250828D01*
X128754511Y-142322257D02*
X129468797Y-142322257D01*
X128611654Y-142750828D02*
X129111654Y-141250828D01*
X129111654Y-141250828D02*
X129611654Y-142750828D01*
X130968796Y-142750828D02*
X130468796Y-142036542D01*
X130111653Y-142750828D02*
X130111653Y-141250828D01*
X130111653Y-141250828D02*
X130683082Y-141250828D01*
X130683082Y-141250828D02*
X130825939Y-141322257D01*
X130825939Y-141322257D02*
X130897368Y-141393685D01*
X130897368Y-141393685D02*
X130968796Y-141536542D01*
X130968796Y-141536542D02*
X130968796Y-141750828D01*
X130968796Y-141750828D02*
X130897368Y-141893685D01*
X130897368Y-141893685D02*
X130825939Y-141965114D01*
X130825939Y-141965114D02*
X130683082Y-142036542D01*
X130683082Y-142036542D02*
X130111653Y-142036542D01*
X131397368Y-141250828D02*
X132254511Y-141250828D01*
X131825939Y-142750828D02*
X131825939Y-141250828D01*
D12*
X123362295Y-129045832D02*
X122981342Y-129312499D01*
X123362295Y-129502975D02*
X122562295Y-129502975D01*
X122562295Y-129502975D02*
X122562295Y-129198213D01*
X122562295Y-129198213D02*
X122600390Y-129122023D01*
X122600390Y-129122023D02*
X122638485Y-129083928D01*
X122638485Y-129083928D02*
X122714676Y-129045832D01*
X122714676Y-129045832D02*
X122828961Y-129045832D01*
X122828961Y-129045832D02*
X122905152Y-129083928D01*
X122905152Y-129083928D02*
X122943247Y-129122023D01*
X122943247Y-129122023D02*
X122981342Y-129198213D01*
X122981342Y-129198213D02*
X122981342Y-129502975D01*
X122562295Y-128322023D02*
X122562295Y-128702975D01*
X122562295Y-128702975D02*
X122943247Y-128741071D01*
X122943247Y-128741071D02*
X122905152Y-128702975D01*
X122905152Y-128702975D02*
X122867057Y-128626785D01*
X122867057Y-128626785D02*
X122867057Y-128436309D01*
X122867057Y-128436309D02*
X122905152Y-128360118D01*
X122905152Y-128360118D02*
X122943247Y-128322023D01*
X122943247Y-128322023D02*
X123019438Y-128283928D01*
X123019438Y-128283928D02*
X123209914Y-128283928D01*
X123209914Y-128283928D02*
X123286104Y-128322023D01*
X123286104Y-128322023D02*
X123324200Y-128360118D01*
X123324200Y-128360118D02*
X123362295Y-128436309D01*
X123362295Y-128436309D02*
X123362295Y-128626785D01*
X123362295Y-128626785D02*
X123324200Y-128702975D01*
X123324200Y-128702975D02*
X123286104Y-128741071D01*
X125133333Y-108659580D02*
X125085714Y-108707200D01*
X125085714Y-108707200D02*
X124942857Y-108754819D01*
X124942857Y-108754819D02*
X124847619Y-108754819D01*
X124847619Y-108754819D02*
X124704762Y-108707200D01*
X124704762Y-108707200D02*
X124609524Y-108611961D01*
X124609524Y-108611961D02*
X124561905Y-108516723D01*
X124561905Y-108516723D02*
X124514286Y-108326247D01*
X124514286Y-108326247D02*
X124514286Y-108183390D01*
X124514286Y-108183390D02*
X124561905Y-107992914D01*
X124561905Y-107992914D02*
X124609524Y-107897676D01*
X124609524Y-107897676D02*
X124704762Y-107802438D01*
X124704762Y-107802438D02*
X124847619Y-107754819D01*
X124847619Y-107754819D02*
X124942857Y-107754819D01*
X124942857Y-107754819D02*
X125085714Y-107802438D01*
X125085714Y-107802438D02*
X125133333Y-107850057D01*
X125466667Y-107754819D02*
X126133333Y-107754819D01*
X126133333Y-107754819D02*
X125704762Y-108754819D01*
X162738095Y-139254819D02*
X162738095Y-138254819D01*
X162738095Y-138731009D02*
X163309523Y-138731009D01*
X163309523Y-139254819D02*
X163309523Y-138254819D01*
X164214285Y-138588152D02*
X164214285Y-139254819D01*
X163976190Y-138207200D02*
X163738095Y-138921485D01*
X163738095Y-138921485D02*
X164357142Y-138921485D01*
X119257142Y-119259580D02*
X119209523Y-119307200D01*
X119209523Y-119307200D02*
X119066666Y-119354819D01*
X119066666Y-119354819D02*
X118971428Y-119354819D01*
X118971428Y-119354819D02*
X118828571Y-119307200D01*
X118828571Y-119307200D02*
X118733333Y-119211961D01*
X118733333Y-119211961D02*
X118685714Y-119116723D01*
X118685714Y-119116723D02*
X118638095Y-118926247D01*
X118638095Y-118926247D02*
X118638095Y-118783390D01*
X118638095Y-118783390D02*
X118685714Y-118592914D01*
X118685714Y-118592914D02*
X118733333Y-118497676D01*
X118733333Y-118497676D02*
X118828571Y-118402438D01*
X118828571Y-118402438D02*
X118971428Y-118354819D01*
X118971428Y-118354819D02*
X119066666Y-118354819D01*
X119066666Y-118354819D02*
X119209523Y-118402438D01*
X119209523Y-118402438D02*
X119257142Y-118450057D01*
X120209523Y-119354819D02*
X119638095Y-119354819D01*
X119923809Y-119354819D02*
X119923809Y-118354819D01*
X119923809Y-118354819D02*
X119828571Y-118497676D01*
X119828571Y-118497676D02*
X119733333Y-118592914D01*
X119733333Y-118592914D02*
X119638095Y-118640533D01*
X121161904Y-119354819D02*
X120590476Y-119354819D01*
X120876190Y-119354819D02*
X120876190Y-118354819D01*
X120876190Y-118354819D02*
X120780952Y-118497676D01*
X120780952Y-118497676D02*
X120685714Y-118592914D01*
X120685714Y-118592914D02*
X120590476Y-118640533D01*
X133454819Y-104266666D02*
X132978628Y-104599999D01*
X133454819Y-104838094D02*
X132454819Y-104838094D01*
X132454819Y-104838094D02*
X132454819Y-104457142D01*
X132454819Y-104457142D02*
X132502438Y-104361904D01*
X132502438Y-104361904D02*
X132550057Y-104314285D01*
X132550057Y-104314285D02*
X132645295Y-104266666D01*
X132645295Y-104266666D02*
X132788152Y-104266666D01*
X132788152Y-104266666D02*
X132883390Y-104314285D01*
X132883390Y-104314285D02*
X132931009Y-104361904D01*
X132931009Y-104361904D02*
X132978628Y-104457142D01*
X132978628Y-104457142D02*
X132978628Y-104838094D01*
X132550057Y-103885713D02*
X132502438Y-103838094D01*
X132502438Y-103838094D02*
X132454819Y-103742856D01*
X132454819Y-103742856D02*
X132454819Y-103504761D01*
X132454819Y-103504761D02*
X132502438Y-103409523D01*
X132502438Y-103409523D02*
X132550057Y-103361904D01*
X132550057Y-103361904D02*
X132645295Y-103314285D01*
X132645295Y-103314285D02*
X132740533Y-103314285D01*
X132740533Y-103314285D02*
X132883390Y-103361904D01*
X132883390Y-103361904D02*
X133454819Y-103933332D01*
X133454819Y-103933332D02*
X133454819Y-103314285D01*
X126833333Y-114754819D02*
X126500000Y-114278628D01*
X126261905Y-114754819D02*
X126261905Y-113754819D01*
X126261905Y-113754819D02*
X126642857Y-113754819D01*
X126642857Y-113754819D02*
X126738095Y-113802438D01*
X126738095Y-113802438D02*
X126785714Y-113850057D01*
X126785714Y-113850057D02*
X126833333Y-113945295D01*
X126833333Y-113945295D02*
X126833333Y-114088152D01*
X126833333Y-114088152D02*
X126785714Y-114183390D01*
X126785714Y-114183390D02*
X126738095Y-114231009D01*
X126738095Y-114231009D02*
X126642857Y-114278628D01*
X126642857Y-114278628D02*
X126261905Y-114278628D01*
X127690476Y-114088152D02*
X127690476Y-114754819D01*
X127452381Y-113707200D02*
X127214286Y-114421485D01*
X127214286Y-114421485D02*
X127833333Y-114421485D01*
X140538095Y-120979819D02*
X140538095Y-121789342D01*
X140538095Y-121789342D02*
X140585714Y-121884580D01*
X140585714Y-121884580D02*
X140633333Y-121932200D01*
X140633333Y-121932200D02*
X140728571Y-121979819D01*
X140728571Y-121979819D02*
X140919047Y-121979819D01*
X140919047Y-121979819D02*
X141014285Y-121932200D01*
X141014285Y-121932200D02*
X141061904Y-121884580D01*
X141061904Y-121884580D02*
X141109523Y-121789342D01*
X141109523Y-121789342D02*
X141109523Y-120979819D01*
X142061904Y-120979819D02*
X141585714Y-120979819D01*
X141585714Y-120979819D02*
X141538095Y-121456009D01*
X141538095Y-121456009D02*
X141585714Y-121408390D01*
X141585714Y-121408390D02*
X141680952Y-121360771D01*
X141680952Y-121360771D02*
X141919047Y-121360771D01*
X141919047Y-121360771D02*
X142014285Y-121408390D01*
X142014285Y-121408390D02*
X142061904Y-121456009D01*
X142061904Y-121456009D02*
X142109523Y-121551247D01*
X142109523Y-121551247D02*
X142109523Y-121789342D01*
X142109523Y-121789342D02*
X142061904Y-121884580D01*
X142061904Y-121884580D02*
X142014285Y-121932200D01*
X142014285Y-121932200D02*
X141919047Y-121979819D01*
X141919047Y-121979819D02*
X141680952Y-121979819D01*
X141680952Y-121979819D02*
X141585714Y-121932200D01*
X141585714Y-121932200D02*
X141538095Y-121884580D01*
X123362295Y-126302975D02*
X122562295Y-126302975D01*
X122562295Y-126302975D02*
X122562295Y-126112499D01*
X122562295Y-126112499D02*
X122600390Y-125998213D01*
X122600390Y-125998213D02*
X122676580Y-125922023D01*
X122676580Y-125922023D02*
X122752771Y-125883928D01*
X122752771Y-125883928D02*
X122905152Y-125845832D01*
X122905152Y-125845832D02*
X123019438Y-125845832D01*
X123019438Y-125845832D02*
X123171819Y-125883928D01*
X123171819Y-125883928D02*
X123248009Y-125922023D01*
X123248009Y-125922023D02*
X123324200Y-125998213D01*
X123324200Y-125998213D02*
X123362295Y-126112499D01*
X123362295Y-126112499D02*
X123362295Y-126302975D01*
X123362295Y-125083928D02*
X123362295Y-125541071D01*
X123362295Y-125312499D02*
X122562295Y-125312499D01*
X122562295Y-125312499D02*
X122676580Y-125388690D01*
X122676580Y-125388690D02*
X122752771Y-125464880D01*
X122752771Y-125464880D02*
X122790866Y-125541071D01*
X126633333Y-101154819D02*
X126300000Y-100678628D01*
X126061905Y-101154819D02*
X126061905Y-100154819D01*
X126061905Y-100154819D02*
X126442857Y-100154819D01*
X126442857Y-100154819D02*
X126538095Y-100202438D01*
X126538095Y-100202438D02*
X126585714Y-100250057D01*
X126585714Y-100250057D02*
X126633333Y-100345295D01*
X126633333Y-100345295D02*
X126633333Y-100488152D01*
X126633333Y-100488152D02*
X126585714Y-100583390D01*
X126585714Y-100583390D02*
X126538095Y-100631009D01*
X126538095Y-100631009D02*
X126442857Y-100678628D01*
X126442857Y-100678628D02*
X126061905Y-100678628D01*
X126966667Y-100154819D02*
X127585714Y-100154819D01*
X127585714Y-100154819D02*
X127252381Y-100535771D01*
X127252381Y-100535771D02*
X127395238Y-100535771D01*
X127395238Y-100535771D02*
X127490476Y-100583390D01*
X127490476Y-100583390D02*
X127538095Y-100631009D01*
X127538095Y-100631009D02*
X127585714Y-100726247D01*
X127585714Y-100726247D02*
X127585714Y-100964342D01*
X127585714Y-100964342D02*
X127538095Y-101059580D01*
X127538095Y-101059580D02*
X127490476Y-101107200D01*
X127490476Y-101107200D02*
X127395238Y-101154819D01*
X127395238Y-101154819D02*
X127109524Y-101154819D01*
X127109524Y-101154819D02*
X127014286Y-101107200D01*
X127014286Y-101107200D02*
X126966667Y-101059580D01*
X144584819Y-135267857D02*
X144108628Y-135601190D01*
X144584819Y-135839285D02*
X143584819Y-135839285D01*
X143584819Y-135839285D02*
X143584819Y-135458333D01*
X143584819Y-135458333D02*
X143632438Y-135363095D01*
X143632438Y-135363095D02*
X143680057Y-135315476D01*
X143680057Y-135315476D02*
X143775295Y-135267857D01*
X143775295Y-135267857D02*
X143918152Y-135267857D01*
X143918152Y-135267857D02*
X144013390Y-135315476D01*
X144013390Y-135315476D02*
X144061009Y-135363095D01*
X144061009Y-135363095D02*
X144108628Y-135458333D01*
X144108628Y-135458333D02*
X144108628Y-135839285D01*
X144584819Y-134315476D02*
X144584819Y-134886904D01*
X144584819Y-134601190D02*
X143584819Y-134601190D01*
X143584819Y-134601190D02*
X143727676Y-134696428D01*
X143727676Y-134696428D02*
X143822914Y-134791666D01*
X143822914Y-134791666D02*
X143870533Y-134886904D01*
X143584819Y-133458333D02*
X143584819Y-133648809D01*
X143584819Y-133648809D02*
X143632438Y-133744047D01*
X143632438Y-133744047D02*
X143680057Y-133791666D01*
X143680057Y-133791666D02*
X143822914Y-133886904D01*
X143822914Y-133886904D02*
X144013390Y-133934523D01*
X144013390Y-133934523D02*
X144394342Y-133934523D01*
X144394342Y-133934523D02*
X144489580Y-133886904D01*
X144489580Y-133886904D02*
X144537200Y-133839285D01*
X144537200Y-133839285D02*
X144584819Y-133744047D01*
X144584819Y-133744047D02*
X144584819Y-133553571D01*
X144584819Y-133553571D02*
X144537200Y-133458333D01*
X144537200Y-133458333D02*
X144489580Y-133410714D01*
X144489580Y-133410714D02*
X144394342Y-133363095D01*
X144394342Y-133363095D02*
X144156247Y-133363095D01*
X144156247Y-133363095D02*
X144061009Y-133410714D01*
X144061009Y-133410714D02*
X144013390Y-133458333D01*
X144013390Y-133458333D02*
X143965771Y-133553571D01*
X143965771Y-133553571D02*
X143965771Y-133744047D01*
X143965771Y-133744047D02*
X144013390Y-133839285D01*
X144013390Y-133839285D02*
X144061009Y-133886904D01*
X144061009Y-133886904D02*
X144156247Y-133934523D01*
X148331009Y-129933333D02*
X148331009Y-130266666D01*
X148854819Y-130266666D02*
X147854819Y-130266666D01*
X147854819Y-130266666D02*
X147854819Y-129790476D01*
X148854819Y-128885714D02*
X148854819Y-129457142D01*
X148854819Y-129171428D02*
X147854819Y-129171428D01*
X147854819Y-129171428D02*
X147997676Y-129266666D01*
X147997676Y-129266666D02*
X148092914Y-129361904D01*
X148092914Y-129361904D02*
X148140533Y-129457142D01*
X148854819Y-124938094D02*
X147854819Y-124938094D01*
X147854819Y-124938094D02*
X147854819Y-124699999D01*
X147854819Y-124699999D02*
X147902438Y-124557142D01*
X147902438Y-124557142D02*
X147997676Y-124461904D01*
X147997676Y-124461904D02*
X148092914Y-124414285D01*
X148092914Y-124414285D02*
X148283390Y-124366666D01*
X148283390Y-124366666D02*
X148426247Y-124366666D01*
X148426247Y-124366666D02*
X148616723Y-124414285D01*
X148616723Y-124414285D02*
X148711961Y-124461904D01*
X148711961Y-124461904D02*
X148807200Y-124557142D01*
X148807200Y-124557142D02*
X148854819Y-124699999D01*
X148854819Y-124699999D02*
X148854819Y-124938094D01*
X147950057Y-123985713D02*
X147902438Y-123938094D01*
X147902438Y-123938094D02*
X147854819Y-123842856D01*
X147854819Y-123842856D02*
X147854819Y-123604761D01*
X147854819Y-123604761D02*
X147902438Y-123509523D01*
X147902438Y-123509523D02*
X147950057Y-123461904D01*
X147950057Y-123461904D02*
X148045295Y-123414285D01*
X148045295Y-123414285D02*
X148140533Y-123414285D01*
X148140533Y-123414285D02*
X148283390Y-123461904D01*
X148283390Y-123461904D02*
X148854819Y-124033332D01*
X148854819Y-124033332D02*
X148854819Y-123414285D01*
X129454819Y-93542857D02*
X128978628Y-93876190D01*
X129454819Y-94114285D02*
X128454819Y-94114285D01*
X128454819Y-94114285D02*
X128454819Y-93733333D01*
X128454819Y-93733333D02*
X128502438Y-93638095D01*
X128502438Y-93638095D02*
X128550057Y-93590476D01*
X128550057Y-93590476D02*
X128645295Y-93542857D01*
X128645295Y-93542857D02*
X128788152Y-93542857D01*
X128788152Y-93542857D02*
X128883390Y-93590476D01*
X128883390Y-93590476D02*
X128931009Y-93638095D01*
X128931009Y-93638095D02*
X128978628Y-93733333D01*
X128978628Y-93733333D02*
X128978628Y-94114285D01*
X129454819Y-92590476D02*
X129454819Y-93161904D01*
X129454819Y-92876190D02*
X128454819Y-92876190D01*
X128454819Y-92876190D02*
X128597676Y-92971428D01*
X128597676Y-92971428D02*
X128692914Y-93066666D01*
X128692914Y-93066666D02*
X128740533Y-93161904D01*
X129454819Y-91638095D02*
X129454819Y-92209523D01*
X129454819Y-91923809D02*
X128454819Y-91923809D01*
X128454819Y-91923809D02*
X128597676Y-92019047D01*
X128597676Y-92019047D02*
X128692914Y-92114285D01*
X128692914Y-92114285D02*
X128740533Y-92209523D01*
X138288095Y-104554819D02*
X138288095Y-105364342D01*
X138288095Y-105364342D02*
X138335714Y-105459580D01*
X138335714Y-105459580D02*
X138383333Y-105507200D01*
X138383333Y-105507200D02*
X138478571Y-105554819D01*
X138478571Y-105554819D02*
X138669047Y-105554819D01*
X138669047Y-105554819D02*
X138764285Y-105507200D01*
X138764285Y-105507200D02*
X138811904Y-105459580D01*
X138811904Y-105459580D02*
X138859523Y-105364342D01*
X138859523Y-105364342D02*
X138859523Y-104554819D01*
X139288095Y-104650057D02*
X139335714Y-104602438D01*
X139335714Y-104602438D02*
X139430952Y-104554819D01*
X139430952Y-104554819D02*
X139669047Y-104554819D01*
X139669047Y-104554819D02*
X139764285Y-104602438D01*
X139764285Y-104602438D02*
X139811904Y-104650057D01*
X139811904Y-104650057D02*
X139859523Y-104745295D01*
X139859523Y-104745295D02*
X139859523Y-104840533D01*
X139859523Y-104840533D02*
X139811904Y-104983390D01*
X139811904Y-104983390D02*
X139240476Y-105554819D01*
X139240476Y-105554819D02*
X139859523Y-105554819D01*
X154616667Y-108057200D02*
X154759524Y-108104819D01*
X154759524Y-108104819D02*
X154997619Y-108104819D01*
X154997619Y-108104819D02*
X155092857Y-108057200D01*
X155092857Y-108057200D02*
X155140476Y-108009580D01*
X155140476Y-108009580D02*
X155188095Y-107914342D01*
X155188095Y-107914342D02*
X155188095Y-107819104D01*
X155188095Y-107819104D02*
X155140476Y-107723866D01*
X155140476Y-107723866D02*
X155092857Y-107676247D01*
X155092857Y-107676247D02*
X154997619Y-107628628D01*
X154997619Y-107628628D02*
X154807143Y-107581009D01*
X154807143Y-107581009D02*
X154711905Y-107533390D01*
X154711905Y-107533390D02*
X154664286Y-107485771D01*
X154664286Y-107485771D02*
X154616667Y-107390533D01*
X154616667Y-107390533D02*
X154616667Y-107295295D01*
X154616667Y-107295295D02*
X154664286Y-107200057D01*
X154664286Y-107200057D02*
X154711905Y-107152438D01*
X154711905Y-107152438D02*
X154807143Y-107104819D01*
X154807143Y-107104819D02*
X155045238Y-107104819D01*
X155045238Y-107104819D02*
X155188095Y-107152438D01*
X155521429Y-107104819D02*
X155759524Y-108104819D01*
X155759524Y-108104819D02*
X155950000Y-107390533D01*
X155950000Y-107390533D02*
X156140476Y-108104819D01*
X156140476Y-108104819D02*
X156378572Y-107104819D01*
X156711905Y-107200057D02*
X156759524Y-107152438D01*
X156759524Y-107152438D02*
X156854762Y-107104819D01*
X156854762Y-107104819D02*
X157092857Y-107104819D01*
X157092857Y-107104819D02*
X157188095Y-107152438D01*
X157188095Y-107152438D02*
X157235714Y-107200057D01*
X157235714Y-107200057D02*
X157283333Y-107295295D01*
X157283333Y-107295295D02*
X157283333Y-107390533D01*
X157283333Y-107390533D02*
X157235714Y-107533390D01*
X157235714Y-107533390D02*
X156664286Y-108104819D01*
X156664286Y-108104819D02*
X157283333Y-108104819D01*
X133454819Y-93642857D02*
X132978628Y-93976190D01*
X133454819Y-94214285D02*
X132454819Y-94214285D01*
X132454819Y-94214285D02*
X132454819Y-93833333D01*
X132454819Y-93833333D02*
X132502438Y-93738095D01*
X132502438Y-93738095D02*
X132550057Y-93690476D01*
X132550057Y-93690476D02*
X132645295Y-93642857D01*
X132645295Y-93642857D02*
X132788152Y-93642857D01*
X132788152Y-93642857D02*
X132883390Y-93690476D01*
X132883390Y-93690476D02*
X132931009Y-93738095D01*
X132931009Y-93738095D02*
X132978628Y-93833333D01*
X132978628Y-93833333D02*
X132978628Y-94214285D01*
X133454819Y-92690476D02*
X133454819Y-93261904D01*
X133454819Y-92976190D02*
X132454819Y-92976190D01*
X132454819Y-92976190D02*
X132597676Y-93071428D01*
X132597676Y-93071428D02*
X132692914Y-93166666D01*
X132692914Y-93166666D02*
X132740533Y-93261904D01*
X132550057Y-92309523D02*
X132502438Y-92261904D01*
X132502438Y-92261904D02*
X132454819Y-92166666D01*
X132454819Y-92166666D02*
X132454819Y-91928571D01*
X132454819Y-91928571D02*
X132502438Y-91833333D01*
X132502438Y-91833333D02*
X132550057Y-91785714D01*
X132550057Y-91785714D02*
X132645295Y-91738095D01*
X132645295Y-91738095D02*
X132740533Y-91738095D01*
X132740533Y-91738095D02*
X132883390Y-91785714D01*
X132883390Y-91785714D02*
X133454819Y-92357142D01*
X133454819Y-92357142D02*
X133454819Y-91738095D01*
X136371666Y-137804819D02*
X136371666Y-138519104D01*
X136371666Y-138519104D02*
X136324047Y-138661961D01*
X136324047Y-138661961D02*
X136228809Y-138757200D01*
X136228809Y-138757200D02*
X136085952Y-138804819D01*
X136085952Y-138804819D02*
X135990714Y-138804819D01*
X137276428Y-138138152D02*
X137276428Y-138804819D01*
X137038333Y-137757200D02*
X136800238Y-138471485D01*
X136800238Y-138471485D02*
X137419285Y-138471485D01*
X163107142Y-103559580D02*
X163059523Y-103607200D01*
X163059523Y-103607200D02*
X162916666Y-103654819D01*
X162916666Y-103654819D02*
X162821428Y-103654819D01*
X162821428Y-103654819D02*
X162678571Y-103607200D01*
X162678571Y-103607200D02*
X162583333Y-103511961D01*
X162583333Y-103511961D02*
X162535714Y-103416723D01*
X162535714Y-103416723D02*
X162488095Y-103226247D01*
X162488095Y-103226247D02*
X162488095Y-103083390D01*
X162488095Y-103083390D02*
X162535714Y-102892914D01*
X162535714Y-102892914D02*
X162583333Y-102797676D01*
X162583333Y-102797676D02*
X162678571Y-102702438D01*
X162678571Y-102702438D02*
X162821428Y-102654819D01*
X162821428Y-102654819D02*
X162916666Y-102654819D01*
X162916666Y-102654819D02*
X163059523Y-102702438D01*
X163059523Y-102702438D02*
X163107142Y-102750057D01*
X164059523Y-103654819D02*
X163488095Y-103654819D01*
X163773809Y-103654819D02*
X163773809Y-102654819D01*
X163773809Y-102654819D02*
X163678571Y-102797676D01*
X163678571Y-102797676D02*
X163583333Y-102892914D01*
X163583333Y-102892914D02*
X163488095Y-102940533D01*
X164916666Y-102988152D02*
X164916666Y-103654819D01*
X164678571Y-102607200D02*
X164440476Y-103321485D01*
X164440476Y-103321485D02*
X165059523Y-103321485D01*
X129212295Y-129514285D02*
X128831342Y-129780952D01*
X129212295Y-129971428D02*
X128412295Y-129971428D01*
X128412295Y-129971428D02*
X128412295Y-129666666D01*
X128412295Y-129666666D02*
X128450390Y-129590476D01*
X128450390Y-129590476D02*
X128488485Y-129552381D01*
X128488485Y-129552381D02*
X128564676Y-129514285D01*
X128564676Y-129514285D02*
X128678961Y-129514285D01*
X128678961Y-129514285D02*
X128755152Y-129552381D01*
X128755152Y-129552381D02*
X128793247Y-129590476D01*
X128793247Y-129590476D02*
X128831342Y-129666666D01*
X128831342Y-129666666D02*
X128831342Y-129971428D01*
X129212295Y-128752381D02*
X129212295Y-129209524D01*
X129212295Y-128980952D02*
X128412295Y-128980952D01*
X128412295Y-128980952D02*
X128526580Y-129057143D01*
X128526580Y-129057143D02*
X128602771Y-129133333D01*
X128602771Y-129133333D02*
X128640866Y-129209524D01*
X128412295Y-128485714D02*
X128412295Y-127990476D01*
X128412295Y-127990476D02*
X128717057Y-128257142D01*
X128717057Y-128257142D02*
X128717057Y-128142857D01*
X128717057Y-128142857D02*
X128755152Y-128066666D01*
X128755152Y-128066666D02*
X128793247Y-128028571D01*
X128793247Y-128028571D02*
X128869438Y-127990476D01*
X128869438Y-127990476D02*
X129059914Y-127990476D01*
X129059914Y-127990476D02*
X129136104Y-128028571D01*
X129136104Y-128028571D02*
X129174200Y-128066666D01*
X129174200Y-128066666D02*
X129212295Y-128142857D01*
X129212295Y-128142857D02*
X129212295Y-128371428D01*
X129212295Y-128371428D02*
X129174200Y-128447619D01*
X129174200Y-128447619D02*
X129136104Y-128485714D01*
X141684819Y-135267857D02*
X141208628Y-135601190D01*
X141684819Y-135839285D02*
X140684819Y-135839285D01*
X140684819Y-135839285D02*
X140684819Y-135458333D01*
X140684819Y-135458333D02*
X140732438Y-135363095D01*
X140732438Y-135363095D02*
X140780057Y-135315476D01*
X140780057Y-135315476D02*
X140875295Y-135267857D01*
X140875295Y-135267857D02*
X141018152Y-135267857D01*
X141018152Y-135267857D02*
X141113390Y-135315476D01*
X141113390Y-135315476D02*
X141161009Y-135363095D01*
X141161009Y-135363095D02*
X141208628Y-135458333D01*
X141208628Y-135458333D02*
X141208628Y-135839285D01*
X141684819Y-134315476D02*
X141684819Y-134886904D01*
X141684819Y-134601190D02*
X140684819Y-134601190D01*
X140684819Y-134601190D02*
X140827676Y-134696428D01*
X140827676Y-134696428D02*
X140922914Y-134791666D01*
X140922914Y-134791666D02*
X140970533Y-134886904D01*
X140684819Y-133410714D02*
X140684819Y-133886904D01*
X140684819Y-133886904D02*
X141161009Y-133934523D01*
X141161009Y-133934523D02*
X141113390Y-133886904D01*
X141113390Y-133886904D02*
X141065771Y-133791666D01*
X141065771Y-133791666D02*
X141065771Y-133553571D01*
X141065771Y-133553571D02*
X141113390Y-133458333D01*
X141113390Y-133458333D02*
X141161009Y-133410714D01*
X141161009Y-133410714D02*
X141256247Y-133363095D01*
X141256247Y-133363095D02*
X141494342Y-133363095D01*
X141494342Y-133363095D02*
X141589580Y-133410714D01*
X141589580Y-133410714D02*
X141637200Y-133458333D01*
X141637200Y-133458333D02*
X141684819Y-133553571D01*
X141684819Y-133553571D02*
X141684819Y-133791666D01*
X141684819Y-133791666D02*
X141637200Y-133886904D01*
X141637200Y-133886904D02*
X141589580Y-133934523D01*
X137007142Y-127159580D02*
X136959523Y-127207200D01*
X136959523Y-127207200D02*
X136816666Y-127254819D01*
X136816666Y-127254819D02*
X136721428Y-127254819D01*
X136721428Y-127254819D02*
X136578571Y-127207200D01*
X136578571Y-127207200D02*
X136483333Y-127111961D01*
X136483333Y-127111961D02*
X136435714Y-127016723D01*
X136435714Y-127016723D02*
X136388095Y-126826247D01*
X136388095Y-126826247D02*
X136388095Y-126683390D01*
X136388095Y-126683390D02*
X136435714Y-126492914D01*
X136435714Y-126492914D02*
X136483333Y-126397676D01*
X136483333Y-126397676D02*
X136578571Y-126302438D01*
X136578571Y-126302438D02*
X136721428Y-126254819D01*
X136721428Y-126254819D02*
X136816666Y-126254819D01*
X136816666Y-126254819D02*
X136959523Y-126302438D01*
X136959523Y-126302438D02*
X137007142Y-126350057D01*
X137959523Y-127254819D02*
X137388095Y-127254819D01*
X137673809Y-127254819D02*
X137673809Y-126254819D01*
X137673809Y-126254819D02*
X137578571Y-126397676D01*
X137578571Y-126397676D02*
X137483333Y-126492914D01*
X137483333Y-126492914D02*
X137388095Y-126540533D01*
X138292857Y-126254819D02*
X138959523Y-126254819D01*
X138959523Y-126254819D02*
X138530952Y-127254819D01*
X164038095Y-135254819D02*
X164038095Y-136064342D01*
X164038095Y-136064342D02*
X164085714Y-136159580D01*
X164085714Y-136159580D02*
X164133333Y-136207200D01*
X164133333Y-136207200D02*
X164228571Y-136254819D01*
X164228571Y-136254819D02*
X164419047Y-136254819D01*
X164419047Y-136254819D02*
X164514285Y-136207200D01*
X164514285Y-136207200D02*
X164561904Y-136159580D01*
X164561904Y-136159580D02*
X164609523Y-136064342D01*
X164609523Y-136064342D02*
X164609523Y-135254819D01*
X164990476Y-135254819D02*
X165609523Y-135254819D01*
X165609523Y-135254819D02*
X165276190Y-135635771D01*
X165276190Y-135635771D02*
X165419047Y-135635771D01*
X165419047Y-135635771D02*
X165514285Y-135683390D01*
X165514285Y-135683390D02*
X165561904Y-135731009D01*
X165561904Y-135731009D02*
X165609523Y-135826247D01*
X165609523Y-135826247D02*
X165609523Y-136064342D01*
X165609523Y-136064342D02*
X165561904Y-136159580D01*
X165561904Y-136159580D02*
X165514285Y-136207200D01*
X165514285Y-136207200D02*
X165419047Y-136254819D01*
X165419047Y-136254819D02*
X165133333Y-136254819D01*
X165133333Y-136254819D02*
X165038095Y-136207200D01*
X165038095Y-136207200D02*
X164990476Y-136159580D01*
X146933333Y-97124819D02*
X146600000Y-96648628D01*
X146361905Y-97124819D02*
X146361905Y-96124819D01*
X146361905Y-96124819D02*
X146742857Y-96124819D01*
X146742857Y-96124819D02*
X146838095Y-96172438D01*
X146838095Y-96172438D02*
X146885714Y-96220057D01*
X146885714Y-96220057D02*
X146933333Y-96315295D01*
X146933333Y-96315295D02*
X146933333Y-96458152D01*
X146933333Y-96458152D02*
X146885714Y-96553390D01*
X146885714Y-96553390D02*
X146838095Y-96601009D01*
X146838095Y-96601009D02*
X146742857Y-96648628D01*
X146742857Y-96648628D02*
X146361905Y-96648628D01*
X147790476Y-96124819D02*
X147600000Y-96124819D01*
X147600000Y-96124819D02*
X147504762Y-96172438D01*
X147504762Y-96172438D02*
X147457143Y-96220057D01*
X147457143Y-96220057D02*
X147361905Y-96362914D01*
X147361905Y-96362914D02*
X147314286Y-96553390D01*
X147314286Y-96553390D02*
X147314286Y-96934342D01*
X147314286Y-96934342D02*
X147361905Y-97029580D01*
X147361905Y-97029580D02*
X147409524Y-97077200D01*
X147409524Y-97077200D02*
X147504762Y-97124819D01*
X147504762Y-97124819D02*
X147695238Y-97124819D01*
X147695238Y-97124819D02*
X147790476Y-97077200D01*
X147790476Y-97077200D02*
X147838095Y-97029580D01*
X147838095Y-97029580D02*
X147885714Y-96934342D01*
X147885714Y-96934342D02*
X147885714Y-96696247D01*
X147885714Y-96696247D02*
X147838095Y-96601009D01*
X147838095Y-96601009D02*
X147790476Y-96553390D01*
X147790476Y-96553390D02*
X147695238Y-96505771D01*
X147695238Y-96505771D02*
X147504762Y-96505771D01*
X147504762Y-96505771D02*
X147409524Y-96553390D01*
X147409524Y-96553390D02*
X147361905Y-96601009D01*
X147361905Y-96601009D02*
X147314286Y-96696247D01*
X146908333Y-94624819D02*
X146575000Y-94148628D01*
X146336905Y-94624819D02*
X146336905Y-93624819D01*
X146336905Y-93624819D02*
X146717857Y-93624819D01*
X146717857Y-93624819D02*
X146813095Y-93672438D01*
X146813095Y-93672438D02*
X146860714Y-93720057D01*
X146860714Y-93720057D02*
X146908333Y-93815295D01*
X146908333Y-93815295D02*
X146908333Y-93958152D01*
X146908333Y-93958152D02*
X146860714Y-94053390D01*
X146860714Y-94053390D02*
X146813095Y-94101009D01*
X146813095Y-94101009D02*
X146717857Y-94148628D01*
X146717857Y-94148628D02*
X146336905Y-94148628D01*
X147241667Y-93624819D02*
X147908333Y-93624819D01*
X147908333Y-93624819D02*
X147479762Y-94624819D01*
X161954819Y-125550594D02*
X160954819Y-125550594D01*
X160954819Y-125550594D02*
X160954819Y-125312499D01*
X160954819Y-125312499D02*
X161002438Y-125169642D01*
X161002438Y-125169642D02*
X161097676Y-125074404D01*
X161097676Y-125074404D02*
X161192914Y-125026785D01*
X161192914Y-125026785D02*
X161383390Y-124979166D01*
X161383390Y-124979166D02*
X161526247Y-124979166D01*
X161526247Y-124979166D02*
X161716723Y-125026785D01*
X161716723Y-125026785D02*
X161811961Y-125074404D01*
X161811961Y-125074404D02*
X161907200Y-125169642D01*
X161907200Y-125169642D02*
X161954819Y-125312499D01*
X161954819Y-125312499D02*
X161954819Y-125550594D01*
X161288152Y-124122023D02*
X161954819Y-124122023D01*
X160907200Y-124360118D02*
X161621485Y-124598213D01*
X161621485Y-124598213D02*
X161621485Y-123979166D01*
X122557142Y-119259580D02*
X122509523Y-119307200D01*
X122509523Y-119307200D02*
X122366666Y-119354819D01*
X122366666Y-119354819D02*
X122271428Y-119354819D01*
X122271428Y-119354819D02*
X122128571Y-119307200D01*
X122128571Y-119307200D02*
X122033333Y-119211961D01*
X122033333Y-119211961D02*
X121985714Y-119116723D01*
X121985714Y-119116723D02*
X121938095Y-118926247D01*
X121938095Y-118926247D02*
X121938095Y-118783390D01*
X121938095Y-118783390D02*
X121985714Y-118592914D01*
X121985714Y-118592914D02*
X122033333Y-118497676D01*
X122033333Y-118497676D02*
X122128571Y-118402438D01*
X122128571Y-118402438D02*
X122271428Y-118354819D01*
X122271428Y-118354819D02*
X122366666Y-118354819D01*
X122366666Y-118354819D02*
X122509523Y-118402438D01*
X122509523Y-118402438D02*
X122557142Y-118450057D01*
X123509523Y-119354819D02*
X122938095Y-119354819D01*
X123223809Y-119354819D02*
X123223809Y-118354819D01*
X123223809Y-118354819D02*
X123128571Y-118497676D01*
X123128571Y-118497676D02*
X123033333Y-118592914D01*
X123033333Y-118592914D02*
X122938095Y-118640533D01*
X124128571Y-118354819D02*
X124223809Y-118354819D01*
X124223809Y-118354819D02*
X124319047Y-118402438D01*
X124319047Y-118402438D02*
X124366666Y-118450057D01*
X124366666Y-118450057D02*
X124414285Y-118545295D01*
X124414285Y-118545295D02*
X124461904Y-118735771D01*
X124461904Y-118735771D02*
X124461904Y-118973866D01*
X124461904Y-118973866D02*
X124414285Y-119164342D01*
X124414285Y-119164342D02*
X124366666Y-119259580D01*
X124366666Y-119259580D02*
X124319047Y-119307200D01*
X124319047Y-119307200D02*
X124223809Y-119354819D01*
X124223809Y-119354819D02*
X124128571Y-119354819D01*
X124128571Y-119354819D02*
X124033333Y-119307200D01*
X124033333Y-119307200D02*
X123985714Y-119259580D01*
X123985714Y-119259580D02*
X123938095Y-119164342D01*
X123938095Y-119164342D02*
X123890476Y-118973866D01*
X123890476Y-118973866D02*
X123890476Y-118735771D01*
X123890476Y-118735771D02*
X123938095Y-118545295D01*
X123938095Y-118545295D02*
X123985714Y-118450057D01*
X123985714Y-118450057D02*
X124033333Y-118402438D01*
X124033333Y-118402438D02*
X124128571Y-118354819D01*
X118238095Y-139254819D02*
X118238095Y-138254819D01*
X118238095Y-138731009D02*
X118809523Y-138731009D01*
X118809523Y-139254819D02*
X118809523Y-138254819D01*
X119809523Y-139254819D02*
X119238095Y-139254819D01*
X119523809Y-139254819D02*
X119523809Y-138254819D01*
X119523809Y-138254819D02*
X119428571Y-138397676D01*
X119428571Y-138397676D02*
X119333333Y-138492914D01*
X119333333Y-138492914D02*
X119238095Y-138540533D01*
X125633333Y-119554819D02*
X125157143Y-119554819D01*
X125157143Y-119554819D02*
X125157143Y-118554819D01*
X126490476Y-119554819D02*
X125919048Y-119554819D01*
X126204762Y-119554819D02*
X126204762Y-118554819D01*
X126204762Y-118554819D02*
X126109524Y-118697676D01*
X126109524Y-118697676D02*
X126014286Y-118792914D01*
X126014286Y-118792914D02*
X125919048Y-118840533D01*
X146908333Y-92024819D02*
X146575000Y-91548628D01*
X146336905Y-92024819D02*
X146336905Y-91024819D01*
X146336905Y-91024819D02*
X146717857Y-91024819D01*
X146717857Y-91024819D02*
X146813095Y-91072438D01*
X146813095Y-91072438D02*
X146860714Y-91120057D01*
X146860714Y-91120057D02*
X146908333Y-91215295D01*
X146908333Y-91215295D02*
X146908333Y-91358152D01*
X146908333Y-91358152D02*
X146860714Y-91453390D01*
X146860714Y-91453390D02*
X146813095Y-91501009D01*
X146813095Y-91501009D02*
X146717857Y-91548628D01*
X146717857Y-91548628D02*
X146336905Y-91548628D01*
X147479762Y-91453390D02*
X147384524Y-91405771D01*
X147384524Y-91405771D02*
X147336905Y-91358152D01*
X147336905Y-91358152D02*
X147289286Y-91262914D01*
X147289286Y-91262914D02*
X147289286Y-91215295D01*
X147289286Y-91215295D02*
X147336905Y-91120057D01*
X147336905Y-91120057D02*
X147384524Y-91072438D01*
X147384524Y-91072438D02*
X147479762Y-91024819D01*
X147479762Y-91024819D02*
X147670238Y-91024819D01*
X147670238Y-91024819D02*
X147765476Y-91072438D01*
X147765476Y-91072438D02*
X147813095Y-91120057D01*
X147813095Y-91120057D02*
X147860714Y-91215295D01*
X147860714Y-91215295D02*
X147860714Y-91262914D01*
X147860714Y-91262914D02*
X147813095Y-91358152D01*
X147813095Y-91358152D02*
X147765476Y-91405771D01*
X147765476Y-91405771D02*
X147670238Y-91453390D01*
X147670238Y-91453390D02*
X147479762Y-91453390D01*
X147479762Y-91453390D02*
X147384524Y-91501009D01*
X147384524Y-91501009D02*
X147336905Y-91548628D01*
X147336905Y-91548628D02*
X147289286Y-91643866D01*
X147289286Y-91643866D02*
X147289286Y-91834342D01*
X147289286Y-91834342D02*
X147336905Y-91929580D01*
X147336905Y-91929580D02*
X147384524Y-91977200D01*
X147384524Y-91977200D02*
X147479762Y-92024819D01*
X147479762Y-92024819D02*
X147670238Y-92024819D01*
X147670238Y-92024819D02*
X147765476Y-91977200D01*
X147765476Y-91977200D02*
X147813095Y-91929580D01*
X147813095Y-91929580D02*
X147860714Y-91834342D01*
X147860714Y-91834342D02*
X147860714Y-91643866D01*
X147860714Y-91643866D02*
X147813095Y-91548628D01*
X147813095Y-91548628D02*
X147765476Y-91501009D01*
X147765476Y-91501009D02*
X147670238Y-91453390D01*
X161929819Y-113583333D02*
X162644104Y-113583333D01*
X162644104Y-113583333D02*
X162786961Y-113630952D01*
X162786961Y-113630952D02*
X162882200Y-113726190D01*
X162882200Y-113726190D02*
X162929819Y-113869047D01*
X162929819Y-113869047D02*
X162929819Y-113964285D01*
X162025057Y-113154761D02*
X161977438Y-113107142D01*
X161977438Y-113107142D02*
X161929819Y-113011904D01*
X161929819Y-113011904D02*
X161929819Y-112773809D01*
X161929819Y-112773809D02*
X161977438Y-112678571D01*
X161977438Y-112678571D02*
X162025057Y-112630952D01*
X162025057Y-112630952D02*
X162120295Y-112583333D01*
X162120295Y-112583333D02*
X162215533Y-112583333D01*
X162215533Y-112583333D02*
X162358390Y-112630952D01*
X162358390Y-112630952D02*
X162929819Y-113202380D01*
X162929819Y-113202380D02*
X162929819Y-112583333D01*
X139557142Y-99559580D02*
X139509523Y-99607200D01*
X139509523Y-99607200D02*
X139366666Y-99654819D01*
X139366666Y-99654819D02*
X139271428Y-99654819D01*
X139271428Y-99654819D02*
X139128571Y-99607200D01*
X139128571Y-99607200D02*
X139033333Y-99511961D01*
X139033333Y-99511961D02*
X138985714Y-99416723D01*
X138985714Y-99416723D02*
X138938095Y-99226247D01*
X138938095Y-99226247D02*
X138938095Y-99083390D01*
X138938095Y-99083390D02*
X138985714Y-98892914D01*
X138985714Y-98892914D02*
X139033333Y-98797676D01*
X139033333Y-98797676D02*
X139128571Y-98702438D01*
X139128571Y-98702438D02*
X139271428Y-98654819D01*
X139271428Y-98654819D02*
X139366666Y-98654819D01*
X139366666Y-98654819D02*
X139509523Y-98702438D01*
X139509523Y-98702438D02*
X139557142Y-98750057D01*
X140509523Y-99654819D02*
X139938095Y-99654819D01*
X140223809Y-99654819D02*
X140223809Y-98654819D01*
X140223809Y-98654819D02*
X140128571Y-98797676D01*
X140128571Y-98797676D02*
X140033333Y-98892914D01*
X140033333Y-98892914D02*
X139938095Y-98940533D01*
X140890476Y-98750057D02*
X140938095Y-98702438D01*
X140938095Y-98702438D02*
X141033333Y-98654819D01*
X141033333Y-98654819D02*
X141271428Y-98654819D01*
X141271428Y-98654819D02*
X141366666Y-98702438D01*
X141366666Y-98702438D02*
X141414285Y-98750057D01*
X141414285Y-98750057D02*
X141461904Y-98845295D01*
X141461904Y-98845295D02*
X141461904Y-98940533D01*
X141461904Y-98940533D02*
X141414285Y-99083390D01*
X141414285Y-99083390D02*
X140842857Y-99654819D01*
X140842857Y-99654819D02*
X141461904Y-99654819D01*
X159959580Y-138542857D02*
X160007200Y-138590476D01*
X160007200Y-138590476D02*
X160054819Y-138733333D01*
X160054819Y-138733333D02*
X160054819Y-138828571D01*
X160054819Y-138828571D02*
X160007200Y-138971428D01*
X160007200Y-138971428D02*
X159911961Y-139066666D01*
X159911961Y-139066666D02*
X159816723Y-139114285D01*
X159816723Y-139114285D02*
X159626247Y-139161904D01*
X159626247Y-139161904D02*
X159483390Y-139161904D01*
X159483390Y-139161904D02*
X159292914Y-139114285D01*
X159292914Y-139114285D02*
X159197676Y-139066666D01*
X159197676Y-139066666D02*
X159102438Y-138971428D01*
X159102438Y-138971428D02*
X159054819Y-138828571D01*
X159054819Y-138828571D02*
X159054819Y-138733333D01*
X159054819Y-138733333D02*
X159102438Y-138590476D01*
X159102438Y-138590476D02*
X159150057Y-138542857D01*
X160054819Y-137590476D02*
X160054819Y-138161904D01*
X160054819Y-137876190D02*
X159054819Y-137876190D01*
X159054819Y-137876190D02*
X159197676Y-137971428D01*
X159197676Y-137971428D02*
X159292914Y-138066666D01*
X159292914Y-138066666D02*
X159340533Y-138161904D01*
X159054819Y-136685714D02*
X159054819Y-137161904D01*
X159054819Y-137161904D02*
X159531009Y-137209523D01*
X159531009Y-137209523D02*
X159483390Y-137161904D01*
X159483390Y-137161904D02*
X159435771Y-137066666D01*
X159435771Y-137066666D02*
X159435771Y-136828571D01*
X159435771Y-136828571D02*
X159483390Y-136733333D01*
X159483390Y-136733333D02*
X159531009Y-136685714D01*
X159531009Y-136685714D02*
X159626247Y-136638095D01*
X159626247Y-136638095D02*
X159864342Y-136638095D01*
X159864342Y-136638095D02*
X159959580Y-136685714D01*
X159959580Y-136685714D02*
X160007200Y-136733333D01*
X160007200Y-136733333D02*
X160054819Y-136828571D01*
X160054819Y-136828571D02*
X160054819Y-137066666D01*
X160054819Y-137066666D02*
X160007200Y-137161904D01*
X160007200Y-137161904D02*
X159959580Y-137209523D01*
X131561666Y-89404819D02*
X131561666Y-90119104D01*
X131561666Y-90119104D02*
X131514047Y-90261961D01*
X131514047Y-90261961D02*
X131418809Y-90357200D01*
X131418809Y-90357200D02*
X131275952Y-90404819D01*
X131275952Y-90404819D02*
X131180714Y-90404819D01*
X131942619Y-89404819D02*
X132561666Y-89404819D01*
X132561666Y-89404819D02*
X132228333Y-89785771D01*
X132228333Y-89785771D02*
X132371190Y-89785771D01*
X132371190Y-89785771D02*
X132466428Y-89833390D01*
X132466428Y-89833390D02*
X132514047Y-89881009D01*
X132514047Y-89881009D02*
X132561666Y-89976247D01*
X132561666Y-89976247D02*
X132561666Y-90214342D01*
X132561666Y-90214342D02*
X132514047Y-90309580D01*
X132514047Y-90309580D02*
X132466428Y-90357200D01*
X132466428Y-90357200D02*
X132371190Y-90404819D01*
X132371190Y-90404819D02*
X132085476Y-90404819D01*
X132085476Y-90404819D02*
X131990238Y-90357200D01*
X131990238Y-90357200D02*
X131942619Y-90309580D01*
X148731009Y-134633333D02*
X148731009Y-134966666D01*
X149254819Y-134966666D02*
X148254819Y-134966666D01*
X148254819Y-134966666D02*
X148254819Y-134490476D01*
X148731009Y-133776190D02*
X148778628Y-133633333D01*
X148778628Y-133633333D02*
X148826247Y-133585714D01*
X148826247Y-133585714D02*
X148921485Y-133538095D01*
X148921485Y-133538095D02*
X149064342Y-133538095D01*
X149064342Y-133538095D02*
X149159580Y-133585714D01*
X149159580Y-133585714D02*
X149207200Y-133633333D01*
X149207200Y-133633333D02*
X149254819Y-133728571D01*
X149254819Y-133728571D02*
X149254819Y-134109523D01*
X149254819Y-134109523D02*
X148254819Y-134109523D01*
X148254819Y-134109523D02*
X148254819Y-133776190D01*
X148254819Y-133776190D02*
X148302438Y-133680952D01*
X148302438Y-133680952D02*
X148350057Y-133633333D01*
X148350057Y-133633333D02*
X148445295Y-133585714D01*
X148445295Y-133585714D02*
X148540533Y-133585714D01*
X148540533Y-133585714D02*
X148635771Y-133633333D01*
X148635771Y-133633333D02*
X148683390Y-133680952D01*
X148683390Y-133680952D02*
X148731009Y-133776190D01*
X148731009Y-133776190D02*
X148731009Y-134109523D01*
X149254819Y-132585714D02*
X149254819Y-133157142D01*
X149254819Y-132871428D02*
X148254819Y-132871428D01*
X148254819Y-132871428D02*
X148397676Y-132966666D01*
X148397676Y-132966666D02*
X148492914Y-133061904D01*
X148492914Y-133061904D02*
X148540533Y-133157142D01*
X155866666Y-97359819D02*
X155866666Y-98074104D01*
X155866666Y-98074104D02*
X155819047Y-98216961D01*
X155819047Y-98216961D02*
X155723809Y-98312200D01*
X155723809Y-98312200D02*
X155580952Y-98359819D01*
X155580952Y-98359819D02*
X155485714Y-98359819D01*
X156866666Y-98359819D02*
X156295238Y-98359819D01*
X156580952Y-98359819D02*
X156580952Y-97359819D01*
X156580952Y-97359819D02*
X156485714Y-97502676D01*
X156485714Y-97502676D02*
X156390476Y-97597914D01*
X156390476Y-97597914D02*
X156295238Y-97645533D01*
X125133333Y-110459580D02*
X125085714Y-110507200D01*
X125085714Y-110507200D02*
X124942857Y-110554819D01*
X124942857Y-110554819D02*
X124847619Y-110554819D01*
X124847619Y-110554819D02*
X124704762Y-110507200D01*
X124704762Y-110507200D02*
X124609524Y-110411961D01*
X124609524Y-110411961D02*
X124561905Y-110316723D01*
X124561905Y-110316723D02*
X124514286Y-110126247D01*
X124514286Y-110126247D02*
X124514286Y-109983390D01*
X124514286Y-109983390D02*
X124561905Y-109792914D01*
X124561905Y-109792914D02*
X124609524Y-109697676D01*
X124609524Y-109697676D02*
X124704762Y-109602438D01*
X124704762Y-109602438D02*
X124847619Y-109554819D01*
X124847619Y-109554819D02*
X124942857Y-109554819D01*
X124942857Y-109554819D02*
X125085714Y-109602438D01*
X125085714Y-109602438D02*
X125133333Y-109650057D01*
X125704762Y-109983390D02*
X125609524Y-109935771D01*
X125609524Y-109935771D02*
X125561905Y-109888152D01*
X125561905Y-109888152D02*
X125514286Y-109792914D01*
X125514286Y-109792914D02*
X125514286Y-109745295D01*
X125514286Y-109745295D02*
X125561905Y-109650057D01*
X125561905Y-109650057D02*
X125609524Y-109602438D01*
X125609524Y-109602438D02*
X125704762Y-109554819D01*
X125704762Y-109554819D02*
X125895238Y-109554819D01*
X125895238Y-109554819D02*
X125990476Y-109602438D01*
X125990476Y-109602438D02*
X126038095Y-109650057D01*
X126038095Y-109650057D02*
X126085714Y-109745295D01*
X126085714Y-109745295D02*
X126085714Y-109792914D01*
X126085714Y-109792914D02*
X126038095Y-109888152D01*
X126038095Y-109888152D02*
X125990476Y-109935771D01*
X125990476Y-109935771D02*
X125895238Y-109983390D01*
X125895238Y-109983390D02*
X125704762Y-109983390D01*
X125704762Y-109983390D02*
X125609524Y-110031009D01*
X125609524Y-110031009D02*
X125561905Y-110078628D01*
X125561905Y-110078628D02*
X125514286Y-110173866D01*
X125514286Y-110173866D02*
X125514286Y-110364342D01*
X125514286Y-110364342D02*
X125561905Y-110459580D01*
X125561905Y-110459580D02*
X125609524Y-110507200D01*
X125609524Y-110507200D02*
X125704762Y-110554819D01*
X125704762Y-110554819D02*
X125895238Y-110554819D01*
X125895238Y-110554819D02*
X125990476Y-110507200D01*
X125990476Y-110507200D02*
X126038095Y-110459580D01*
X126038095Y-110459580D02*
X126085714Y-110364342D01*
X126085714Y-110364342D02*
X126085714Y-110173866D01*
X126085714Y-110173866D02*
X126038095Y-110078628D01*
X126038095Y-110078628D02*
X125990476Y-110031009D01*
X125990476Y-110031009D02*
X125895238Y-109983390D01*
X157309580Y-123242857D02*
X157357200Y-123290476D01*
X157357200Y-123290476D02*
X157404819Y-123433333D01*
X157404819Y-123433333D02*
X157404819Y-123528571D01*
X157404819Y-123528571D02*
X157357200Y-123671428D01*
X157357200Y-123671428D02*
X157261961Y-123766666D01*
X157261961Y-123766666D02*
X157166723Y-123814285D01*
X157166723Y-123814285D02*
X156976247Y-123861904D01*
X156976247Y-123861904D02*
X156833390Y-123861904D01*
X156833390Y-123861904D02*
X156642914Y-123814285D01*
X156642914Y-123814285D02*
X156547676Y-123766666D01*
X156547676Y-123766666D02*
X156452438Y-123671428D01*
X156452438Y-123671428D02*
X156404819Y-123528571D01*
X156404819Y-123528571D02*
X156404819Y-123433333D01*
X156404819Y-123433333D02*
X156452438Y-123290476D01*
X156452438Y-123290476D02*
X156500057Y-123242857D01*
X157404819Y-122290476D02*
X157404819Y-122861904D01*
X157404819Y-122576190D02*
X156404819Y-122576190D01*
X156404819Y-122576190D02*
X156547676Y-122671428D01*
X156547676Y-122671428D02*
X156642914Y-122766666D01*
X156642914Y-122766666D02*
X156690533Y-122861904D01*
X156404819Y-121433333D02*
X156404819Y-121623809D01*
X156404819Y-121623809D02*
X156452438Y-121719047D01*
X156452438Y-121719047D02*
X156500057Y-121766666D01*
X156500057Y-121766666D02*
X156642914Y-121861904D01*
X156642914Y-121861904D02*
X156833390Y-121909523D01*
X156833390Y-121909523D02*
X157214342Y-121909523D01*
X157214342Y-121909523D02*
X157309580Y-121861904D01*
X157309580Y-121861904D02*
X157357200Y-121814285D01*
X157357200Y-121814285D02*
X157404819Y-121719047D01*
X157404819Y-121719047D02*
X157404819Y-121528571D01*
X157404819Y-121528571D02*
X157357200Y-121433333D01*
X157357200Y-121433333D02*
X157309580Y-121385714D01*
X157309580Y-121385714D02*
X157214342Y-121338095D01*
X157214342Y-121338095D02*
X156976247Y-121338095D01*
X156976247Y-121338095D02*
X156881009Y-121385714D01*
X156881009Y-121385714D02*
X156833390Y-121433333D01*
X156833390Y-121433333D02*
X156785771Y-121528571D01*
X156785771Y-121528571D02*
X156785771Y-121719047D01*
X156785771Y-121719047D02*
X156833390Y-121814285D01*
X156833390Y-121814285D02*
X156881009Y-121861904D01*
X156881009Y-121861904D02*
X156976247Y-121909523D01*
X162024819Y-122042857D02*
X161548628Y-122376190D01*
X162024819Y-122614285D02*
X161024819Y-122614285D01*
X161024819Y-122614285D02*
X161024819Y-122233333D01*
X161024819Y-122233333D02*
X161072438Y-122138095D01*
X161072438Y-122138095D02*
X161120057Y-122090476D01*
X161120057Y-122090476D02*
X161215295Y-122042857D01*
X161215295Y-122042857D02*
X161358152Y-122042857D01*
X161358152Y-122042857D02*
X161453390Y-122090476D01*
X161453390Y-122090476D02*
X161501009Y-122138095D01*
X161501009Y-122138095D02*
X161548628Y-122233333D01*
X161548628Y-122233333D02*
X161548628Y-122614285D01*
X162024819Y-121090476D02*
X162024819Y-121661904D01*
X162024819Y-121376190D02*
X161024819Y-121376190D01*
X161024819Y-121376190D02*
X161167676Y-121471428D01*
X161167676Y-121471428D02*
X161262914Y-121566666D01*
X161262914Y-121566666D02*
X161310533Y-121661904D01*
X161358152Y-120233333D02*
X162024819Y-120233333D01*
X160977200Y-120471428D02*
X161691485Y-120709523D01*
X161691485Y-120709523D02*
X161691485Y-120090476D01*
X140133333Y-127159580D02*
X140085714Y-127207200D01*
X140085714Y-127207200D02*
X139942857Y-127254819D01*
X139942857Y-127254819D02*
X139847619Y-127254819D01*
X139847619Y-127254819D02*
X139704762Y-127207200D01*
X139704762Y-127207200D02*
X139609524Y-127111961D01*
X139609524Y-127111961D02*
X139561905Y-127016723D01*
X139561905Y-127016723D02*
X139514286Y-126826247D01*
X139514286Y-126826247D02*
X139514286Y-126683390D01*
X139514286Y-126683390D02*
X139561905Y-126492914D01*
X139561905Y-126492914D02*
X139609524Y-126397676D01*
X139609524Y-126397676D02*
X139704762Y-126302438D01*
X139704762Y-126302438D02*
X139847619Y-126254819D01*
X139847619Y-126254819D02*
X139942857Y-126254819D01*
X139942857Y-126254819D02*
X140085714Y-126302438D01*
X140085714Y-126302438D02*
X140133333Y-126350057D01*
X141038095Y-126254819D02*
X140561905Y-126254819D01*
X140561905Y-126254819D02*
X140514286Y-126731009D01*
X140514286Y-126731009D02*
X140561905Y-126683390D01*
X140561905Y-126683390D02*
X140657143Y-126635771D01*
X140657143Y-126635771D02*
X140895238Y-126635771D01*
X140895238Y-126635771D02*
X140990476Y-126683390D01*
X140990476Y-126683390D02*
X141038095Y-126731009D01*
X141038095Y-126731009D02*
X141085714Y-126826247D01*
X141085714Y-126826247D02*
X141085714Y-127064342D01*
X141085714Y-127064342D02*
X141038095Y-127159580D01*
X141038095Y-127159580D02*
X140990476Y-127207200D01*
X140990476Y-127207200D02*
X140895238Y-127254819D01*
X140895238Y-127254819D02*
X140657143Y-127254819D01*
X140657143Y-127254819D02*
X140561905Y-127207200D01*
X140561905Y-127207200D02*
X140514286Y-127159580D01*
X121089580Y-112366666D02*
X121137200Y-112414285D01*
X121137200Y-112414285D02*
X121184819Y-112557142D01*
X121184819Y-112557142D02*
X121184819Y-112652380D01*
X121184819Y-112652380D02*
X121137200Y-112795237D01*
X121137200Y-112795237D02*
X121041961Y-112890475D01*
X121041961Y-112890475D02*
X120946723Y-112938094D01*
X120946723Y-112938094D02*
X120756247Y-112985713D01*
X120756247Y-112985713D02*
X120613390Y-112985713D01*
X120613390Y-112985713D02*
X120422914Y-112938094D01*
X120422914Y-112938094D02*
X120327676Y-112890475D01*
X120327676Y-112890475D02*
X120232438Y-112795237D01*
X120232438Y-112795237D02*
X120184819Y-112652380D01*
X120184819Y-112652380D02*
X120184819Y-112557142D01*
X120184819Y-112557142D02*
X120232438Y-112414285D01*
X120232438Y-112414285D02*
X120280057Y-112366666D01*
X121184819Y-111890475D02*
X121184819Y-111699999D01*
X121184819Y-111699999D02*
X121137200Y-111604761D01*
X121137200Y-111604761D02*
X121089580Y-111557142D01*
X121089580Y-111557142D02*
X120946723Y-111461904D01*
X120946723Y-111461904D02*
X120756247Y-111414285D01*
X120756247Y-111414285D02*
X120375295Y-111414285D01*
X120375295Y-111414285D02*
X120280057Y-111461904D01*
X120280057Y-111461904D02*
X120232438Y-111509523D01*
X120232438Y-111509523D02*
X120184819Y-111604761D01*
X120184819Y-111604761D02*
X120184819Y-111795237D01*
X120184819Y-111795237D02*
X120232438Y-111890475D01*
X120232438Y-111890475D02*
X120280057Y-111938094D01*
X120280057Y-111938094D02*
X120375295Y-111985713D01*
X120375295Y-111985713D02*
X120613390Y-111985713D01*
X120613390Y-111985713D02*
X120708628Y-111938094D01*
X120708628Y-111938094D02*
X120756247Y-111890475D01*
X120756247Y-111890475D02*
X120803866Y-111795237D01*
X120803866Y-111795237D02*
X120803866Y-111604761D01*
X120803866Y-111604761D02*
X120756247Y-111509523D01*
X120756247Y-111509523D02*
X120708628Y-111461904D01*
X120708628Y-111461904D02*
X120613390Y-111414285D01*
X126262295Y-126290475D02*
X125462295Y-126290475D01*
X125462295Y-126290475D02*
X125462295Y-126099999D01*
X125462295Y-126099999D02*
X125500390Y-125985713D01*
X125500390Y-125985713D02*
X125576580Y-125909523D01*
X125576580Y-125909523D02*
X125652771Y-125871428D01*
X125652771Y-125871428D02*
X125805152Y-125833332D01*
X125805152Y-125833332D02*
X125919438Y-125833332D01*
X125919438Y-125833332D02*
X126071819Y-125871428D01*
X126071819Y-125871428D02*
X126148009Y-125909523D01*
X126148009Y-125909523D02*
X126224200Y-125985713D01*
X126224200Y-125985713D02*
X126262295Y-126099999D01*
X126262295Y-126099999D02*
X126262295Y-126290475D01*
X125462295Y-125566666D02*
X125462295Y-125071428D01*
X125462295Y-125071428D02*
X125767057Y-125338094D01*
X125767057Y-125338094D02*
X125767057Y-125223809D01*
X125767057Y-125223809D02*
X125805152Y-125147618D01*
X125805152Y-125147618D02*
X125843247Y-125109523D01*
X125843247Y-125109523D02*
X125919438Y-125071428D01*
X125919438Y-125071428D02*
X126109914Y-125071428D01*
X126109914Y-125071428D02*
X126186104Y-125109523D01*
X126186104Y-125109523D02*
X126224200Y-125147618D01*
X126224200Y-125147618D02*
X126262295Y-125223809D01*
X126262295Y-125223809D02*
X126262295Y-125452380D01*
X126262295Y-125452380D02*
X126224200Y-125528571D01*
X126224200Y-125528571D02*
X126186104Y-125566666D01*
X124283333Y-105459580D02*
X124235714Y-105507200D01*
X124235714Y-105507200D02*
X124092857Y-105554819D01*
X124092857Y-105554819D02*
X123997619Y-105554819D01*
X123997619Y-105554819D02*
X123854762Y-105507200D01*
X123854762Y-105507200D02*
X123759524Y-105411961D01*
X123759524Y-105411961D02*
X123711905Y-105316723D01*
X123711905Y-105316723D02*
X123664286Y-105126247D01*
X123664286Y-105126247D02*
X123664286Y-104983390D01*
X123664286Y-104983390D02*
X123711905Y-104792914D01*
X123711905Y-104792914D02*
X123759524Y-104697676D01*
X123759524Y-104697676D02*
X123854762Y-104602438D01*
X123854762Y-104602438D02*
X123997619Y-104554819D01*
X123997619Y-104554819D02*
X124092857Y-104554819D01*
X124092857Y-104554819D02*
X124235714Y-104602438D01*
X124235714Y-104602438D02*
X124283333Y-104650057D01*
X125235714Y-105554819D02*
X124664286Y-105554819D01*
X124950000Y-105554819D02*
X124950000Y-104554819D01*
X124950000Y-104554819D02*
X124854762Y-104697676D01*
X124854762Y-104697676D02*
X124759524Y-104792914D01*
X124759524Y-104792914D02*
X124664286Y-104840533D01*
X146758333Y-89654819D02*
X146425000Y-89178628D01*
X146186905Y-89654819D02*
X146186905Y-88654819D01*
X146186905Y-88654819D02*
X146567857Y-88654819D01*
X146567857Y-88654819D02*
X146663095Y-88702438D01*
X146663095Y-88702438D02*
X146710714Y-88750057D01*
X146710714Y-88750057D02*
X146758333Y-88845295D01*
X146758333Y-88845295D02*
X146758333Y-88988152D01*
X146758333Y-88988152D02*
X146710714Y-89083390D01*
X146710714Y-89083390D02*
X146663095Y-89131009D01*
X146663095Y-89131009D02*
X146567857Y-89178628D01*
X146567857Y-89178628D02*
X146186905Y-89178628D01*
X147234524Y-89654819D02*
X147425000Y-89654819D01*
X147425000Y-89654819D02*
X147520238Y-89607200D01*
X147520238Y-89607200D02*
X147567857Y-89559580D01*
X147567857Y-89559580D02*
X147663095Y-89416723D01*
X147663095Y-89416723D02*
X147710714Y-89226247D01*
X147710714Y-89226247D02*
X147710714Y-88845295D01*
X147710714Y-88845295D02*
X147663095Y-88750057D01*
X147663095Y-88750057D02*
X147615476Y-88702438D01*
X147615476Y-88702438D02*
X147520238Y-88654819D01*
X147520238Y-88654819D02*
X147329762Y-88654819D01*
X147329762Y-88654819D02*
X147234524Y-88702438D01*
X147234524Y-88702438D02*
X147186905Y-88750057D01*
X147186905Y-88750057D02*
X147139286Y-88845295D01*
X147139286Y-88845295D02*
X147139286Y-89083390D01*
X147139286Y-89083390D02*
X147186905Y-89178628D01*
X147186905Y-89178628D02*
X147234524Y-89226247D01*
X147234524Y-89226247D02*
X147329762Y-89273866D01*
X147329762Y-89273866D02*
X147520238Y-89273866D01*
X147520238Y-89273866D02*
X147615476Y-89226247D01*
X147615476Y-89226247D02*
X147663095Y-89178628D01*
X147663095Y-89178628D02*
X147710714Y-89083390D01*
X129308557Y-126190475D02*
X128408557Y-126190475D01*
X128408557Y-126190475D02*
X128408557Y-125999999D01*
X128408557Y-125999999D02*
X128451414Y-125885713D01*
X128451414Y-125885713D02*
X128537128Y-125809523D01*
X128537128Y-125809523D02*
X128622842Y-125771428D01*
X128622842Y-125771428D02*
X128794271Y-125733332D01*
X128794271Y-125733332D02*
X128922842Y-125733332D01*
X128922842Y-125733332D02*
X129094271Y-125771428D01*
X129094271Y-125771428D02*
X129179985Y-125809523D01*
X129179985Y-125809523D02*
X129265700Y-125885713D01*
X129265700Y-125885713D02*
X129308557Y-125999999D01*
X129308557Y-125999999D02*
X129308557Y-126190475D01*
X128408557Y-125009523D02*
X128408557Y-125390475D01*
X128408557Y-125390475D02*
X128837128Y-125428571D01*
X128837128Y-125428571D02*
X128794271Y-125390475D01*
X128794271Y-125390475D02*
X128751414Y-125314285D01*
X128751414Y-125314285D02*
X128751414Y-125123809D01*
X128751414Y-125123809D02*
X128794271Y-125047618D01*
X128794271Y-125047618D02*
X128837128Y-125009523D01*
X128837128Y-125009523D02*
X128922842Y-124971428D01*
X128922842Y-124971428D02*
X129137128Y-124971428D01*
X129137128Y-124971428D02*
X129222842Y-125009523D01*
X129222842Y-125009523D02*
X129265700Y-125047618D01*
X129265700Y-125047618D02*
X129308557Y-125123809D01*
X129308557Y-125123809D02*
X129308557Y-125314285D01*
X129308557Y-125314285D02*
X129265700Y-125390475D01*
X129265700Y-125390475D02*
X129222842Y-125428571D01*
X121159580Y-116567857D02*
X121207200Y-116615476D01*
X121207200Y-116615476D02*
X121254819Y-116758333D01*
X121254819Y-116758333D02*
X121254819Y-116853571D01*
X121254819Y-116853571D02*
X121207200Y-116996428D01*
X121207200Y-116996428D02*
X121111961Y-117091666D01*
X121111961Y-117091666D02*
X121016723Y-117139285D01*
X121016723Y-117139285D02*
X120826247Y-117186904D01*
X120826247Y-117186904D02*
X120683390Y-117186904D01*
X120683390Y-117186904D02*
X120492914Y-117139285D01*
X120492914Y-117139285D02*
X120397676Y-117091666D01*
X120397676Y-117091666D02*
X120302438Y-116996428D01*
X120302438Y-116996428D02*
X120254819Y-116853571D01*
X120254819Y-116853571D02*
X120254819Y-116758333D01*
X120254819Y-116758333D02*
X120302438Y-116615476D01*
X120302438Y-116615476D02*
X120350057Y-116567857D01*
X121254819Y-115615476D02*
X121254819Y-116186904D01*
X121254819Y-115901190D02*
X120254819Y-115901190D01*
X120254819Y-115901190D02*
X120397676Y-115996428D01*
X120397676Y-115996428D02*
X120492914Y-116091666D01*
X120492914Y-116091666D02*
X120540533Y-116186904D01*
X120254819Y-115282142D02*
X120254819Y-114663095D01*
X120254819Y-114663095D02*
X120635771Y-114996428D01*
X120635771Y-114996428D02*
X120635771Y-114853571D01*
X120635771Y-114853571D02*
X120683390Y-114758333D01*
X120683390Y-114758333D02*
X120731009Y-114710714D01*
X120731009Y-114710714D02*
X120826247Y-114663095D01*
X120826247Y-114663095D02*
X121064342Y-114663095D01*
X121064342Y-114663095D02*
X121159580Y-114710714D01*
X121159580Y-114710714D02*
X121207200Y-114758333D01*
X121207200Y-114758333D02*
X121254819Y-114853571D01*
X121254819Y-114853571D02*
X121254819Y-115139285D01*
X121254819Y-115139285D02*
X121207200Y-115234523D01*
X121207200Y-115234523D02*
X121159580Y-115282142D01*
X122107200Y-99333332D02*
X122154819Y-99190475D01*
X122154819Y-99190475D02*
X122154819Y-98952380D01*
X122154819Y-98952380D02*
X122107200Y-98857142D01*
X122107200Y-98857142D02*
X122059580Y-98809523D01*
X122059580Y-98809523D02*
X121964342Y-98761904D01*
X121964342Y-98761904D02*
X121869104Y-98761904D01*
X121869104Y-98761904D02*
X121773866Y-98809523D01*
X121773866Y-98809523D02*
X121726247Y-98857142D01*
X121726247Y-98857142D02*
X121678628Y-98952380D01*
X121678628Y-98952380D02*
X121631009Y-99142856D01*
X121631009Y-99142856D02*
X121583390Y-99238094D01*
X121583390Y-99238094D02*
X121535771Y-99285713D01*
X121535771Y-99285713D02*
X121440533Y-99333332D01*
X121440533Y-99333332D02*
X121345295Y-99333332D01*
X121345295Y-99333332D02*
X121250057Y-99285713D01*
X121250057Y-99285713D02*
X121202438Y-99238094D01*
X121202438Y-99238094D02*
X121154819Y-99142856D01*
X121154819Y-99142856D02*
X121154819Y-98904761D01*
X121154819Y-98904761D02*
X121202438Y-98761904D01*
X121154819Y-98428570D02*
X122154819Y-98190475D01*
X122154819Y-98190475D02*
X121440533Y-97999999D01*
X121440533Y-97999999D02*
X122154819Y-97809523D01*
X122154819Y-97809523D02*
X121154819Y-97571428D01*
X122154819Y-96666666D02*
X122154819Y-97238094D01*
X122154819Y-96952380D02*
X121154819Y-96952380D01*
X121154819Y-96952380D02*
X121297676Y-97047618D01*
X121297676Y-97047618D02*
X121392914Y-97142856D01*
X121392914Y-97142856D02*
X121440533Y-97238094D01*
X133454819Y-97366666D02*
X132978628Y-97699999D01*
X133454819Y-97938094D02*
X132454819Y-97938094D01*
X132454819Y-97938094D02*
X132454819Y-97557142D01*
X132454819Y-97557142D02*
X132502438Y-97461904D01*
X132502438Y-97461904D02*
X132550057Y-97414285D01*
X132550057Y-97414285D02*
X132645295Y-97366666D01*
X132645295Y-97366666D02*
X132788152Y-97366666D01*
X132788152Y-97366666D02*
X132883390Y-97414285D01*
X132883390Y-97414285D02*
X132931009Y-97461904D01*
X132931009Y-97461904D02*
X132978628Y-97557142D01*
X132978628Y-97557142D02*
X132978628Y-97938094D01*
X133454819Y-96414285D02*
X133454819Y-96985713D01*
X133454819Y-96699999D02*
X132454819Y-96699999D01*
X132454819Y-96699999D02*
X132597676Y-96795237D01*
X132597676Y-96795237D02*
X132692914Y-96890475D01*
X132692914Y-96890475D02*
X132740533Y-96985713D01*
X124423809Y-116878628D02*
X124423809Y-117354819D01*
X124090476Y-116354819D02*
X124423809Y-116878628D01*
X124423809Y-116878628D02*
X124757142Y-116354819D01*
X125614285Y-117354819D02*
X125042857Y-117354819D01*
X125328571Y-117354819D02*
X125328571Y-116354819D01*
X125328571Y-116354819D02*
X125233333Y-116497676D01*
X125233333Y-116497676D02*
X125138095Y-116592914D01*
X125138095Y-116592914D02*
X125042857Y-116640533D01*
X131159580Y-124766666D02*
X131207200Y-124814285D01*
X131207200Y-124814285D02*
X131254819Y-124957142D01*
X131254819Y-124957142D02*
X131254819Y-125052380D01*
X131254819Y-125052380D02*
X131207200Y-125195237D01*
X131207200Y-125195237D02*
X131111961Y-125290475D01*
X131111961Y-125290475D02*
X131016723Y-125338094D01*
X131016723Y-125338094D02*
X130826247Y-125385713D01*
X130826247Y-125385713D02*
X130683390Y-125385713D01*
X130683390Y-125385713D02*
X130492914Y-125338094D01*
X130492914Y-125338094D02*
X130397676Y-125290475D01*
X130397676Y-125290475D02*
X130302438Y-125195237D01*
X130302438Y-125195237D02*
X130254819Y-125052380D01*
X130254819Y-125052380D02*
X130254819Y-124957142D01*
X130254819Y-124957142D02*
X130302438Y-124814285D01*
X130302438Y-124814285D02*
X130350057Y-124766666D01*
X130254819Y-124433332D02*
X130254819Y-123814285D01*
X130254819Y-123814285D02*
X130635771Y-124147618D01*
X130635771Y-124147618D02*
X130635771Y-124004761D01*
X130635771Y-124004761D02*
X130683390Y-123909523D01*
X130683390Y-123909523D02*
X130731009Y-123861904D01*
X130731009Y-123861904D02*
X130826247Y-123814285D01*
X130826247Y-123814285D02*
X131064342Y-123814285D01*
X131064342Y-123814285D02*
X131159580Y-123861904D01*
X131159580Y-123861904D02*
X131207200Y-123909523D01*
X131207200Y-123909523D02*
X131254819Y-124004761D01*
X131254819Y-124004761D02*
X131254819Y-124290475D01*
X131254819Y-124290475D02*
X131207200Y-124385713D01*
X131207200Y-124385713D02*
X131159580Y-124433332D01*
X126262295Y-129514285D02*
X125881342Y-129780952D01*
X126262295Y-129971428D02*
X125462295Y-129971428D01*
X125462295Y-129971428D02*
X125462295Y-129666666D01*
X125462295Y-129666666D02*
X125500390Y-129590476D01*
X125500390Y-129590476D02*
X125538485Y-129552381D01*
X125538485Y-129552381D02*
X125614676Y-129514285D01*
X125614676Y-129514285D02*
X125728961Y-129514285D01*
X125728961Y-129514285D02*
X125805152Y-129552381D01*
X125805152Y-129552381D02*
X125843247Y-129590476D01*
X125843247Y-129590476D02*
X125881342Y-129666666D01*
X125881342Y-129666666D02*
X125881342Y-129971428D01*
X126262295Y-128752381D02*
X126262295Y-129209524D01*
X126262295Y-128980952D02*
X125462295Y-128980952D01*
X125462295Y-128980952D02*
X125576580Y-129057143D01*
X125576580Y-129057143D02*
X125652771Y-129133333D01*
X125652771Y-129133333D02*
X125690866Y-129209524D01*
X125462295Y-128257142D02*
X125462295Y-128180952D01*
X125462295Y-128180952D02*
X125500390Y-128104761D01*
X125500390Y-128104761D02*
X125538485Y-128066666D01*
X125538485Y-128066666D02*
X125614676Y-128028571D01*
X125614676Y-128028571D02*
X125767057Y-127990476D01*
X125767057Y-127990476D02*
X125957533Y-127990476D01*
X125957533Y-127990476D02*
X126109914Y-128028571D01*
X126109914Y-128028571D02*
X126186104Y-128066666D01*
X126186104Y-128066666D02*
X126224200Y-128104761D01*
X126224200Y-128104761D02*
X126262295Y-128180952D01*
X126262295Y-128180952D02*
X126262295Y-128257142D01*
X126262295Y-128257142D02*
X126224200Y-128333333D01*
X126224200Y-128333333D02*
X126186104Y-128371428D01*
X126186104Y-128371428D02*
X126109914Y-128409523D01*
X126109914Y-128409523D02*
X125957533Y-128447619D01*
X125957533Y-128447619D02*
X125767057Y-128447619D01*
X125767057Y-128447619D02*
X125614676Y-128409523D01*
X125614676Y-128409523D02*
X125538485Y-128371428D01*
X125538485Y-128371428D02*
X125500390Y-128333333D01*
X125500390Y-128333333D02*
X125462295Y-128257142D01*
X147233333Y-109059580D02*
X147185714Y-109107200D01*
X147185714Y-109107200D02*
X147042857Y-109154819D01*
X147042857Y-109154819D02*
X146947619Y-109154819D01*
X146947619Y-109154819D02*
X146804762Y-109107200D01*
X146804762Y-109107200D02*
X146709524Y-109011961D01*
X146709524Y-109011961D02*
X146661905Y-108916723D01*
X146661905Y-108916723D02*
X146614286Y-108726247D01*
X146614286Y-108726247D02*
X146614286Y-108583390D01*
X146614286Y-108583390D02*
X146661905Y-108392914D01*
X146661905Y-108392914D02*
X146709524Y-108297676D01*
X146709524Y-108297676D02*
X146804762Y-108202438D01*
X146804762Y-108202438D02*
X146947619Y-108154819D01*
X146947619Y-108154819D02*
X147042857Y-108154819D01*
X147042857Y-108154819D02*
X147185714Y-108202438D01*
X147185714Y-108202438D02*
X147233333Y-108250057D01*
X148090476Y-108154819D02*
X147900000Y-108154819D01*
X147900000Y-108154819D02*
X147804762Y-108202438D01*
X147804762Y-108202438D02*
X147757143Y-108250057D01*
X147757143Y-108250057D02*
X147661905Y-108392914D01*
X147661905Y-108392914D02*
X147614286Y-108583390D01*
X147614286Y-108583390D02*
X147614286Y-108964342D01*
X147614286Y-108964342D02*
X147661905Y-109059580D01*
X147661905Y-109059580D02*
X147709524Y-109107200D01*
X147709524Y-109107200D02*
X147804762Y-109154819D01*
X147804762Y-109154819D02*
X147995238Y-109154819D01*
X147995238Y-109154819D02*
X148090476Y-109107200D01*
X148090476Y-109107200D02*
X148138095Y-109059580D01*
X148138095Y-109059580D02*
X148185714Y-108964342D01*
X148185714Y-108964342D02*
X148185714Y-108726247D01*
X148185714Y-108726247D02*
X148138095Y-108631009D01*
X148138095Y-108631009D02*
X148090476Y-108583390D01*
X148090476Y-108583390D02*
X147995238Y-108535771D01*
X147995238Y-108535771D02*
X147804762Y-108535771D01*
X147804762Y-108535771D02*
X147709524Y-108583390D01*
X147709524Y-108583390D02*
X147661905Y-108631009D01*
X147661905Y-108631009D02*
X147614286Y-108726247D01*
D13*
%TO.C,R5*%
X120977500Y-128775242D02*
X120977500Y-129249758D01*
X122022500Y-128775242D02*
X122022500Y-129249758D01*
%TO.C,C7*%
X127940580Y-107690000D02*
X127659420Y-107690000D01*
X127940580Y-108710000D02*
X127659420Y-108710000D01*
%TO.C,C11*%
X119490000Y-120859420D02*
X119490000Y-121140580D01*
X120510000Y-120859420D02*
X120510000Y-121140580D01*
%TO.C,R2*%
X133877500Y-102762742D02*
X133877500Y-103237258D01*
X134922500Y-102762742D02*
X134922500Y-103237258D01*
%TO.C,R4*%
X127153641Y-115120000D02*
X126846359Y-115120000D01*
X127153641Y-115880000D02*
X126846359Y-115880000D01*
%TO.C,U5*%
X129840000Y-110890000D02*
X129840000Y-111840000D01*
X129840000Y-121110000D02*
X129840000Y-120160000D01*
X130790000Y-110890000D02*
X129840000Y-110890000D01*
X130790000Y-121110000D02*
X129840000Y-121110000D01*
X139110000Y-110890000D02*
X140060000Y-110890000D01*
X139110000Y-121110000D02*
X140060000Y-121110000D01*
X140060000Y-110890000D02*
X140060000Y-111840000D01*
X140060000Y-121110000D02*
X140060000Y-120160000D01*
X129225000Y-111840000D02*
X128885000Y-111370000D01*
X129565000Y-111370000D01*
X129225000Y-111840000D01*
G36*
X129225000Y-111840000D02*
G01*
X128885000Y-111370000D01*
X129565000Y-111370000D01*
X129225000Y-111840000D01*
G37*
%TO.C,D1*%
X120765000Y-124912500D02*
X120765000Y-127197500D01*
X120765000Y-127197500D02*
X122235000Y-127197500D01*
X122235000Y-127197500D02*
X122235000Y-124912500D01*
%TO.C,R3*%
X126953641Y-101620000D02*
X126646359Y-101620000D01*
X126953641Y-102380000D02*
X126646359Y-102380000D01*
%TO.C,R16*%
X142177500Y-134387742D02*
X142177500Y-134862258D01*
X143222500Y-134387742D02*
X143222500Y-134862258D01*
%TO.C,F1*%
X149340000Y-128797936D02*
X149340000Y-130002064D01*
X151160000Y-128797936D02*
X151160000Y-130002064D01*
%TO.C,D2*%
X149200000Y-126560000D02*
X149200000Y-122550000D01*
X149200000Y-126560000D02*
X151200000Y-126560000D01*
X151200000Y-126560000D02*
X151200000Y-122550000D01*
%TO.C,R11*%
X129877500Y-93137258D02*
X129877500Y-92662742D01*
X130922500Y-93137258D02*
X130922500Y-92662742D01*
%TO.C,U2*%
X136665000Y-103200000D02*
X136665000Y-102600000D01*
X136665000Y-103200000D02*
X136665000Y-103800000D01*
X138535000Y-103200000D02*
X138535000Y-102600000D01*
X138535000Y-103200000D02*
X138535000Y-103800000D01*
X137340000Y-104840000D02*
X136860000Y-104840000D01*
X137100000Y-104510000D01*
X137340000Y-104840000D01*
G36*
X137340000Y-104840000D02*
G01*
X136860000Y-104840000D01*
X137100000Y-104510000D01*
X137340000Y-104840000D01*
G37*
%TO.C,SW2*%
X153050000Y-99620000D02*
X159350000Y-99620000D01*
X153050000Y-99870000D02*
X153050000Y-99620000D01*
X153050000Y-104370000D02*
X153050000Y-101770000D01*
X153050000Y-106520000D02*
X153050000Y-106270000D01*
X159350000Y-99620000D02*
X159350000Y-99870000D01*
X159350000Y-101770000D02*
X159350000Y-104370000D01*
X159350000Y-106270000D02*
X159350000Y-106520000D01*
X159350000Y-106520000D02*
X153050000Y-106520000D01*
%TO.C,R12*%
X133877500Y-93237258D02*
X133877500Y-92762742D01*
X134922500Y-93237258D02*
X134922500Y-92762742D01*
%TO.C,J4*%
X133215000Y-139140000D02*
X133215000Y-144860000D01*
X133215000Y-144860000D02*
X136700000Y-144860000D01*
X134285000Y-139140000D02*
X133215000Y-139140000D01*
X134285000Y-139440000D02*
X134285000Y-139140000D01*
X134575000Y-138850000D02*
X134075000Y-138850000D01*
X134575000Y-139150000D02*
X134575000Y-138850000D01*
X136700000Y-139440000D02*
X134285000Y-139440000D01*
X136700000Y-139440000D02*
X139115000Y-139440000D01*
X139115000Y-139140000D02*
X140185000Y-139140000D01*
X139115000Y-139440000D02*
X139115000Y-139140000D01*
X140185000Y-139140000D02*
X140185000Y-144860000D01*
X140185000Y-144860000D02*
X136700000Y-144860000D01*
%TO.C,C14*%
X165490000Y-103329420D02*
X165490000Y-103610580D01*
X166510000Y-103329420D02*
X166510000Y-103610580D01*
%TO.C,R13*%
X126777500Y-128762742D02*
X126777500Y-129237258D01*
X127822500Y-128762742D02*
X127822500Y-129237258D01*
%TO.C,R15*%
X139277500Y-134387742D02*
X139277500Y-134862258D01*
X140322500Y-134387742D02*
X140322500Y-134862258D01*
%TO.C,C17*%
X137190000Y-124459420D02*
X137190000Y-124740580D01*
X138210000Y-124459420D02*
X138210000Y-124740580D01*
%TO.C,U3*%
X159100000Y-127990000D02*
X162860000Y-127990000D01*
X159100000Y-134810000D02*
X162860000Y-134810000D01*
X162860000Y-127990000D02*
X162860000Y-129250000D01*
X162860000Y-134810000D02*
X162860000Y-133550000D01*
X157820000Y-128090000D02*
X157580000Y-127760000D01*
X158060000Y-127760000D01*
X157820000Y-128090000D01*
G36*
X157820000Y-128090000D02*
G01*
X157580000Y-127760000D01*
X158060000Y-127760000D01*
X157820000Y-128090000D01*
G37*
%TO.C,R6*%
X149837258Y-96147500D02*
X149362742Y-96147500D01*
X149837258Y-97192500D02*
X149362742Y-97192500D01*
%TO.C,R7*%
X149812258Y-93647500D02*
X149337742Y-93647500D01*
X149812258Y-94692500D02*
X149337742Y-94692500D01*
%TO.C,D4*%
X162265000Y-123515000D02*
X162265000Y-125800000D01*
X163735000Y-123515000D02*
X162265000Y-123515000D01*
X163735000Y-125800000D02*
X163735000Y-123515000D01*
%TO.C,C10*%
X122590000Y-120859420D02*
X122590000Y-121140580D01*
X123610000Y-120859420D02*
X123610000Y-121140580D01*
%TO.C,U4*%
X153200000Y-112440000D02*
X152400000Y-112440000D01*
X153200000Y-112440000D02*
X154000000Y-112440000D01*
X153200000Y-115560000D02*
X152400000Y-115560000D01*
X153200000Y-115560000D02*
X154000000Y-115560000D01*
X154740000Y-115840000D02*
X154260000Y-115840000D01*
X154500000Y-115510000D01*
X154740000Y-115840000D01*
G36*
X154740000Y-115840000D02*
G01*
X154260000Y-115840000D01*
X154500000Y-115510000D01*
X154740000Y-115840000D01*
G37*
%TO.C,R8*%
X149812258Y-91047500D02*
X149337742Y-91047500D01*
X149812258Y-92092500D02*
X149337742Y-92092500D01*
%TO.C,J2*%
X163500000Y-109100000D02*
X167050000Y-109100000D01*
X163500000Y-111250000D02*
X163500000Y-109100000D01*
X163500000Y-114950000D02*
X163500000Y-114350000D01*
X163500000Y-115250000D02*
X163500000Y-117400000D01*
X163500000Y-117400000D02*
X167050000Y-117400000D01*
X164250000Y-114950000D02*
X163500000Y-114950000D01*
X167050000Y-109100000D02*
X167050000Y-112000000D01*
X167050000Y-117400000D02*
X167050000Y-114500000D01*
%TO.C,C12*%
X139690000Y-101259420D02*
X139690000Y-101540580D01*
X140710000Y-101259420D02*
X140710000Y-101540580D01*
%TO.C,C15*%
X156690000Y-137488748D02*
X156690000Y-138911252D01*
X158510000Y-137488748D02*
X158510000Y-138911252D01*
%TO.C,J3*%
X128415000Y-83440000D02*
X131900000Y-83440000D01*
X128415000Y-89160000D02*
X128415000Y-83440000D01*
X129485000Y-88860000D02*
X129485000Y-89160000D01*
X129485000Y-89160000D02*
X128415000Y-89160000D01*
X131900000Y-88860000D02*
X129485000Y-88860000D01*
X131900000Y-88860000D02*
X134315000Y-88860000D01*
X134025000Y-89150000D02*
X134025000Y-89450000D01*
X134025000Y-89450000D02*
X134525000Y-89450000D01*
X134315000Y-88860000D02*
X134315000Y-89160000D01*
X134315000Y-89160000D02*
X135385000Y-89160000D01*
X135385000Y-83440000D02*
X131900000Y-83440000D01*
X135385000Y-89160000D02*
X135385000Y-83440000D01*
%TO.C,FB1*%
X149840000Y-133400378D02*
X149840000Y-134199622D01*
X150960000Y-133400378D02*
X150960000Y-134199622D01*
%TO.C,J1*%
X154435000Y-90500000D02*
X154435000Y-90435000D01*
X154435000Y-96905000D02*
X154435000Y-96840000D01*
X157965000Y-90435000D02*
X154435000Y-90435000D01*
X157965000Y-90500000D02*
X157965000Y-90435000D01*
X157965000Y-96905000D02*
X154435000Y-96905000D01*
X157965000Y-96905000D02*
X157965000Y-96840000D01*
X159290000Y-96840000D02*
X157965000Y-96840000D01*
%TO.C,C8*%
X127940580Y-109590000D02*
X127659420Y-109590000D01*
X127940580Y-110610000D02*
X127659420Y-110610000D01*
%TO.C,C16*%
X157890000Y-123711252D02*
X157890000Y-122288748D01*
X159710000Y-123711252D02*
X159710000Y-122288748D01*
%TO.C,R14*%
X162477500Y-121637258D02*
X162477500Y-121162742D01*
X163522500Y-121637258D02*
X163522500Y-121162742D01*
%TO.C,C5*%
X139790000Y-124459420D02*
X139790000Y-124740580D01*
X140810000Y-124459420D02*
X140810000Y-124740580D01*
%TO.C,C9*%
X118790000Y-112059420D02*
X118790000Y-112340580D01*
X119810000Y-112059420D02*
X119810000Y-112340580D01*
%TO.C,D3*%
X123665000Y-124900000D02*
X123665000Y-127185000D01*
X123665000Y-127185000D02*
X125135000Y-127185000D01*
X125135000Y-127185000D02*
X125135000Y-124900000D01*
%TO.C,C1*%
X126940580Y-104690000D02*
X126659420Y-104690000D01*
X126940580Y-105710000D02*
X126659420Y-105710000D01*
%TO.C,R9*%
X149662258Y-88677500D02*
X149187742Y-88677500D01*
X149662258Y-89722500D02*
X149187742Y-89722500D01*
%TO.C,D5*%
X126565000Y-124800000D02*
X126565000Y-127085000D01*
X126565000Y-127085000D02*
X128035000Y-127085000D01*
X128035000Y-127085000D02*
X128035000Y-124800000D01*
%TO.C,C13*%
X118790000Y-116065580D02*
X118790000Y-115784420D01*
X119810000Y-116065580D02*
X119810000Y-115784420D01*
%TO.C,SW1*%
X115270000Y-96800000D02*
X115270000Y-97700000D01*
X115480000Y-96600000D02*
X115270000Y-96800000D01*
X115480000Y-97900000D02*
X115270000Y-97700000D01*
X115480000Y-97900000D02*
X116770000Y-97900000D01*
X116770000Y-95150000D02*
X116770000Y-100850000D01*
X116770000Y-96600000D02*
X115480000Y-96600000D01*
X117780000Y-101450000D02*
X118570000Y-101450000D01*
X118570000Y-94550000D02*
X117780000Y-94550000D01*
X119620000Y-96400000D02*
X119620000Y-98100000D01*
X119620000Y-99400000D02*
X119620000Y-99600000D01*
%TO.C,R1*%
X133877500Y-98237258D02*
X133877500Y-97762742D01*
X134922500Y-98237258D02*
X134922500Y-97762742D01*
%TO.C,Y1*%
X122050000Y-112000000D02*
X122050000Y-116000000D01*
X125350000Y-112000000D02*
X122050000Y-112000000D01*
%TO.C,C3*%
X131690000Y-124459420D02*
X131690000Y-124740580D01*
X132710000Y-124459420D02*
X132710000Y-124740580D01*
%TO.C,R10*%
X123877500Y-128762742D02*
X123877500Y-129237258D01*
X124922500Y-128762742D02*
X124922500Y-129237258D01*
%TO.C,C6*%
X144009420Y-108240000D02*
X144290580Y-108240000D01*
X144009420Y-109260000D02*
X144290580Y-109260000D01*
%TD*%
M02*
